<svg xmlns="http://www.w3.org/2000/svg" viewBox="0 0 50 50"><defs><style>.cls-1{fill:none;}.cls-2{fill:#74c009;}.cls-3{fill:#0d990b;}</style></defs><g id="Layer_2" data-name="Layer 2"><g id="Layer_1-2" data-name="Layer 1"><rect class="cls-1" width="50" height="50"/><path class="cls-2" d="M30,9.61C30,4.3,23.28,0,15,0S0,4.3,0,9.61s6.71,9.61,15,9.61a22.57,22.57,0,0,0,4.1-.37.61.61,0,0,1,.3,0l6,2.4a.57.57,0,0,0,.73-.75l-1.33-3.08a.55.55,0,0,1,.24-.71C28.07,15,30,12.44,30,9.61Z"/><ellipse class="cls-3" cx="36.22" cy="33.66" rx="13.78" ry="9.64"/><ellipse class="cls-3" cx="27.8" cy="40.19" rx="4.44" ry="3.1"/><ellipse class="cls-3" cx="25.35" cy="46.83" rx="2.7" ry="1.89"/><ellipse class="cls-3" cx="18.59" cy="48.65" rx="1.93" ry="1.35"/></g></g></svg>