<svg xmlns="http://www.w3.org/2000/svg" viewBox="0 0 202.83 64.66"><defs><style>.cls-1{fill:none;}.cls-2{fill:#036;}.cls-3{fill:#82cff2;}.cls-4{fill:#e1e92d;}.cls-5{fill:#3599bc;}.cls-6{fill:#add115;}.cls-7{fill:#002035;}</style></defs><g id="Layer_2" data-name="Layer 2"><g id="Layer_1-2" data-name="Layer 1"><polygon class="cls-1" points="146.68 10.72 143.68 21.15 149.55 21.15 146.68 10.72"/><path class="cls-1" d="M99.15,50a3.32,3.32,0,0,0-1.07-.83,3,3,0,0,0-1.34-.3,3,3,0,0,0-.9.16,3.13,3.13,0,0,0-.86.47,3.62,3.62,0,0,0-.71.7,3,3,0,0,0-.48.87v3.08A4.47,4.47,0,0,0,95.07,56a2.8,2.8,0,0,0,1.86.74,2.58,2.58,0,0,0,1.29-.33,3.12,3.12,0,0,0,1-.87,4.06,4.06,0,0,0,.65-1.28,4.71,4.71,0,0,0,.24-1.5,4.57,4.57,0,0,0-.26-1.54A3.93,3.93,0,0,0,99.15,50Z"/><path class="cls-1" d="M46.18,53.09a3.17,3.17,0,0,0-2,.58,1.82,1.82,0,0,0-.77,1.49A1.85,1.85,0,0,0,44,56.57a2.09,2.09,0,0,0,1.49.57,3.86,3.86,0,0,0,1.5-.3,2.73,2.73,0,0,0,1.1-.8,1.24,1.24,0,0,0,.51-.95v-1.5a7.82,7.82,0,0,0-1.21-.37A6.11,6.11,0,0,0,46.18,53.09Z"/><path class="cls-1" d="M85.08,21.74c-.74-.22-1.63-.43-2.61-.65a8.43,8.43,0,0,0,1.36,2.41,6.9,6.9,0,0,0,2.35,1.8,7,7,0,0,0,3,.64,8.26,8.26,0,0,0,4.4-1.25c-1.69-.66-3.39-1.29-5.1-1.86-1.06-.35-2.12-.69-3.19-1Z"/><path class="cls-2" d="M103.25,25.62l.5.22V16H90.46v3.75c3.18,1.51,6.35,3,9.54,4.45C101.08,24.67,102.16,25.15,103.25,25.62Z"/><path class="cls-2" d="M93.63,24.69a8.26,8.26,0,0,1-4.4,1.25,7,7,0,0,1-3-.64,6.9,6.9,0,0,1-2.35-1.8,8.43,8.43,0,0,1-1.36-2.41,3.17,3.17,0,0,1-.16-.37c-.06-.15-.09-.31-.14-.47a11.4,11.4,0,0,1-.41-3.13q0-.42,0-.81a5.54,5.54,0,0,1,.06-.6,10.07,10.07,0,0,1,.46-2.17,8.83,8.83,0,0,1,1.5-2.82,6.77,6.77,0,0,1,2.28-1.85A6.42,6.42,0,0,1,89,8.2a7.48,7.48,0,0,1,4,1.21,7.69,7.69,0,0,1,2.87,3.2l6.6-5.26a11.79,11.79,0,0,0-2.23-3.06A14.92,14.92,0,0,0,97.22,2,14.51,14.51,0,0,0,93.51.5,17.48,17.48,0,0,0,89.32,0a16.3,16.3,0,0,0-16,12.23c-.06.22-.11.44-.16.66a17.72,17.72,0,0,0-.43,3.9V17a23.76,23.76,0,0,0,.18,2.6h0A18,18,0,0,0,74,24.14a16.57,16.57,0,0,0,3.41,5.45,14.26,14.26,0,0,0,5,3.39,15.81,15.81,0,0,0,6,1.17,11.75,11.75,0,0,0,8-3v2.8h7.33V29.13c-1.64-.78-3.28-1.55-4.94-2.28S95.37,25.37,93.63,24.69Z"/><path class="cls-2" d="M107.07,33.91h6.12c-2-1.07-4.07-2.12-6.12-3.14Z"/><path class="cls-2" d="M130.11,33.91V25.85H116V20.53H127.7V13H116V8.3H129.7V.24H107.07v27a146.9,146.9,0,0,0,19.45,6.67Z"/><path class="cls-2" d="M142.36,27.32H151l2,6.59h9L150.73.24h-8.1L131.39,33.91h9.05Zm4.32-16.6,2.87,10.43h-5.87Z"/><path class="cls-2" d="M192.48.24H183.6V17.36L170.63.24h-6.92V33.91h8.88V17.36l10.53,13.58a56.68,56.68,0,0,0,9.36-5.77Z"/><path class="cls-3" d="M85.75,21.88a.76.76,0,0,0,.09.09l-.5-.15c1.07.32,2.13.66,3.19,1l-.33-.16-2.69-1.1h0A2.37,2.37,0,0,0,85.75,21.88Z"/><path class="cls-3" d="M43.48,19.36l-.64.11Z"/><path class="cls-3" d="M17.3,28.66h0Z"/><path class="cls-3" d="M45.43,15.71c-.57.08-1.13.18-1.69.27l1.06,3.16c.52-.08,1-.15,1.55-.21V15.6Z"/><path class="cls-3" d="M15.55,28.93l0,0C12.05,31.65,8.81,34.29,5.31,37c-.85.66-1.56,1.28-2.16,1.85,4-2.93,11-8.1,14.06-10.17-.58.39-1.28.88-2.08,1.44Z"/><path class="cls-3" d="M69.64,19.23c1.1.11,2.2.23,3.29.36h0Z"/><path class="cls-3" d="M42.3,19.57h0Z"/><path class="cls-3" d="M105.37,26.66c2,.9,4,1.85,6,2.72,4,1.76,8,3.72,12.06,5.27,2.11.83,4.24,1.6,6.39,2.33,2.61.84,5.22,1.63,7.83,2.34,1,.28,2,.57,3.08.8l.39.09a73.6,73.6,0,0,0,7.36,1.3,63.28,63.28,0,0,0,12.91.24,48.05,48.05,0,0,0,6.37-.85c1-.26,2.08-.47,3.1-.81s2-.66,3-1a51.76,51.76,0,0,0,11.26-6.25c1.76-1.26,3.46-2.61,5.16-4s3.2-2.78,4.87-4.2c6.44-6.05,7.53-7.28,7.56-7.69-.35-.24-1.78,1.69-4.68,4-1.78,1.41-3.63,2.83-5.37,4.12l-.17.12a56.68,56.68,0,0,1-9.36,5.77c-.7.34-1.4.69-2.11,1a65.1,65.1,0,0,1-12.69,3.93,70.65,70.65,0,0,1-13.14,1.62,103.48,103.48,0,0,1-27.6-3.29l-1.06-.28a146.9,146.9,0,0,1-19.45-6.67c-1.11-.46-2.22-.92-3.32-1.4l-.5-.22C104,26,104.65,26.33,105.37,26.66Z"/><path class="cls-4" d="M42.1,11.05,43.74,16v0c.56-.09,1.12-.19,1.69-.27l.92-.11h0V10.44C44.92,10.6,43.51,10.81,42.1,11.05Z"/><path class="cls-4" d="M15.52,29l0,0h0l2.75-8.23h0c-1.3,1-2.57,2-3.73,3.1a79.7,79.7,0,0,0-9.33,9.49C3.17,35.69.5,39.81.15,41c.1,0,1.28-.86,3-2.11.6-.57,1.31-1.19,2.16-1.85C8.81,34.29,12.05,31.65,15.52,29Z"/><path class="cls-4" d="M202.78,17.07h0a.39.39,0,0,1-.05.23c-.38.86-2.55,3.21-7.12,7.67-1.57,1.52-3.1,3.09-4.71,4.58s-3.27,2.94-5,4.27a48.13,48.13,0,0,1-11.39,6.78,41,41,0,0,1-6.38,2,43.87,43.87,0,0,1-6.62.9,64.45,64.45,0,0,1-13.24-.35,78.39,78.39,0,0,1-12.88-3c-4.2-1.31-8.3-2.87-12.34-4.56s-8-3.52-12-5.39c-2-.93-3.93-1.93-5.89-2.89s-4-1.88-5.92-2.83L87.4,18.86l-3.13-1.45a8.35,8.35,0,0,0,.41,2.51,5.67,5.67,0,0,0,.83,1.65l2.69,1.1.33.16c1.71.57,3.41,1.2,5.1,1.86s3.47,1.4,5.18,2.16,3.3,1.5,4.94,2.28c1.11.54,2.22,1.08,3.32,1.64,2.05,1,4.08,2.07,6.12,3.14,4,2.1,8,4.25,12.14,6.33a105.3,105.3,0,0,0,14.12,6,56.78,56.78,0,0,0,15.63,3,49.47,49.47,0,0,0,8.15-.35,57.26,57.26,0,0,0,7.88-1.6,50.09,50.09,0,0,0,14.77-6.58,42.08,42.08,0,0,0,11.43-11.25,43.54,43.54,0,0,0,3.61-6.19C201.61,21.77,203.11,18.63,202.78,17.07Z"/><path class="cls-4" d="M137.61,39.32c-2.61-.71-5.22-1.5-7.83-2.34,2,.67,4,1.29,6,1.87q2.64.76,5.33,1.36l-.39-.09C139.66,39.89,138.64,39.6,137.61,39.32Z"/><path class="cls-2" d="M14.57,23.79c1.16-1.05,2.43-2.1,3.73-3.1l1-2.87c1.12-.9,2.29-1.73,3.47-2.51v0a46.55,46.55,0,0,0-6.67,5.35A94.3,94.3,0,0,0,4.42,33.55C.15,39.11-.34,41.08.15,41c.35-1.19,3-5.31,5.09-7.72A79.7,79.7,0,0,1,14.57,23.79Z"/><path class="cls-2" d="M40.16,8.58h0l-1.43.25v0C39.21,8.76,39.68,8.66,40.16,8.58Z"/><path class="cls-2" d="M58.52,8.3A66.41,66.41,0,0,1,72.64,12l.51.19L72.63,12A66.25,66.25,0,0,0,58.51,8.3h0Z"/><path class="cls-2" d="M42.1,11.05c1.41-.24,2.82-.45,4.25-.61h0V7.89c-1.66.11-3.36.29-5.12.54L42.1,11Z"/><path class="cls-2" d="M82.56,16l1.38.64Z"/><path class="cls-2" d="M48.84,7.77c-.77,0-1.55.05-2.35.11.8-.06,1.58-.08,2.35-.11Z"/><path class="cls-2" d="M84.27,17.4h0l3.13,1.45L99.23,24.5c2,.95,4,1.86,5.92,2.83s3.91,2,5.89,2.89c3.95,1.87,7.92,3.72,12,5.39s8.14,3.25,12.34,4.56a78.39,78.39,0,0,0,12.88,3,64.45,64.45,0,0,0,13.24.35,43.87,43.87,0,0,0,6.62-.9,41,41,0,0,0,6.38-2,48.13,48.13,0,0,0,11.39-6.78c1.76-1.33,3.42-2.78,5-4.27S194,26.48,195.6,25c4.57-4.46,6.74-6.81,7.12-7.67a.39.39,0,0,0,.05-.23.2.2,0,0,0-.07-.12c0,.41-1.12,1.64-7.56,7.69-1.67,1.42-3.18,2.82-4.87,4.2s-3.4,2.72-5.16,4a51.76,51.76,0,0,1-11.26,6.25c-1,.37-2,.75-3,1s-2.07.55-3.1.81a48.05,48.05,0,0,1-6.37.85,63.28,63.28,0,0,1-12.91-.24,73.6,73.6,0,0,1-7.36-1.3q-2.69-.6-5.33-1.36c-2-.58-4-1.2-6-1.87-2.15-.73-4.28-1.5-6.39-2.33-4.07-1.55-8.07-3.51-12.06-5.27-2-.87-4-1.82-6-2.72-.72-.33-1.42-.69-2.12-1-1.09-.47-2.17-.95-3.25-1.44-3.19-1.43-6.36-2.94-9.54-4.45l-3.91-1.85c-.75-.36-1.52-.71-2.28-1.06a2.91,2.91,0,0,0,0,.3A2.53,2.53,0,0,0,84.27,17.4Z"/><path class="cls-5" d="M85.34,21.82l.5.15a.76.76,0,0,1-.09-.09,2.37,2.37,0,0,1-.23-.3l-.34-.14-2-.8-1-.39c0,.16.08.32.14.47a3.17,3.17,0,0,0,.16.37c1,.22,1.87.43,2.61.65Z"/><path class="cls-5" d="M48.84,15.31l-1,.11-1.48.17h0v3.33h0q1.24-.15,2.49-.24Z"/><path class="cls-5" d="M72.75,17c-1.09-.31-2.19-.6-3.28-.85v3.08l.17,0,3.29.35A23.76,23.76,0,0,1,72.75,17Z"/><path class="cls-6" d="M63.1,10.6c-1.76-.24-3.57-.39-5.38-.49V13H69.47v3.09c1.09.25,2.19.54,3.28.85v-.19a17.72,17.72,0,0,1,.43-3.9A54.75,54.75,0,0,0,63.1,10.6Z"/><path class="cls-6" d="M46.35,10.43h0v5.15l1.48-.17,1-.11v-5.1C48,10.27,47.18,10.35,46.35,10.43Z"/><path class="cls-6" d="M81.79,16.31q0,.39,0,.81a11.4,11.4,0,0,0,.41,3.13l1,.39,2,.8.34.14h0a5.67,5.67,0,0,1-.83-1.65,8.35,8.35,0,0,1-.41-2.51h0Z"/><path class="cls-7" d="M48.84,10.21V7.77c-.77,0-1.55.05-2.35.11h-.14v2.54C47.18,10.35,48,10.27,48.84,10.21Z"/><path class="cls-7" d="M58.52,8.3h-.8v1.81c1.81.1,3.62.25,5.38.49a54.75,54.75,0,0,1,10.08,2.29c0-.22.1-.44.16-.66l-.19-.07L72.64,12A66.41,66.41,0,0,0,58.52,8.3Z"/><path class="cls-7" d="M81.79,16.31l2.48,1.09a2.53,2.53,0,0,1,0-.28,2.91,2.91,0,0,1,0-.3h0l-.33-.14L82.56,16l-.71-.32A5.54,5.54,0,0,0,81.79,16.31Z"/><path class="cls-5" d="M19.08,26.24c-1,.71-2.11,1.58-3.53,2.68h0l-.42,1.23c.8-.56,1.5-1.05,2.08-1.44l.08,0h0l.53-.35.7-.43Z"/><path class="cls-5" d="M43.74,16l-1.61.28-.88.18,1,3.15h0l.5-.1.64-.11,1.32-.22h0L43.74,16Z"/><path class="cls-5" d="M29.07,20.25l-.26.9h5.88l-.78-2.82A49.2,49.2,0,0,0,29.07,20.25Z"/><path class="cls-6" d="M18.3,20.69l-2.75,8.23c1.42-1.1,2.55-2,3.53-2.68l2.67-8C20.6,19,19.44,19.82,18.3,20.69Z"/><path class="cls-6" d="M33.91,18.33,32.55,13.4c-.56.18-1.11.37-1.67.57l-1.81,6.28A49.2,49.2,0,0,1,33.91,18.33Z"/><path class="cls-6" d="M42.1,11c-.83.15-1.66.31-2.48.48l1.63,4.91.88-.18L43.74,16,42.1,11.05Z"/><path class="cls-7" d="M32.55,13.4l-.73-2.68L30.88,14C31.44,13.77,32,13.58,32.55,13.4Z"/><path class="cls-7" d="M18.3,20.69h0c1.14-.87,2.3-1.7,3.45-2.43l1-3c-1.18.78-2.35,1.61-3.47,2.51Z"/><path class="cls-7" d="M38.73,8.85l.89,2.66c.82-.17,1.65-.33,2.48-.48l-.87-2.6h0l-1,.15h-.09C39.68,8.66,39.21,8.76,38.73,8.85Z"/><path class="cls-2" d="M41.25,16.42l-1.63-4.91-.89-2.66v0L35.87.24H27.76l-5,15v0l-1,3-2.67,8-.55,1.64-2,6h9.06l1.91-6.59H36.1l1.95,6.59h9L42.3,19.57h0Zm-6.56,4.73H28.81l.26-.9L30.88,14l.94-3.25.73,2.68,1.36,4.93Z"/><polygon class="cls-2" points="69.47 16.13 69.47 13.04 57.72 13.04 57.72 10.11 57.72 8.3 58.48 8.3 58.51 8.3 71.47 8.3 71.47 0.24 48.84 0.24 48.84 7.76 48.84 7.77 48.84 10.21 48.84 15.31 48.84 18.68 48.84 33.91 71.88 33.91 71.88 25.85 57.72 25.85 57.72 20.54 69.47 20.54 69.47 19.21 69.47 16.13"/><path class="cls-2" d="M27.4,53a5.7,5.7,0,0,0-1.46-.8,21,21,0,0,0-2.15-.7c-.45-.12-.83-.23-1.13-.34a3.6,3.6,0,0,1-.73-.34,1.13,1.13,0,0,1-.41-.4,1.2,1.2,0,0,1-.13-.57,1.25,1.25,0,0,1,.54-1.13,2.38,2.38,0,0,1,1.32-.35,4.74,4.74,0,0,1,1.74.35,7.39,7.39,0,0,1,1.8,1.1l1.25-2a6.18,6.18,0,0,0-2.19-1.38A7.74,7.74,0,0,0,23.28,46a5.78,5.78,0,0,0-1.9.3,4.45,4.45,0,0,0-1.52.86,3.79,3.79,0,0,0-1,1.36,4.38,4.38,0,0,0-.36,1.8,3.17,3.17,0,0,0,.23,1.29,2.46,2.46,0,0,0,.74.95,5.27,5.27,0,0,0,1.35.74c.56.21,1.23.44,2,.67a14.39,14.39,0,0,1,2.05.75,1.09,1.09,0,0,1,.63,1A1.23,1.23,0,0,1,25,56.81a2.48,2.48,0,0,1-1.46.38,5.54,5.54,0,0,1-2.11-.44,9.66,9.66,0,0,1-2.17-1.29l-1.16,2.1a7.18,7.18,0,0,0,2.51,1.5,8.86,8.86,0,0,0,3,.53,5.37,5.37,0,0,0,3.6-1.12,3.73,3.73,0,0,0,1.33-3A3.43,3.43,0,0,0,28.24,54,2.82,2.82,0,0,0,27.4,53Z"/><path class="cls-2" d="M37.39,56.31a2.62,2.62,0,0,1-1,.18,1.23,1.23,0,0,1-.83-.29,1.26,1.26,0,0,1-.34-1v-6.4h2.56V46.24H35.27V42H32.16v4.25H30.55v2.57h1.61v7.53a3.82,3.82,0,0,0,.25,1.48,2.63,2.63,0,0,0,.69,1,2.69,2.69,0,0,0,1,.57,4.39,4.39,0,0,0,1.22.17,6.06,6.06,0,0,0,1.91-.3,13.63,13.63,0,0,0,1.53-.6L38.13,56A6.92,6.92,0,0,1,37.39,56.31Z"/><path class="cls-2" d="M51.76,55.49V51.41a5.27,5.27,0,0,0-1.46-4A5.64,5.64,0,0,0,46.22,46a8.51,8.51,0,0,0-5.06,1.68l1,2.12a8.75,8.75,0,0,1,1.9-1.1,5.07,5.07,0,0,1,1.91-.37A2.42,2.42,0,0,1,48.64,51v.75a5.74,5.74,0,0,0-1.38-.43,8.4,8.4,0,0,0-1.59-.15,7,7,0,0,0-2.1.31,5.23,5.23,0,0,0-1.64.87,3.8,3.8,0,0,0-1.45,3,4.41,4.41,0,0,0,.31,1.65,4,4,0,0,0,.88,1.31,3.84,3.84,0,0,0,1.32.87,4.29,4.29,0,0,0,1.65.32,5.32,5.32,0,0,0,2.49-.6,5.59,5.59,0,0,0,2-1.75l.07.72a1.83,1.83,0,0,0,.59,1.13,2,2,0,0,0,1.36.42,6.88,6.88,0,0,0,1.37-.17V56.49a.76.76,0,0,1-.57-.25A1.3,1.3,0,0,1,51.76,55.49Zm-3.12-.4a1.24,1.24,0,0,1-.51.95,2.73,2.73,0,0,1-1.1.8,3.86,3.86,0,0,1-1.5.3A2.09,2.09,0,0,1,44,56.57a1.85,1.85,0,0,1-.61-1.41,1.82,1.82,0,0,1,.77-1.49,3.17,3.17,0,0,1,2-.58,6.11,6.11,0,0,1,1.25.13,7.82,7.82,0,0,1,1.21.37Z"/><path class="cls-2" d="M62.22,46.06a2.69,2.69,0,0,0-1,.21,4.53,4.53,0,0,0-1,.62,6,6,0,0,0-1,.93A6.49,6.49,0,0,0,58.45,49v-2.8H55.59v13.1h3.12V51.41a3.33,3.33,0,0,1,1.6-1.69,5.79,5.79,0,0,1,2.54-.58v-3a1,1,0,0,0-.25,0Z"/><path class="cls-2" d="M71.45,56.31a2.62,2.62,0,0,1-1,.18,1.1,1.1,0,0,1-1.17-1.28v-6.4h2.56V46.24H69.33V42H66.22v4.25H64.61v2.57h1.61v7.53a3.82,3.82,0,0,0,.25,1.48,2.63,2.63,0,0,0,.69,1,2.69,2.69,0,0,0,1,.57,4.39,4.39,0,0,0,1.22.17,6.06,6.06,0,0,0,1.91-.3,13.63,13.63,0,0,0,1.53-.6L72.19,56A6.92,6.92,0,0,1,71.45,56.31Z"/><path class="cls-2" d="M86.65,55.49V46.24H83.54v8.12a4.22,4.22,0,0,1-1.38,1.79,3.07,3.07,0,0,1-1.76.59c-1.35,0-2-1-2-3V46.24H75.26v8.2a6.37,6.37,0,0,0,1,3.85,3.37,3.37,0,0,0,2.86,1.3,5.92,5.92,0,0,0,2.81-.68,5.32,5.32,0,0,0,2.09-2l.07,1a1.66,1.66,0,0,0,.62,1.13,2.1,2.1,0,0,0,1.36.42l.57,0q.31,0,.78-.12V56.49a.76.76,0,0,1-.57-.25A1.21,1.21,0,0,1,86.65,55.49Z"/><path class="cls-2" d="M101.69,48a5.77,5.77,0,0,0-1.81-1.45A4.84,4.84,0,0,0,97.61,46a4.61,4.61,0,0,0-2.47.66,5.24,5.24,0,0,0-1.74,1.82V46.24H90.68V64.66h3.11V57a4.79,4.79,0,0,0,1.68,1.86,4.52,4.52,0,0,0,2.51.69,4.46,4.46,0,0,0,2.14-.53,5.16,5.16,0,0,0,1.68-1.45,7.16,7.16,0,0,0,1.11-2.17,9,9,0,0,0,.39-2.68,7.81,7.81,0,0,0-.43-2.61A7,7,0,0,0,101.69,48Zm-1.81,6.26a4.06,4.06,0,0,1-.65,1.28,3.12,3.12,0,0,1-1,.87,2.58,2.58,0,0,1-1.29.33A2.8,2.8,0,0,1,95.07,56a4.47,4.47,0,0,1-1.28-1.86V51.06a3,3,0,0,1,.48-.87,3.62,3.62,0,0,1,.71-.7,3.13,3.13,0,0,1,.86-.47,3,3,0,0,1,.9-.16,3,3,0,0,1,1.34.3,3.32,3.32,0,0,1,1.07.83,3.93,3.93,0,0,1,.71,1.23,4.57,4.57,0,0,1,.26,1.54A4.71,4.71,0,0,1,99.88,54.26Z"/><path class="cls-2" d="M114.78,53a5.61,5.61,0,0,0-1.47-.8,20.24,20.24,0,0,0-2.15-.7c-.45-.12-.83-.23-1.13-.34a3.87,3.87,0,0,1-.73-.34,1.13,1.13,0,0,1-.41-.4,1.2,1.2,0,0,1-.12-.57,1.25,1.25,0,0,1,.53-1.13,2.42,2.42,0,0,1,1.33-.35,4.69,4.69,0,0,1,1.73.35,7.39,7.39,0,0,1,1.8,1.1l1.25-2a6.09,6.09,0,0,0-2.19-1.38,7.74,7.74,0,0,0-2.57-.42,5.82,5.82,0,0,0-1.9.3,4.45,4.45,0,0,0-1.52.86,3.9,3.9,0,0,0-1,1.36,4.38,4.38,0,0,0-.36,1.8,3.34,3.34,0,0,0,.23,1.29,2.49,2.49,0,0,0,.75.95,5.37,5.37,0,0,0,1.34.74c.56.21,1.24.44,2,.67a14.63,14.63,0,0,1,2,.75,1.09,1.09,0,0,1,.63,1,1.24,1.24,0,0,1-.53,1.07,2.54,2.54,0,0,1-1.47.38,5.46,5.46,0,0,1-2.1-.44,9.71,9.71,0,0,1-2.18-1.29l-1.16,2.1a7.18,7.18,0,0,0,2.51,1.5,8.86,8.86,0,0,0,3,.53,5.37,5.37,0,0,0,3.6-1.12,3.73,3.73,0,0,0,1.33-3,3.43,3.43,0,0,0-.27-1.42A2.79,2.79,0,0,0,114.78,53Z"/></g></g></svg>