<svg xmlns="http://www.w3.org/2000/svg" viewBox="0 0 150 100"><defs><style>.cls-1{fill:#e5e6e7;}.cls-2{fill:#fff;}.cls-3{fill:#d6d6d6;}.cls-4{fill:#3397ff;}.cls-5{fill:#004587;}.cls-6{fill:none;}</style></defs><g id="Layer_2" data-name="Layer 2"><g id="Layer_1-2" data-name="Layer 1"><path class="cls-1" d="M129.51,88.7C107.87,101.87,55.9,98.15,40.05,95a2,2,0,0,1-1.59-1.73C37,79.62,36.83,17.62,36.82,5.68a2,2,0,0,1,2-2h77.86a2,2,0,0,1,2,2.22c-1.28,11.34-6,62.84,11.24,79.68A2,2,0,0,1,129.51,88.7Z"/><rect class="cls-2" x="48.39" y="31.71" width="56.98" height="9.08" rx="1.5"/><path class="cls-3" d="M50.36,53.39H99.11a1.5,1.5,0,0,1,1.5,1.5h0a1.5,1.5,0,0,1-1.5,1.5H50.36a1.5,1.5,0,0,1-1.5-1.5h0A1.5,1.5,0,0,1,50.36,53.39Z"/><rect class="cls-2" x="48.39" y="62.14" width="56.98" height="14.87" rx="1.5"/><path class="cls-3" d="M50.36,24H79.11a1.5,1.5,0,0,1,1.5,1.5h0a1.5,1.5,0,0,1-1.5,1.5H50.36a1.5,1.5,0,0,1-1.5-1.5h0A1.5,1.5,0,0,1,50.36,24Z"/><rect class="cls-4" x="108.22" y="44.85" width="42.62" height="8.23" transform="translate(8.77 116.72) rotate(-50)"/><rect class="cls-5" x="109.24" y="47.86" width="38.89" height="1.31" transform="translate(8.81 115.91) rotate(-50)"/><rect class="cls-5" x="142.35" y="26.85" width="3.42" height="9.6" rx="0.34" transform="translate(27.22 121.66) rotate(-50)"/><path class="cls-4" d="M148.78,27.11l-1.08-.91a3.43,3.43,0,0,0-4.82.42h0L142,27.68h0l6.32,5.3h0l.88-1A3.42,3.42,0,0,0,148.78,27.11Z"/><polygon class="cls-4" points="111.21 70.79 118.99 67.92 112.68 62.64 111.21 70.79"/><polygon class="cls-5" points="111.21 70.79 115.49 69.22 112.02 66.31 111.21 70.79"/><rect class="cls-6" width="150" height="100"/><ellipse class="cls-4" cx="17.66" cy="38.47" rx="17.66" ry="12.34"/><ellipse class="cls-4" cx="28.43" cy="46.84" rx="5.68" ry="3.97"/><ellipse class="cls-4" cx="31.57" cy="55.34" rx="3.45" ry="2.42"/><ellipse class="cls-4" cx="40.22" cy="57.67" rx="2.48" ry="1.73"/></g></g></svg>