<svg xmlns="http://www.w3.org/2000/svg" viewBox="0 0 100 100"><defs><style>.cls-1{fill:#e6e7e8;}.cls-2{fill:#fff;}.cls-3{fill:#d7d7d7;}.cls-4{fill:#3397ff;}.cls-5{fill:#004587;}.cls-6{fill:none;}</style></defs><g id="Layer_2" data-name="Layer 2"><g id="Layer_1-2" data-name="Layer 1"><path class="cls-1" d="M98,89.2c-23.08,12.63-73.58,6.9-86.75,5.13a4,4,0,0,1-3.46-3.67C6.2,69,6.76,21.7,7,6.78a4,4,0,0,1,4-3.94H83.7a4,4,0,0,1,4,4.26c-1,15.3-3.33,61.27,11.14,75.79A4,4,0,0,1,98,89.2Z"/><rect class="cls-2" x="18.28" y="30.87" width="56.98" height="9.08" rx="1.5"/><rect class="cls-3" x="18.75" y="52.55" width="51.75" height="3" rx="1.5"/><rect class="cls-2" x="18.28" y="61.3" width="56.98" height="14.87" rx="1.5"/><rect class="cls-3" x="18.75" y="23.11" width="31.75" height="3" rx="1.5"/><rect class="cls-4" x="16.39" y="26.39" width="11.7" height="53.62" transform="translate(-23.62 18.25) rotate(-30)"/><rect class="cls-5" x="22.61" y="28.63" width="1.86" height="48.31" transform="translate(-23.24 18.84) rotate(-30)"/><rect class="cls-5" x="1.09" y="25.96" width="13.65" height="4.87" rx="0.49" transform="translate(-13.14 7.76) rotate(-30)"/><path class="cls-4" d="M4,19.92H6a4.87,4.87,0,0,1,4.87,4.87v1.95a0,0,0,0,1,0,0H-.86a0,0,0,0,1,0,0V24.79A4.87,4.87,0,0,1,4,19.92Z" transform="translate(-11 5.62) rotate(-30)"/><polygon class="cls-4" points="40.76 85.28 30.57 79.34 40.71 73.5 40.76 85.28"/><polygon class="cls-5" points="40.76 85.28 35.16 82.02 40.73 78.8 40.76 85.28"/><rect class="cls-6" width="100" height="100"/></g></g></svg>