<svg xmlns="http://www.w3.org/2000/svg" xmlns:xlink="http://www.w3.org/1999/xlink" viewBox="0 0 110 130"><defs><style>.cls-1{fill:none;}.cls-2{fill:#f3b693;}.cls-3{clip-path:url(#clip-path);}.cls-4{fill:#db9775;}.cls-5{fill:#74c009;}.cls-6{fill:#0d990b;}.cls-7{fill:#e6e7e8;}.cls-8{fill:#d7d7d7;}</style><clipPath id="clip-path"><path class="cls-1" d="M74.4,104.3c-11.08-8-27.72-8-38.8,0,11.08-8,15.62-20,10.58-28.07,5,8,12.6,8,17.64,0C58.78,84.25,63.32,96.28,74.4,104.3Z"/></clipPath></defs><g id="Layer_2" data-name="Layer 2"><g id="Layer_1-2" data-name="Layer 1"><path class="cls-2" d="M74.4,104.3c-11.08-8-27.72-8-38.8,0,11.08-8,15.62-20,10.58-28.07,5,8,12.6,8,17.64,0C58.78,84.25,63.32,96.28,74.4,104.3Z"/><g class="cls-3"><path class="cls-4" d="M58,89.75c6.12,0,21.56-12.36,21.56-27.5,0,0-.24-7.2,0-12C80.43,32.5,69.91,22.82,58,22.82h0c-11.91,0-22,10.35-21.56,27.41.18,6.22,0,12,0,12C36.45,77.39,51.89,89.75,58,89.75Z"/></g><path class="cls-5" d="M85.05,84.17C79.47,89,72.62,81,53.34,79.4s-23.56,2.84-28.76-1.57,2.1-14.26,7.36-36.39C35.17,27.85,89.86,30,86.37,46.7,81.75,68.77,91.91,78.31,85.05,84.17Z"/><path class="cls-5" d="M50.65,15.91c8.21-6,37-2.16,36.43,22.67-.21,9.72-2.56,18-6.31,22.81-4.51,5.76-16.83,7.73-25,7.49-15-.45-20.64-10.81-23.33-19.78C28.13,34.75,36.65,13.64,50.65,15.91Z"/><path class="cls-2" d="M84.07,60.2a2.2,2.2,0,0,1-2.9.18l.83-10s2.75-2.51,4.59.57C87.88,53.16,85.53,58.59,84.07,60.2Z"/><path class="cls-2" d="M29.88,53.76a2.2,2.2,0,0,0,2.78.85l1.52-9.87s-2.08-3.09-4.59-.52C27.82,46,28.84,51.85,29.88,53.76Z"/><path class="cls-2" d="M53.64,84.13c8.72,1,26.79-12.2,28.1-23.21,0,0,.44-6.08,1.26-10.65,3-16.82-8.07-27.51-21.87-29.15h0C47.32,19.48,34.39,28,33,44.33c-.5,6-1.27,10.65-1.27,10.65C30.34,67,44.91,83.09,53.64,84.13Z"/><path class="cls-5" d="M82.49,53.61c-3.15-13.07-25-11.71-32.81-23.76-4.5,6.73-16.88,17-16.88,17a30.33,30.33,0,0,1,4.39-16.16C41.57,23.37,50.32,20,58.12,20.13c7.95.13,20.59,4.2,24.07,14.28C85.51,44.06,82.49,53.61,82.49,53.61Z"/><path class="cls-6" d="M88.8,103,65.08,94.76a30.56,30.56,0,0,1-20.16,0L21.2,103a16.84,16.84,0,0,0-10.5,10.79l-3.84,12S32.38,130,55.29,130s47.85-4.13,47.85-4.13l-3.84-12A16.84,16.84,0,0,0,88.8,103Z"/><path class="cls-7" d="M91,126.33H19.05a2.69,2.69,0,0,1-2.68-2.54l-2.4-46a2.68,2.68,0,0,1,2.68-2.83h76.7A2.68,2.68,0,0,1,96,77.77l-2.4,46A2.69,2.69,0,0,1,91,126.33Z"/><rect class="cls-8" y="126.33" width="110" height="3.67" rx="1.84"/><ellipse class="cls-6" cx="13.78" cy="9.64" rx="13.78" ry="9.64"/><ellipse class="cls-6" cx="22.2" cy="16.17" rx="4.44" ry="3.1"/><ellipse class="cls-6" cx="24.65" cy="22.8" rx="2.7" ry="1.89"/><ellipse class="cls-6" cx="31.41" cy="24.63" rx="1.93" ry="1.35"/></g></g></svg>