<svg xmlns="http://www.w3.org/2000/svg" viewBox="0 0 87.32 99.58"><defs><style>.cls-1{fill:#d7d7d7;}.cls-2{fill:#e6e7e8;}</style></defs><g id="Layer_2" data-name="Layer 2"><g id="Layer_1-2" data-name="Layer 1"><path class="cls-1" d="M43.66,87.48c5.86,0,11.18-2.14,11.18-8.92,0-13.28,12.37-23.15,13.62-35.57,1.67-16.63-11.1-25.79-24.8-25.79h0C30,17.2,17.3,27,18.86,43,20.14,56.09,32.44,66,32.44,78.58,32.44,85.5,37.77,87.48,43.66,87.48Z"/><path class="cls-2" d="M49,23.61c10.57,1.61,16.72,11.83,12.63,23.53a1,1,0,0,1-2-.33C59.86,34.64,53,28.32,48.33,25.47A1,1,0,0,1,49,23.61Z"/><path class="cls-2" d="M56.88,86.51a3.29,3.29,0,0,0-.56-1.86,1,1,0,0,1,0-1.14,3.37,3.37,0,0,0-1.49-5,42.88,42.88,0,0,1-11.18,1.68,43.86,43.86,0,0,1-11.22-1.66A3.37,3.37,0,0,0,31,83.51a1,1,0,0,1,0,1.14,3.29,3.29,0,0,0-.56,1.86A3.35,3.35,0,0,0,31,88.38a1,1,0,0,1,0,1.14A3.37,3.37,0,0,0,30.5,92,3.5,3.5,0,0,0,34,94.78h2.49a3,3,0,0,1,2.76,1.83,4.81,4.81,0,0,0,4.43,3h0a4.81,4.81,0,0,0,4.43-3,3,3,0,0,1,2.76-1.83h2.49A3.5,3.5,0,0,0,56.82,92a3.37,3.37,0,0,0-.49-2.51,1,1,0,0,1,0-1.14A3.35,3.35,0,0,0,56.88,86.51Z"/><path class="cls-2" d="M8.51,43a.65.65,0,0,1,0,1.3l-6.95.75a1.41,1.41,0,0,1-.3-2.8h.3Z"/><path class="cls-2" d="M85.76,45.06l-7-.75a.65.65,0,0,1,0-1.3l7-.75a1.41,1.41,0,0,1,.3,2.8Z"/><path class="cls-2" d="M74.42,14.89,69,19.26a.65.65,0,0,1-.92-.92l4.37-5.44a1.41,1.41,0,0,1,2.2,1.77A2.18,2.18,0,0,1,74.42,14.89Z"/><path class="cls-2" d="M45.06,1.56l-.75,7a.65.65,0,0,1-1.3,0l-.75-6.95a1.41,1.41,0,1,1,2.8-.3A1.5,1.5,0,0,1,45.06,1.56Z"/><path class="cls-2" d="M14.89,12.9l4.37,5.44a.65.65,0,0,1-.92.92L12.9,14.89a1.41,1.41,0,0,1,1.77-2.2A2.18,2.18,0,0,1,14.89,12.9Z"/><path class="cls-2" d="M45,76.77a62,62,0,0,1,1.88-15.4,119.48,119.48,0,0,1,4.92-14.73A30.3,30.3,0,0,0,53,43a3.05,3.05,0,0,0-.92-3,3.93,3.93,0,0,0-3.24-.61,3.71,3.71,0,0,0-1.52.73,2.86,2.86,0,0,0-.86,1.35,5.45,5.45,0,0,0-.12.81l0,.41.09.39a1.26,1.26,0,0,0,.94.89,1,1,0,0,0,1-.62,2.71,2.71,0,0,0,.18-1.56,3.17,3.17,0,0,0-2.15-2.34A7.72,7.72,0,0,0,42.92,39a6.2,6.2,0,0,0-3.28,1.21,2.79,2.79,0,0,0-.92,1.32,2.73,2.73,0,0,0,0,1.6,1.57,1.57,0,0,0,.91,1.08A1.19,1.19,0,0,0,40.91,44a2.72,2.72,0,0,0,.34-3c-1-2-4.27-2.44-6-1.05a3.15,3.15,0,0,0-1,3.05,26.52,26.52,0,0,0,1,3.64C37,51.53,38.8,56.39,40.1,61.41a57.86,57.86,0,0,1,2.19,15.36.22.22,0,1,1-.43,0A61.54,61.54,0,0,0,39.41,61.6c-1.35-5-3.23-9.76-5-14.63a27.22,27.22,0,0,1-1.11-3.79,4.8,4.8,0,0,1,.09-2.13l.19-.52a3.33,3.33,0,0,1,.28-.48,3.85,3.85,0,0,1,.73-.83,5.25,5.25,0,0,1,4-1,4.73,4.73,0,0,1,3.5,2.31,4.25,4.25,0,0,1,.37,2.16,3.07,3.07,0,0,1-.94,2.06,2.25,2.25,0,0,1-2.33.42,2.62,2.62,0,0,1-1.53-1.74,3.68,3.68,0,0,1,1.23-4A7.17,7.17,0,0,1,42.82,38a8.58,8.58,0,0,1,4.06.53,5,5,0,0,1,1.78,1.18,3.65,3.65,0,0,1,1,2,3.71,3.71,0,0,1-.28,2.21A2,2,0,0,1,47.27,45a2.29,2.29,0,0,1-1.77-1.6,3.87,3.87,0,0,1,0-2.21,3.76,3.76,0,0,1,1.19-1.85,4.62,4.62,0,0,1,1.94-.94,4.9,4.9,0,0,1,4.11.82,4,4,0,0,1,1.26,4A32.7,32.7,0,0,1,52.71,47a117.47,117.47,0,0,0-5.08,14.57,66.31,66.31,0,0,0-2.17,15.22.22.22,0,0,1-.22.22A.24.24,0,0,1,45,76.77Z"/></g></g></svg>