<svg xmlns="http://www.w3.org/2000/svg" xmlns:xlink="http://www.w3.org/1999/xlink" viewBox="0 0 48.4 55.21"><defs><style>.cls-1{fill:#fff242;}.cls-2{fill:#ffcf56;}.cls-3{fill:#e6e7e8;}</style><symbol id="idea" data-name="idea" viewBox="0 0 48.4 55.21"><path class="cls-1" d="M27.42,48.49c3.25-.44,6-2,5.55-5.77C32,35.36,38.12,29,37.89,22c-.29-9.33-8-13.47-15.63-12.46h0c-7.59,1-13.89,7.37-11.85,16.11,1.67,7.17,9.22,11.78,10.14,18.73C21.06,48.21,24.16,48.92,27.42,48.49Z"/><path class="cls-2" d="M25.69,12.7c6,.11,10.14,5.33,8.73,12.11a.56.56,0,0,1-1.1,0,13.18,13.18,0,0,0-7.87-11A.56.56,0,0,1,25.69,12.7Z"/><path class="cls-3" d="M34.68,47a1.84,1.84,0,0,0-.45-1,.58.58,0,0,1-.08-.63,1.85,1.85,0,0,0,.09-1.43A1.88,1.88,0,0,0,33,42.72a24,24,0,0,1-6.08,1.75,24.32,24.32,0,0,1-6.34-.09,1.9,1.9,0,0,0-.9,1.48,1.85,1.85,0,0,0,.46,1.35.6.6,0,0,1,.09.64A1.85,1.85,0,0,0,20,48.92a1.92,1.92,0,0,0,.45,1,.58.58,0,0,1,.08.64A1.92,1.92,0,0,0,20.46,52a2,2,0,0,0,2.14,1.27L24,53.06a1.66,1.66,0,0,1,1.66.81,2.68,2.68,0,0,0,2.67,1.32h0a2.68,2.68,0,0,0,2.24-2A1.68,1.68,0,0,1,31.94,52l1.38-.18A2,2,0,0,0,35.05,50a1.89,1.89,0,0,0-.46-1.36.56.56,0,0,1-.08-.63A1.93,1.93,0,0,0,34.68,47Z"/><path class="cls-2" d="M4.67,26.43a.37.37,0,0,1,.1.72L1,28.07a.79.79,0,0,1-1-.57.8.8,0,0,1,.58-1l.17,0Z"/><path class="cls-2" d="M47.63,21.88l-3.9.1a.37.37,0,0,1-.1-.72l3.8-.93a.78.78,0,0,1,1,.58.79.79,0,0,1-.58.95Z"/><path class="cls-2" d="M39.13,6,36.44,8.82a.37.37,0,0,1-.58-.44l2-3.34a.79.79,0,0,1,1.34.82A.64.64,0,0,1,39.13,6Z"/><path class="cls-2" d="M21.88.77l.1,3.9a.37.37,0,0,1-.72.1L20.33,1A.79.79,0,1,1,21.86.6,1.11,1.11,0,0,1,21.88.77Z"/><path class="cls-2" d="M6,9.27,8.82,12a.36.36,0,0,1-.44.57L5,10.52a.79.79,0,0,1-.26-1.09.78.78,0,0,1,1.08-.26Z"/><path class="cls-2" d="M27.4,42.45a34.46,34.46,0,0,1-.1-8.67A65.74,65.74,0,0,1,29,25.26a17.78,17.78,0,0,0,.39-2.09,1.67,1.67,0,0,0-.73-1.6c-1.05-.64-2.86-.05-3,1.22-.12.61.2,1.34.7,1.34a.59.59,0,0,0,.55-.42,1.43,1.43,0,0,0,0-.89,1.78,1.78,0,0,0-1.36-1.17,4.27,4.27,0,0,0-2,0,3.5,3.5,0,0,0-1.74.92,1.51,1.51,0,0,0-.3,1.71.79.79,0,0,0,1.31.31,1.55,1.55,0,0,0,0-1.7,2.39,2.39,0,0,0-3.42-.13,1.77,1.77,0,0,0-.32,1.76,17.36,17.36,0,0,0,.84,1.95c2.61,5.1,5.38,10.36,6.1,16.16a.13.13,0,0,1-.11.14.13.13,0,0,1-.13-.11,34.18,34.18,0,0,0-2.47-8.22c-1.12-2.66-2.51-5.17-3.84-7.75a15.31,15.31,0,0,1-.9-2,2.32,2.32,0,0,1,.43-2.29A3,3,0,0,1,21,21.58a2.67,2.67,0,0,1,2.1,1,2.48,2.48,0,0,1,.37,1.16,1.75,1.75,0,0,1-.37,1.2,1.25,1.25,0,0,1-1.24.41,1.44,1.44,0,0,1-1-.84,2,2,0,0,1,.38-2.3,4.06,4.06,0,0,1,2-1.09,4.75,4.75,0,0,1,2.28,0,2.37,2.37,0,0,1,1.75,1.54,2,2,0,0,1,0,1.23,1.13,1.13,0,0,1-1.08.79,1.28,1.28,0,0,1-1.08-.75,2.14,2.14,0,0,1-.16-1.22,2.12,2.12,0,0,1,.52-1.11,2.65,2.65,0,0,1,1-.66,2.75,2.75,0,0,1,2.34.15,2.24,2.24,0,0,1,1,2.13,16.51,16.51,0,0,1-.43,2.16,66.53,66.53,0,0,0-1.74,8.44,36.92,36.92,0,0,0-.09,8.6.11.11,0,0,1-.1.13A.12.12,0,0,1,27.4,42.45Z"/></symbol></defs><g id="Layer_2" data-name="Layer 2"><g id="Layer_1-2" data-name="Layer 1"><use width="48.4" height="55.21" xlink:href="#idea"/></g></g></svg>