<svg xmlns="http://www.w3.org/2000/svg" xmlns:xlink="http://www.w3.org/1999/xlink" viewBox="0 0 98.82 110"><defs><style>.cls-1{fill:none;}.cls-2{fill:#e6e7e8;}.cls-3{clip-path:url(#clip-path);}.cls-4{fill:#d7d7d7;}</style><clipPath id="clip-path"><path class="cls-1" d="M69.34,85.82c-11.39-7.54-28.47-7.54-39.86,0C40.87,78.28,45.53,67,40.36,59.41c5.17,7.55,12.93,7.55,18.11,0C53.29,67,58,78.28,69.34,85.82Z"/></clipPath></defs><g id="Layer_2" data-name="Layer 2"><g id="Layer_1-2" data-name="Layer 1"><path class="cls-2" d="M69.34,85.82c-11.39-7.54-28.47-7.54-39.86,0C40.87,78.28,45.53,67,40.36,59.41c5.17,7.55,12.93,7.55,18.11,0C53.29,67,58,78.28,69.34,85.82Z"/><g class="cls-3"><path class="cls-4" d="M52.5,75.24c7,0,24.8-13.56,24.8-27.81,0,0-.27-6.77,0-11.3,1-16.69-11.1-25.79-24.8-25.79h0c-13.7,0-25.37,9.74-24.8,25.79.21,5.84,0,11.3,0,11.3C27.7,61.68,45.46,75.24,52.5,75.24Z"/></g><path class="cls-4" d="M38.53,3.61c7.34-6.48,35.94-6.13,38.3,17.13.92,9.1-.42,17.12-3.53,22-3.74,5.88-15.57,9.09-23.59,9.77C35,53.76,28.25,44.72,24.57,36.63,18.69,23.71,24.57,3,38.53,3.61Z"/><path class="cls-2" d="M76.39,41.27a2.23,2.23,0,0,1-2.81.49l-.35-9.39s2.4-2.66,4.56,0C79.31,34.27,77.63,39.6,76.39,41.27Z"/><path class="cls-2" d="M22.61,41.27a2.24,2.24,0,0,0,2.82.49l.35-9.39s-2.4-2.66-4.56,0C19.7,34.27,21.37,39.6,22.61,41.27Z"/><path class="cls-2" d="M49.39,71c7,0,24.8-13.57,24.8-27.81,0,0-.27-6.77,0-11.31,1-16.68-11.1-25.79-24.8-25.79h0C35.7,6.06,24,15.8,24.59,31.85c.21,5.85,0,11.31,0,11.31C24.59,57.4,42.35,71,49.39,71Z"/><path class="cls-4" d="M74.14,33.05c-1-11.51-7.07-20.38-26.14-20-19.66.4-23.37,20-23.37,20s-1.44-6.67,2.46-14.95C30.51,10.81,38.69,6.69,46.33,6,54.13,5.19,67,7.58,71.55,16.61A26.41,26.41,0,0,1,74.14,33.05Z"/><path class="cls-4" d="M83,84.29,60,76.92a34.77,34.77,0,0,1-21.12,0l-23,7.37A19.39,19.39,0,0,0,3.38,96.41L0,106.12S26.19,110,49.71,110s49.11-3.88,49.11-3.88l-3.37-9.71A19.43,19.43,0,0,0,83,84.29Z"/></g></g></svg>