<svg xmlns="http://www.w3.org/2000/svg" xmlns:xlink="http://www.w3.org/1999/xlink" viewBox="0 0 51.38 46.5"><defs><style>.cls-1{fill:none;}.cls-2{fill:#3397ff;}.cls-3{clip-path:url(#clip-path);}.cls-4{fill:#196ec2;}.cls-5{clip-path:url(#clip-path-2);}</style><clipPath id="clip-path"><path class="cls-1" d="M40.22,32.47a14.32,14.32,0,0,0-15.08,0c4.31-2.86,6.07-7.14,4.12-10,1.95,2.85,4.89,2.85,6.85,0C34.15,25.33,35.91,29.61,40.22,32.47Z"/></clipPath><clipPath id="clip-path-2"><path class="cls-1" d="M24,37.36a12.19,12.19,0,0,0-13.81,0c3.94-2.86,5.56-7.14,3.76-10,1.8,2.85,4.49,2.85,6.28,0C18.48,30.22,20.09,34.5,24,37.36Z"/></clipPath><symbol id="community" data-name="community" viewBox="0 0 51.38 46.5"><path class="cls-2" d="M40.22,32.47a14.32,14.32,0,0,0-15.08,0c4.31-2.86,6.07-7.14,4.12-10,1.95,2.85,4.89,2.85,6.85,0C34.15,25.33,35.91,29.61,40.22,32.47Z"/><g class="cls-3"><path class="cls-4" d="M33.85,28.47c2.66,0,9.38-5.14,9.38-10.52,0,0-.1-2.57,0-4.28.38-6.31-4.2-9.76-9.38-9.76h0a9.05,9.05,0,0,0-9.38,9.76c.08,2.21,0,4.28,0,4.28C24.47,23.33,31.19,28.47,33.85,28.47Z"/></g><path class="cls-4" d="M28.56,1.36c2.78-2.45,13.6-2.31,14.49,6.49.35,3.44-.15,6.47-1.33,8.32-1.42,2.23-5.89,3.44-8.93,3.7-5.55.47-8.11-2.95-9.51-6C21.06,9,23.28,1.15,28.56,1.36Z"/><path class="cls-2" d="M22.54,15.62a.85.85,0,0,0,1.07.18l.13-3.55a1.1,1.1,0,0,0-1.73,0C21.44,13,22.07,15,22.54,15.62Z"/><path class="cls-2" d="M32.67,26.85c2.67,0,9.39-5.13,9.39-10.52,0,0-.11-2.56,0-4.28.37-6.31-4.2-9.76-9.39-9.76h0a9.06,9.06,0,0,0-9.38,9.76c.08,2.21,0,4.28,0,4.28C23.29,21.72,30,26.85,32.67,26.85Z"/><path class="cls-4" d="M42,12.5c-.38-4.35-2.67-7.71-9.88-7.56-7.44.15-8.84,7.56-8.84,7.56a9.6,9.6,0,0,1,.92-5.65c1.3-2.76,4.39-4.32,7.29-4.6s7.8.62,9.54,4A10,10,0,0,1,42,12.5Z"/><path class="cls-4" d="M45.4,31.89,36.68,29.1a13.13,13.13,0,0,1-8,0L20,31.89a7.33,7.33,0,0,0-4.71,4.58L14,40.15a150,150,0,0,0,18.8,1.47,144.36,144.36,0,0,0,18.59-1.47L50.1,36.47A7.34,7.34,0,0,0,45.4,31.89Z"/><path class="cls-2" d="M24,37.36a12.19,12.19,0,0,0-13.81,0c3.94-2.86,5.56-7.14,3.76-10,1.8,2.85,4.49,2.85,6.28,0C18.48,30.22,20.09,34.5,24,37.36Z"/><g class="cls-5"><path class="cls-4" d="M18.2,32.18c2.18,0,7.68-4.4,7.68-9.79,0,0-.09-2.56,0-4.28.3-6.31-3.44-9.75-7.68-9.75h0c-4.23,0-7.84,3.68-7.67,9.75.07,2.22,0,4.28,0,4.28C10.53,27.78,16,32.18,18.2,32.18Z"/></g><path class="cls-4" d="M28,28.93c-1.77,1.93-4.52-.6-11.41-.35s-8.2,2-10.23.65.15-5.13,1.08-13.17c.57-4.94,20-6.47,19.45-.43C26.23,23.63,30.22,26.57,28,28.93Z"/><path class="cls-4" d="M13,6.25c2.66-2.45,13-2.31,13.83,6.48.34,3.45-.14,6.48-1.27,8.33-1.35,2.23-5.62,3.44-8.52,3.7-5.3.47-7.75-3-9.08-6C5.85,13.86,8,6,13,6.25Z"/><path class="cls-2" d="M26.69,20.5a.78.78,0,0,1-1,.19l-.12-3.56a1,1,0,0,1,1.64,0C27.74,17.85,27.14,19.87,26.69,20.5Z"/><path class="cls-2" d="M7.26,20.5a.78.78,0,0,0,1,.19l.13-3.56a1,1,0,0,0-1.65,0C6.21,17.85,6.82,19.87,7.26,20.5Z"/><path class="cls-2" d="M16.94,30.24c3.13,0,9-5.44,9-9.38,0,0-.09-2.17,0-3.82.36-6.07-4-9.39-8.95-9.39h0A8.69,8.69,0,0,0,8,17c.08,2.12,0,3.82,0,3.82C8,25.15,13.81,30.24,16.94,30.24Z"/><path class="cls-4" d="M25.85,18.24c-1.66-4.49-9.33-3.09-12.59-7C12,13.79,8,17.93,8,17.93A10.88,10.88,0,0,1,8.88,12a8.51,8.51,0,0,1,7-4.6c2.82-.29,7.46.62,9.11,4A12.07,12.07,0,0,1,25.85,18.24Z"/><path class="cls-4" d="M29.16,36.91,20.72,34a10.88,10.88,0,0,1-7.17,0L5.1,36.91a6,6,0,0,0-3.73,3.84L0,45A126.23,126.23,0,0,0,17.24,46.5a121.49,121.49,0,0,0,17-1.47L32.9,40.75A6,6,0,0,0,29.16,36.91Z"/></symbol></defs><g id="Layer_2" data-name="Layer 2"><g id="Layer_1-2" data-name="Layer 1"><use width="51.38" height="46.5" xlink:href="#community"/></g></g></svg>