<svg xmlns="http://www.w3.org/2000/svg" xmlns:xlink="http://www.w3.org/1999/xlink" viewBox="0 0 98 110"><defs><clipPath id="clip-path"><path d="M68.93,85.82c-11.39-7.54-28.47-7.54-39.86,0,11.39-7.54,16-18.86,10.87-26.41,5.18,7.55,12.94,7.55,18.12,0C52.88,67,57.54,78.28,68.93,85.82Z" fill="none"/></clipPath></defs><title>person-mentor</title><g id="Layer_2" data-name="Layer 2"><g id="Layer_1-2" data-name="Layer 1"><path d="M68.93,85.82c-11.39-7.54-28.47-7.54-39.86,0,11.39-7.54,16-18.86,10.87-26.41,5.18,7.55,12.94,7.55,18.12,0C52.88,67,57.54,78.28,68.93,85.82Z" fill="#e6e7e8"/><g clip-path="url(#clip-path)"><path d="M52.09,75.24c7,0,24.8-13.56,24.8-27.81,0,0-.27-6.77,0-11.3,1-16.69-11.11-25.79-24.8-25.79h0c-13.7,0-25.37,9.74-24.8,25.79.21,5.84,0,11.3,0,11.3C27.29,61.68,45.05,75.24,52.09,75.24Z" fill="#d7d7d7"/></g><path d="M38.12,3.61c7.34-6.48,35.94-6.13,38.3,17.13.92,9.1-.42,17.12-3.53,22-3.74,5.88-15.57,9.09-23.59,9.77-14.69,1.24-21.46-7.8-25.14-15.89C18.28,23.71,24.16,3,38.12,3.61Z" fill="#d7d7d7"/><path d="M76,41.27a2.24,2.24,0,0,1-2.82.49l-.34-9.39s2.4-2.66,4.56,0C78.89,34.27,77.22,39.6,76,41.27Z" fill="#e6e7e8"/><path d="M22.2,41.27a2.24,2.24,0,0,0,2.82.49l.34-9.39s-2.39-2.66-4.55,0C19.29,34.27,21,39.6,22.2,41.27Z" fill="#e6e7e8"/><path d="M49,71c7,0,24.8-13.57,24.8-27.81,0,0-.27-6.77,0-11.31,1-16.68-11.1-25.79-24.8-25.79h0c-13.69,0-25.37,9.74-24.8,25.79.21,5.85,0,11.31,0,11.31C24.18,57.4,41.94,71,49,71Z" fill="#e6e7e8"/><path d="M73.72,33.05c-1-11.51-7.06-20.38-26.13-20-19.66.4-23.37,20-23.37,20s-1.44-6.67,2.45-14.95C30.1,10.81,38.28,6.69,45.92,6c7.8-.76,20.64,1.63,25.22,10.66A26.36,26.36,0,0,1,73.72,33.05Z" fill="#d7d7d7"/><path d="M82.61,84.29l-23-7.37a34.77,34.77,0,0,1-21.12,0l-23,7.37A19.43,19.43,0,0,0,3,96.41L0,106s25.78,4,49.3,4S98,106,98,106l-3-9.59A19.43,19.43,0,0,0,82.61,84.29Z" fill="#d7d7d7"/><path d="M25.66,32.59v2.67l.05.08.2.16.55.56a4.23,4.23,0,0,1,.59,1.62l.6,2.73a5.49,5.49,0,0,0,.77,2,2.46,2.46,0,0,0,1.48.9,29.46,29.46,0,0,0,7.27.76,28.57,28.57,0,0,0,6.07-.6,2.58,2.58,0,0,0,1.55-1.2c.14-.21.92-1.68.92-1.68.6-1.25,1.43-3.75,1.43-3.75a2.46,2.46,0,0,1,.38-.67c.27-.41,1.49-.37,1.49-.37s1.23,0,1.5.37a2.8,2.8,0,0,1,.38.67s.82,2.5,1.42,3.75c0,0,.78,1.47.92,1.68a2.58,2.58,0,0,0,1.55,1.2,28.46,28.46,0,0,0,6.07.6,29.4,29.4,0,0,0,7.26-.76,2.45,2.45,0,0,0,1.47-.9,5.25,5.25,0,0,0,.77-2l.6-2.73a4.23,4.23,0,0,1,.59-1.62l.55-.56.2-.16,0-.08V32.59s0-.26-.58-.32l-5.66-.36s-5-.12-7.52.11c0,0-4.25.41-5.34.55a16.63,16.63,0,0,1-2.35.23l-1.88,0-1.87,0a16.65,16.65,0,0,1-2.36-.23c-1.09-.14-5.35-.55-5.35-.55-2.52-.23-7.52-.11-7.52-.11l-5.67.36C25.66,32.33,25.66,32.59,25.66,32.59Zm26.77,1.66s.3-.56,1.77-.85c0,0,7.95-1.69,14.8-.18a1.57,1.57,0,0,1,1.07.67,1.07,1.07,0,0,1,.17.69,41,41,0,0,1-.3,4.24,15.92,15.92,0,0,1-.72,2.8,2.14,2.14,0,0,1-.46.7,3.14,3.14,0,0,1-1.34.51,18,18,0,0,1-3.43.55A33,33,0,0,1,55.44,43a3.72,3.72,0,0,1-1.25-.69,5.86,5.86,0,0,1-.9-1.61,30.06,30.06,0,0,1-1.24-4.4A2.82,2.82,0,0,1,52.43,34.25Zm-24.67.33a1,1,0,0,1,.18-.69A1.55,1.55,0,0,1,29,33.22c6.85-1.51,14.81.18,14.81.18,1.48.29,1.77.85,1.77.85.61.63.38,2,.38,2a30.06,30.06,0,0,1-1.24,4.4,5.86,5.86,0,0,1-.9,1.61,3.72,3.72,0,0,1-1.25.69,33.07,33.07,0,0,1-8.56.43,18,18,0,0,1-3.43-.55,3.05,3.05,0,0,1-1.34-.51,2.14,2.14,0,0,1-.46-.7,15.28,15.28,0,0,1-.73-2.8A41,41,0,0,1,27.76,34.58Z" fill="#0f74ce"/><path d="M70.44,72.42H72.1a.83.83,0,0,1,.83.83v29.14a0,0,0,0,1,0,0H69.6a0,0,0,0,1,0,0V73.26A.83.83,0,0,1,70.44,72.42Z" transform="translate(82.68 -24.79) rotate(45)" fill="#3397ff"/><path d="M61.85,99.18l-2.36-2.35-1,2.79.53.53Z" fill="#3397ff"/><rect x="78.47" y="77.29" width="4.16" height="1.66" rx="0.42" transform="translate(78.84 -34.07) rotate(45)" fill="#3397ff"/><rect x="58.3" y="97.88" width="4.16" height="0.83" rx="0.42" transform="translate(87.19 -13.91) rotate(45)" fill="#3397ff"/><circle cx="58.73" cy="99.95" r="0.29" fill="#3397ff"/><rect x="75.77" y="78.98" width="1.83" height="11" rx="0.88" transform="translate(82.2 -29.48) rotate(45)" fill="#3397ff"/></g></g></svg>