<svg xmlns="http://www.w3.org/2000/svg" viewBox="0 0 160.92 160.93"><defs><style>.cls-1{fill:#bf8b2e;}.cls-2{fill:#fff;}</style></defs><g id="Layer_2" data-name="Layer 2"><g id="Layer_1-2" data-name="Layer 1"><rect class="cls-1" width="160.92" height="160.93"/><polygon class="cls-2" points="16.06 21.15 16.11 21.15 16.11 45.98 21.57 45.98 21.57 13.54 17.21 13.54 12.19 19.42 12.19 25.12 12.23 25.12 16.06 21.15"/><path class="cls-2" d="M24.82,20.24v3.92h5V20.09c0-2,1-2.53,2.1-2.53s2,.43,2,2.44v2.68c0,2.68-.24,3.73-2,5.6l-3.06,3.25c-3,3.16-4.07,5.27-4.07,8.47v6H38.89V41.53H29.94V40c0-2.53.91-3.49,2.3-5l3.49-3.69c2.82-3,3.45-4.93,3.45-8.18V20c0-4.64-2.25-6.84-7.13-6.84s-7.23,2.53-7.23,7.08"/><path class="cls-2" d="M124.53,86.21C118,81,110.1,80.46,107,80.46a19.3,19.3,0,0,0-4.22.41l-.44.1c-4.15,1-11.11,2.63-19.21,12.68l-.24.29a1.08,1.08,0,0,0-.2.61,1.13,1.13,0,0,0,.14.53l.19.31c1.33,2.23,2.45,4.17,3.33,5.82a1.07,1.07,0,0,0,1.73.24,2.12,2.12,0,0,0,.15-.21c7-9.67,12.48-11,16.11-11.82l.45-.1a10.55,10.55,0,0,1,2.22-.19c1.68,0,7.55.28,12.12,3.89,4.07,3.21,6.13,8.34,6.13,15.25,0,11.57-5.6,16.09-10.29,17.83a16.41,16.41,0,0,1-5.75,1,20.39,20.39,0,0,1-8.61-2l-.33-.16c-4-1.76-10.08-5.41-15.78-16.87C72.83,84.64,63,82.41,56.5,80.94l-.34-.08A20,20,0,0,0,52,80.49a28,28,0,0,0-17.23,5.69c-4.23,3.38-9.29,9.95-9.29,22,0,7.37,1.52,12.23,5.41,17.35a25.86,25.86,0,0,0,20.51,9.75,31.49,31.49,0,0,0,6-.59,25.15,25.15,0,0,0,10.13-4.63l3.42,3.09a1,1,0,0,0,1.39-.07.91.91,0,0,0,.25-.65l2.64-16.29V116a1,1,0,0,0-1-1h0l-15.87,4.39-.3,0a.88.88,0,0,0-.5.29,1,1,0,0,0,.07,1.4l3.28,3a15.57,15.57,0,0,1-5.13,2.09,22.81,22.81,0,0,1-4.21.41,17.18,17.18,0,0,1-13.6-6.15l-.09-.13c-2.73-3.59-3.66-6.65-3.66-12.12,0-6.93,2-12.06,6-15.25,4.45-3.55,10.18-3.83,11.83-3.83a11,11,0,0,1,2.24.19l.35.08c5.2,1.17,12.31,2.78,22.16,22.58,5.21,10.45,11.74,17.29,19.94,20.9a29.55,29.55,0,0,0,12.57,2.91,24.85,24.85,0,0,0,8.77-1.56c4.79-1.78,16-7.9,16-26C134,96.19,128.84,89.61,124.53,86.21Z"/><path class="cls-2" d="M51.36,14a5,5,0,0,1,3,1.68,8.16,8.16,0,0,1,1.93,4.58h.07a8.94,8.94,0,0,1,2.17-4.54A5.7,5.7,0,0,1,61.41,14l.28,1.31a8,8,0,0,0-4.28,5.52,10.61,10.61,0,0,0-.35,2.55v3.21H55.45V23.39a11.48,11.48,0,0,0-.26-2.52c-.74-3.35-2.48-5.17-4.13-5.54Z"/><path class="cls-2" d="M69.88,18.92v5a9.91,9.91,0,0,0,.26,2.67H68.57a6.86,6.86,0,0,1-.28-2.5V18.92H65.35a28.37,28.37,0,0,1-1.26,7.69H62.54a30.22,30.22,0,0,0,1.26-7.69,7.38,7.38,0,0,0-1.84.17l-.22-1a4.68,4.68,0,0,1,2.57-.48h7l-.19,1.27Z"/><path class="cls-2" d="M79.49,26a6.47,6.47,0,0,1-3.28.82c-1.79,0-3.77-.7-3.77-2.72a2.39,2.39,0,0,1,2.22-2.24v-.09a2,2,0,0,1-1.78-1.89c0-1.19,1.19-2.43,3.57-2.43a4.69,4.69,0,0,1,2.72.69l-.35,1.07a4.86,4.86,0,0,0-2.24-.55c-1.24,0-2.07.52-2.07,1.33s1.09,1.28,2.5,1.28h1.07v1.16H77c-1.61,0-2.81.45-2.81,1.52s1.11,1.63,2.43,1.63a5.8,5.8,0,0,0,2.62-.69Z"/><path class="cls-2" d="M88,17.65a8.83,8.83,0,0,1,.66,3.5c0,2.62-.85,5.66-4.09,5.66A3.3,3.3,0,0,1,81.1,23.2V20.66a12.4,12.4,0,0,0-.2-3h1.55a3.06,3.06,0,0,1,.26,1.68V23c0,1.79,1.05,2.48,2,2.48,1.56,0,2.37-1.59,2.37-4.17a11.08,11.08,0,0,0-.59-3.64Zm-1.5-3.76L85,16.54H83.91l1-2.65Z"/><path class="cls-2" d="M90.26,19.92c0-3.77,1.54-6.66,4.33-6.66s4.16,2.69,4.16,6.66c0,4.17-1.35,6.89-4.22,6.89C91.89,26.81,90.26,24.5,90.26,19.92Zm6.88-.7c0-2.63-.85-4.76-2.64-4.76s-2.63,2.24-2.63,4.76Zm-5.27,1.22c0,3.3,1.11,5.17,2.7,5.17,1.74,0,2.57-2.15,2.57-5.17Z"/><path class="cls-2" d="M107.62,17.65a8.83,8.83,0,0,1,.66,3.5c0,2.62-.85,5.66-4.09,5.66a3.3,3.3,0,0,1-3.51-3.61V20.66a11.73,11.73,0,0,0-.21-3H102a3.06,3.06,0,0,1,.26,1.68V23c0,1.79,1,2.48,2,2.48,1.56,0,2.37-1.59,2.37-4.17a11.08,11.08,0,0,0-.59-3.64Z"/><path class="cls-2" d="M110.93,17.65l1.72,5c.3.8.52,1.56.78,2.33h0c.74-1.44,2.32-4.46,2.32-6.53,0-.3,0-.57,0-.83h1.53a5.76,5.76,0,0,1,.06.66c0,2.54-1.72,5.57-3.35,8.3h-1.54l-3.27-9Z"/><path class="cls-2" d="M119.16,26.61V20.07a8.61,8.61,0,0,0-.25-2.42h1.46a3.81,3.81,0,0,1,.26,1.48h0a3.31,3.31,0,0,1,3-1.69c1.24,0,3.16.74,3.16,3.82v5.68a18.93,18.93,0,0,0,.18,3.33h-1.53a13,13,0,0,1-.28-3.28V21.44c0-1.44-.54-2.64-2.07-2.64a2.32,2.32,0,0,0-2.19,1.66,2.44,2.44,0,0,0-.11.76v5.39Z"/><path class="cls-2" d="M52.23,45.11v-7a7.09,7.09,0,0,0-.2-2H53.6a3.2,3.2,0,0,1,.26,1.52v2.46h.07c1.61-1.51,2.87-2.9,3.93-4h1.9v.08c-1.26,1.16-2.68,2.55-4.26,4v.06c.89.2,1.86,1.35,2.76,2.55l1.63,2.24H58l-1.4-1.9C55.69,42,54.86,41.15,54,41.13h-.15v4Z"/><path class="cls-2" d="M68.77,36.15c-.09,1-.24,4-.24,6.41,0,1,.26,1.5.89,1.51l-.13,1.17a1.5,1.5,0,0,1-.55.07c-.8,0-1.45-.51-1.54-1.88h0a3.44,3.44,0,0,1-3.06,1.88c-2.13,0-3.66-1.77-3.66-4.49,0-2.93,1.92-4.87,4-4.87a2.86,2.86,0,0,1,2.76,1.8h.08a13,13,0,0,1,.16-1.6ZM64.5,44a2.78,2.78,0,0,0,2.39-2.28A5.42,5.42,0,0,0,67,40.48a3.78,3.78,0,0,0-.08-1,2.57,2.57,0,0,0-2.29-2.29c-1.52,0-2.56,1.5-2.56,3.53C62.07,42.46,62.94,44,64.5,44Z"/><path class="cls-2" d="M75.79,45.17a2.44,2.44,0,0,1-.89.14c-1.44,0-2.07-.88-2.07-2.77V37.43h-1a8.41,8.41,0,0,0-1.82.15l-.22-.94a4.19,4.19,0,0,1,2.44-.49h5.17l-.21,1.28H74.44V42.5c0,1.22.48,1.52,1,1.52a2.3,2.3,0,0,0,.39,0Z"/><path class="cls-2" d="M86.39,36.15c-.09,1-.24,4-.24,6.41,0,1,.26,1.5.89,1.51l-.13,1.17a1.53,1.53,0,0,1-.56.07c-.79,0-1.44-.51-1.53-1.88h-.06a3.43,3.43,0,0,1-3.05,1.88c-2.13,0-3.67-1.77-3.67-4.49C78,37.89,80,36,82,36a2.86,2.86,0,0,1,2.76,1.8h.07a14.86,14.86,0,0,1,.17-1.6ZM82.12,44a2.76,2.76,0,0,0,2.38-2.28,4.93,4.93,0,0,0,.11-1.26,4.3,4.3,0,0,0-.07-1,2.57,2.57,0,0,0-2.29-2.29c-1.52,0-2.56,1.5-2.56,3.53C79.69,42.46,80.56,44,82.12,44Z"/><path class="cls-2" d="M89.33,36.15l1.72,5c.3.79.52,1.55.78,2.33h.06c.74-1.44,2.31-4.46,2.31-6.53,0-.3,0-.58,0-.84h1.54a6.34,6.34,0,0,1,0,.67c0,2.54-1.72,5.57-3.35,8.29H90.89l-3.28-9Z"/><path class="cls-2" d="M105.27,36.15c-.1,1-.24,4-.24,6.41,0,1,.26,1.5.89,1.51l-.13,1.17a1.56,1.56,0,0,1-.56.07c-.8,0-1.44-.51-1.54-1.88h0a3.43,3.43,0,0,1-3,1.88c-2.13,0-3.67-1.77-3.67-4.49,0-2.93,1.93-4.87,4-4.87a2.88,2.88,0,0,1,2.76,1.8h.07a12.67,12.67,0,0,1,.17-1.6ZM101,44a2.78,2.78,0,0,0,2.39-2.28,5.42,5.42,0,0,0,.11-1.26,4.3,4.3,0,0,0-.07-1,2.58,2.58,0,0,0-2.3-2.29c-1.52,0-2.55,1.5-2.55,3.53C98.57,42.46,99.44,44,101,44Zm2.15-11.6-1.54,2.64h-1.09l1-2.64Z"/><path class="cls-2" d="M111.49,40c-.21-.61-.41-1.22-.6-1.94h-.09c-.13.59-.37,1.28-.57,1.89l-1.84,5.18h-1.7l3.24-8.29a1.48,1.48,0,0,0,.11-.43,1.51,1.51,0,0,0-.13-.5c-.57-1.57-1.24-2.81-2.33-2.81a1.72,1.72,0,0,0-.31,0l.14-1.26a2.33,2.33,0,0,1,.63-.07c1.76,0,2.59,1.68,3.56,4.24l3.42,9.1H113.3Z"/><path class="cls-2" d="M122.44,41.93c0,1.15.65,2,1.54,2s1.87-1.14,1.87-3.55a6.1,6.1,0,0,0-1.48-4.2v-.06h1.53a5.8,5.8,0,0,1,1.54,4.3c0,3.33-1.69,4.86-3.39,4.86a2.41,2.41,0,0,1-2.33-1.59h-.08a2.5,2.5,0,0,1-2.36,1.59c-1.56,0-3.28-1.31-3.28-4.71a6.51,6.51,0,0,1,1.57-4.45h1.5v.06a6.45,6.45,0,0,0-1.48,4.35c0,2.5,1.06,3.4,1.91,3.4s1.48-.9,1.48-2l0-3.43h1.54Z"/><path class="cls-2" d="M138.23,37.19c-.45,0-1,0-2.35-.07v.07a4.12,4.12,0,0,1,1.66,3.39c0,3.29-2.26,4.73-4.29,4.73a4.24,4.24,0,0,1-4.3-4.58A4.41,4.41,0,0,1,133.56,36h4.72Zm-2.3,3.39c0-1.52-.78-3.41-2.63-3.41s-2.7,1.78-2.7,3.48c0,2,1.13,3.44,2.68,3.44S135.93,42.61,135.93,40.58Z"/><path class="cls-2" d="M140,45.11V38.58a8.61,8.61,0,0,0-.26-2.43h1.46a3.7,3.7,0,0,1,.26,1.48h0a3.29,3.29,0,0,1,3-1.68c1.24,0,3.16.74,3.16,3.81v5.68a18,18,0,0,0,.19,3.34h-1.54a13.09,13.09,0,0,1-.28-3.28V40c0-1.45-.53-2.65-2.07-2.65A2.31,2.31,0,0,0,141.69,39a2.16,2.16,0,0,0-.12.76v5.38Z"/></g></g></svg>