<svg xmlns="http://www.w3.org/2000/svg" viewBox="0 0 160.92 160.93"><defs><style>.cls-1{fill:#ff3a21;}.cls-2{fill:#fff;}</style></defs><g id="Layer_2" data-name="Layer 2"><g id="Layer_1-2" data-name="Layer 1"><rect class="cls-1" width="160.92" height="160.93"/><path class="cls-2" d="M25.66,23.76A4.93,4.93,0,0,0,21.06,26h0V17.92H30.4V13.47H16V31.75h5V31c0-1.91.86-3,2.39-3s2.35,1.15,2.35,2.92v7.85c0,1.72-.63,2.91-2.3,2.91-1.87,0-2.54-1.24-2.54-3.15V34.53h-5v3.68c0,4.93,2,8.09,7.52,8.09s7.75-2.92,7.75-7.42V30.94c0-5.12-2.63-7.18-5.55-7.18"/><path class="cls-2" d="M117.21,60.89h-20a.26.26,0,0,0-.25.26v6.64a.26.26,0,0,0,.25.26h8l-8.85,8.84A26.19,26.19,0,1,0,76.8,123.47v7.65H68.91a.26.26,0,0,0-.25.26v7.12a.26.26,0,0,0,.25.26H76.8v7.53a.26.26,0,0,0,.26.26h7.12a.26.26,0,0,0,.25-.26v-7.53h7.89a.26.26,0,0,0,.26-.26v-7.12a.26.26,0,0,0-.26-.26H84.43v-7.78a26.16,26.16,0,0,0,17.16-40.91l8.72-8.72v7.44a.26.26,0,0,0,.26.25h6.64a.25.25,0,0,0,.26-.25v-20a.26.26,0,0,0-.26-.26m-37,55.89A19.29,19.29,0,1,1,99.47,97.5a19.3,19.3,0,0,1-19.29,19.28"/><path class="cls-2" d="M92,89.58H68.57a.24.24,0,0,0-.25.23v5.66a.24.24,0,0,0,.25.23H92a.24.24,0,0,0,.26-.23V89.81a.25.25,0,0,0-.26-.23"/><path class="cls-2" d="M92,99.69H68.57a.25.25,0,0,0-.25.24v5.66a.24.24,0,0,0,.25.23H92a.24.24,0,0,0,.26-.23V99.93a.25.25,0,0,0-.26-.24"/><path class="cls-2" d="M48.49,14.13V26.61H46.88V14.13Z"/><path class="cls-2" d="M59.87,18.68c-.45,0-1,0-2.35-.07v.07a4.13,4.13,0,0,1,1.66,3.39c0,3.3-2.25,4.74-4.29,4.74a4.24,4.24,0,0,1-4.29-4.59,4.41,4.41,0,0,1,4.61-4.78h4.71Zm-2.3,3.39c0-1.52-.77-3.41-2.62-3.41s-2.71,1.78-2.71,3.48c0,2,1.13,3.45,2.69,3.45S57.57,24.11,57.57,22.07Z"/><path class="cls-2" d="M69.6,22.05a4.37,4.37,0,0,1-4.46,4.76,4.26,4.26,0,0,1-4.29-4.61c0-3,2-4.76,4.44-4.76S69.6,19.31,69.6,22.05Zm-7.1.09c0,2,1.13,3.45,2.72,3.45s2.72-1.46,2.72-3.48c0-1.52-.76-3.45-2.69-3.45S62.5,20.44,62.5,22.14Zm4.64-8.23-1.53,2.65H64.5l1-2.65Z"/><path class="cls-2" d="M76.08,26.66a2.34,2.34,0,0,1-.89.15c-1.44,0-2.07-.89-2.07-2.78V18.92h-1a9.13,9.13,0,0,0-1.82.15l-.22-.94a4.33,4.33,0,0,1,2.44-.48h5.17l-.2,1.27H74.73V24c0,1.22.48,1.51,1,1.51a2.24,2.24,0,0,0,.38,0Z"/><path class="cls-2" d="M79.21,26.61V20.07A8.53,8.53,0,0,0,79,17.65h1.46a3.64,3.64,0,0,1,.26,1.48h0a3.29,3.29,0,0,1,3-1.69c1.24,0,3.16.74,3.16,3.82v5.68A18,18,0,0,0,87,30.27H85.48A13,13,0,0,1,85.2,27V21.44c0-1.44-.53-2.65-2.07-2.65A2.31,2.31,0,0,0,81,20.46a2.18,2.18,0,0,0-.11.76v5.39Z"/><path class="cls-2" d="M93.92,26.66a2.34,2.34,0,0,1-.89.15C91.59,26.81,91,25.92,91,24V18.92H90a9,9,0,0,0-1.81.15l-.23-.94a4.35,4.35,0,0,1,2.45-.48h5.16l-.2,1.27H92.57V24c0,1.22.48,1.51,1,1.51a2.36,2.36,0,0,0,.39,0Z"/><path class="cls-2" d="M104.53,17.65c-.1.94-.24,4-.24,6.4,0,1.06.25,1.5.88,1.52L105,26.73a1.49,1.49,0,0,1-.55.08c-.8,0-1.44-.52-1.54-1.89h0a3.44,3.44,0,0,1-3.06,1.89c-2.13,0-3.66-1.78-3.66-4.5,0-2.92,1.92-4.87,4-4.87a2.85,2.85,0,0,1,2.75,1.8H103a12.48,12.48,0,0,1,.17-1.59Zm-4.28,7.86a2.78,2.78,0,0,0,2.39-2.27,5.48,5.48,0,0,0,.11-1.26,4.26,4.26,0,0,0-.07-1,2.58,2.58,0,0,0-2.3-2.3c-1.52,0-2.55,1.5-2.55,3.54C97.83,24,98.7,25.51,100.25,25.51Z"/><path class="cls-2" d="M115.46,26.66a2.34,2.34,0,0,1-.89.15c-1.44,0-2.07-.89-2.07-2.78V18.92h-1a9.09,9.09,0,0,0-1.81.15l-.23-.94a4.38,4.38,0,0,1,2.45-.48h5.16l-.2,1.27h-2.78V24c0,1.22.48,1.51,1,1.51a2.3,2.3,0,0,0,.39,0Z"/><path class="cls-2" d="M124.38,23.42c0,1.15.65,2,1.54,2s1.87-1.15,1.87-3.56a6.14,6.14,0,0,0-1.48-4.2v-.05h1.53a5.78,5.78,0,0,1,1.54,4.29c0,3.33-1.68,4.87-3.39,4.87a2.41,2.41,0,0,1-2.33-1.59h-.07a2.52,2.52,0,0,1-2.37,1.59c-1.56,0-3.28-1.32-3.28-4.72a6.41,6.41,0,0,1,1.58-4.44H121v.05a6.47,6.47,0,0,0-1.48,4.35c0,2.5,1.06,3.41,1.91,3.41s1.48-.91,1.48-2l0-3.42h1.54Z"/><path class="cls-2" d="M131.88,17.65l1.72,5c.3.8.52,1.56.78,2.33h.05c.74-1.44,2.32-4.46,2.32-6.53,0-.3,0-.57,0-.83h1.53a5.76,5.76,0,0,1,.06.66c0,2.54-1.72,5.57-3.35,8.3h-1.54l-3.27-9Z"/><path class="cls-2" d="M49.88,36.86a4.28,4.28,0,0,0-2.1,3.7,3.33,3.33,0,0,0,2.91,3.55V38.67c0-1.92,1.05-2.7,2.28-2.7,1.75,0,3.66,1.68,3.66,4.42a4.73,4.73,0,0,1-4.44,4.91v3.48h-1.5V45.3a4.55,4.55,0,0,1-4.52-4.7A5.12,5.12,0,0,1,49.25,36Zm2.31,7.25a3.37,3.37,0,0,0,2.89-3.68c0-1.83-1.08-3.28-2.11-3.28-.47,0-.78.41-.78,1.26Z"/><path class="cls-2" d="M65.53,36.15a8.67,8.67,0,0,1,.67,3.5c0,2.63-.85,5.67-4.09,5.67a3.3,3.3,0,0,1-3.52-3.61V39.17a12.5,12.5,0,0,0-.2-3h1.55a3.13,3.13,0,0,1,.26,1.69v3.64c0,1.8,1.06,2.48,2,2.48,1.55,0,2.37-1.59,2.37-4.16a10.82,10.82,0,0,0-.6-3.65ZM64,32.4,62.5,35H61.41l1-2.64Z"/><path class="cls-2" d="M72,40c-.2-.62-.4-1.23-.59-2h-.09a18.46,18.46,0,0,1-.58,1.89l-1.83,5.18h-1.7l3.24-8.29a1.48,1.48,0,0,0,.11-.43,1.51,1.51,0,0,0-.13-.5c-.57-1.57-1.24-2.81-2.33-2.81a1.77,1.77,0,0,0-.32,0l.15-1.26a2.33,2.33,0,0,1,.63-.07c1.76,0,2.59,1.68,3.55,4.24l3.43,9.1H73.79Z"/><path class="cls-2" d="M82.93,41.93c0,1.15.65,2,1.53,2s1.87-1.14,1.87-3.55a6.06,6.06,0,0,0-1.48-4.2v-.06h1.54a5.8,5.8,0,0,1,1.54,4.3c0,3.33-1.69,4.87-3.39,4.87a2.42,2.42,0,0,1-2.33-1.6h-.08a2.51,2.51,0,0,1-2.37,1.6c-1.55,0-3.27-1.32-3.27-4.72a6.46,6.46,0,0,1,1.57-4.45h1.5v.06a6.45,6.45,0,0,0-1.48,4.35c0,2.5,1,3.4,1.91,3.4s1.48-.9,1.48-2l0-3.43H83Z"/><path class="cls-2" d="M90.42,36.15l1.72,5c.3.79.52,1.55.78,2.33H93c.74-1.44,2.31-4.46,2.31-6.53,0-.3,0-.58,0-.84h1.54a6.34,6.34,0,0,1,0,.67c0,2.54-1.72,5.57-3.35,8.29H92l-3.28-9Z"/></g></g></svg>