<svg xmlns="http://www.w3.org/2000/svg" viewBox="0 0 160.92 160.93"><defs><style>.cls-1{fill:#fd6925;}.cls-2{fill:#fff;}</style></defs><g id="Layer_2" data-name="Layer 2"><g id="Layer_1-2" data-name="Layer 1"><rect class="cls-1" width="160.92" height="160.93"/><path class="cls-2" d="M121.57,105.77l-19.13-11V72.65a1.3,1.3,0,0,0-.65-1.13L82,60.1a1.28,1.28,0,0,0-1.31,0L60.92,71.52a1.3,1.3,0,0,0-.65,1.13V94.73l-19.12,11a1.31,1.31,0,0,0-.66,1.13v22.84a1.32,1.32,0,0,0,.66,1.14l19.77,11.41a1.31,1.31,0,0,0,.66.18,1.28,1.28,0,0,0,.65-.18l19.13-11,19.12,11a1.28,1.28,0,0,0,.65.18,1.31,1.31,0,0,0,.66-.18l19.78-11.41a1.33,1.33,0,0,0,.65-1.14V106.9A1.31,1.31,0,0,0,121.57,105.77ZM80.05,127.48l-15.86-9.16,15.86-9.16Zm18.47-32-15.86,9.15V86.32Zm-18.47,9.15L64.19,95.49l15.86-9.17ZM84,106.9,101.13,97l17.18,9.91-17.18,9.92ZM99.83,93.23,84,84.06l15.86-9.15ZM78.75,84.06,62.88,93.23V74.91ZM60.27,138.9,43.1,129V109.16l17.17,9.92Zm2.61,0V120.58l15.87,9.16ZM119.61,129l-17.17,9.91V119.08l17.17-9.92Z"/><path class="cls-2" d="M39,14.41h1.61v6h0c.33-.48.67-.92,1-1.33l3.82-4.68h2L42.89,19.7l4.87,7.18H45.85l-4.11-6.12-1.18,1.36v4.76H39Z"/><path class="cls-2" d="M56.62,17.92c-.09.95-.24,4-.24,6.41,0,1.05.26,1.5.89,1.52L57.14,27a1.51,1.51,0,0,1-.56.08c-.79,0-1.44-.52-1.53-1.89H55a3.44,3.44,0,0,1-3.05,1.89c-2.13,0-3.67-1.78-3.67-4.5,0-2.93,1.93-4.87,4-4.87A2.86,2.86,0,0,1,55,19.51h.07a14.92,14.92,0,0,1,.17-1.59Zm-4.28,7.87a2.77,2.77,0,0,0,2.39-2.28,4.93,4.93,0,0,0,.11-1.26,4.3,4.3,0,0,0-.07-1A2.57,2.57,0,0,0,52.47,19c-1.51,0-2.55,1.5-2.55,3.53C49.92,24.23,50.79,25.79,52.34,25.79Z"/><path class="cls-2" d="M60.75,24.72c0,.79.16,1.13.87,1.09L61.52,27a2.54,2.54,0,0,1-.74.1c-.94,0-1.66-.43-1.66-2.21v-7h1.63Z"/><path class="cls-2" d="M63.93,17.92l1.72,5c.3.79.52,1.55.78,2.33h0c.74-1.44,2.32-4.46,2.32-6.53,0-.3,0-.58,0-.84h1.53a6.17,6.17,0,0,1,.06.67c0,2.54-1.72,5.57-3.35,8.29H65.48l-3.27-9Z"/><path class="cls-2" d="M80.27,22.33a4.38,4.38,0,0,1-4.46,4.76,4.26,4.26,0,0,1-4.29-4.61c0-3,2-4.76,4.44-4.76S80.27,19.59,80.27,22.33Zm-7.11.09c0,2,1.13,3.44,2.72,3.44s2.72-1.46,2.72-3.48c0-1.51-.75-3.44-2.68-3.44S73.16,20.72,73.16,22.42Z"/><path class="cls-2" d="M86.75,26.94a2.42,2.42,0,0,1-.89.15c-1.44,0-2.07-.89-2.07-2.78V19.2h-1a8.37,8.37,0,0,0-1.81.15l-.22-1a4.3,4.3,0,0,1,2.44-.48h5.17l-.21,1.28H85.4v5.07c0,1.22.48,1.52,1,1.52a2.3,2.3,0,0,0,.39,0Z"/><path class="cls-2" d="M97.76,22.33a4.39,4.39,0,0,1-4.46,4.76A4.26,4.26,0,0,1,89,22.48c0-3,2-4.76,4.45-4.76S97.76,19.59,97.76,22.33Zm-7.11.09c0,2,1.13,3.44,2.72,3.44s2.72-1.46,2.72-3.48c0-1.51-.76-3.44-2.68-3.44S90.65,20.72,90.65,22.42Z"/><path class="cls-2" d="M105.86,25.49a2.9,2.9,0,0,1-2.57,1.56,2.16,2.16,0,0,1-2-1v1.11a19.58,19.58,0,0,0,.2,3.37h-1.46a14.24,14.24,0,0,1-.26-3.3V17.92h1.61v5.3c0,1.39.59,2.53,2,2.53a2.32,2.32,0,0,0,2.3-2.33v-5.5h1.6v6.5c0,1,.21,1.37.86,1.41L108.07,27a1.54,1.54,0,0,1-.56.08c-.79,0-1.44-.45-1.59-1.6Z"/><path class="cls-2" d="M111.67,24.72c0,.79.17,1.13.87,1.09L112.45,27a2.54,2.54,0,0,1-.74.1c-.94,0-1.66-.43-1.66-2.21v-7h1.62Zm1.13-10.55-1.53,2.64h-1.1l1-2.64Z"/><path class="cls-2" d="M122.11,17.92c-.09.95-.24,4-.24,6.41,0,1.05.26,1.5.89,1.52L122.63,27a1.49,1.49,0,0,1-.55.08c-.8,0-1.45-.52-1.54-1.89h-.06a3.44,3.44,0,0,1-3,1.89c-2.13,0-3.67-1.78-3.67-4.5,0-2.93,1.93-4.87,4-4.87a2.86,2.86,0,0,1,2.76,1.79h.07a14.92,14.92,0,0,1,.17-1.59Zm-4.27,7.87a2.76,2.76,0,0,0,2.38-2.28,4.9,4.9,0,0,0,.12-1.26,3.78,3.78,0,0,0-.08-1A2.57,2.57,0,0,0,118,19c-1.52,0-2.56,1.5-2.56,3.53C115.41,24.23,116.28,25.79,117.84,25.79Z"/><path class="cls-2" d="M38.89,45.39v-7a7,7,0,0,0-.2-1.94h1.57A3.17,3.17,0,0,1,40.52,38v2.46h.07c1.61-1.52,2.87-2.91,3.93-4h1.9v.07c-1.25,1.17-2.68,2.56-4.25,4v.05c.88.21,1.85,1.35,2.75,2.56l1.63,2.24H44.67l-1.41-1.91c-.91-1.18-1.74-2-2.59-2.07h-.15v4Z"/><path class="cls-2" d="M55.44,36.43c-.1.94-.24,4-.24,6.4,0,1.06.25,1.5.88,1.52L56,45.52a1.75,1.75,0,0,1-.55.07c-.8,0-1.44-.52-1.54-1.89h0a3.43,3.43,0,0,1-3.06,1.89c-2.13,0-3.66-1.78-3.66-4.5,0-2.92,1.92-4.86,4-4.86A2.84,2.84,0,0,1,53.84,38h.08a15,15,0,0,1,.16-1.59ZM51.16,44.3A2.79,2.79,0,0,0,53.55,42a5.48,5.48,0,0,0,.11-1.26,3.74,3.74,0,0,0-.08-1,2.57,2.57,0,0,0-2.29-2.3c-1.52,0-2.55,1.5-2.55,3.54C48.74,42.74,49.61,44.3,51.16,44.3Z"/><path class="cls-2" d="M59.56,43.22c0,.8.17,1.13.87,1.09l-.09,1.19a3.05,3.05,0,0,1-.74.09c-1,0-1.67-.42-1.67-2.2v-7h1.63Z"/><path class="cls-2" d="M73.05,36.43a8.63,8.63,0,0,1,.67,3.5c0,2.63-.85,5.66-4.09,5.66A3.3,3.3,0,0,1,66.11,42V39.45a12.45,12.45,0,0,0-.2-3h1.55a3.06,3.06,0,0,1,.26,1.68v3.65c0,1.8,1.06,2.48,2,2.48,1.55,0,2.37-1.59,2.37-4.16a10.76,10.76,0,0,0-.6-3.65Z"/><path class="cls-2" d="M83,37.71v5a9.91,9.91,0,0,0,.26,2.67H81.64a6.86,6.86,0,0,1-.28-2.5V37.71H78.42a28.68,28.68,0,0,1-1.26,7.68H75.6a29.29,29.29,0,0,0,1.26-7.68,7.35,7.35,0,0,0-1.83.16l-.22-1a4.68,4.68,0,0,1,2.57-.48h7l-.19,1.28Z"/><path class="cls-2" d="M94.2,40.83a4.37,4.37,0,0,1-4.46,4.76A4.26,4.26,0,0,1,85.45,41c0-3,2-4.75,4.44-4.75S94.2,38.1,94.2,40.83Zm-7.1.1c0,2,1.13,3.44,2.72,3.44s2.72-1.46,2.72-3.48c0-1.52-.76-3.44-2.69-3.44S87.1,39.22,87.1,40.93Z"/><path class="cls-2" d="M103.05,34a4.92,4.92,0,0,0-2.44-.74c-1,0-1.52.39-1.52.84s.5.83,1.33,1.5l1.52,1.22a5.12,5.12,0,0,1,2.37,4.2A4.31,4.31,0,0,1,100,45.59a4.25,4.25,0,0,1-4.35-4.5c0-2.29,1.57-3.81,3.41-4.68v-.09L98.59,36a2.62,2.62,0,0,1-1.13-1.86c0-1,1-2.09,3.11-2.09a5.11,5.11,0,0,1,3,.89ZM100,37.17a4.39,4.39,0,0,0-2.7,3.91,3,3,0,0,0,2.79,3.29c1.43,0,2.63-1.2,2.63-3.24A3.91,3.91,0,0,0,100.94,38Z"/><path class="cls-2" d="M114.47,40.83A4.38,4.38,0,0,1,110,45.59a4.26,4.26,0,0,1-4.3-4.61c0-3,2-4.75,4.45-4.75S114.47,38.1,114.47,40.83Zm-7.11.1c0,2,1.13,3.44,2.72,3.44s2.72-1.46,2.72-3.48c0-1.52-.76-3.44-2.68-3.44S107.36,39.22,107.36,40.93Z"/><path class="cls-2" d="M122.57,44A2.92,2.92,0,0,1,120,45.55a2.14,2.14,0,0,1-2-1v1.11a19.58,19.58,0,0,0,.2,3.37h-1.46a14.14,14.14,0,0,1-.26-3.29V36.43h1.61v5.29c0,1.39.59,2.54,2,2.54a2.41,2.41,0,0,0,2.15-1.5,2.45,2.45,0,0,0,.15-.83v-5.5h1.61v6.5c0,1,.2,1.37.85,1.4l-.13,1.19a1.82,1.82,0,0,1-.56.07c-.79,0-1.44-.44-1.59-1.59Z"/><path class="cls-2" d="M133.18,44.78a6.57,6.57,0,0,1-3.28.81c-1.79,0-3.77-.7-3.77-2.72a2.39,2.39,0,0,1,2.22-2.24v-.09a2,2,0,0,1-1.78-1.89c0-1.18,1.18-2.42,3.57-2.42a4.77,4.77,0,0,1,2.72.68L132.51,38a4.86,4.86,0,0,0-2.24-.55c-1.24,0-2.07.52-2.07,1.33S129.29,40,130.7,40h1.07V41.2h-1.13c-1.61,0-2.81.45-2.81,1.52s1.11,1.63,2.42,1.63a6,6,0,0,0,2.63-.68Zm-1.39-12.09-1.54,2.65h-1.11l1-2.65Z"/><path class="cls-2" d="M140.67,37.82a3.92,3.92,0,0,0-1.64-.34,3.25,3.25,0,0,0-3.19,3.43,3.07,3.07,0,0,0,2.54,3.18,19.83,19.83,0,0,0,2.39.48c.13,0,.18.1.18.28a6.58,6.58,0,0,1-1.07,3.2l-1.09-.33a7.21,7.21,0,0,0,.61-2c-.61-.11-1.28-.24-1.84-.39a4.21,4.21,0,0,1-3.36-4.25A4.71,4.71,0,0,1,139,36.23a4.4,4.4,0,0,1,2,.4Z"/><rect class="cls-1" width="160.92" height="160.93"/><path class="cls-2" d="M29.47,21.65c0-5-2.2-8.66-7.94-8.66s-8,3.16-8,8.18V26c0,5.31,2.1,8,6,8A4.66,4.66,0,0,0,24,31.31h.05v7c0,2-.77,3.35-2.73,3.35s-2.68-1.14-2.68-3.15V36.34h-5v1.72c0,4.78,1.72,8.13,7.75,8.13,5.73,0,8-3.69,8-8.76Zm-5.4,5c-.1,1.81-.86,3-2.59,3s-2.58-1.15-2.58-3.25V20.69c0-2.05.77-3.25,2.63-3.25s2.54,1.24,2.54,3.25Z"/><path class="cls-2" d="M121.57,105.77l-19.13-11V72.65a1.3,1.3,0,0,0-.65-1.13L82,60.1a1.28,1.28,0,0,0-1.31,0L60.92,71.52a1.3,1.3,0,0,0-.65,1.13V94.73l-19.12,11a1.31,1.31,0,0,0-.66,1.13v22.84a1.32,1.32,0,0,0,.66,1.14l19.77,11.41a1.31,1.31,0,0,0,.66.18,1.28,1.28,0,0,0,.65-.18l19.13-11,19.12,11a1.28,1.28,0,0,0,.65.18,1.31,1.31,0,0,0,.66-.18l19.78-11.41a1.33,1.33,0,0,0,.65-1.14V106.9A1.31,1.31,0,0,0,121.57,105.77ZM80.05,127.48l-15.86-9.16,15.86-9.16Zm18.47-32-15.86,9.15V86.32Zm-18.47,9.15L64.19,95.49l15.86-9.17ZM84,106.9,101.13,97l17.18,9.91-17.18,9.92ZM99.83,93.23,84,84.06l15.86-9.15ZM78.75,84.06,62.88,93.23V74.91ZM60.27,138.9,43.1,129V109.16l17.17,9.92Zm2.61,0V120.58l15.87,9.16ZM119.61,129l-17.17,9.91V119.08l17.17-9.92Z"/><path class="cls-2" d="M39,14.41h1.61v6h0c.33-.48.67-.92,1-1.33l3.82-4.68h2L42.89,19.7l4.87,7.18H45.85l-4.11-6.12-1.18,1.36v4.76H39Z"/><path class="cls-2" d="M56.62,17.92c-.09.95-.24,4-.24,6.41,0,1.05.26,1.5.89,1.52L57.14,27a1.51,1.51,0,0,1-.56.08c-.79,0-1.44-.52-1.53-1.89H55a3.44,3.44,0,0,1-3.05,1.89c-2.13,0-3.67-1.78-3.67-4.5,0-2.93,1.93-4.87,4-4.87A2.86,2.86,0,0,1,55,19.51h.07a14.92,14.92,0,0,1,.17-1.59Zm-4.28,7.87a2.77,2.77,0,0,0,2.39-2.28,4.93,4.93,0,0,0,.11-1.26,4.3,4.3,0,0,0-.07-1A2.57,2.57,0,0,0,52.47,19c-1.51,0-2.55,1.5-2.55,3.53C49.92,24.23,50.79,25.79,52.34,25.79Z"/><path class="cls-2" d="M60.75,24.72c0,.79.16,1.13.87,1.09L61.52,27a2.54,2.54,0,0,1-.74.1c-.94,0-1.66-.43-1.66-2.21v-7h1.63Z"/><path class="cls-2" d="M63.93,17.92l1.72,5c.3.79.52,1.55.78,2.33h0c.74-1.44,2.32-4.46,2.32-6.53,0-.3,0-.58,0-.84h1.53a6.17,6.17,0,0,1,.06.67c0,2.54-1.72,5.57-3.35,8.29H65.48l-3.27-9Z"/><path class="cls-2" d="M80.27,22.33a4.38,4.38,0,0,1-4.46,4.76,4.26,4.26,0,0,1-4.29-4.61c0-3,2-4.76,4.44-4.76S80.27,19.59,80.27,22.33Zm-7.11.09c0,2,1.13,3.44,2.72,3.44s2.72-1.46,2.72-3.48c0-1.51-.75-3.44-2.68-3.44S73.16,20.72,73.16,22.42Z"/><path class="cls-2" d="M86.75,26.94a2.42,2.42,0,0,1-.89.15c-1.44,0-2.07-.89-2.07-2.78V19.2h-1a8.37,8.37,0,0,0-1.81.15l-.22-1a4.3,4.3,0,0,1,2.44-.48h5.17l-.21,1.28H85.4v5.07c0,1.22.48,1.52,1,1.52a2.3,2.3,0,0,0,.39,0Z"/><path class="cls-2" d="M97.76,22.33a4.39,4.39,0,0,1-4.46,4.76A4.26,4.26,0,0,1,89,22.48c0-3,2-4.76,4.45-4.76S97.76,19.59,97.76,22.33Zm-7.11.09c0,2,1.13,3.44,2.72,3.44s2.72-1.46,2.72-3.48c0-1.51-.76-3.44-2.68-3.44S90.65,20.72,90.65,22.42Z"/><path class="cls-2" d="M105.86,25.49a2.9,2.9,0,0,1-2.57,1.56,2.16,2.16,0,0,1-2-1v1.11a19.58,19.58,0,0,0,.2,3.37h-1.46a14.24,14.24,0,0,1-.26-3.3V17.92h1.61v5.3c0,1.39.59,2.53,2,2.53a2.32,2.32,0,0,0,2.3-2.33v-5.5h1.6v6.5c0,1,.21,1.37.86,1.41L108.07,27a1.54,1.54,0,0,1-.56.08c-.79,0-1.44-.45-1.59-1.6Z"/><path class="cls-2" d="M111.67,24.72c0,.79.17,1.13.87,1.09L112.45,27a2.54,2.54,0,0,1-.74.1c-.94,0-1.66-.43-1.66-2.21v-7h1.62Zm1.13-10.55-1.53,2.64h-1.1l1-2.64Z"/><path class="cls-2" d="M122.11,17.92c-.09.95-.24,4-.24,6.41,0,1.05.26,1.5.89,1.52L122.63,27a1.49,1.49,0,0,1-.55.08c-.8,0-1.45-.52-1.54-1.89h-.06a3.44,3.44,0,0,1-3,1.89c-2.13,0-3.67-1.78-3.67-4.5,0-2.93,1.93-4.87,4-4.87a2.86,2.86,0,0,1,2.76,1.79h.07a14.92,14.92,0,0,1,.17-1.59Zm-4.27,7.87a2.76,2.76,0,0,0,2.38-2.28,4.9,4.9,0,0,0,.12-1.26,3.78,3.78,0,0,0-.08-1A2.57,2.57,0,0,0,118,19c-1.52,0-2.56,1.5-2.56,3.53C115.41,24.23,116.28,25.79,117.84,25.79Z"/><path class="cls-2" d="M38.89,45.39v-7a7,7,0,0,0-.2-1.94h1.57A3.17,3.17,0,0,1,40.52,38v2.46h.07c1.61-1.52,2.87-2.91,3.93-4h1.9v.07c-1.25,1.17-2.68,2.56-4.25,4v.05c.88.21,1.85,1.35,2.75,2.56l1.63,2.24H44.67l-1.41-1.91c-.91-1.18-1.74-2-2.59-2.07h-.15v4Z"/><path class="cls-2" d="M55.44,36.43c-.1.94-.24,4-.24,6.4,0,1.06.25,1.5.88,1.52L56,45.52a1.75,1.75,0,0,1-.55.07c-.8,0-1.44-.52-1.54-1.89h0a3.43,3.43,0,0,1-3.06,1.89c-2.13,0-3.66-1.78-3.66-4.5,0-2.92,1.92-4.86,4-4.86A2.84,2.84,0,0,1,53.84,38h.08a15,15,0,0,1,.16-1.59ZM51.16,44.3A2.79,2.79,0,0,0,53.55,42a5.48,5.48,0,0,0,.11-1.26,3.74,3.74,0,0,0-.08-1,2.57,2.57,0,0,0-2.29-2.3c-1.52,0-2.55,1.5-2.55,3.54C48.74,42.74,49.61,44.3,51.16,44.3Z"/><path class="cls-2" d="M59.56,43.22c0,.8.17,1.13.87,1.09l-.09,1.19a3.05,3.05,0,0,1-.74.09c-1,0-1.67-.42-1.67-2.2v-7h1.63Z"/><path class="cls-2" d="M73.05,36.43a8.63,8.63,0,0,1,.67,3.5c0,2.63-.85,5.66-4.09,5.66A3.3,3.3,0,0,1,66.11,42V39.45a12.45,12.45,0,0,0-.2-3h1.55a3.06,3.06,0,0,1,.26,1.68v3.65c0,1.8,1.06,2.48,2,2.48,1.55,0,2.37-1.59,2.37-4.16a10.76,10.76,0,0,0-.6-3.65Z"/><path class="cls-2" d="M83,37.71v5a9.91,9.91,0,0,0,.26,2.67H81.64a6.86,6.86,0,0,1-.28-2.5V37.71H78.42a28.68,28.68,0,0,1-1.26,7.68H75.6a29.29,29.29,0,0,0,1.26-7.68,7.35,7.35,0,0,0-1.83.16l-.22-1a4.68,4.68,0,0,1,2.57-.48h7l-.19,1.28Z"/><path class="cls-2" d="M94.2,40.83a4.37,4.37,0,0,1-4.46,4.76A4.26,4.26,0,0,1,85.45,41c0-3,2-4.75,4.44-4.75S94.2,38.1,94.2,40.83Zm-7.1.1c0,2,1.13,3.44,2.72,3.44s2.72-1.46,2.72-3.48c0-1.52-.76-3.44-2.69-3.44S87.1,39.22,87.1,40.93Z"/><path class="cls-2" d="M103.05,34a4.92,4.92,0,0,0-2.44-.74c-1,0-1.52.39-1.52.84s.5.83,1.33,1.5l1.52,1.22a5.12,5.12,0,0,1,2.37,4.2A4.31,4.31,0,0,1,100,45.59a4.25,4.25,0,0,1-4.35-4.5c0-2.29,1.57-3.81,3.41-4.68v-.09L98.59,36a2.62,2.62,0,0,1-1.13-1.86c0-1,1-2.09,3.11-2.09a5.11,5.11,0,0,1,3,.89ZM100,37.17a4.39,4.39,0,0,0-2.7,3.91,3,3,0,0,0,2.79,3.29c1.43,0,2.63-1.2,2.63-3.24A3.91,3.91,0,0,0,100.94,38Z"/><path class="cls-2" d="M114.47,40.83A4.38,4.38,0,0,1,110,45.59a4.26,4.26,0,0,1-4.3-4.61c0-3,2-4.75,4.45-4.75S114.47,38.1,114.47,40.83Zm-7.11.1c0,2,1.13,3.44,2.72,3.44s2.72-1.46,2.72-3.48c0-1.52-.76-3.44-2.68-3.44S107.36,39.22,107.36,40.93Z"/><path class="cls-2" d="M122.57,44A2.92,2.92,0,0,1,120,45.55a2.14,2.14,0,0,1-2-1v1.11a19.58,19.58,0,0,0,.2,3.37h-1.46a14.14,14.14,0,0,1-.26-3.29V36.43h1.61v5.29c0,1.39.59,2.54,2,2.54a2.41,2.41,0,0,0,2.15-1.5,2.45,2.45,0,0,0,.15-.83v-5.5h1.61v6.5c0,1,.2,1.37.85,1.4l-.13,1.19a1.82,1.82,0,0,1-.56.07c-.79,0-1.44-.44-1.59-1.59Z"/><path class="cls-2" d="M133.18,44.78a6.57,6.57,0,0,1-3.28.81c-1.79,0-3.77-.7-3.77-2.72a2.39,2.39,0,0,1,2.22-2.24v-.09a2,2,0,0,1-1.78-1.89c0-1.18,1.18-2.42,3.57-2.42a4.77,4.77,0,0,1,2.72.68L132.51,38a4.86,4.86,0,0,0-2.24-.55c-1.24,0-2.07.52-2.07,1.33S129.29,40,130.7,40h1.07V41.2h-1.13c-1.61,0-2.81.45-2.81,1.52s1.11,1.63,2.42,1.63a6,6,0,0,0,2.63-.68Zm-1.39-12.09-1.54,2.65h-1.11l1-2.65Z"/><path class="cls-2" d="M140.67,37.82a3.92,3.92,0,0,0-1.64-.34,3.25,3.25,0,0,0-3.19,3.43,3.07,3.07,0,0,0,2.54,3.18,19.83,19.83,0,0,0,2.39.48c.13,0,.18.1.18.28a6.58,6.58,0,0,1-1.07,3.2l-1.09-.33a7.21,7.21,0,0,0,.61-2c-.61-.11-1.28-.24-1.84-.39a4.21,4.21,0,0,1-3.36-4.25A4.71,4.71,0,0,1,139,36.23a4.4,4.4,0,0,1,2,.4Z"/></g></g></svg>