<svg xmlns="http://www.w3.org/2000/svg" viewBox="0 0 160.92 160.93"><defs><style>.cls-1{fill:#dd1367;}.cls-2{fill:#fff;}</style></defs><g id="Layer_2" data-name="Layer 2"><g id="Layer_1-2" data-name="Layer 1"><rect class="cls-1" width="160.92" height="160.93"/><path class="cls-2" d="M40.91,37.57V21.85c0-5.08-2.53-8.76-8.09-8.76s-8,3.68-8,8.76V37.57c0,5,2.54,8.76,8.05,8.76s8.09-3.74,8.09-8.76m-10.68.86V21c0-2,.72-3.35,2.59-3.35S35.45,19,35.45,21V38.43c0,2-.72,3.35-2.63,3.35s-2.59-1.39-2.59-3.35"/><path class="cls-2" d="M62.8,21.11c-.1-1.74-.21-3.83-.19-5.38h0c-.43,1.46-1,3-1.58,4.73l-2.2,6.06H57.56l-2-5.94c-.59-1.76-1.09-3.37-1.44-4.85h0c0,1.55-.13,3.64-.24,5.51l-.33,5.35H52l.87-12.47h2l2.13,6c.52,1.54,1,2.91,1.26,4.2h.06c.31-1.26.76-2.63,1.31-4.2l2.22-6h2.06l.77,12.47H63.11Z"/><path class="cls-2" d="M73.53,26a6.57,6.57,0,0,1-3.28.81c-1.79,0-3.77-.7-3.77-2.72a2.4,2.4,0,0,1,2.22-2.24v-.09a2,2,0,0,1-1.78-1.89c0-1.18,1.19-2.42,3.57-2.42a4.77,4.77,0,0,1,2.72.68l-.35,1.08a4.84,4.84,0,0,0-2.24-.56c-1.24,0-2.07.52-2.07,1.33s1.09,1.28,2.5,1.28h1.07v1.17H71c-1.61,0-2.81.44-2.81,1.52s1.11,1.62,2.43,1.62a5.93,5.93,0,0,0,2.62-.68Z"/><path class="cls-2" d="M76.82,24.42c0,.8.17,1.13.87,1.1L77.6,26.7a2.58,2.58,0,0,1-.74.09c-.94,0-1.67-.42-1.67-2.2v-7h1.63ZM78,13.88l-1.53,2.64h-1.1l1-2.64Z"/><path class="cls-2" d="M85.35,23.41c0,1.14.65,2,1.54,2s1.87-1.14,1.87-3.55a6.1,6.1,0,0,0-1.48-4.2v-.06h1.54a5.84,5.84,0,0,1,1.53,4.3c0,3.33-1.68,4.86-3.39,4.86a2.41,2.41,0,0,1-2.33-1.59h-.07a2.52,2.52,0,0,1-2.37,1.59c-1.55,0-3.28-1.31-3.28-4.72a6.45,6.45,0,0,1,1.58-4.44H82v.06A6.4,6.4,0,0,0,80.51,22c0,2.5,1,3.4,1.9,3.4s1.48-.9,1.48-2l0-3.43h1.53Z"/><path class="cls-2" d="M101.14,18.67c-.44,0-1,0-2.35-.08v.08a4.11,4.11,0,0,1,1.67,3.39c0,3.29-2.26,4.73-4.3,4.73a4.24,4.24,0,0,1-4.29-4.59,4.41,4.41,0,0,1,4.61-4.77h4.72Zm-2.29,3.39c0-1.52-.78-3.41-2.63-3.41s-2.7,1.78-2.7,3.48c0,2,1.12,3.44,2.68,3.44S98.85,24.09,98.85,22.06Z"/><path class="cls-2" d="M102.86,26.59V20.06a8.26,8.26,0,0,0-.26-2.43h1.46a3.67,3.67,0,0,1,.26,1.48h0a3.29,3.29,0,0,1,3-1.68c1.24,0,3.17.74,3.17,3.81v5.68a18.88,18.88,0,0,0,.18,3.33h-1.54a13,13,0,0,1-.27-3.27V21.43c0-1.45-.54-2.65-2.08-2.65a2.31,2.31,0,0,0-2.18,1.67,2.42,2.42,0,0,0-.11.75v5.39Z"/><path class="cls-2" d="M121.57,26.65a2.37,2.37,0,0,1-.89.14c-1.44,0-2.07-.88-2.07-2.77V18.91h-1a8.23,8.23,0,0,0-1.81.15l-.23-.95a4.35,4.35,0,0,1,2.45-.48h5.16l-.2,1.28h-2.78V24c0,1.22.48,1.52,1,1.52a2.24,2.24,0,0,0,.38,0Z"/><path class="cls-2" d="M130.49,23.41c0,1.14.65,2,1.54,2s1.87-1.14,1.87-3.55a6.1,6.1,0,0,0-1.48-4.2v-.06H134a5.8,5.8,0,0,1,1.54,4.3c0,3.33-1.69,4.86-3.39,4.86a2.41,2.41,0,0,1-2.33-1.59h-.07a2.52,2.52,0,0,1-2.37,1.59c-1.56,0-3.28-1.31-3.28-4.72a6.5,6.5,0,0,1,1.57-4.44h1.5v.06A6.45,6.45,0,0,0,125.64,22c0,2.5,1.06,3.4,1.91,3.4s1.48-.9,1.48-2L129,20h1.54Z"/><path class="cls-2" d="M138,17.63l1.72,5c.29.79.52,1.55.77,2.33h.06c.74-1.45,2.31-4.46,2.31-6.53,0-.3,0-.58,0-.84h1.54a6.17,6.17,0,0,1,.06.67c0,2.53-1.73,5.57-3.35,8.29h-1.54l-3.28-9Z"/><path class="cls-2" d="M59.93,36.14c-.1.94-.24,4-.24,6.4,0,1.06.26,1.5.88,1.52l-.12,1.17a1.82,1.82,0,0,1-.56.07c-.8,0-1.44-.52-1.54-1.89H58.3a3.42,3.42,0,0,1-3.06,1.89c-2.12,0-3.66-1.78-3.66-4.5,0-2.92,1.93-4.86,4-4.86a2.87,2.87,0,0,1,2.76,1.79h.07a12.48,12.48,0,0,1,.17-1.59ZM55.65,44A2.78,2.78,0,0,0,58,41.73a5.48,5.48,0,0,0,.11-1.26,4.26,4.26,0,0,0-.07-1,2.58,2.58,0,0,0-2.3-2.3c-1.52,0-2.55,1.5-2.55,3.54C53.23,42.45,54.1,44,55.65,44Z"/><path class="cls-2" d="M62.87,36.14l1.72,5c.3.8.52,1.56.78,2.34h0c.74-1.45,2.32-4.47,2.32-6.54,0-.29,0-.57,0-.83h1.53a5.74,5.74,0,0,1,.06.67c0,2.53-1.72,5.57-3.35,8.29H64.42l-3.27-9Z"/><path class="cls-2" d="M72.73,42.93c0,.8.17,1.13.87,1.09l-.09,1.19a3,3,0,0,1-.74.09c-.94,0-1.67-.43-1.67-2.2v-7h1.63Z"/><path class="cls-2" d="M84.1,37.18c-.45,0-1,0-2.35-.08v.08a4.1,4.1,0,0,1,1.66,3.38c0,3.3-2.26,4.74-4.29,4.74a4.25,4.25,0,0,1-4.3-4.59,4.4,4.4,0,0,1,4.61-4.77h4.72Zm-2.3,3.38c0-1.52-.78-3.4-2.63-3.4s-2.7,1.77-2.7,3.48c0,2,1.13,3.44,2.68,3.44S81.8,42.6,81.8,40.56Z"/><path class="cls-2" d="M93.83,40.54a4.37,4.37,0,0,1-4.46,4.76,4.26,4.26,0,0,1-4.29-4.61c0-3,2-4.75,4.44-4.75S93.83,37.8,93.83,40.54Zm-7.11.1c0,2,1.13,3.44,2.72,3.44s2.72-1.46,2.72-3.48c0-1.52-.75-3.44-2.68-3.44S86.72,38.93,86.72,40.64Z"/><path class="cls-2" d="M100.31,45.15a2.42,2.42,0,0,1-.89.15c-1.44,0-2.07-.89-2.07-2.78v-5.1h-1a9.37,9.37,0,0,0-1.82.14l-.22-.94a4.3,4.3,0,0,1,2.44-.48h5.17l-.21,1.28H99v5.07c0,1.22.48,1.51,1,1.51h.39Z"/><path class="cls-2" d="M103.44,45.1V38.56a8.58,8.58,0,0,0-.26-2.42h1.46a3.85,3.85,0,0,1,.26,1.48h0a3.3,3.3,0,0,1,3-1.68c1.24,0,3.16.74,3.16,3.81v5.68a17.9,17.9,0,0,0,.19,3.33h-1.54a13,13,0,0,1-.28-3.27V39.93c0-1.44-.54-2.64-2.07-2.64A2.33,2.33,0,0,0,105.17,39a2.49,2.49,0,0,0-.11.76V45.1Zm5.86-12.7-1.53,2.65h-1.11l1-2.65Z"/><path class="cls-2" d="M118.15,45.15a2.42,2.42,0,0,1-.89.15c-1.44,0-2.07-.89-2.07-2.78v-5.1h-1a9.37,9.37,0,0,0-1.82.14l-.22-.94a4.3,4.3,0,0,1,2.44-.48h5.17l-.21,1.28H116.8v5.07c0,1.22.48,1.51,1,1.51h.39Z"/><path class="cls-2" d="M127.07,41.91c0,1.15.65,2,1.53,2s1.87-1.15,1.87-3.55A6.15,6.15,0,0,0,129,36.19v0h1.54a5.82,5.82,0,0,1,1.54,4.29c0,3.33-1.69,4.87-3.39,4.87a2.41,2.41,0,0,1-2.33-1.59h-.08a2.5,2.5,0,0,1-2.37,1.59c-1.55,0-3.27-1.31-3.27-4.72a6.43,6.43,0,0,1,1.57-4.44h1.5v0a6.47,6.47,0,0,0-1.48,4.35c0,2.5,1,3.41,1.91,3.41s1.48-.91,1.48-2l0-3.42h1.54Z"/><path class="cls-2" d="M134.56,36.14l1.72,5c.3.8.52,1.56.78,2.34h.06c.74-1.45,2.31-4.47,2.31-6.54,0-.29,0-.57,0-.83H141a6,6,0,0,1,.05.67c0,2.53-1.72,5.57-3.35,8.29h-1.53l-3.28-9Z"/><path class="cls-2" d="M94.43,107.5H64.57a.35.35,0,0,0-.33.36v9a.35.35,0,0,0,.33.37H94.43a.35.35,0,0,0,.33-.37v-9a.35.35,0,0,0-.33-.36"/><path class="cls-2" d="M94.43,88.4H64.57a.35.35,0,0,0-.33.36v9a.35.35,0,0,0,.33.36H94.43a.35.35,0,0,0,.33-.36v-9a.35.35,0,0,0-.33-.36"/><path class="cls-2" d="M94,74.84,79.68,60.5a.26.26,0,0,0-.35,0L65,74.84a.25.25,0,0,0,.18.42H93.83A.25.25,0,0,0,94,74.84Z"/><path class="cls-2" d="M107.46,117.31,121.8,103a.26.26,0,0,0,0-.35L107.46,88.29a.24.24,0,0,0-.42.18v28.66A.25.25,0,0,0,107.46,117.31Z"/><path class="cls-2" d="M65,130.76l14.34,14.33a.24.24,0,0,0,.35,0L94,130.76a.25.25,0,0,0-.18-.42H65.17A.25.25,0,0,0,65,130.76Z"/><path class="cls-2" d="M51.54,88.29,37.2,102.62a.26.26,0,0,0,0,.35l14.34,14.34a.25.25,0,0,0,.42-.18V88.47A.24.24,0,0,0,51.54,88.29Z"/><polygon class="cls-2" points="15.53 21.09 15.53 45.95 20.99 45.95 20.99 13.47 16.63 13.47 11.6 19.36 11.6 25.06 11.64 25.06 15.48 21.09 15.53 21.09"/></g></g></svg>