<svg xmlns="http://www.w3.org/2000/svg" viewBox="0 0 160.92 160.93"><defs><style>.cls-1{fill:#0a97d9;}.cls-2{fill:#fff;}</style></defs><g id="Layer_2" data-name="Layer 2"><g id="Layer_1-2" data-name="Layer 1"><rect class="cls-1" width="160.92" height="160.93"/><polygon class="cls-2" points="20.97 13.54 20.97 45.97 15.51 45.97 15.51 21.15 15.46 21.15 11.64 25.12 11.59 25.12 11.59 19.42 16.61 13.54 20.97 13.54"/><path class="cls-2" d="M37.57,46V40.72h2.2V36.46h-2.2V13.53H32.21L22.79,37.37v3.35H32.4V46Zm-10-9.52L32.45,23.1h0V36.46Z"/><path class="cls-2" d="M123.55,117.42c-2-2.74-15.1-19.42-33.44-19.42-15.93,0-33,14.45-33,14.45s-6.4-13.1-19.49-14.36l-.25,0h-.08a.54.54,0,0,0-.5.52,1.49,1.49,0,0,0,.21.48c1.68,2.8,6,10.77,6,18.74s-4.33,16-6,18.76l-.12.18a.65.65,0,0,0-.08.28.52.52,0,0,0,.49.51h.28c13.13-1.22,19.55-14.36,19.55-14.36s17,14.44,33,14.44c18.34,0,31.42-16.68,33.44-19.41l.15-.18a.71.71,0,0,0,0-.2.54.54,0,0,0,0-.2l-.15-.19m-23.25,2.49a5.35,5.35,0,1,1,5.36-5.35,5.36,5.36,0,0,1-5.36,5.35"/><path class="cls-2" d="M37.24,66.65l-.1,0a.53.53,0,0,0-.53.53v3.65a.55.55,0,0,0,.15.38c8.86,7.69,17.24.48,19.18-1.42a.5.5,0,0,1,.14-.15.58.58,0,0,1,.29-.09.5.5,0,0,1,.35.14l0,0c10,9.54,20.49,1.81,22.67,0l.21-.2a.48.48,0,0,1,.2,0,.46.46,0,0,1,.21,0l.22.2c2.18,1.81,12.66,9.54,22.66,0a0,0,0,0,0,0,0,.52.52,0,0,1,.36-.14.55.55,0,0,1,.29.09.71.71,0,0,1,.15.15c1.93,1.9,10.31,9.11,19.17,1.42a.55.55,0,0,0,.15-.38V67.16a.52.52,0,0,0-.52-.53l-.11,0-.27.14c-2.72,1.36-11.16,4.61-18.83-2.64l-.22-.22a.56.56,0,0,0-.23,0l-.15,0a.58.58,0,0,0-.27.21c-2.29,1.74-12.77,8.84-22.11.13l-.14-.14a.62.62,0,0,0-.38-.15.58.58,0,0,0-.36.15l-.15.14C70,73,59.49,65.86,57.21,64.12a.61.61,0,0,0-.26-.21.86.86,0,0,0-.17,0,.59.59,0,0,0-.22,0c-.07.08-.15.15-.22.22-7.67,7.25-16.11,4-18.83,2.64l-.27-.14"/><path class="cls-2" d="M55.94,83.05a.47.47,0,0,1,.14-.14.49.49,0,0,1,.65,0l0,0c10,9.53,20.49,1.8,22.67,0l.21-.21a.69.69,0,0,1,.2,0,.66.66,0,0,1,.21,0l.22.21c2.18,1.8,12.66,9.53,22.66,0l0,0a.49.49,0,0,1,.36-.15.48.48,0,0,1,.29.1.66.66,0,0,1,.15.14c1.93,1.91,10.31,9.12,19.17,1.42a.53.53,0,0,0,.16-.37V80.44a.52.52,0,0,0-.53-.52l-.11,0-.27.13c-2.72,1.37-11.17,4.6-18.83-2.64l-.22-.21a.43.43,0,0,0-.23,0,.26.26,0,0,0-.15,0,.41.41,0,0,0-.27.19c-2.28,1.74-12.77,8.84-22.11.13l-.14-.14a.56.56,0,0,0-.38-.14.52.52,0,0,0-.36.14l-.15.14C70,86.24,59.49,79.14,57.21,77.4a.42.42,0,0,0-.26-.19.33.33,0,0,0-.17,0,.44.44,0,0,0-.22,0l-.22.21c-7.67,7.24-16.11,4-18.83,2.64l-.27-.13-.1,0a.52.52,0,0,0-.53.52V84.1a.52.52,0,0,0,.15.37c8.86,7.7,17.24.49,19.18-1.42"/><path class="cls-2" d="M51.34,14a4.59,4.59,0,0,1,2.82,1.57A7.61,7.61,0,0,1,56,19.81H56a8.3,8.3,0,0,1,2-4.22A5.26,5.26,0,0,1,60.69,14l.25,1.22a7.43,7.43,0,0,0-4,5.13,9.3,9.3,0,0,0-.33,2.38v3h-1.5v-3a11.22,11.22,0,0,0-.24-2.34c-.69-3.12-2.31-4.8-3.84-5.15Z"/><path class="cls-2" d="M68.57,18.55v4.67a9.2,9.2,0,0,0,.24,2.48H67.35a6.37,6.37,0,0,1-.26-2.33V18.55H64.35a26.34,26.34,0,0,1-1.17,7.15H61.74a27.62,27.62,0,0,0,1.17-7.15,6.89,6.89,0,0,0-1.71.16l-.2-.9a4.3,4.3,0,0,1,2.39-.45H69.9l-.17,1.19Z"/><path class="cls-2" d="M79,21.46a4.08,4.08,0,0,1-4.15,4.43,4,4,0,0,1-4-4.29A4.06,4.06,0,0,1,75,17.18,3.94,3.94,0,0,1,79,21.46Zm-6.61.09c0,1.82,1,3.2,2.53,3.2s2.53-1.36,2.53-3.24c0-1.41-.7-3.2-2.5-3.2S72.43,20,72.43,21.55Z"/><path class="cls-2" d="M80.35,19.48c0-3.51,1.43-6.2,4-6.2s3.87,2.5,3.87,6.2c0,3.88-1.25,6.41-3.92,6.41C81.87,25.89,80.35,23.74,80.35,19.48Zm6.41-.65c0-2.45-.8-4.43-2.47-4.43s-2.44,2.09-2.44,4.43ZM81.85,20c0,3.07,1,4.81,2.51,4.81s2.4-2,2.4-4.81Z"/><path class="cls-2" d="M97.31,17.36c-.09.88-.22,3.74-.22,6,0,1,.24,1.4.82,1.41l-.12,1.09a1.49,1.49,0,0,1-.51.07c-.74,0-1.35-.48-1.43-1.76h0A3.21,3.21,0,0,1,93,25.89c-2,0-3.4-1.66-3.4-4.19,0-2.72,1.79-4.52,3.71-4.52a2.66,2.66,0,0,1,2.57,1.67h.07a13.69,13.69,0,0,1,.15-1.49Zm-4,7.32a2.57,2.57,0,0,0,2.22-2.12,4.65,4.65,0,0,0,.11-1.17,3.69,3.69,0,0,0-.07-.89,2.4,2.4,0,0,0-2.14-2.14c-1.41,0-2.37,1.4-2.37,3.29C91.08,23.24,91.89,24.68,93.33,24.68Z"/><path class="cls-2" d="M103.1,20.93c-.19-.57-.38-1.14-.55-1.81h-.09c-.12.55-.34,1.19-.53,1.76l-1.71,4.82H98.64l3-7.72a1.21,1.21,0,0,0,.1-.39,1.27,1.27,0,0,0-.12-.47c-.53-1.46-1.15-2.61-2.17-2.61h-.29l.14-1.17a2,2,0,0,1,.58-.07c1.64,0,2.41,1.57,3.31,4l3.19,8.47h-1.61Z"/><path class="cls-2" d="M115,17.36c-.09.88-.22,3.74-.22,6,0,1,.24,1.4.82,1.41l-.12,1.09a1.49,1.49,0,0,1-.51.07c-.74,0-1.35-.48-1.43-1.76h0a3.21,3.21,0,0,1-2.85,1.76c-2,0-3.41-1.66-3.41-4.19,0-2.72,1.8-4.52,3.72-4.52a2.66,2.66,0,0,1,2.57,1.67h.07a11.56,11.56,0,0,1,.15-1.49Zm-4,7.32a2.57,2.57,0,0,0,2.22-2.12,4.65,4.65,0,0,0,.11-1.17,3.69,3.69,0,0,0-.07-.89,2.4,2.4,0,0,0-2.14-2.14c-1.41,0-2.37,1.4-2.37,3.29C108.73,23.24,109.54,24.68,111,24.68Zm2-10.79-1.43,2.46h-1l.91-2.46Z"/><path class="cls-2" d="M125.31,18.33c-.41,0-1,0-2.19-.07v.07a3.82,3.82,0,0,1,1.55,3.15c0,3.06-2.1,4.41-4,4.41a4,4,0,0,1-4-4.27A4.1,4.1,0,0,1,121,17.18h4.39Zm-2.14,3.15c0-1.41-.72-3.17-2.44-3.17s-2.51,1.65-2.51,3.24c0,1.82,1,3.2,2.49,3.2S123.17,23.37,123.17,21.48Z"/><path class="cls-2" d="M134.85,18.33c-.41,0-1,0-2.19-.07v.07a3.82,3.82,0,0,1,1.55,3.15c0,3.06-2.1,4.41-4,4.41a4,4,0,0,1-4-4.27,4.1,4.1,0,0,1,4.29-4.44h4.39Zm-2.14,3.15c0-1.41-.72-3.17-2.44-3.17s-2.52,1.65-2.52,3.24c0,1.82,1.05,3.2,2.5,3.2S132.71,23.37,132.71,21.48Z"/><path class="cls-2" d="M138,23.68c0,.74.15,1.05.8,1l-.08,1.1a2.63,2.63,0,0,1-.69.09c-.88,0-1.55-.4-1.55-2.05V17.36H138Z"/><path class="cls-2" d="M147.68,17.36c-.09.88-.23,3.74-.23,6,0,1,.24,1.4.83,1.41l-.12,1.09a1.56,1.56,0,0,1-.52.07c-.74,0-1.34-.48-1.43-1.76h-.05a3.19,3.19,0,0,1-2.84,1.76c-2,0-3.41-1.66-3.41-4.19,0-2.72,1.79-4.52,3.72-4.52a2.66,2.66,0,0,1,2.57,1.67h.06a13.32,13.32,0,0,1,.16-1.49Zm-4,7.32a2.58,2.58,0,0,0,2.22-2.12,4.68,4.68,0,0,0,.1-1.17,3.69,3.69,0,0,0-.07-.89,2.39,2.39,0,0,0-2.13-2.14c-1.41,0-2.38,1.4-2.38,3.29C141.44,23.24,142.25,24.68,143.7,24.68Z"/><path class="cls-2" d="M55.76,45.09a6.41,6.41,0,0,0,.57-1.9,12.38,12.38,0,0,1-2-.46,3.73,3.73,0,0,1-2.74-3.84,9.09,9.09,0,0,1,4.2-7v-.07H54.54a8.27,8.27,0,0,1-2-.17l.16-1a18.85,18.85,0,0,0,2.1.07h2.87l.23,1c-2.76,1.4-4.81,4.34-4.81,6.87a2.85,2.85,0,0,0,2.14,3,10.14,10.14,0,0,0,2.41.5.21.21,0,0,1,.15.21,6.06,6.06,0,0,1-1,3Z"/><path class="cls-2" d="M64.53,40c0,1.06.6,1.89,1.42,1.89s1.74-1.07,1.74-3.31a5.67,5.67,0,0,0-1.37-3.9v-.06h1.43a5.42,5.42,0,0,1,1.42,4c0,3.1-1.56,4.53-3.15,4.53a2.26,2.26,0,0,1-2.17-1.48h-.07a2.33,2.33,0,0,1-2.2,1.48c-1.45,0-3-1.23-3-4.39A6,6,0,0,1,60,34.58h1.39v.06a6,6,0,0,0-1.38,4c0,2.33,1,3.17,1.78,3.17S63.17,41,63.17,40l0-3.18h1.43Z"/><path class="cls-2" d="M71.09,42.92V36.84a7.88,7.88,0,0,0-.25-2.26h1.37A3.6,3.6,0,0,1,72.45,36h0a3.07,3.07,0,0,1,2.76-1.57c1.15,0,2.94.69,2.94,3.55v5.29a17.38,17.38,0,0,0,.17,3.1H76.92a12.38,12.38,0,0,1-.26-3V38.11c0-1.34-.49-2.46-1.92-2.46a2.17,2.17,0,0,0-2,1.55,2.48,2.48,0,0,0-.1.71v5Zm5.45-11.81-1.42,2.46h-1L75,31.11Z"/></g></g></svg>