<svg xmlns="http://www.w3.org/2000/svg" viewBox="0 0 160.92 160.93"><defs><style>.cls-1{fill:#fd9d24;}.cls-2{fill:#fff;}</style></defs><g id="Layer_2" data-name="Layer 2"><g id="Layer_1-2" data-name="Layer 1"><rect class="cls-1" width="160.92" height="160.93"/><polygon class="cls-2" points="11.53 19.38 11.53 25.07 11.58 25.07 15.4 21.09 15.45 21.09 15.45 45.93 20.91 45.93 20.91 13.49 16.55 13.49 11.53 19.38"/><polygon class="cls-2" points="23.97 19.38 23.97 25.07 24.02 25.07 27.85 21.09 27.9 21.09 27.9 45.93 33.35 45.93 33.35 13.49 29 13.49 23.97 19.38"/><path class="cls-2" d="M27.68,122.52H51.89a.59.59,0,0,0,.59-.6.64.64,0,0,0-.15-.4l0,0-12-15.58-.12-.13a.57.57,0,0,0-.43-.19.59.59,0,0,0-.39.15l-.08.08-.11.13L27.37,121.37l-.18.22a.61.61,0,0,0-.1.33A.6.6,0,0,0,27.68,122.52Z"/><path class="cls-2" d="M51.82,124.71H27.56a.59.59,0,0,0-.59.6v19a.58.58,0,0,0,.59.59h7.81V132.94a.58.58,0,0,1,.59-.59h7.25a.58.58,0,0,1,.59.59v11.94h8a.59.59,0,0,0,.59-.59v-19A.6.6,0,0,0,51.82,124.71Z"/><path class="cls-2" d="M135.64,119.74h-24a.58.58,0,0,0-.59.57v24.24a.57.57,0,0,0,.59.57h24a.57.57,0,0,0,.59-.57V120.31a.58.58,0,0,0-.59-.57m-13.13,15.83a.57.57,0,0,1-.59.57h-7.17a.57.57,0,0,1-.59-.57v-4.36a.57.57,0,0,1,.59-.57h7.17a.57.57,0,0,1,.59.57Zm0-8.06a.58.58,0,0,1-.59.58h-7.17a.58.58,0,0,1-.59-.58v-4.36a.58.58,0,0,1,.59-.57h7.17a.58.58,0,0,1,.59.57Zm11,8.06a.57.57,0,0,1-.59.57h-7.17a.58.58,0,0,1-.59-.57v-4.36a.58.58,0,0,1,.59-.57h7.17a.57.57,0,0,1,.59.57Zm0-8.06a.58.58,0,0,1-.59.58h-7.17a.59.59,0,0,1-.59-.58v-4.36a.59.59,0,0,1,.59-.57h7.17a.58.58,0,0,1,.59.57Z"/><path class="cls-2" d="M79.84,63.48H56.35a.57.57,0,0,0-.58.57v80.29a.57.57,0,0,0,.58.57H79.84a.58.58,0,0,0,.58-.57V64.05a.58.58,0,0,0-.58-.57m-14,72.29a.31.31,0,0,1-.31.31H60.18a.31.31,0,0,1-.31-.31v-6a.3.3,0,0,1,.31-.3h5.38a.3.3,0,0,1,.31.3Zm0-13.77a.31.31,0,0,1-.31.31H60.18a.31.31,0,0,1-.31-.31v-6a.31.31,0,0,1,.31-.31h5.38a.31.31,0,0,1,.31.31Zm0-13.76a.3.3,0,0,1-.31.3H60.18a.3.3,0,0,1-.31-.3v-6a.31.31,0,0,1,.31-.31h5.38a.31.31,0,0,1,.31.31Zm0-13.77a.31.31,0,0,1-.31.31H60.18a.31.31,0,0,1-.31-.31v-6a.3.3,0,0,1,.31-.3h5.38a.3.3,0,0,1,.31.3Zm0-13.77a.31.31,0,0,1-.31.31H60.18a.31.31,0,0,1-.31-.31v-6a.31.31,0,0,1,.31-.31h5.38a.31.31,0,0,1,.31.31Zm10.54,55.07a.31.31,0,0,1-.31.31H70.73a.31.31,0,0,1-.31-.31v-6a.3.3,0,0,1,.31-.3H76.1a.3.3,0,0,1,.31.3Zm0-13.77a.31.31,0,0,1-.31.31H70.73a.31.31,0,0,1-.31-.31v-6a.3.3,0,0,1,.31-.31H76.1a.3.3,0,0,1,.31.31Zm0-13.76a.3.3,0,0,1-.31.3H70.73a.3.3,0,0,1-.31-.3v-6a.31.31,0,0,1,.31-.31H76.1a.31.31,0,0,1,.31.31Zm0-13.77a.31.31,0,0,1-.31.31H70.73a.31.31,0,0,1-.31-.31v-6a.3.3,0,0,1,.31-.3H76.1a.3.3,0,0,1,.31.3Zm0-13.77a.31.31,0,0,1-.31.31H70.73a.31.31,0,0,1-.31-.31v-6a.31.31,0,0,1,.31-.31H76.1a.31.31,0,0,1,.31.31Z"/><rect class="cls-2" x="111.08" y="111.99" width="25.13" height="5.8" rx="0.48"/><path class="cls-2" d="M108.22,78.64a.62.62,0,0,0-.59-.45.65.65,0,0,0-.34.11l0,0-.2.25L84,107.87l-.11.14a.7.7,0,0,0-.2.46v36a.57.57,0,0,0,.58.57H107.7a.56.56,0,0,0,.57-.57V78.88A.6.6,0,0,0,108.22,78.64ZM98.5,94.54l.16-.2c1.58-2,4.24-5.31,5.54-6.9l.17-.2a.66.66,0,0,1,1.16.29v7.41a.66.66,0,0,1-.64.66H99a.65.65,0,0,1-.63-.66A.64.64,0,0,1,98.5,94.54Zm-3.66,41a.57.57,0,0,1-.57.58h-7a.58.58,0,0,1-.58-.58v-4.38a.57.57,0,0,1,.58-.57h7a.56.56,0,0,1,.57.57Zm0-8.09a.57.57,0,0,1-.57.57h-7a.58.58,0,0,1-.58-.57v-4.39a.57.57,0,0,1,.58-.57h7a.56.56,0,0,1,.57.57Zm0-8.1a.57.57,0,0,1-.57.57h-7a.58.58,0,0,1-.58-.57V115a.58.58,0,0,1,.58-.57h7a.57.57,0,0,1,.57.57Zm0-17.75v9.66a.57.57,0,0,1-.57.57h-7a.57.57,0,0,1-.58-.57v-1.22a.71.71,0,0,1,0-.21.25.25,0,0,1,0-.07.35.35,0,0,1,0-.08l.06-.09c.9-1.28,4.94-6.26,6.63-8.34l.17-.2a.68.68,0,0,1,.52-.24.65.65,0,0,1,.64.53Zm10.69,33.94a.58.58,0,0,1-.58.58H98a.58.58,0,0,1-.58-.58v-4.38a.57.57,0,0,1,.58-.57h7a.57.57,0,0,1,.58.57Zm0-8.09a.58.58,0,0,1-.58.57H98a.58.58,0,0,1-.58-.57v-4.39a.57.57,0,0,1,.58-.57h7a.57.57,0,0,1,.58.57Zm0-8.1a.58.58,0,0,1-.58.57H98a.58.58,0,0,1-.58-.57V115a.58.58,0,0,1,.58-.57h7a.58.58,0,0,1,.58.57Zm0-8.1a.57.57,0,0,1-.58.57H98a.57.57,0,0,1-.58-.57v-4.38a.58.58,0,0,1,.58-.58h7a.58.58,0,0,1,.58.58Zm0-8.1a.57.57,0,0,1-.58.57H98a.57.57,0,0,1-.58-.57V98.79a.58.58,0,0,1,.58-.58h7a.58.58,0,0,1,.58.58Z"/><path class="cls-2" d="M46.47,21.23l-1.09,3.31H44L47.55,14h1.64l3.59,10.52H51.33L50.2,21.23Zm3.45-1.06-1-3c-.23-.68-.39-1.31-.54-1.92h0c-.15.63-.32,1.27-.53,1.91l-1,3Z"/><path class="cls-2" d="M59.69,24a5.47,5.47,0,0,1-2.76.69c-1.51,0-3.18-.6-3.18-2.3a2,2,0,0,1,1.87-1.89v-.08a1.65,1.65,0,0,1-1.5-1.59c0-1,1-2,3-2a4.07,4.07,0,0,1,2.3.57l-.3.91a4.11,4.11,0,0,0-1.89-.47c-1,0-1.74.44-1.74,1.13S56.42,20,57.6,20h.91v1h-.95c-1.36,0-2.38.37-2.38,1.28s.94,1.37,2,1.37a4.92,4.92,0,0,0,2.21-.58Z"/><path class="cls-2" d="M62.47,22.72c0,.67.14,1,.74.92l-.08,1a2.69,2.69,0,0,1-.63.08c-.79,0-1.4-.36-1.4-1.86V17h1.37Z"/><path class="cls-2" d="M67.36,17.58a3.63,3.63,0,0,0-1.77,3.12,2.82,2.82,0,0,0,2.46,3V19.11c0-1.62.89-2.28,1.92-2.28a3.45,3.45,0,0,1,3.09,3.73,4,4,0,0,1-3.75,4.14v2.93H68.05V24.7a3.82,3.82,0,0,1-3.81-4,4.32,4.32,0,0,1,2.59-3.91Zm2,6.12a2.84,2.84,0,0,0,2.43-3.11c0-1.54-.9-2.76-1.77-2.76-.39,0-.66.34-.66,1.06Z"/><path class="cls-2" d="M81.64,20.7a3.69,3.69,0,0,1-3.76,4,3.59,3.59,0,0,1-3.62-3.89,3.68,3.68,0,0,1,3.74-4A3.57,3.57,0,0,1,81.64,20.7Zm-6,.08c0,1.66.95,2.91,2.29,2.91s2.3-1.24,2.3-2.94c0-1.28-.64-2.9-2.27-2.9S75.65,19.35,75.65,20.78Zm3.92-6.94-1.3,2.23h-.94l.85-2.23Z"/><path class="cls-2" d="M83.34,27.63a13.21,13.21,0,0,1-.17-2.74v-3.5a4.51,4.51,0,0,1,1.09-3.45,3.51,3.51,0,0,1,2.6-1.12c2.1,0,3.45,1.57,3.45,3.84,0,2.67-1.68,4.06-3.45,4.06a2.61,2.61,0,0,1-2.28-1.11h0v1.21a23.67,23.67,0,0,0,.12,2.81Zm1.19-6.05a2.35,2.35,0,0,0,.06.54,2.15,2.15,0,0,0,2,1.52c1.45,0,2.29-1.25,2.29-2.95,0-1.48-.78-2.73-2.18-2.73-1.08,0-2.22.89-2.22,3Z"/><path class="cls-2" d="M97.45,24a5.47,5.47,0,0,1-2.76.69c-1.51,0-3.18-.6-3.18-2.3a2,2,0,0,1,1.87-1.89v-.08a1.65,1.65,0,0,1-1.5-1.59c0-1,1-2,3-2a4.07,4.07,0,0,1,2.3.57l-.3.91A4.11,4.11,0,0,0,95,17.83c-1,0-1.74.44-1.74,1.13S94.18,20,95.36,20h.91v1h-1c-1.36,0-2.38.37-2.38,1.28s.94,1.37,2,1.37a4.89,4.89,0,0,0,2.21-.58Z"/><path class="cls-2" d="M103.78,18.16a3.39,3.39,0,0,0-1.39-.28,2.73,2.73,0,0,0-2.69,2.89,2.58,2.58,0,0,0,2.14,2.68,17.5,17.5,0,0,0,2,.41c.11,0,.16.07.16.23a5.49,5.49,0,0,1-.91,2.7l-.92-.28a5.74,5.74,0,0,0,.52-1.7c-.52-.09-1.08-.2-1.55-.33a3.57,3.57,0,0,1-2.84-3.59,4,4,0,0,1,4.08-4.07,3.72,3.72,0,0,1,1.7.34Z"/><path class="cls-2" d="M114.61,18.07V22.3a8.19,8.19,0,0,0,.22,2.24H113.5a5.91,5.91,0,0,1-.23-2.1V18.07h-2.49a23.8,23.8,0,0,1-1.06,6.47h-1.31a24.93,24.93,0,0,0,1.06-6.47,6.12,6.12,0,0,0-1.54.14l-.19-.82a4,4,0,0,1,2.17-.4h5.9l-.15,1.08Z"/><path class="cls-2" d="M124.1,20.7a3.7,3.7,0,0,1-3.76,4,3.59,3.59,0,0,1-3.62-3.89,3.68,3.68,0,0,1,3.74-4A3.57,3.57,0,0,1,124.1,20.7Zm-6,.08c0,1.66,1,2.91,2.29,2.91s2.3-1.24,2.3-2.94c0-1.28-.64-2.9-2.27-2.9S118.11,19.35,118.11,20.78ZM122,13.84l-1.29,2.23h-.94l.84-2.23Z"/><path class="cls-2" d="M128.74,20.22c-.18-.52-.35-1-.5-1.64h-.08c-.11.5-.31,1.08-.48,1.59l-1.55,4.37h-1.44l2.74-7a1.22,1.22,0,0,0,.09-.36,1.17,1.17,0,0,0-.11-.42c-.48-1.33-1-2.37-2-2.37h-.26l.12-1.06a1.72,1.72,0,0,1,.53-.06c1.49,0,2.19,1.42,3,3.57l2.89,7.68h-1.45Z"/><path class="cls-2" d="M138.59,24a5.54,5.54,0,0,1-2.77.69c-1.51,0-3.18-.6-3.18-2.3a2,2,0,0,1,1.87-1.89v-.08a1.65,1.65,0,0,1-1.5-1.59c0-1,1-2,3-2a4.06,4.06,0,0,1,2.29.57l-.3.91a4.1,4.1,0,0,0-1.88-.47c-1,0-1.75.44-1.75,1.13s.92,1.07,2.1,1.07h.91v1h-1c-1.36,0-2.38.37-2.38,1.28s.94,1.37,2.05,1.37a5,5,0,0,0,2.22-.58Z"/><path class="cls-2" d="M141.36,22.72c0,.67.14,1,.74.92l-.08,1a2.67,2.67,0,0,1-.62.08c-.8,0-1.41-.36-1.41-1.86V17h1.37Z"/><path class="cls-2" d="M148.59,18.16a3.32,3.32,0,0,0-1.39-.28,2.73,2.73,0,0,0-2.68,2.89,2.58,2.58,0,0,0,2.14,2.68,17.08,17.08,0,0,0,2,.41c.11,0,.16.07.16.23a5.49,5.49,0,0,1-.91,2.7l-.92-.28a5.71,5.71,0,0,0,.51-1.7c-.51-.09-1.07-.2-1.54-.33a3.56,3.56,0,0,1-2.84-3.59,4,4,0,0,1,4.07-4.07,3.72,3.72,0,0,1,1.7.34Z"/><path class="cls-2" d="M44.72,40.15V34.24a5.47,5.47,0,0,0-.17-1.64h1.33a2.73,2.73,0,0,1,.22,1.28V36h.06c1.36-1.28,2.42-2.45,3.31-3.35h1.61v.06c-1.06,1-2.27,2.16-3.59,3.4v0c.75.17,1.56,1.14,2.32,2.15l1.38,1.89h-1.6l-1.18-1.6c-.77-1-1.47-1.74-2.19-1.75H46.1v3.35Z"/><path class="cls-2" d="M58.68,32.6c-.08.79-.2,3.39-.2,5.4,0,.89.21,1.26.75,1.28l-.11,1a1.33,1.33,0,0,1-.47.07c-.67,0-1.22-.44-1.3-1.6h0a2.9,2.9,0,0,1-2.58,1.6c-1.8,0-3.09-1.5-3.09-3.8,0-2.46,1.62-4.1,3.37-4.1a2.42,2.42,0,0,1,2.33,1.51h.06a11.33,11.33,0,0,1,.14-1.34Zm-3.61,6.63a2.35,2.35,0,0,0,2-1.92,4.37,4.37,0,0,0,.09-1.06,3.51,3.51,0,0,0-.06-.81,2.18,2.18,0,0,0-1.94-1.94c-1.28,0-2.15,1.27-2.15,3C53,37.92,53.76,39.23,55.07,39.23Z"/><path class="cls-2" d="M62.16,38.33c0,.67.14,1,.73.92l-.07,1a2.69,2.69,0,0,1-.63.08c-.79,0-1.4-.36-1.4-1.86V32.6h1.37Z"/><path class="cls-2" d="M67.78,40.15V34.24a5.82,5.82,0,0,0-.17-1.64h1.32a2.6,2.6,0,0,1,.22,1.28V36h.07c1.35-1.28,2.42-2.45,3.31-3.35h1.6v.06c-1.06,1-2.26,2.16-3.59,3.4v0c.75.17,1.56,1.14,2.33,2.15l1.37,1.89H72.65l-1.19-1.6c-.76-1-1.46-1.74-2.18-1.75h-.13v3.35Z"/><path class="cls-2" d="M82.08,36.31a3.7,3.7,0,0,1-3.76,4,3.6,3.6,0,0,1-3.63-3.89,3.69,3.69,0,0,1,3.75-4A3.57,3.57,0,0,1,82.08,36.31Zm-6,.08c0,1.66,1,2.91,2.3,2.91s2.29-1.24,2.29-2.94c0-1.28-.64-2.9-2.26-2.9S76.08,35,76.08,36.39Z"/><path class="cls-2" d="M85.18,38.33c0,.67.15,1,.74.92l-.08,1a2.67,2.67,0,0,1-.62.08c-.8,0-1.41-.36-1.41-1.86V32.6h1.37Z"/><path class="cls-2" d="M87.87,32.6l1.45,4.24c.25.68.44,1.32.66,2h0c.63-1.22,2-3.76,2-5.51,0-.25,0-.48,0-.7h1.29a4.31,4.31,0,0,1,0,.56c0,2.14-1.45,4.7-2.82,7h-1.3L86.42,32.6Z"/><path class="cls-2" d="M101.65,36.31a3.69,3.69,0,0,1-3.76,4,3.6,3.6,0,0,1-3.62-3.89,3.69,3.69,0,0,1,3.75-4A3.57,3.57,0,0,1,101.65,36.31Zm-6,.08c0,1.66,1,2.91,2.29,2.91s2.3-1.24,2.3-2.94c0-1.28-.64-2.9-2.27-2.9S95.66,35,95.66,36.39Zm3.92-6.94-1.3,2.23h-.94l.85-2.23Z"/><path class="cls-2" d="M107.12,40.2a1.94,1.94,0,0,1-.75.13c-1.22,0-1.75-.75-1.75-2.35v-4.3h-.83a7.81,7.81,0,0,0-1.53.12l-.19-.8a3.75,3.75,0,0,1,2.07-.4h4.35l-.17,1.08H106V38c0,1,.4,1.28.87,1.28h.33Z"/><path class="cls-2" d="M109.75,40.15V34.64a7.19,7.19,0,0,0-.21-2h1.23a3.11,3.11,0,0,1,.22,1.25h0a2.77,2.77,0,0,1,2.5-1.42c1,0,2.67.62,2.67,3.21v4.79a16.09,16.09,0,0,0,.15,2.81h-1.29a10.67,10.67,0,0,1-.24-2.76V35.8c0-1.22-.45-2.23-1.75-2.23a2,2,0,0,0-1.84,1.4,2.06,2.06,0,0,0-.09.64v4.54Z"/><path class="cls-2" d="M122.16,40.2a1.85,1.85,0,0,1-.74.13c-1.22,0-1.75-.75-1.75-2.35v-4.3h-.83a7.73,7.73,0,0,0-1.53.12l-.19-.8a3.73,3.73,0,0,1,2.06-.4h4.36l-.17,1.08H121V38c0,1,.4,1.28.87,1.28h.33Z"/><path class="cls-2" d="M130.22,39.64a5.5,5.5,0,0,1-2.76.69c-1.52,0-3.19-.6-3.19-2.3a2,2,0,0,1,1.88-1.89v-.08a1.65,1.65,0,0,1-1.5-1.59c0-1,1-2,3-2A4,4,0,0,1,130,33l-.29.91a4.14,4.14,0,0,0-1.89-.47c-1,0-1.75.44-1.75,1.13s.92,1.07,2.11,1.07h.9v1h-.95c-1.36,0-2.37.37-2.37,1.28s.93,1.37,2,1.37A4.93,4.93,0,0,0,130,38.7Z"/><path class="cls-2" d="M136.54,33.77a3.32,3.32,0,0,0-1.39-.28,2.73,2.73,0,0,0-2.68,2.89,2.58,2.58,0,0,0,2.14,2.68,16.67,16.67,0,0,0,2,.41c.11,0,.16.07.16.23a5.49,5.49,0,0,1-.91,2.7l-.92-.28a5.71,5.71,0,0,0,.51-1.7c-.51-.09-1.07-.2-1.54-.33a3.56,3.56,0,0,1-2.84-3.59,4,4,0,0,1,4.07-4.07,3.72,3.72,0,0,1,1.7.34Z"/></g></g></svg>