<svg xmlns="http://www.w3.org/2000/svg" viewBox="0 0 160.92 160.93"><defs><style>.cls-1{fill:#4c9f38;}.cls-2{fill:#fff;}</style></defs><g id="Layer_2" data-name="Layer 2"><g id="Layer_1-2" data-name="Layer 1"><rect class="cls-1" width="160.92" height="160.93"/><path class="cls-2" d="M23,46.37c5.51,0,7.9-2.92,7.9-7.42V34.17c0-3-1.29-4.88-4-5.51a5.17,5.17,0,0,0,3.73-5.26V20.58c0-4.6-2.2-7.42-7.22-7.42-5.65,0-7.61,3.35-7.61,8.13v2.87h5v-3.3c0-2,.63-3.15,2.35-3.15s2.34,1.14,2.34,2.91v3.5c0,1.72-1.14,2.63-2.91,2.63H20.43v4.16h2.3c1.91,0,2.67.91,2.67,2.64v5.36c0,1.72-.76,2.92-2.44,2.92-1.86,0-2.53-1.25-2.53-3.16V34h-5v4.26c0,4.93,2,8.09,7.51,8.09"/><path class="cls-2" d="M134.51,100.57c0-4.52-2.9-8.19-7.3-8.19-2.2,0-4.86,2.4-6.3,3.89-1.44-1.49-3.92-3.9-6.12-3.9-4.4,0-7.49,3.67-7.49,8.2a8.3,8.3,0,0,0,2.34,5.8h0l11.28,11.3,11.27-11.29h0A8.33,8.33,0,0,0,134.51,100.57Z"/><path class="cls-2" d="M86.48,136.12h-.11a1.84,1.84,0,0,1-1.71-1.54l-5.73-33.37L70.25,117.3a1.85,1.85,0,0,1-3.47-.61L63.1,90.93l-6.74,15.15a1.86,1.86,0,0,1-1.69,1.09H28.46a1.85,1.85,0,1,1,0-3.7h25l8.87-19.92a1.86,1.86,0,0,1,3.53.49l3.8,26.56,8.56-15.87a1.85,1.85,0,0,1,3.45.56L87,126.2,106.32,62a1.85,1.85,0,0,1,3.44-.27l10.18,21.1a1.85,1.85,0,0,1-3.34,1.61l-8.11-16.81L88.26,134.8A1.85,1.85,0,0,1,86.48,136.12Z"/><path class="cls-2" d="M46.88,14.14h1.61v6h0c.34-.48.67-.92,1-1.33l3.82-4.68h2l-4.52,5.29,4.87,7.18H53.78l-4.11-6.13-1.18,1.37v4.76H46.88Z"/><path class="cls-2" d="M64.55,17.65c-.09,1-.24,4-.24,6.41,0,1.05.26,1.5.89,1.51l-.13,1.17a1.53,1.53,0,0,1-.56.07c-.79,0-1.44-.51-1.53-1.88h-.06a3.43,3.43,0,0,1-3.05,1.88c-2.13,0-3.67-1.77-3.67-4.49,0-2.93,1.93-4.87,4-4.87A2.86,2.86,0,0,1,63,19.24H63a14.92,14.92,0,0,1,.17-1.59Zm-4.27,7.87a2.76,2.76,0,0,0,2.38-2.28A5,5,0,0,0,62.78,22a3.78,3.78,0,0,0-.08-1,2.57,2.57,0,0,0-2.29-2.29c-1.52,0-2.56,1.49-2.56,3.53C57.85,24,58.72,25.52,60.28,25.52Z"/><path class="cls-2" d="M70.77,21.48c-.2-.61-.41-1.22-.59-1.94h-.1a18.35,18.35,0,0,1-.57,1.89l-1.83,5.18H66l3.23-8.29a1.28,1.28,0,0,0,.12-.43,1.51,1.51,0,0,0-.13-.5c-.58-1.57-1.24-2.81-2.34-2.81a1.72,1.72,0,0,0-.31,0l.15-1.26a1.92,1.92,0,0,1,.63-.07c1.75,0,2.59,1.68,3.55,4.23l3.42,9.11H72.58Z"/><path class="cls-2" d="M75.84,26.61V20.08a8.61,8.61,0,0,0-.26-2.43H77a3.67,3.67,0,0,1,.26,1.48h0a3.29,3.29,0,0,1,3-1.68c1.24,0,3.16.74,3.16,3.81v5.68a18.06,18.06,0,0,0,.19,3.34H82.11A13.09,13.09,0,0,1,81.83,27V21.45c0-1.45-.53-2.65-2.07-2.65a2.31,2.31,0,0,0-2.18,1.67,2.15,2.15,0,0,0-.11.75v5.39Zm5.87-12.7-1.54,2.65H79.06l1-2.65Z"/><path class="cls-2" d="M96.86,17.65a8.63,8.63,0,0,1,.67,3.5c0,2.63-.85,5.66-4.09,5.66a3.3,3.3,0,0,1-3.52-3.61V20.67a12.45,12.45,0,0,0-.2-3h1.55a3.13,3.13,0,0,1,.26,1.69V23c0,1.8,1.06,2.48,2,2.48,1.55,0,2.37-1.59,2.37-4.16a10.82,10.82,0,0,0-.6-3.65Z"/><path class="cls-2" d="M101.76,30.28a19.19,19.19,0,0,0-.33-5.26,25.3,25.3,0,0,0-3.16-7.37h1.83a23.34,23.34,0,0,1,2.72,7h.07c.82-1.5,2.11-4.15,2.11-6.35,0-.28,0-.46,0-.63h1.53a2.8,2.8,0,0,1,.06.61c0,2.3-1.45,5.26-3.17,7.87a.65.65,0,0,0-.11.44c.06,1.06.06,2.45.06,3.71Z"/><path class="cls-2" d="M114.59,26a6.54,6.54,0,0,1-3.28.81c-1.79,0-3.77-.7-3.77-2.72a2.41,2.41,0,0,1,2.22-2.24v-.09A2,2,0,0,1,108,19.87c0-1.18,1.19-2.42,3.57-2.42a4.83,4.83,0,0,1,2.73.68l-.36,1.08a4.84,4.84,0,0,0-2.24-.56c-1.24,0-2.07.52-2.07,1.33s1.09,1.28,2.5,1.28h1.07v1.17h-1.13c-1.61,0-2.81.44-2.81,1.52s1.11,1.62,2.43,1.62a5.93,5.93,0,0,0,2.62-.68Z"/><path class="cls-2" d="M117.88,24.45c0,.79.17,1.12.87,1.09l-.09,1.18a2.58,2.58,0,0,1-.74.09c-.94,0-1.66-.42-1.66-2.2v-7h1.62ZM119,13.89l-1.53,2.65h-1.1l1-2.65Z"/><path class="cls-2" d="M128.32,17.65c-.09,1-.24,4-.24,6.41,0,1.05.26,1.5.89,1.51l-.13,1.17a1.5,1.5,0,0,1-.55.07c-.8,0-1.45-.51-1.54-1.88h-.06a3.43,3.43,0,0,1-3,1.88c-2.13,0-3.67-1.77-3.67-4.49,0-2.93,1.93-4.87,4-4.87a2.86,2.86,0,0,1,2.76,1.79h.07a14.92,14.92,0,0,1,.17-1.59Zm-4.27,7.87a2.76,2.76,0,0,0,2.38-2.28,5,5,0,0,0,.12-1.26,3.78,3.78,0,0,0-.08-1,2.57,2.57,0,0,0-2.29-2.29c-1.52,0-2.56,1.49-2.56,3.53C121.62,24,122.49,25.52,124.05,25.52Z"/></g></g></svg>