<svg xmlns="http://www.w3.org/2000/svg" viewBox="0 0 160.92 160.93"><defs><style>.cls-1{fill:#fcc30b;}.cls-2{fill:#fff;}</style></defs><g id="Layer_2" data-name="Layer 2"><g id="Layer_1-2" data-name="Layer 1"><rect class="cls-1" width="160.92" height="160.93"/><polygon class="cls-2" points="16.51 17.94 24.93 17.94 17.65 45.93 23.06 45.93 30.19 18.51 30.19 13.49 16.51 13.49 16.51 17.94"/><path class="cls-2" d="M80.52,78a23.59,23.59,0,1,0,23.58,23.58A23.58,23.58,0,0,0,80.52,78m-1.75,9.32a1.76,1.76,0,0,1,3.51,0v8.09a1.76,1.76,0,0,1-3.51,0Zm1.75,26.35a12.27,12.27,0,0,1-3.64-24v4.56a8,8,0,1,0,7.27,0V89.65a12.27,12.27,0,0,1-3.63,24"/><path class="cls-2" d="M53.45,101.35a2,2,0,0,0-1.82-1.94H41.31a1.94,1.94,0,0,0,0,3.88H51.63a2,2,0,0,0,1.82-1.94"/><path class="cls-2" d="M121.57,101.35a2,2,0,0,0-1.81-1.94H109.43a1.94,1.94,0,0,0,0,3.88h10.33a2,2,0,0,0,1.81-1.94"/><path class="cls-2" d="M80.53,74.27a2,2,0,0,0,1.93-1.81V62.13a1.94,1.94,0,0,0-3.88,0V72.46a2,2,0,0,0,2,1.81"/><path class="cls-2" d="M80.53,142.4a2,2,0,0,0,1.93-1.82V130.26a1.94,1.94,0,0,0-3.88,0v10.32a2,2,0,0,0,2,1.82"/><path class="cls-2" d="M57,87.9a2,2,0,0,0-.61-2.58l-9-5.13a1.94,1.94,0,0,0-1.93,3.36l9,5.13A2,2,0,0,0,57,87.9"/><path class="cls-2" d="M116.15,121.74a2,2,0,0,0-.61-2.58l-9-5.13a1.94,1.94,0,0,0-1.93,3.36l9,5.13a2,2,0,0,0,2.54-.78"/><path class="cls-2" d="M94,77.85a2,2,0,0,0,2.58-.61l5.13-9a1.95,1.95,0,0,0-3.37-1.93l-5.13,9A2,2,0,0,0,94,77.85"/><path class="cls-2" d="M60.14,137a2,2,0,0,0,2.58-.62l5.13-9a1.95,1.95,0,0,0-3.37-1.93l-5.13,9a2,2,0,0,0,.79,2.54"/><path class="cls-2" d="M67,77.87a2,2,0,0,0,.77-2.53l-5.14-9a1.95,1.95,0,0,0-3.37,1.94l5.15,9a2,2,0,0,0,2.59.6"/><path class="cls-2" d="M101,136.93a2,2,0,0,0,.77-2.53l-5.14-9a1.95,1.95,0,0,0-3.37,1.94l5.15,9a2,2,0,0,0,2.59.6"/><path class="cls-2" d="M104,87.86a2,2,0,0,0,2.54.77l8.95-5.15a1.94,1.94,0,0,0-1.93-3.36l-9,5.15a2,2,0,0,0-.6,2.59"/><path class="cls-2" d="M45,121.82a2,2,0,0,0,2.53.77l9-5.15a1.94,1.94,0,0,0-1.93-3.36l-9,5.15a2,2,0,0,0-.6,2.59"/><path class="cls-2" d="M48.92,22.68l-1.3,3.93H46L50.2,14.13h1.94L56.4,26.61H54.68l-1.34-3.93ZM53,21.42l-1.22-3.59c-.28-.81-.46-1.55-.65-2.27h0q-.27,1.11-.63,2.25l-1.22,3.61Z"/><path class="cls-2" d="M58.19,17.65l1.72,5c.3.8.52,1.56.78,2.33h.06c.74-1.44,2.31-4.46,2.31-6.53,0-.3,0-.57,0-.83h1.54c0,.18,0,.42,0,.66,0,2.54-1.72,5.57-3.35,8.3H59.75l-3.28-9Z"/><path class="cls-2" d="M74.13,17.65c-.1.94-.24,4-.24,6.4,0,1.06.25,1.5.88,1.52l-.13,1.16a1.49,1.49,0,0,1-.55.08c-.8,0-1.44-.52-1.54-1.89h0a3.44,3.44,0,0,1-3.06,1.89c-2.13,0-3.66-1.78-3.66-4.5,0-2.92,1.92-4.87,4-4.87a2.85,2.85,0,0,1,2.75,1.8h.08a15,15,0,0,1,.16-1.59Zm-4.28,7.86a2.78,2.78,0,0,0,2.39-2.27A5.48,5.48,0,0,0,72.35,22a4.26,4.26,0,0,0-.07-1,2.59,2.59,0,0,0-2.3-2.3c-1.52,0-2.55,1.5-2.55,3.54C67.43,24,68.3,25.51,69.85,25.51Z"/><path class="cls-2" d="M77.07,17.65l1.72,5c.29.8.52,1.56.78,2.33h.05c.74-1.44,2.31-4.46,2.31-6.53,0-.3,0-.57,0-.83h1.53a5.76,5.76,0,0,1,.06.66c0,2.54-1.72,5.57-3.35,8.3H78.62l-3.27-9Z"/><path class="cls-2" d="M91.58,26a6.47,6.47,0,0,1-3.28.82c-1.79,0-3.77-.7-3.77-2.72a2.39,2.39,0,0,1,2.22-2.24v-.09A2,2,0,0,1,85,19.87c0-1.19,1.18-2.43,3.57-2.43a4.69,4.69,0,0,1,2.72.69l-.35,1.07a4.86,4.86,0,0,0-2.24-.55c-1.24,0-2.07.51-2.07,1.33s1.09,1.28,2.5,1.28h1.07v1.16H89c-1.61,0-2.81.45-2.81,1.52s1.11,1.63,2.42,1.63a5.88,5.88,0,0,0,2.63-.69Z"/><path class="cls-2" d="M99.09,23.42c0,1.15.65,2,1.54,2s1.87-1.15,1.87-3.56A6.14,6.14,0,0,0,101,17.7v-.05h1.53a5.78,5.78,0,0,1,1.54,4.29c0,3.33-1.69,4.87-3.39,4.87a2.41,2.41,0,0,1-2.33-1.59h-.08a2.5,2.5,0,0,1-2.36,1.59c-1.56,0-3.28-1.32-3.28-4.72a6.46,6.46,0,0,1,1.57-4.44h1.5v.05a6.47,6.47,0,0,0-1.48,4.35c0,2.5,1.06,3.41,1.91,3.41s1.48-.91,1.48-2l0-3.42h1.54Zm1.17-9.51-1.54,2.65H97.63l1-2.65Z"/><path class="cls-2" d="M114.88,18.68c-.45,0-1,0-2.35-.07v.07a4.13,4.13,0,0,1,1.66,3.39c0,3.3-2.26,4.74-4.29,4.74a4.25,4.25,0,0,1-4.3-4.59,4.41,4.41,0,0,1,4.61-4.78h4.72Zm-2.3,3.39c0-1.52-.78-3.41-2.63-3.41s-2.7,1.78-2.7,3.48c0,2,1.13,3.45,2.68,3.45S112.58,24.11,112.58,22.07Z"/><path class="cls-2" d="M118.22,24.44c0,.8.17,1.13.87,1.09L119,26.72a3,3,0,0,1-.74.09c-.94,0-1.66-.43-1.66-2.2v-7h1.62Z"/><path class="cls-2" d="M127,25.22a2.92,2.92,0,0,1-2.57,1.55,2.14,2.14,0,0,1-2-1V26.9a19.58,19.58,0,0,0,.2,3.37h-1.46A14.2,14.2,0,0,1,121,27V17.65h1.61v5.29c0,1.39.59,2.54,2,2.54a2.41,2.41,0,0,0,2.15-1.5,2.46,2.46,0,0,0,.15-.84V17.65h1.61v6.49c0,1,.2,1.37.85,1.41l-.13,1.18a1.54,1.54,0,0,1-.56.08c-.79,0-1.44-.45-1.59-1.59Z"/><path class="cls-2" d="M131.2,26.61V20.07a8.53,8.53,0,0,0-.26-2.42h1.46a3.64,3.64,0,0,1,.26,1.48h0a3.29,3.29,0,0,1,3-1.69c1.24,0,3.16.74,3.16,3.82v5.68a18,18,0,0,0,.19,3.33h-1.54a13,13,0,0,1-.28-3.28V21.44c0-1.44-.53-2.65-2.07-2.65a2.31,2.31,0,0,0-2.18,1.67,2.16,2.16,0,0,0-.12.76v5.39Z"/><path class="cls-2" d="M53.27,44.5a6.57,6.57,0,0,1-3.28.81c-1.79,0-3.77-.7-3.77-2.72a2.4,2.4,0,0,1,2.22-2.24v-.09a2,2,0,0,1-1.78-1.89c0-1.18,1.19-2.42,3.57-2.42a4.77,4.77,0,0,1,2.72.68l-.35,1.08a4.84,4.84,0,0,0-2.24-.56c-1.24,0-2.07.52-2.07,1.34s1.09,1.27,2.5,1.27h1.07v1.17H50.73c-1.61,0-2.81.44-2.81,1.52s1.11,1.62,2.42,1.62A5.94,5.94,0,0,0,53,43.39Z"/><path class="cls-2" d="M55.54,36.15l1.73,5c.29.79.51,1.55.77,2.33h.06c.74-1.44,2.31-4.46,2.31-6.53,0-.3,0-.58,0-.84h1.54a6.17,6.17,0,0,1,.06.67c0,2.53-1.73,5.57-3.35,8.29H57.1l-3.28-9Z"/><path class="cls-2" d="M70.05,44.5a6.5,6.5,0,0,1-3.27.81c-1.8,0-3.78-.7-3.78-2.72a2.41,2.41,0,0,1,2.22-2.24v-.09a2,2,0,0,1-1.77-1.89C63.45,37.19,64.63,36,67,36a4.81,4.81,0,0,1,2.72.68l-.35,1.08a4.88,4.88,0,0,0-2.24-.56c-1.24,0-2.07.52-2.07,1.34s1.09,1.27,2.49,1.27h1.08v1.17H67.52c-1.61,0-2.81.44-2.81,1.52s1.11,1.62,2.42,1.62a6,6,0,0,0,2.63-.68ZM68.67,32.41l-1.54,2.65H66l1-2.65Z"/><path class="cls-2" d="M71.81,48.78a15.6,15.6,0,0,1-.2-3.26V41.37c0-2.31.59-3.35,1.29-4.09A4.13,4.13,0,0,1,76,36c2.49,0,4.09,1.87,4.09,4.55,0,3.17-2,4.81-4.09,4.81A3.12,3.12,0,0,1,73.27,44h0v1.44a25.91,25.91,0,0,0,.15,3.34Zm1.41-7.19a2.7,2.7,0,0,0,.07.65A2.55,2.55,0,0,0,75.72,44c1.72,0,2.72-1.48,2.72-3.5,0-1.76-.93-3.24-2.59-3.24-1.28,0-2.63,1.06-2.63,3.54Z"/><path class="cls-2" d="M84,48.78a19.6,19.6,0,0,0-.34-5.26,25,25,0,0,0-3.16-7.37h1.83a22.82,22.82,0,0,1,2.72,7h.08c.81-1.5,2.11-4.15,2.11-6.35,0-.28,0-.46,0-.63h1.53a2.8,2.8,0,0,1,.06.61c0,2.3-1.44,5.26-3.17,7.87a.65.65,0,0,0-.11.44c.06,1.06.06,2.45.06,3.71Z"/><path class="cls-2" d="M96.83,44.5a6.53,6.53,0,0,1-3.27.81c-1.8,0-3.78-.7-3.78-2.72A2.41,2.41,0,0,1,92,40.35v-.09a2,2,0,0,1-1.78-1.89c0-1.18,1.19-2.42,3.58-2.42a4.81,4.81,0,0,1,2.72.68l-.35,1.08a4.88,4.88,0,0,0-2.24-.56c-1.24,0-2.08.52-2.08,1.34s1.1,1.27,2.5,1.27h1.08v1.17H94.3c-1.61,0-2.82.44-2.82,1.52s1.11,1.62,2.43,1.62a6,6,0,0,0,2.63-.68Z"/><path class="cls-2" d="M100.13,43c0,.79.16,1.12.87,1.09l-.1,1.18a2.58,2.58,0,0,1-.74.09c-.94,0-1.66-.42-1.66-2.2v-7h1.63Z"/><path class="cls-2" d="M110.56,36.15c-.09,1-.24,4-.24,6.41,0,1,.26,1.5.89,1.51l-.13,1.17a1.5,1.5,0,0,1-.55.07c-.8,0-1.45-.51-1.54-1.88h0a3.44,3.44,0,0,1-3.06,1.88c-2.13,0-3.66-1.77-3.66-4.49,0-2.93,1.92-4.87,4-4.87A2.86,2.86,0,0,1,109,37.74h.08a13,13,0,0,1,.16-1.59ZM106.29,44a2.78,2.78,0,0,0,2.39-2.28,5.42,5.42,0,0,0,.11-1.26,3.78,3.78,0,0,0-.08-1,2.57,2.57,0,0,0-2.29-2.29c-1.52,0-2.56,1.5-2.56,3.53C103.86,42.46,104.73,44,106.29,44Z"/></g></g></svg>