<svg xmlns="http://www.w3.org/2000/svg" viewBox="0 0 160.92 160.93"><defs><style>.cls-1{fill:#a21942;}.cls-2{fill:#fff;}</style></defs><g id="Layer_2" data-name="Layer 2"><g id="Layer_1-2" data-name="Layer 1"><rect class="cls-1" width="160.92" height="160.93"/><path class="cls-2" d="M31.27,38V34.45c0-3.11-1.1-5.36-3.64-6.51,2.15-1.05,3.16-3,3.16-5.64V21c0-5.08-2.63-7.8-7.66-7.8s-7.56,2.72-7.56,7.8V22.3c0,2.63,1,4.59,3.06,5.64C16.1,29.09,15,31.34,15,34.45V38c0,4.93,2.35,8.38,8.09,8.38s8.14-3.45,8.14-8.38M20.69,20.62c0-2,.67-3.11,2.44-3.11s2.49,1.15,2.49,3.11v2.2c0,2-.67,3.12-2.49,3.12s-2.44-1.16-2.44-3.12Zm5.12,18c0,2-.72,3.35-2.68,3.35s-2.63-1.39-2.63-3.35V33.3c0-2,.72-3.35,2.63-3.35s2.68,1.39,2.68,3.35Z"/><path class="cls-2" d="M111,79.17,94.64,94.73a2.71,2.71,0,0,0-.93,2.34v43.61a.93.93,0,0,0,.93.93h16.89a.93.93,0,0,0,.93-.93V79.56c0-.51-.4-1.45-1.46-.39"/><path class="cls-2" d="M63.87,99.44,47.52,115a2.72,2.72,0,0,0-.94,2.34v23.34a.94.94,0,0,0,.94.93H64.41a.93.93,0,0,0,.93-.93V99.83c0-.51-.4-1.45-1.47-.39"/><path class="cls-2" d="M118.43,60.3a.46.46,0,0,0-.44-.48h-.23l-12.52,2.82-.23,0a.47.47,0,0,0-.24.13.46.46,0,0,0,0,.67l.14.14,2.86,2.86L79.39,94.86,66.28,81.75a.37.37,0,0,0-.53,0l-3.56,3.56h0l-21,21a.38.38,0,0,0,0,.54l3.56,3.56a.39.39,0,0,0,.53,0L66,89.67l9.51,9.51,0,0,3.56,3.55a.37.37,0,0,0,.53,0l32.21-32.21,3,3a.45.45,0,0,0,.66,0,.44.44,0,0,0,.14-.3v0l2.75-12.79Z"/><path class="cls-2" d="M87.53,102.17l-7.92,8a.37.37,0,0,1-.51,0l-7.17-7.3c-1.31-1.31-1.59-.25-1.59.26v37.59a.93.93,0,0,0,.92.93h16.9a.93.93,0,0,0,.93-.93V102.47c0-.51-.4-1.46-1.56-.3"/><path class="cls-2" d="M43.57,13.85h.93V17.3h0c.19-.28.38-.53.56-.76l2.19-2.69h1.14l-2.59,3L48.63,21h-1.1l-2.35-3.52-.68.79V21h-.93Z"/><path class="cls-2" d="M53.71,15.87c-.05.54-.13,2.3-.13,3.67,0,.61.15.86.51.87l-.08.67a1,1,0,0,1-.32,0c-.45,0-.82-.29-.88-1.08h0A2,2,0,0,1,51,21.12c-1.22,0-2.11-1-2.11-2.58a2.55,2.55,0,0,1,2.3-2.79,1.63,1.63,0,0,1,1.58,1h0c0-.4.06-.66.1-.91Zm-2.45,4.51a1.6,1.6,0,0,0,1.37-1.31,3.14,3.14,0,0,0,.07-.72,2,2,0,0,0-.05-.55,1.47,1.47,0,0,0-1.31-1.32c-.88,0-1.47.86-1.47,2C49.87,19.49,50.37,20.38,51.26,20.38Z"/><path class="cls-2" d="M57.28,18.06c-.11-.35-.23-.7-.34-1.11h0A9.47,9.47,0,0,1,56.56,18l-1.05,3h-1l1.86-4.76a.57.57,0,0,0,0-.53c-.33-.9-.71-1.62-1.34-1.62h-.18l.09-.72a1.23,1.23,0,0,1,.36,0c1,0,1.48,1,2,2.43l2,5.23h-1Z"/><path class="cls-2" d="M64,20.66a3.77,3.77,0,0,1-1.88.46c-1,0-2.16-.4-2.16-1.56a1.37,1.37,0,0,1,1.27-1.28v-.06a1.12,1.12,0,0,1-1-1.08c0-.68.68-1.39,2.05-1.39a2.76,2.76,0,0,1,1.56.39l-.2.62a2.73,2.73,0,0,0-1.28-.32c-.72,0-1.19.3-1.19.76s.62.74,1.43.74h.62v.67h-.65c-.93,0-1.61.25-1.61.87s.63.93,1.39.93a3.35,3.35,0,0,0,1.5-.39Zm-.79-6.94-.88,1.52h-.64l.57-1.52Z"/><path class="cls-2" d="M68.29,16.66a2.5,2.5,0,0,0-1-.19,1.87,1.87,0,0,0-1.83,2A1.75,1.75,0,0,0,67,20.26a10.1,10.1,0,0,0,1.37.28c.07,0,.11.05.11.16a3.76,3.76,0,0,1-.62,1.84l-.63-.19a4,4,0,0,0,.35-1.16c-.35-.07-.73-.14-1-.23a2.42,2.42,0,0,1-1.93-2.44,2.7,2.7,0,0,1,2.77-2.77A2.54,2.54,0,0,1,68.5,16Z"/><path class="cls-2" d="M71.25,17.17c0-2.16.88-3.82,2.48-3.82s2.39,1.54,2.39,3.82-.77,3.95-2.42,3.95S71.25,19.8,71.25,17.17Zm4-.4c0-1.51-.49-2.73-1.52-2.73s-1.51,1.29-1.51,2.73Zm-3,.7c0,1.89.64,3,1.55,3s1.48-1.23,1.48-3Z"/><path class="cls-2" d="M81,20.66a3.83,3.83,0,0,1-1.88.46c-1,0-2.17-.4-2.17-1.56a1.37,1.37,0,0,1,1.28-1.28v-.06a1.12,1.12,0,0,1-1-1.08c0-.68.68-1.39,2-1.39a2.76,2.76,0,0,1,1.56.39l-.2.62a2.81,2.81,0,0,0-1.29-.32c-.71,0-1.19.3-1.19.76s.63.74,1.43.74h.62v.67h-.65c-.92,0-1.61.25-1.61.87s.64.93,1.39.93A3.44,3.44,0,0,0,80.81,20Zm-.8-6.94-.88,1.52h-.64l.58-1.52Z"/><path class="cls-2" d="M86.88,16.46l-1.35,0v0a2.36,2.36,0,0,1,1,1.94A2.48,2.48,0,0,1,84,21.12a2.43,2.43,0,0,1-2.47-2.63,2.53,2.53,0,0,1,2.65-2.74h2.7ZM85.57,18.4c0-.87-.45-1.95-1.51-1.95s-1.55,1-1.55,2,.65,2,1.54,2S85.57,19.57,85.57,18.4Z"/><path class="cls-2" d="M91.5,20.66a3.8,3.8,0,0,1-1.88.46c-1,0-2.16-.4-2.16-1.56a1.37,1.37,0,0,1,1.27-1.28v-.06a1.12,1.12,0,0,1-1-1.08c0-.68.68-1.39,2.05-1.39a2.76,2.76,0,0,1,1.56.39l-.2.62a2.74,2.74,0,0,0-1.29-.32c-.71,0-1.18.3-1.18.76s.62.74,1.43.74h.62v.67h-.65c-.93,0-1.62.25-1.62.87s.64.93,1.39.93A3.4,3.4,0,0,0,91.33,20Z"/><path class="cls-2" d="M93.39,19.76c0,.46.1.65.5.63l0,.68a1.73,1.73,0,0,1-.42.05c-.55,0-1-.24-1-1.26v-4h.93Z"/><path class="cls-2" d="M98.31,16.66a2.4,2.4,0,0,0-.94-.19,1.86,1.86,0,0,0-1.83,2A1.75,1.75,0,0,0,97,20.26a10.42,10.42,0,0,0,1.37.28c.08,0,.11.05.11.16a3.76,3.76,0,0,1-.62,1.84l-.62-.19a4,4,0,0,0,.35-1.16c-.35-.07-.73-.14-1-.23a2.42,2.42,0,0,1-1.94-2.44,2.71,2.71,0,0,1,2.78-2.77,2.5,2.5,0,0,1,1.15.23Z"/><path class="cls-2" d="M105.33,20.66a3.8,3.8,0,0,1-1.88.46c-1,0-2.16-.4-2.16-1.56a1.37,1.37,0,0,1,1.27-1.28v-.06a1.12,1.12,0,0,1-1-1.08c0-.68.68-1.39,2-1.39a2.76,2.76,0,0,1,1.56.39l-.2.62a2.77,2.77,0,0,0-1.29-.32c-.71,0-1.19.3-1.19.76s.63.74,1.44.74h.61v.67h-.64c-.93,0-1.62.25-1.62.87s.64.93,1.39.93a3.4,3.4,0,0,0,1.51-.39Z"/><path class="cls-2" d="M106.34,23.11a8.67,8.67,0,0,1-.12-1.87V18.86a3,3,0,0,1,.75-2.35,2.38,2.38,0,0,1,4.11,1.85,2.46,2.46,0,0,1-2.35,2.76,1.77,1.77,0,0,1-1.55-.75h0v.83a15.85,15.85,0,0,0,.08,1.91Zm.81-4.12a1.5,1.5,0,0,0,0,.37,1.46,1.46,0,0,0,1.39,1c1,0,1.56-.85,1.56-2,0-1-.53-1.86-1.48-1.86-.74,0-1.51.61-1.51,2Z"/><path class="cls-2" d="M113.34,23.11a11.48,11.48,0,0,0-.19-3,14.26,14.26,0,0,0-1.82-4.22h1a13,13,0,0,1,1.56,4h0a8.8,8.8,0,0,0,1.21-3.64c0-.16,0-.27,0-.36h.88a1.75,1.75,0,0,1,0,.35,9.4,9.4,0,0,1-1.82,4.51.4.4,0,0,0-.06.26c0,.6,0,1.4,0,2.12Z"/><path class="cls-2" d="M121.52,15.87c-.06.54-.14,2.3-.14,3.67,0,.61.15.86.51.87l-.08.67a.93.93,0,0,1-.31,0c-.46,0-.83-.29-.89-1.08h0a2,2,0,0,1-1.75,1.08c-1.22,0-2.1-1-2.1-2.58A2.54,2.54,0,0,1,119,15.75a1.63,1.63,0,0,1,1.58,1h.05a7.93,7.93,0,0,1,.09-.91Zm-2.46,4.51a1.6,1.6,0,0,0,1.37-1.31,2.67,2.67,0,0,0,.07-.72,2,2,0,0,0,0-.55,1.47,1.47,0,0,0-1.31-1.32c-.87,0-1.47.86-1.47,2C117.67,19.49,118.17,20.38,119.06,20.38Z"/><path class="cls-2" d="M127.9,16.46l-1.35,0v0a2.36,2.36,0,0,1,1,1.94A2.48,2.48,0,0,1,125,21.12a2.43,2.43,0,0,1-2.46-2.63,2.53,2.53,0,0,1,2.64-2.74h2.71Zm-1.32,1.94c0-.87-.44-1.95-1.51-1.95s-1.55,1-1.55,2,.65,2,1.54,2S126.58,19.57,126.58,18.4Z"/><path class="cls-2" d="M129.82,19.76c0,.46.1.65.5.63l0,.68a1.75,1.75,0,0,1-.43.05c-.54,0-1-.24-1-1.26v-4h.93Zm.65-6.05-.88,1.52H129l.56-1.52Z"/><path class="cls-2" d="M135.81,15.87c-.05.54-.14,2.3-.14,3.67,0,.61.15.86.51.87l-.07.67a1,1,0,0,1-.32,0c-.46,0-.83-.29-.88-1.08h0a2,2,0,0,1-1.75,1.08c-1.23,0-2.11-1-2.11-2.58a2.55,2.55,0,0,1,2.3-2.79,1.64,1.64,0,0,1,1.58,1h0a7.6,7.6,0,0,1,.1-.91Zm-2.45,4.51a1.6,1.6,0,0,0,1.37-1.31,3.17,3.17,0,0,0,.06-.72,2.46,2.46,0,0,0,0-.55,1.49,1.49,0,0,0-1.32-1.32c-.87,0-1.46.86-1.46,2C132,19.49,132.47,20.38,133.36,20.38Z"/><path class="cls-2" d="M140.59,16.66a2.4,2.4,0,0,0-.94-.19,1.86,1.86,0,0,0-1.83,2,1.75,1.75,0,0,0,1.45,1.82,10.42,10.42,0,0,0,1.37.28c.08,0,.11.05.11.16a3.76,3.76,0,0,1-.62,1.84l-.62-.19a4,4,0,0,0,.35-1.16c-.35-.07-.73-.14-1.05-.23a2.42,2.42,0,0,1-1.94-2.44,2.71,2.71,0,0,1,2.78-2.77,2.5,2.5,0,0,1,1.15.23Z"/><path class="cls-2" d="M43.54,31.63v-4a3.62,3.62,0,0,0-.12-1.11h.91a1.89,1.89,0,0,1,.14.87v1.41h.05c.92-.87,1.64-1.67,2.25-2.28h1.09v0c-.72.67-1.54,1.47-2.44,2.32v0c.51.11,1.06.77,1.58,1.46l.94,1.29H46.85l-.8-1.1c-.52-.68-1-1.18-1.49-1.19h-.09v2.29Z"/><path class="cls-2" d="M53,26.49c-.06.54-.14,2.3-.14,3.67,0,.61.15.86.51.87l-.08.67a1,1,0,0,1-.32,0c-.45,0-.82-.29-.88-1.08h0a2,2,0,0,1-1.75,1.08c-1.22,0-2.1-1-2.1-2.58a2.55,2.55,0,0,1,2.29-2.79,1.63,1.63,0,0,1,1.58,1h0c0-.4.06-.66.1-.91ZM50.58,31A1.6,1.6,0,0,0,52,29.69,3.14,3.14,0,0,0,52,29a2,2,0,0,0-.05-.55,1.47,1.47,0,0,0-1.31-1.32c-.87,0-1.47.86-1.47,2C49.19,30.11,49.69,31,50.58,31Z"/><path class="cls-2" d="M55.4,30.39c0,.45.1.64.5.62l0,.68a1.75,1.75,0,0,1-.43,0c-.54,0-1-.24-1-1.26v-4h.93Z"/><path class="cls-2" d="M63.88,29a2.51,2.51,0,0,1-2.56,2.73,2.44,2.44,0,0,1-2.46-2.64,2.51,2.51,0,0,1,2.54-2.73A2.43,2.43,0,0,1,63.88,29Zm-4.08.06c0,1.12.65,2,1.56,2s1.56-.84,1.56-2c0-.87-.43-2-1.54-2S59.8,28.09,59.8,29.07Z"/><path class="cls-2" d="M66,30.39c0,.45.1.64.5.62l0,.68a1.75,1.75,0,0,1-.43,0c-.54,0-1-.24-1-1.26v-4H66Z"/><path class="cls-2" d="M67.57,31.63v-4a4,4,0,0,0-.12-1.11h.9a1.73,1.73,0,0,1,.15.87v1.41h0c.93-.87,1.65-1.67,2.25-2.28h1.1v0c-.72.67-1.54,1.47-2.44,2.32v0c.51.11,1.06.77,1.58,1.46L72,31.63H70.88l-.81-1.1c-.52-.68-1-1.18-1.49-1.19H68.5v2.29Z"/><path class="cls-2" d="M77.29,29a2.5,2.5,0,0,1-2.56,2.73,2.44,2.44,0,0,1-2.46-2.64,2.51,2.51,0,0,1,2.55-2.73A2.43,2.43,0,0,1,77.29,29Zm-4.07.06c0,1.12.64,2,1.56,2s1.56-.84,1.56-2c0-.87-.44-2-1.54-2S73.22,28.09,73.22,29.07Z"/><path class="cls-2" d="M78.64,26.49l1,2.89c.17.45.3.89.45,1.33h0A10.19,10.19,0,0,0,81.44,27c0-.17,0-.33,0-.48h.88a3.67,3.67,0,0,1,0,.38c0,1.46-1,3.2-1.92,4.76h-.88l-1.88-5.14Z"/><path class="cls-2" d="M88,29a2.5,2.5,0,0,1-2.56,2.73A2.44,2.44,0,0,1,83,29.1a2.51,2.51,0,0,1,2.55-2.73A2.43,2.43,0,0,1,88,29Zm-4.08.06c0,1.12.65,2,1.56,2s1.57-.84,1.57-2c0-.87-.44-2-1.54-2S83.94,28.09,83.94,29.07Z"/><path class="cls-2" d="M92.67,30.83a1.67,1.67,0,0,1-1.47.89,1.24,1.24,0,0,1-1.13-.56v.64a10.51,10.51,0,0,0,.12,1.93h-.84a7.76,7.76,0,0,1-.15-1.89V26.49h.92v3c0,.8.34,1.46,1.16,1.46a1.37,1.37,0,0,0,1.23-.86,1.24,1.24,0,0,0,.09-.48V26.49h.92v3.73c0,.56.12.78.49.8l-.07.68a1,1,0,0,1-.32,0c-.46,0-.83-.25-.91-.91Z"/><path class="cls-2" d="M96,30.39c0,.45.09.64.5.62l-.05.68a1.75,1.75,0,0,1-.43,0c-.54,0-1-.24-1-1.26v-4H96Z"/><path class="cls-2" d="M97.58,31.63v-4a3.62,3.62,0,0,0-.12-1.11h.91a1.85,1.85,0,0,1,.15.87v1.41h0c.92-.87,1.64-1.67,2.25-2.28h1.09v0c-.72.67-1.54,1.47-2.44,2.32v0c.51.11,1.06.77,1.58,1.46l.94,1.29h-1.09l-.8-1.1c-.52-.68-1-1.18-1.49-1.19h-.08v2.29Z"/><path class="cls-2" d="M102.82,31.63V27.88a4.73,4.73,0,0,0-.15-1.39h.84a2.23,2.23,0,0,1,.15.85h0a1.88,1.88,0,0,1,1.7-1c.71,0,1.81.43,1.81,2.19v3.26a10.18,10.18,0,0,0,.11,1.91h-.88a7.3,7.3,0,0,1-.16-1.88V28.66c0-.82-.31-1.51-1.19-1.51a1.31,1.31,0,0,0-1.25,1,1.2,1.2,0,0,0-.07.44v3.09Zm3.36-7.29-.88,1.52h-.63l.57-1.52Z"/><path class="cls-2" d="M48,37.11c-.05.54-.14,2.3-.14,3.67,0,.61.15.86.51.87l-.08.67a.91.91,0,0,1-.31,0c-.46,0-.83-.3-.88-1.09h0a2,2,0,0,1-1.75,1.09c-1.22,0-2.1-1-2.1-2.59A2.55,2.55,0,0,1,45.46,37,1.62,1.62,0,0,1,47,38h.05a7.93,7.93,0,0,1,.09-.91ZM45.5,41.62a1.57,1.57,0,0,0,1.37-1.3,2.79,2.79,0,0,0,.07-.73,2.46,2.46,0,0,0,0-.55,1.49,1.49,0,0,0-1.32-1.32c-.87,0-1.47.86-1.47,2C44.11,40.73,44.61,41.62,45.5,41.62Z"/><path class="cls-2" d="M49.65,37.11l1,2.89c.17.45.3.89.45,1.34h0a10.13,10.13,0,0,0,1.33-3.75c0-.17,0-.33,0-.48h.88a3.67,3.67,0,0,1,0,.38c0,1.46-1,3.2-1.92,4.76h-.88l-1.88-5.14Z"/><path class="cls-2" d="M58.79,37.11c0,.54-.14,2.3-.14,3.67,0,.61.15.86.51.87l-.07.67a1,1,0,0,1-.32,0c-.46,0-.83-.3-.88-1.09h0a2,2,0,0,1-1.76,1.09c-1.22,0-2.1-1-2.1-2.59A2.55,2.55,0,0,1,56.29,37a1.64,1.64,0,0,1,1.59,1h0a6,6,0,0,1,.1-.91Zm-2.45,4.51a1.58,1.58,0,0,0,1.37-1.3,3.32,3.32,0,0,0,.06-.73,2.46,2.46,0,0,0,0-.55,1.49,1.49,0,0,0-1.32-1.32c-.87,0-1.46.86-1.46,2C55,40.73,55.45,41.62,56.34,41.62ZM57.57,35l-.88,1.52h-.63L56.62,35Z"/><path class="cls-2" d="M64.36,37.84v2.88a6,6,0,0,0,.14,1.53h-.9a4.11,4.11,0,0,1-.16-1.44v-3H61.75A16.37,16.37,0,0,1,61,42.25h-.89a17,17,0,0,0,.72-4.41,4,4,0,0,0-1,.1l-.13-.56a2.73,2.73,0,0,1,1.48-.27h4l-.1.73Z"/><path class="cls-2" d="M68.9,42.28a1.41,1.41,0,0,1-.51.09c-.83,0-1.19-.51-1.19-1.6V37.84h-.56a4.47,4.47,0,0,0-1,.09l-.13-.55a2.55,2.55,0,0,1,1.4-.27h3l-.11.73H68.13v2.91c0,.7.27.87.59.87h.22Z"/><path class="cls-2" d="M74.62,37.11a5,5,0,0,1,.38,2c0,1.5-.49,3.25-2.35,3.25a1.9,1.9,0,0,1-2-2.08V38.84a7.29,7.29,0,0,0-.11-1.73h.89a1.8,1.8,0,0,1,.15,1v2.1c0,1,.6,1.42,1.16,1.42.9,0,1.36-.91,1.36-2.39a6.16,6.16,0,0,0-.34-2.09Z"/><path class="cls-2" d="M79.32,38.31H79c-1.47,0-2.16.72-2.16,1.6s.58,1.34,1.63,1.62a12.34,12.34,0,0,0,1.42.26c.06,0,.09.06.09.12a3.82,3.82,0,0,1-.63,1.86l-.61-.18a3.9,3.9,0,0,0,.34-1.17c-1.41-.2-3.22-.63-3.22-2.42a2.17,2.17,0,0,1,1.67-2.07v-.06a1.5,1.5,0,0,1-1.18-1.49c0-.89.73-1.79,2.22-1.79a2.56,2.56,0,0,1,1.29.29l-.19.65a2.24,2.24,0,0,0-1-.25,1.2,1.2,0,0,0-1.34,1.16c0,.74.66,1.16,1.5,1.19h.51Z"/><path class="cls-2" d="M80.86,42.25V38.5a4.73,4.73,0,0,0-.15-1.39h.84a2.06,2.06,0,0,1,.15.85h0a1.9,1.9,0,0,1,1.7-1c.71,0,1.82.43,1.82,2.19v3.26a11.19,11.19,0,0,0,.1,1.91h-.88a7.3,7.3,0,0,1-.16-1.88V39.29c0-.83-.31-1.52-1.19-1.52a1.33,1.33,0,0,0-1.25.95,1.45,1.45,0,0,0-.07.44v3.09Z"/></g></g></svg>