<svg xmlns="http://www.w3.org/2000/svg" viewBox="0 0 160.92 160.93"><defs><style>.cls-1{fill:#c5192d;}.cls-2{fill:#fff;}</style></defs><g id="Layer_2" data-name="Layer 2"><g id="Layer_1-2" data-name="Layer 1"><rect class="cls-1" width="160.92" height="160.93"/><path class="cls-2" d="M25.21,45.93h5.17V40.67h2.2V36.41h-2.2V13.49H25L15.59,37.32v3.35h9.62Zm-4.83-9.52,4.88-13.35h0V36.41Z"/><path class="cls-2" d="M126.24,68.26a3.42,3.42,0,1,0-6.83,0v3.68h6.83Z"/><polygon class="cls-2" points="120.26 122.58 119.41 122.58 122.82 134.51 126.23 122.58 125.39 122.58 126.23 122.58 126.23 74.61 125.39 74.61 124.54 74.61 123.64 74.61 121.94 74.61 121.1 74.61 120.26 74.61 119.41 74.61 119.41 122.58 120.26 122.58"/><polygon class="cls-2" points="71.36 86.29 42.5 69.62 42.5 123.53 71.36 132.24 71.36 86.29"/><polygon class="cls-2" points="74.53 86.4 74.53 132.26 103.58 123.53 103.58 69.62 74.53 86.4"/><polygon class="cls-2" points="109.78 71.94 106.69 69.49 106.69 125 74.62 135.36 73.13 135.36 72.84 135.36 71.36 135.36 39.43 126.44 39.43 69.49 36.34 71.94 36.34 128.61 71.21 138.26 72.84 138.26 73.13 138.26 74.76 138.26 106.94 128.05 109.78 127.21 109.78 71.94"/><path class="cls-2" d="M55.8,26.61H54.17V15.5H48.49V26.61H46.88V14.13H55.8Z"/><path class="cls-2" d="M66.66,22.05a4.37,4.37,0,0,1-4.46,4.76,4.26,4.26,0,0,1-4.29-4.61c0-3,2-4.76,4.44-4.76S66.66,19.31,66.66,22.05Zm-7.11.09c0,2,1.13,3.45,2.73,3.45S65,24.13,65,22.11c0-1.52-.76-3.45-2.69-3.45S59.55,20.44,59.55,22.14Z"/><path class="cls-2" d="M70.34,24.44c0,.8.17,1.13.87,1.09l-.09,1.19a3,3,0,0,1-.74.09c-.94,0-1.66-.43-1.66-2.2v-7h1.62Z"/><path class="cls-2" d="M81.19,22.05a4.38,4.38,0,0,1-4.46,4.76,4.26,4.26,0,0,1-4.3-4.61c0-3,2-4.76,4.45-4.76S81.19,19.31,81.19,22.05Zm-7.11.09c0,2,1.13,3.45,2.72,3.45s2.72-1.46,2.72-3.48c0-1.52-.76-3.45-2.68-3.45S74.08,20.44,74.08,22.14Z"/><path class="cls-2" d="M87.67,26.66a2.42,2.42,0,0,1-.89.15c-1.45,0-2.07-.89-2.07-2.78V18.92h-1a9.09,9.09,0,0,0-1.81.15l-.22-.94a4.3,4.3,0,0,1,2.44-.48h5.16l-.2,1.27H86.32V24c0,1.22.48,1.51,1,1.51a2.3,2.3,0,0,0,.39,0Z"/><path class="cls-2" d="M92.42,24.44c0,.8.17,1.13.87,1.09l-.09,1.19a3.05,3.05,0,0,1-.74.09c-.94,0-1.67-.43-1.67-2.2v-7h1.63Z"/><path class="cls-2" d="M95.16,26.61v-7a6.6,6.6,0,0,0-.2-1.94h1.57a3.12,3.12,0,0,1,.26,1.51v2.47h.07c1.61-1.52,2.87-2.91,3.93-4h1.9v.07c-1.25,1.17-2.68,2.56-4.25,4v0c.89.2,1.85,1.35,2.75,2.56l1.63,2.24h-1.88L99.53,24.7c-.91-1.19-1.74-2.06-2.59-2.07h-.15v4Z"/><path class="cls-2" d="M104.29,26.61V20.07a8.53,8.53,0,0,0-.26-2.42h1.46a3.81,3.81,0,0,1,.26,1.48h0a3.31,3.31,0,0,1,3-1.69c1.24,0,3.16.74,3.16,3.82v5.68a18,18,0,0,0,.19,3.33h-1.54a13,13,0,0,1-.28-3.28V21.44c0-1.44-.53-2.65-2.07-2.65A2.32,2.32,0,0,0,106,20.46a2.44,2.44,0,0,0-.11.76v5.39Zm5.86-12.7-1.53,2.65H107.5l1-2.65Z"/><path class="cls-2" d="M53.24,44.5a6.5,6.5,0,0,1-3.27.82c-1.8,0-3.78-.71-3.78-2.72a2.39,2.39,0,0,1,2.22-2.24v-.1a2,2,0,0,1-1.77-1.89c0-1.18,1.18-2.42,3.57-2.42a4.71,4.71,0,0,1,2.72.69l-.35,1.07a4.84,4.84,0,0,0-2.24-.56c-1.24,0-2.07.52-2.07,1.34s1.09,1.27,2.49,1.27h1.08v1.17H50.71c-1.61,0-2.81.44-2.81,1.52s1.11,1.63,2.42,1.63A5.88,5.88,0,0,0,53,43.39Z"/><path class="cls-2" d="M55,45.11v-7a6.72,6.72,0,0,0-.2-2h1.57a3.2,3.2,0,0,1,.26,1.52v2.46h.08c1.61-1.51,2.87-2.9,3.92-4H62.5v.08c-1.26,1.16-2.69,2.55-4.26,4v.06c.89.2,1.85,1.35,2.76,2.55l1.63,2.24H60.74l-1.41-1.9c-.9-1.19-1.74-2.06-2.59-2.08h-.15v4Z"/><path class="cls-2" d="M71.21,37.43v5a9.76,9.76,0,0,0,.26,2.66H69.9a6.82,6.82,0,0,1-.28-2.5V37.43H66.68a28.29,28.29,0,0,1-1.26,7.68H63.87a30.14,30.14,0,0,0,1.26-7.68,7.38,7.38,0,0,0-1.84.17l-.22-1a4.66,4.66,0,0,1,2.57-.49h7l-.18,1.28Z"/><path class="cls-2" d="M82.06,36.15c-.09,1-.24,4-.24,6.41,0,1,.26,1.5.89,1.52l-.13,1.16a1.51,1.51,0,0,1-.56.08c-.79,0-1.44-.52-1.53-1.89h-.06a3.44,3.44,0,0,1-3.05,1.89c-2.13,0-3.67-1.78-3.67-4.5,0-2.93,1.93-4.87,4-4.87a2.86,2.86,0,0,1,2.76,1.8h.07a12.67,12.67,0,0,1,.17-1.6ZM77.78,44a2.78,2.78,0,0,0,2.39-2.28,5.42,5.42,0,0,0,.11-1.26,4.3,4.3,0,0,0-.07-1,2.57,2.57,0,0,0-2.3-2.29c-1.51,0-2.55,1.5-2.55,3.53C75.36,42.47,76.23,44,77.78,44Z"/><path class="cls-2" d="M86.19,43c0,.79.16,1.13.87,1.09L87,45.22a2.54,2.54,0,0,1-.74.1c-.94,0-1.66-.43-1.66-2.21v-7h1.63ZM87.32,32.4,85.78,35H84.69l1-2.64Z"/><path class="cls-2" d="M95.72,33.73A4.82,4.82,0,0,0,93.27,33c-1,0-1.51.39-1.51.83s.5.83,1.33,1.5l1.52,1.22A5.13,5.13,0,0,1,97,40.74a4.32,4.32,0,0,1-4.35,4.58,4.24,4.24,0,0,1-4.35-4.5c0-2.3,1.57-3.81,3.4-4.68V36l-.42-.33a2.6,2.6,0,0,1-1.13-1.85c0-1,1-2.09,3.11-2.09a5.09,5.09,0,0,1,3,.89Zm-3.09,3.16a4.41,4.41,0,0,0-2.71,3.91,3,3,0,0,0,2.8,3.29c1.42,0,2.63-1.2,2.63-3.23a4,4,0,0,0-1.74-3.19Z"/><path class="cls-2" d="M105.45,44.5a6.53,6.53,0,0,1-3.27.82c-1.8,0-3.78-.71-3.78-2.72a2.39,2.39,0,0,1,2.22-2.24v-.1a2,2,0,0,1-1.78-1.89c0-1.18,1.19-2.42,3.58-2.42a4.73,4.73,0,0,1,2.72.69l-.35,1.07a4.88,4.88,0,0,0-2.24-.56c-1.24,0-2.08.52-2.08,1.34s1.09,1.27,2.5,1.27H104v1.17h-1.12c-1.61,0-2.82.44-2.82,1.52s1.11,1.63,2.43,1.63a5.88,5.88,0,0,0,2.63-.69Z"/><path class="cls-2" d="M114,36.15a8.67,8.67,0,0,1,.67,3.5c0,2.63-.85,5.67-4.09,5.67a3.3,3.3,0,0,1-3.52-3.61V39.17a12.5,12.5,0,0,0-.2-3h1.55a3.13,3.13,0,0,1,.26,1.69v3.64c0,1.8,1.06,2.48,2,2.48,1.55,0,2.37-1.59,2.37-4.16a10.82,10.82,0,0,0-.6-3.65Z"/><path class="cls-2" d="M125.61,37.19c-.45,0-1,0-2.36-.07v.07a4.1,4.1,0,0,1,1.67,3.39c0,3.29-2.26,4.74-4.29,4.74a4.25,4.25,0,0,1-4.3-4.59A4.41,4.41,0,0,1,120.94,36h4.72Zm-2.3,3.39c0-1.52-.78-3.41-2.63-3.41S118,39,118,40.65c0,2,1.13,3.44,2.68,3.44S123.31,42.61,123.31,40.58Z"/><path class="cls-2" d="M127.32,45.11V38.58a8.26,8.26,0,0,0-.26-2.43h1.47a3.89,3.89,0,0,1,.26,1.48h0a3.3,3.3,0,0,1,3-1.68c1.24,0,3.17.74,3.17,3.81v5.69a18.93,18.93,0,0,0,.18,3.33H133.6a13,13,0,0,1-.28-3.28V40c0-1.45-.54-2.65-2.07-2.65A2.32,2.32,0,0,0,129.06,39a2.44,2.44,0,0,0-.11.76v5.38Z"/></g></g></svg>