<svg xmlns="http://www.w3.org/2000/svg" viewBox="0 0 160.92 160.93"><defs><style>.cls-1{fill:#56c02b;}.cls-2{fill:#fff;}</style></defs><g id="Layer_2" data-name="Layer 2"><g id="Layer_1-2" data-name="Layer 1"><rect class="cls-1" width="160.92" height="160.93"/><polygon class="cls-2" points="11.78 19.36 11.78 25.05 11.83 25.05 15.66 21.08 15.71 21.08 15.71 45.92 21.16 45.92 21.16 13.47 16.81 13.47 11.78 19.36"/><path class="cls-2" d="M34.13,23.76c-2.15,0-3.73.76-4.59,2.25h-.05V17.92h9.38V13.47H24.51V31.75h5V31c0-1.91.86-3,2.39-3,1.68,0,2.35,1.15,2.35,2.92v7.85c0,1.72-.62,2.91-2.3,2.91-1.87,0-2.53-1.24-2.53-3.15V34.53h-5v3.69c0,4.92,2,8.08,7.51,8.08s7.75-2.92,7.75-7.42V30.94c0-5.12-2.63-7.18-5.55-7.18"/><path class="cls-2" d="M61.89,108.81h4.74a.36.36,0,0,1,.36.36v11.72a.36.36,0,0,1-.36.36H61.9a.36.36,0,0,1-.36-.36V109.16A.35.35,0,0,1,61.89,108.81Z"/><path class="cls-2" d="M118.71,126.27H40.57a.37.37,0,0,0-.36.37v4.77a.35.35,0,0,0,.36.35h78.14a.35.35,0,0,0,.36-.35v-4.77a.37.37,0,0,0-.36-.37"/><path class="cls-2" d="M118.71,135.76H40.57a.36.36,0,0,0-.36.35v4.79a.36.36,0,0,0,.36.36h78.14a.36.36,0,0,0,.36-.36v-4.79a.36.36,0,0,0-.36-.35"/><path class="cls-2" d="M103.84,95.84a11.49,11.49,0,0,0-6.76-2.55A9,9,0,0,0,90.81,96a.64.64,0,0,0-.21.49v.42a.7.7,0,0,0,.22.54.64.64,0,0,0,.55.12.8.8,0,0,0,.15,0,1.08,1.08,0,0,0,.39-.25A6.26,6.26,0,0,1,95,96.6a11.8,11.8,0,0,1,8,3.37l.07.07a1,1,0,0,0,.68.28.89.89,0,0,0,.66-.28l.07-.06a11.84,11.84,0,0,1,8.06-3.38,6.28,6.28,0,0,1,3.14.65,1.08,1.08,0,0,0,.43.26,1.06,1.06,0,0,0,.46,0,.67.67,0,0,0,.49-.65v-.37a.71.71,0,0,0-.21-.49,9,9,0,0,0-6.35-2.73,11.47,11.47,0,0,0-6.75,2.55"/><path class="cls-2" d="M99,64.69a.7.7,0,0,0-.34.41l-.08.26a.69.69,0,0,0,.11.59.63.63,0,0,0,.48.26.18.18,0,0,0,.1,0,1,1,0,0,0,.38-.1,2.27,2.27,0,0,1,.47-.05,6.76,6.76,0,0,1,5.58,3.64l0,.06a.83.83,0,0,0,.5.4,1,1,0,0,0,.25,0,.8.8,0,0,0,.39-.09l0,0a7.78,7.78,0,0,1,3.49-.86A5.28,5.28,0,0,1,114,70.36a1,1,0,0,0,.26.29,1.51,1.51,0,0,0,.26.12l.11,0h.07a.67.67,0,0,0,.31-.07.71.71,0,0,0,.34-.4l.06-.23a.63.63,0,0,0,0-.19.64.64,0,0,0-.09-.34,5.89,5.89,0,0,0-5.3-3.19,8.44,8.44,0,0,0-2.82.53,6.81,6.81,0,0,0-5.27-3,6.59,6.59,0,0,0-2.93.74"/><path class="cls-2" d="M82.48,76.71l0,.36a.68.68,0,0,0,.32.52.64.64,0,0,0,.52.08l.12,0a1.07,1.07,0,0,0,.34-.25,5.7,5.7,0,0,1,3-.68A9.61,9.61,0,0,1,93,79.05l.06,0a.9.9,0,0,0,.6.23h.06a.87.87,0,0,0,.61-.3l.06,0a9.37,9.37,0,0,1,6.85-3.17,4.64,4.64,0,0,1,2,.37,1,1,0,0,0,.41.21,1.07,1.07,0,0,0,.29,0,.47.47,0,0,0,.16,0,.66.66,0,0,0,.44-.67l0-.31a.64.64,0,0,0-.23-.46,7.66,7.66,0,0,0-5-2,9.35,9.35,0,0,0-5.85,2.42,9.81,9.81,0,0,0-5.21-1.73,7.49,7.49,0,0,0-5.55,2.56.72.72,0,0,0-.18.5"/><path class="cls-2" d="M42.94,83a8.47,8.47,0,0,1,8.47-8.47l.54,0a11.46,11.46,0,0,1,22.88.87,11.31,11.31,0,0,1-1.16,5,12.8,12.8,0,0,1-2.77,25.3l-17.1-.1h0a9.06,9.06,0,0,1-6.6-15.28A8.47,8.47,0,0,1,42.94,83Z"/><path class="cls-2" d="M59.19,26.61,57.6,23.85c-.64-1.05-1.05-1.73-1.44-2.46h0c-.35.73-.7,1.39-1.35,2.48l-1.5,2.74H51.42l3.81-6.31-3.66-6.16h1.87l1.65,2.92c.46.82.81,1.45,1.14,2.11h.06c.35-.74.67-1.31,1.13-2.11l1.7-2.92H61l-3.79,6.07,3.88,6.4Z"/><path class="cls-2" d="M69.3,26a6.57,6.57,0,0,1-3.28.82c-1.79,0-3.77-.71-3.77-2.72a2.38,2.38,0,0,1,2.22-2.24v-.1a2,2,0,0,1-1.78-1.88c0-1.19,1.19-2.43,3.57-2.43a4.69,4.69,0,0,1,2.72.69l-.35,1.07a4.84,4.84,0,0,0-2.24-.56c-1.24,0-2.07.52-2.07,1.34s1.09,1.27,2.5,1.27h1.07v1.17H66.76c-1.61,0-2.81.44-2.81,1.52s1.11,1.63,2.43,1.63A5.8,5.8,0,0,0,69,24.89Z"/><path class="cls-2" d="M71.06,30.28A15.43,15.43,0,0,1,70.85,27V22.87c0-2.31.59-3.35,1.3-4.09a4.11,4.11,0,0,1,3.07-1.33c2.5,0,4.09,1.87,4.09,4.55,0,3.17-2,4.82-4.09,4.82a3.11,3.11,0,0,1-2.7-1.32h-.06V27a25.84,25.84,0,0,0,.15,3.33Zm1.4-7.18a2.25,2.25,0,0,0,.08.64A2.53,2.53,0,0,0,75,25.54c1.72,0,2.72-1.48,2.72-3.5,0-1.76-.92-3.24-2.59-3.24-1.28,0-2.63,1.06-2.63,3.54Z"/><path class="cls-2" d="M90,18.69c-.45,0-1,0-2.35-.07v.07a4.12,4.12,0,0,1,1.66,3.39c0,3.29-2.25,4.74-4.29,4.74a4.24,4.24,0,0,1-4.29-4.59,4.41,4.41,0,0,1,4.61-4.78H90Zm-2.3,3.39c0-1.52-.77-3.41-2.62-3.41s-2.71,1.78-2.71,3.48c0,2,1.13,3.44,2.69,3.44S87.69,24.11,87.69,22.08Z"/><path class="cls-2" d="M99.32,17.65c-.1,1-.24,4-.24,6.41,0,1.05.26,1.5.88,1.52l-.12,1.16a1.58,1.58,0,0,1-.56.08c-.8,0-1.44-.52-1.54-1.89h0a3.44,3.44,0,0,1-3.06,1.89C92.5,26.82,91,25,91,22.32c0-2.93,1.92-4.87,4-4.87a2.85,2.85,0,0,1,2.75,1.8h.08a15.26,15.26,0,0,1,.16-1.6ZM95,25.52a2.78,2.78,0,0,0,2.39-2.28A5.34,5.34,0,0,0,97.54,22a4.35,4.35,0,0,0-.07-1,2.58,2.58,0,0,0-2.3-2.29c-1.52,0-2.55,1.5-2.55,3.53C92.62,24,93.49,25.52,95,25.52Z"/><path class="cls-2" d="M103.44,24.45c0,.79.17,1.13.87,1.09l-.09,1.18a2.54,2.54,0,0,1-.74.1c-.94,0-1.67-.43-1.67-2.21v-7h1.63Zm1.13-10.55L103,16.54h-1.1l1-2.64Z"/><path class="cls-2" d="M113.88,17.65c-.09,1-.24,4-.24,6.41,0,1.05.26,1.5.89,1.52l-.13,1.16a1.51,1.51,0,0,1-.56.08c-.79,0-1.44-.52-1.53-1.89h-.06a3.44,3.44,0,0,1-3,1.89c-2.13,0-3.67-1.78-3.67-4.5,0-2.93,1.93-4.87,4-4.87a2.86,2.86,0,0,1,2.76,1.8h.07a14.86,14.86,0,0,1,.17-1.6Zm-4.27,7.87A2.77,2.77,0,0,0,112,23.24,4.85,4.85,0,0,0,112.1,22a4.35,4.35,0,0,0-.07-1,2.57,2.57,0,0,0-2.29-2.29c-1.52,0-2.56,1.5-2.56,3.53C107.18,24,108.05,25.52,109.61,25.52Z"/><path class="cls-2" d="M56.2,47.45a6.61,6.61,0,0,0,.61-2,14.44,14.44,0,0,1-2.19-.5,4,4,0,0,1-2.94-4.13c0-2.57,1.67-5.59,4.52-7.53v-.08H54.88A9.53,9.53,0,0,1,52.73,33l.17-1.1a19.17,19.17,0,0,0,2.26.08h3.09l.24,1.13c-3,1.5-5.16,4.66-5.16,7.38a3.07,3.07,0,0,0,2.29,3.28,11.17,11.17,0,0,0,2.59.54.21.21,0,0,1,.17.22,6.52,6.52,0,0,1-1.11,3.24Z"/><path class="cls-2" d="M65.62,41.94c0,1.14.64,2,1.53,2S69,42.82,69,40.42a6.1,6.1,0,0,0-1.48-4.2v-.06h1.54a5.84,5.84,0,0,1,1.53,4.3c0,3.33-1.68,4.86-3.38,4.86a2.41,2.41,0,0,1-2.34-1.59h-.07a2.52,2.52,0,0,1-2.37,1.59c-1.55,0-3.28-1.31-3.28-4.72a6.45,6.45,0,0,1,1.58-4.44h1.5v.06a6.45,6.45,0,0,0-1.48,4.35c0,2.49,1,3.4,1.9,3.4s1.48-.91,1.48-2l0-3.42h1.53Z"/><path class="cls-2" d="M72.67,45.12V38.59a8.61,8.61,0,0,0-.26-2.43h1.46a3.67,3.67,0,0,1,.26,1.48h0a3.29,3.29,0,0,1,3-1.68c1.24,0,3.16.74,3.16,3.81v5.68a17.9,17.9,0,0,0,.19,3.33H78.94a13,13,0,0,1-.28-3.27V40c0-1.45-.53-2.65-2.07-2.65A2.31,2.31,0,0,0,74.41,39a2.24,2.24,0,0,0-.12.76v5.39Zm5.86-12.7L77,35.07H75.89l1-2.65Z"/></g></g></svg>