<svg xmlns="http://www.w3.org/2000/svg" viewBox="0 0 160.92 160.93"><defs><style>.cls-1{fill:#fff;}.cls-2{fill:#26bde2;}</style></defs><g id="Layer_2" data-name="Layer 2"><g id="Layer_1-2" data-name="Layer 1"><path class="cls-1" d="M24.35,46.36c5.79,0,8-3.16,8-8.18V33.39c0-5.31-2.11-8-6-8A4.66,4.66,0,0,0,21.86,28h-.05V21c0-2,.62-3.35,2.59-3.35s2.53,1.15,2.53,3.16V23h5V21.28c0-4.78-1.58-8.13-7.61-8.13-5.74,0-7.9,3.68-7.9,8.75V37.7c0,5,2.2,8.66,8,8.66M21.81,32.72c.1-1.82.86-3,2.59-3S27,30.9,27,33v5.65c0,2.05-.76,3.25-2.63,3.25s-2.54-1.24-2.54-3.25Z"/><path class="cls-1" d="M110.1,65.07a.74.74,0,0,0-.53-.23H51.19a.65.65,0,0,0-.67.79L60.33,125a.68.68,0,0,0,.67.57H73l.82,9.66H68.8L80.58,147,92.4,135.16H87.33l.83-9.65h12.25a.68.68,0,0,0,.67-.58l9.17-59.31A.67.67,0,0,0,110.1,65.07Zm-22.56,47.5a9.42,9.42,0,0,1-7,2.43,9.4,9.4,0,0,1-7-2.43c-4.37-4.37-2.81-9.81-1.29-12.62.94-1.76,7.66-11.85,8.24-12.71v-.07l0,0,0,0v.07c.56.86,7.3,11,8.24,12.71C90.35,102.76,91.91,108.2,87.54,112.57Zm18.52-35a7.25,7.25,0,0,0-5.52.33c-7.24,2.94-12.17,4-19.79,1.61C76,78,71.46,74.85,66.15,76.76c-3.52,1.27-6.8,2.48-10.78,2.45l-2.3-11.79h54.64Z"/><rect class="cls-2" width="160.92" height="160.93"/><path class="cls-1" d="M24.35,46.36c5.79,0,8-3.16,8-8.18V33.39c0-5.31-2.11-8-6-8A4.66,4.66,0,0,0,21.86,28h-.05V21c0-2,.62-3.35,2.59-3.35s2.53,1.15,2.53,3.16V23h5V21.28c0-4.78-1.58-8.13-7.61-8.13-5.74,0-7.9,3.68-7.9,8.75V37.7c0,5,2.2,8.66,8,8.66M21.81,32.72c.1-1.82.86-3,2.59-3S27,30.9,27,33v5.65c0,2.05-.76,3.25-2.63,3.25s-2.54-1.24-2.54-3.25Z"/><path class="cls-1" d="M110.1,65.07a.74.74,0,0,0-.53-.23H51.19a.65.65,0,0,0-.67.79L60.33,125a.68.68,0,0,0,.67.57H73l.82,9.66H68.8L80.58,147,92.4,135.16H87.33l.83-9.65h12.25a.68.68,0,0,0,.67-.58l9.17-59.31A.67.67,0,0,0,110.1,65.07Zm-22.56,47.5a9.42,9.42,0,0,1-7,2.43,9.4,9.4,0,0,1-7-2.43c-4.37-4.37-2.81-9.81-1.29-12.62.94-1.76,7.66-11.85,8.24-12.71v-.07l0,0,0,0v.07c.56.86,7.3,11,8.24,12.71C90.35,102.76,91.91,108.2,87.54,112.57Zm18.52-35a7.25,7.25,0,0,0-5.52.33c-7.24,2.94-12.17,4-19.79,1.61C76,78,71.46,74.85,66.15,76.76c-3.52,1.27-6.8,2.48-10.78,2.45l-2.3-11.79h54.64Z"/><path class="cls-1" d="M46.74,13.94h1.39v5.17h0c.28-.41.57-.79.84-1.14l3.28-4H54l-3.88,4.55,4.19,6.18H52.69L49.15,19.4l-1,1.18v4.09H46.74Z"/><path class="cls-1" d="M62,17c-.08.81-.21,3.46-.21,5.51,0,.91.22,1.29.77,1.31l-.12,1a1.29,1.29,0,0,1-.47.07c-.69,0-1.25-.45-1.33-1.63h0a3,3,0,0,1-2.63,1.63c-1.83,0-3.16-1.53-3.16-3.87,0-2.52,1.66-4.19,3.44-4.19a2.47,2.47,0,0,1,2.38,1.54h.06A12.2,12.2,0,0,1,60.79,17Zm-3.68,6.77a2.39,2.39,0,0,0,2-2,4.51,4.51,0,0,0,.1-1.08,3.73,3.73,0,0,0-.06-.83,2.23,2.23,0,0,0-2-2c-1.31,0-2.2,1.29-2.2,3C56.19,22.39,56.94,23.73,58.28,23.73Z"/><path class="cls-1" d="M63.55,18.92c0-3.25,1.32-5.73,3.73-5.73s3.58,2.31,3.58,5.73c0,3.59-1.16,5.93-3.63,5.93C65,24.85,63.55,22.86,63.55,18.92Zm5.93-.6c0-2.27-.73-4.1-2.28-4.1s-2.26,1.93-2.26,4.1Zm-4.54,1.05c0,2.83,1,4.44,2.32,4.44s2.22-1.85,2.22-4.44Z"/><path class="cls-1" d="M79.24,17c-.08.81-.2,3.46-.2,5.51,0,.91.22,1.29.76,1.31l-.11,1a1.35,1.35,0,0,1-.48.07c-.68,0-1.24-.45-1.32-1.63h0a3,3,0,0,1-2.63,1.63c-1.83,0-3.15-1.53-3.15-3.87,0-2.52,1.65-4.19,3.44-4.19a2.45,2.45,0,0,1,2.37,1.54h.07A12.2,12.2,0,0,1,78.08,17Zm-3.68,6.77a2.39,2.39,0,0,0,2.06-2,4.54,4.54,0,0,0,.09-1.08,3.73,3.73,0,0,0-.06-.83,2.22,2.22,0,0,0-2-2c-1.3,0-2.19,1.29-2.19,3C73.48,22.39,74.22,23.73,75.56,23.73Z"/><path class="cls-1" d="M81.38,27.83A13.76,13.76,0,0,1,81.2,25V21.45a4.57,4.57,0,0,1,1.12-3.52A3.56,3.56,0,0,1,85,16.79c2.15,0,3.52,1.61,3.52,3.92,0,2.72-1.7,4.14-3.52,4.14a2.67,2.67,0,0,1-2.32-1.13h0V25a22.63,22.63,0,0,0,.13,2.87Zm1.21-6.18a2.44,2.44,0,0,0,.06.55,2.19,2.19,0,0,0,2.09,1.55c1.48,0,2.34-1.28,2.34-3,0-1.52-.79-2.79-2.23-2.79-1.1,0-2.26.91-2.26,3Z"/><path class="cls-1" d="M97.23,20.75a3.77,3.77,0,0,1-3.84,4.1,3.67,3.67,0,0,1-3.7-4,3.76,3.76,0,0,1,3.83-4.09A3.65,3.65,0,0,1,97.23,20.75Zm-6.12.08c0,1.69,1,3,2.34,3s2.35-1.26,2.35-3c0-1.3-.66-3-2.31-3S91.11,19.37,91.11,20.83Zm4-7.09L93.79,16h-1l.86-2.28Z"/><path class="cls-1" d="M102.76,17l1.48,4.34c.25.68.44,1.33.67,2h0c.63-1.24,2-3.84,2-5.62,0-.26,0-.49,0-.72h1.32a4.65,4.65,0,0,1,0,.58c0,2.18-1.48,4.79-2.88,7.13H104.1L101.28,17Z"/><path class="cls-1" d="M115.25,24.15a5.6,5.6,0,0,1-2.82.7c-1.55,0-3.25-.61-3.25-2.34a2.06,2.06,0,0,1,1.91-1.93V20.5a1.69,1.69,0,0,1-1.53-1.63c0-1,1-2.08,3.07-2.08a4.06,4.06,0,0,1,2.35.59l-.31.92a4.07,4.07,0,0,0-1.92-.48c-1.07,0-1.79.45-1.79,1.15s.94,1.1,2.15,1.1H114v1h-1c-1.38,0-2.42.38-2.42,1.31s1,1.4,2.09,1.4a5.11,5.11,0,0,0,2.26-.59Z"/><path class="cls-1" d="M116.76,27.83a13.76,13.76,0,0,1-.18-2.81V21.45a4.57,4.57,0,0,1,1.12-3.52,3.56,3.56,0,0,1,2.64-1.14c2.16,0,3.53,1.61,3.53,3.92,0,2.72-1.71,4.14-3.53,4.14A2.67,2.67,0,0,1,118,23.72h0V25a22.63,22.63,0,0,0,.13,2.87ZM118,21.65a2,2,0,0,0,.07.55,2.17,2.17,0,0,0,2.08,1.55c1.48,0,2.34-1.28,2.34-3,0-1.52-.79-2.79-2.23-2.79-1.1,0-2.26.91-2.26,3Z"/><path class="cls-1" d="M132.61,20.75a3.77,3.77,0,0,1-3.84,4.1,3.66,3.66,0,0,1-3.69-4,3.76,3.76,0,0,1,3.82-4.09A3.65,3.65,0,0,1,132.61,20.75Zm-6.12.08c0,1.69,1,3,2.35,3s2.34-1.26,2.34-3c0-1.3-.66-3-2.31-3S126.49,19.37,126.49,20.83Zm4-7.09L129.17,16h-1l.86-2.28Z"/><path class="cls-1" d="M46.7,40.6v-6a5.71,5.71,0,0,0-.18-1.68h1.35a2.72,2.72,0,0,1,.23,1.31v2.12h.06c1.39-1.31,2.47-2.5,3.38-3.43h1.64V33c-1.08,1-2.31,2.2-3.66,3.47v0c.76.17,1.59,1.16,2.37,2.2l1.4,1.92H51.67L50.46,39c-.79-1-1.5-1.77-2.23-1.78H48.1V40.6Z"/><path class="cls-1" d="M60.94,32.89c-.08.82-.21,3.46-.21,5.52,0,.9.22,1.29.77,1.3l-.12,1a1.53,1.53,0,0,1-.47.06c-.69,0-1.25-.45-1.33-1.63h0a3,3,0,0,1-2.63,1.63c-1.83,0-3.16-1.53-3.16-3.87,0-2.52,1.66-4.19,3.44-4.19a2.47,2.47,0,0,1,2.38,1.54h.06a10,10,0,0,1,.15-1.37Zm-3.68,6.77a2.39,2.39,0,0,0,2.05-2,4.51,4.51,0,0,0,.1-1.08,3.73,3.73,0,0,0-.06-.83,2.23,2.23,0,0,0-2-2c-1.31,0-2.2,1.29-2.2,3C55.17,38.33,55.92,39.66,57.26,39.66Z"/><path class="cls-1" d="M64.49,38.74c0,.69.14,1,.75.94l-.08,1a2.32,2.32,0,0,1-.64.08c-.81,0-1.43-.37-1.43-1.9v-6h1.4Z"/><path class="cls-1" d="M76.85,32.89c-.08.82-.2,3.46-.2,5.52,0,.9.22,1.29.76,1.3l-.11,1a1.65,1.65,0,0,1-.48.06c-.68,0-1.24-.45-1.32-1.63h0a3,3,0,0,1-2.63,1.63c-1.83,0-3.15-1.53-3.15-3.87,0-2.52,1.66-4.19,3.44-4.19a2.45,2.45,0,0,1,2.37,1.54h.07a12.2,12.2,0,0,1,.14-1.37Zm-3.68,6.77a2.39,2.39,0,0,0,2.06-2,4.54,4.54,0,0,0,.09-1.08,3.73,3.73,0,0,0-.06-.83,2.22,2.22,0,0,0-2-2c-1.31,0-2.2,1.29-2.2,3C71.09,38.33,71.83,39.66,73.17,39.66Z"/><path class="cls-1" d="M85.2,34v4.32a8.49,8.49,0,0,0,.22,2.29H84.07a5.8,5.8,0,0,1-.24-2.15V34H81.3a24.64,24.64,0,0,1-1.08,6.61H78.88A25.44,25.44,0,0,0,80,34a6,6,0,0,0-1.58.15l-.19-.83a4,4,0,0,1,2.22-.42h6L86.27,34Z"/><path class="cls-1" d="M94.89,36.68a3.77,3.77,0,0,1-3.84,4.1,3.67,3.67,0,0,1-3.7-4,3.76,3.76,0,0,1,3.83-4.09A3.65,3.65,0,0,1,94.89,36.68Zm-6.12.08c0,1.69,1,3,2.34,3s2.35-1.26,2.35-3c0-1.3-.66-3-2.32-3S88.77,35.3,88.77,36.76Z"/><path class="cls-1" d="M96.9,32.89l1.95,4.16h.07c.22-.49.48-1,.81-1.7l1.15-2.46h1.37L99.52,38.1l2.81,5.55L101,44l-2.29-4.72h-.07c-.2.46-.44,1-.73,1.64L96.48,44l-1.19-.37L98,38.12,95.4,32.89Z"/><path class="cls-1" d="M108.89,40.08a5.57,5.57,0,0,1-2.82.7c-1.54,0-3.25-.61-3.25-2.34a2.06,2.06,0,0,1,1.91-1.93v-.08a1.67,1.67,0,0,1-1.52-1.62c0-1,1-2.09,3.07-2.09a4.13,4.13,0,0,1,2.34.59l-.3.92a4.16,4.16,0,0,0-1.93-.48c-1.07,0-1.78.45-1.78,1.15s.94,1.1,2.15,1.1h.92v1h-1c-1.39,0-2.42.39-2.42,1.31s.95,1.4,2.08,1.4a5.16,5.16,0,0,0,2.27-.59Zm-1.19-10.4L106.37,32h-1l.86-2.27Z"/><path class="cls-1" d="M114.26,40.65a2,2,0,0,1-.76.13c-1.25,0-1.79-.77-1.79-2.39V34h-.84a7.8,7.8,0,0,0-1.56.13l-.19-.81a3.68,3.68,0,0,1,2.1-.42h4.44l-.17,1.1H113.1v4.37c0,1,.41,1.3.89,1.3h.33Z"/><path class="cls-1" d="M122.48,40.08a5.6,5.6,0,0,1-2.82.7c-1.54,0-3.25-.61-3.25-2.34a2.06,2.06,0,0,1,1.91-1.93v-.08a1.68,1.68,0,0,1-1.53-1.62c0-1,1-2.09,3.08-2.09a4.13,4.13,0,0,1,2.34.59l-.3.92a4.16,4.16,0,0,0-1.93-.48c-1.07,0-1.78.45-1.78,1.15s.94,1.1,2.15,1.1h.92v1h-1c-1.39,0-2.42.39-2.42,1.31s1,1.4,2.08,1.4a5.16,5.16,0,0,0,2.27-.59Z"/><path class="cls-1" d="M129.84,32.89a7.55,7.55,0,0,1,.57,3c0,2.27-.73,4.88-3.52,4.88a2.84,2.84,0,0,1-3-3.11V35.49a10.48,10.48,0,0,0-.18-2.6H125a2.76,2.76,0,0,1,.22,1.45v3.14c0,1.55.91,2.14,1.75,2.14,1.34,0,2-1.37,2-3.59a9.38,9.38,0,0,0-.51-3.14Z"/><path class="cls-1" d="M139.83,33.79c-.38,0-.89,0-2-.07v.07a3.55,3.55,0,0,1,1.43,2.91,3.72,3.72,0,0,1-3.7,4.08,3.65,3.65,0,0,1-3.69-4,3.79,3.79,0,0,1,4-4.11h4.07Zm-2,2.91c0-1.31-.67-2.93-2.26-2.93s-2.32,1.53-2.32,3c0,1.69,1,3,2.31,3S137.85,38.45,137.85,36.7Z"/><path class="cls-1" d="M141.31,40.6V35a7.53,7.53,0,0,0-.22-2.09h1.26a3.31,3.31,0,0,1,.22,1.28h0a2.85,2.85,0,0,1,2.55-1.45c1.07,0,2.72.64,2.72,3.28v4.89a15.83,15.83,0,0,0,.16,2.87h-1.32a11.19,11.19,0,0,1-.24-2.82V36.16c0-1.24-.46-2.28-1.78-2.28a2,2,0,0,0-1.88,1.43,2.18,2.18,0,0,0-.1.66V40.6Z"/></g></g></svg>