<svg xmlns="http://www.w3.org/2000/svg" viewBox="0 0 160.92 160.93"><defs><style>.cls-1{fill:#3f7e44;}.cls-2{fill:#fff;}</style></defs><g id="Layer_2" data-name="Layer 2"><g id="Layer_1-2" data-name="Layer 1"><rect class="cls-1" width="160.92" height="160.93"/><polygon class="cls-2" points="20.31 13.5 20.31 45.93 14.86 45.93 14.86 21.11 14.81 21.11 10.98 25.08 10.94 25.08 10.94 19.38 15.96 13.5 20.31 13.5"/><path class="cls-2" d="M38.3,20.53v2.82a5.19,5.19,0,0,1-3.73,5.27c2.72.62,4,2.53,4,5.5V38.9c0,4.5-2.4,7.42-7.9,7.42s-7.51-3.16-7.51-8.09V34h5v4.65c0,1.91.67,3.15,2.53,3.15,1.67,0,2.44-1.19,2.44-2.92V33.5c0-1.73-.77-2.63-2.68-2.63H28.16V26.7h2.05c1.77,0,2.92-.91,2.92-2.63V20.58c0-1.77-.62-2.92-2.34-2.92s-2.35,1.15-2.35,3.16v3.3h-5V21.25c0-4.78,2-8.13,7.6-8.13,5,0,7.23,2.82,7.23,7.41"/><path class="cls-2" d="M140.73,100.75a73.61,73.61,0,0,0-118.14,0c-.18.25-.34.47-.46.66.12.19.28.41.46.67a73.61,73.61,0,0,0,118.14,0c.19-.26.34-.48.46-.67-.12-.19-.27-.41-.46-.66M61.78,86.07c.32-.47,1.39-1.81,1.51-2a1.9,1.9,0,0,1,1.21-.5c.38-.07.88.14.94.43a3.28,3.28,0,0,1-.33,1.57,4.09,4.09,0,0,1-2.64,1.19c-.58-.09-.8-.54-.69-.71M60.5,88.61l.13-.15a3.36,3.36,0,0,1,2-.72c.62-.11,1.44.21,1.54.62s-1.55,1.15-1.85,1.44c-.86.79-2.2,2.39-3,2.57a.91.91,0,0,1-.64-.07,25.44,25.44,0,0,1,1.85-3.69M73.85,116a7.13,7.13,0,0,1-1.53,3.18,5.15,5.15,0,0,1-3.39,1.3c-1.13-.09-1.28-3.1-1.28-4.65,0-.54-.76,1-1.16-2.18-.25-2.06-1.58.22-1.67-1.16s-.76-1.1-1.45-2-1.56.08-2.53.52-.57.65-1.94.22l-.08,0a24.7,24.7,0,0,1-2-9.67c0-.84,0-1.66.12-2.48a1.82,1.82,0,0,1,.15-.23c1.32-1.55,1.29-1.92,1.29-1.92l1.45-.5a25,25,0,0,1,4.07,1c1.44.54,3.71,1.77,5,1.23,1-.39,1.7-.92,1.61-1.71-.1-1-.89-1.23-1.84-.56-.35.25-1.09-1.5-1.68-1.41s.72,2,.23,2.13-1.5-2-1.67-2.39-.94-1.2-1.63-.55c-1.47,1.39-3.85,1.31-4.33,1.67-1.45,1.08-1.83-.36-1.8-1.24L58,94a3,3,0,0,1,2.76-.3c.65.43,1.11-.11,1.36-.37a.9.9,0,0,0,0-1c-.16-.35.33-.6.66-.69A17.73,17.73,0,0,0,64.7,90.5a6.12,6.12,0,0,1,3.77,0A2,2,0,0,0,71,90a6.49,6.49,0,0,1,1.8-1.5c.36-.17-.88-1.34-1.91-.07s-1.55,1.38-2,1.38-3.35-.71-3.7-1.62.89-1.58,2-2.1,4-.49,4.69-.66c1.51-.33,3.43-1.09,4.4-.43s-4.05,1.79-2.4,2.68c.59.32,3.24-1.52,4.15-2C80,84.56,75.82,84.2,76.37,82c.62-2.53-5.16-1.55-8-1.34a24.83,24.83,0,0,1,37.52,15.12,3.81,3.81,0,0,1-.12,1.15,1.62,1.62,0,0,1-2.91.22c-.25-.36-1.31-1.36-1.28.36s1.68,1.89.09,2.93a6.16,6.16,0,0,1-2.61,1c-.73.26-1.44,2-1.27,3s2.44,3.54.76,3.43c-.39,0-3.36-2-3.85-3.36s-1.08-2.71-1.48-3.75a1.48,1.48,0,0,0-2.34-.69c-.88.61.25,1.21-.39,2.51s-1.09,2.44-2,1.37c-2.42-2.77-6-1.4-6.5-4.49-.3-1.68-1.74-1.52-3-2.47s-1.88-1.46-2.09-.77,3.8,3.75,4.08,4.56c.42,1.2-1.19,2.26-2.37,2.54s-1.69-.66-2.85-1.87-1.66-2.06-1.74-1.12a5.45,5.45,0,0,0,2.27,4.13c1,.63,2.14.92,1.81,2s0,.45-1.13,1.57-1.34,1.48-1.26,3-.32,1.64-.57,2.93-.8.18-1.28,2.07m26.64-9.91c.83-.06,2.09,1.09,1.6,1.54a2.23,2.23,0,0,1-2.37-.21c-.63-.49.39-1.29.77-1.33m-1.06-.76c-.27-.1-.5-.35-.71-1a.56.56,0,0,1,.82-.71,2.36,2.36,0,0,1,1.17,1.42c0,.41-1,.36-1.28.25m-11,0a2.25,2.25,0,0,1-2.37-.21c-.63-.49.39-1.3.77-1.33.83-.07,2.09,1.1,1.6,1.54M78.33,110.2c-.34.56-1.28,4.74-1.9,4.25s.25-4.84.43-5.18c1-1.8,3.1-1.71,1.47.93m3.37,16.19a25.16,25.16,0,0,1-7-1,1,1,0,0,1-.3-1.22c.77-2,3.06-2.78,4.87-3,4-.39,9.32,2.62,10.16,2.13s2.55-2.7,5-2.6a3.94,3.94,0,0,1,2.27.56,24.72,24.72,0,0,1-15.06,5.09m17.52-7.23a4.19,4.19,0,0,1-.78-.29c-1.35-.69-1.19.41-1.86.17s.75-1.8-1.25-.49-1.45-.2-2.33-2.41,1-4.74,2.58-5.31a31.43,31.43,0,0,1,4.5-1.19c3-.74,3.62-2.51,4.16-1.43l.29.57a4,4,0,0,1,.38,1.62,24.8,24.8,0,0,1-5.69,8.76m6.8-12.54c-.66-.18-3.45-4-1.25-6.57.37-.42-.74-1.65-.43-1.67,1.2-.1,1.84.65,2.16,1.73,0,.48,0,1,0,1.44a24.91,24.91,0,0,1-.52,5.07"/><path class="cls-2" d="M51.32,25.8l4.39-11.67h1.85l4.33,11.65v.93H51.32Zm8.76-.45-2.56-6.93c-.32-.87-.71-2-.93-2.8h-.06c-.18.64-.52,1.68-.84,2.56l-2.63,7.17Z"/><path class="cls-2" d="M64,30.41a15.87,15.87,0,0,1-.2-3.29V22.94c0-2.33.59-3.38,1.3-4.12a4.15,4.15,0,0,1,3.1-1.35c2.52,0,4.13,1.89,4.13,4.59,0,3.2-2,4.86-4.13,4.86a3.11,3.11,0,0,1-2.72-1.33H65.4v1.46a26.33,26.33,0,0,0,.15,3.36Zm1.42-7.25a2.84,2.84,0,0,0,.07.66,2.56,2.56,0,0,0,2.45,1.81c1.74,0,2.74-1.49,2.74-3.53,0-1.77-.93-3.27-2.61-3.27-1.29,0-2.65,1.07-2.65,3.57Z"/><path class="cls-2" d="M82.14,17.68c-.09.95-.24,4.05-.24,6.46,0,1.06.26,1.51.9,1.53l-.13,1.17a1.54,1.54,0,0,1-.56.08c-.81,0-1.46-.53-1.55-1.91H80.5a3.45,3.45,0,0,1-3.08,1.91c-2.15,0-3.69-1.79-3.69-4.54,0-2.95,1.94-4.91,4-4.91a2.89,2.89,0,0,1,2.78,1.81h.07a14.57,14.57,0,0,1,.17-1.6Zm-4.31,7.93a2.8,2.8,0,0,0,2.41-2.3A5.51,5.51,0,0,0,80.35,22a4.39,4.39,0,0,0-.07-1A2.6,2.6,0,0,0,78,18.76c-1.53,0-2.57,1.51-2.57,3.56C75.39,24,76.26,25.61,77.83,25.61ZM80,13.91l-1.55,2.67h-1.1l1-2.67Z"/><path class="cls-2" d="M93.36,18.72c-.44,0-1,0-2.37-.07v.07a4.14,4.14,0,0,1,1.68,3.42c0,3.32-2.27,4.78-4.33,4.78A4.29,4.29,0,0,1,84,22.29a4.45,4.45,0,0,1,4.65-4.82h4.76Zm-2.31,3.42c0-1.53-.78-3.44-2.65-3.44s-2.73,1.8-2.73,3.51c0,2,1.14,3.48,2.71,3.48S91.05,24.19,91.05,22.14Z"/><path class="cls-2" d="M95.1,26.71V20.12a8.68,8.68,0,0,0-.26-2.44h1.47a3.69,3.69,0,0,1,.26,1.49h0a3.33,3.33,0,0,1,3-1.7c1.25,0,3.19.75,3.19,3.85v5.73a18.29,18.29,0,0,0,.19,3.36h-1.55a12.79,12.79,0,0,1-.28-3.31V21.5c0-1.45-.54-2.67-2.09-2.67a2.34,2.34,0,0,0-2.21,1.68,2.55,2.55,0,0,0-.11.77v5.43Z"/><path class="cls-2" d="M111.47,30.41a19.89,19.89,0,0,0-.33-5.3,25.44,25.44,0,0,0-3.2-7.43h1.85a23.28,23.28,0,0,1,2.75,7h.07c.82-1.51,2.13-4.18,2.13-6.4,0-.28,0-.47,0-.63h1.55a2.74,2.74,0,0,1,.06.61c0,2.32-1.46,5.3-3.2,7.94a.65.65,0,0,0-.11.44c.06,1.07.06,2.47.06,3.74Z"/><path class="cls-2" d="M119.72,24.53c0,.8.17,1.14.88,1.1l-.09,1.19a2.67,2.67,0,0,1-.75.1c-1,0-1.68-.43-1.68-2.22v-7h1.64Z"/><path class="cls-2" d="M130.25,17.68c-.09.95-.24,4.05-.24,6.46,0,1.06.26,1.51.89,1.53l-.13,1.17a1.51,1.51,0,0,1-.56.08c-.8,0-1.45-.53-1.55-1.91h0a3.45,3.45,0,0,1-3.08,1.91c-2.15,0-3.7-1.79-3.7-4.54,0-2.95,1.94-4.91,4-4.91a2.89,2.89,0,0,1,2.79,1.81h.07a12.46,12.46,0,0,1,.17-1.6Zm-4.31,7.93a2.8,2.8,0,0,0,2.41-2.3,5.51,5.51,0,0,0,.11-1.27,3.86,3.86,0,0,0-.08-1,2.59,2.59,0,0,0-2.31-2.31c-1.53,0-2.58,1.51-2.58,3.56C123.49,24,124.37,25.61,125.94,25.61Z"/><path class="cls-2" d="M56.77,45.44a2.38,2.38,0,0,1-.89.15c-1.46,0-2.09-.9-2.09-2.8V37.63h-1a9.26,9.26,0,0,0-1.83.15l-.22-1a4.31,4.31,0,0,1,2.46-.49h5.21l-.21,1.29h-2.8v5.12c0,1.23.49,1.53,1.05,1.53a2.3,2.3,0,0,0,.39,0Z"/><path class="cls-2" d="M67.88,40.79a4.42,4.42,0,0,1-4.5,4.8,4.3,4.3,0,0,1-4.33-4.65c0-3,2-4.8,4.48-4.8S67.88,38,67.88,40.79Zm-7.17.09c0,2,1.14,3.47,2.75,3.47s2.74-1.47,2.74-3.51c0-1.53-.76-3.47-2.7-3.47S60.71,39.16,60.71,40.88Z"/><path class="cls-2" d="M73.91,45.38V38.3a6.79,6.79,0,0,0-.2-2h1.58a3.27,3.27,0,0,1,.26,1.54v2.48h.08c1.62-1.53,2.89-2.93,4-4h1.92v.08C80.24,37.6,78.8,39,77.22,40.49v.06c.89.2,1.86,1.36,2.78,2.57l1.64,2.26h-1.9l-1.42-1.92c-.92-1.2-1.76-2.07-2.62-2.09h-.15v4Z"/><path class="cls-2" d="M86.72,40.21c-.21-.62-.41-1.23-.6-2H86c-.13.6-.38,1.29-.58,1.9L83.6,45.38H81.88L85.15,37a1.64,1.64,0,0,0,.11-.43,1.55,1.55,0,0,0-.13-.51c-.58-1.58-1.25-2.83-2.35-2.83h-.32L82.61,32a2,2,0,0,1,.64-.08c1.77,0,2.61,1.7,3.58,4.28l3.45,9.18H88.55Z"/><path class="cls-2" d="M93.42,43.2c0,.8.17,1.13.88,1.1l-.1,1.19a2.54,2.54,0,0,1-.74.1c-.95,0-1.68-.43-1.68-2.23v-7h1.64Zm1.14-10.64L93,35.22h-1.1l1-2.66Z"/><path class="cls-2" d="M102.29,44a3,3,0,0,1-2.6,1.57,2.18,2.18,0,0,1-2-1v1.12a18.91,18.91,0,0,0,.21,3.4H96.44a14.48,14.48,0,0,1-.26-3.33V36.34h1.63v5.34c0,1.4.59,2.56,2,2.56A2.42,2.42,0,0,0,102,42.73a2.46,2.46,0,0,0,.15-.84V36.34h1.62V42.9c0,1,.21,1.38.86,1.42l-.13,1.19a1.54,1.54,0,0,1-.56.08c-.8,0-1.46-.45-1.61-1.61Z"/><path class="cls-2" d="M114.27,36.34c-.09,1-.24,4.06-.24,6.46,0,1.07.26,1.52.9,1.53l-.14,1.18a1.51,1.51,0,0,1-.56.08c-.8,0-1.45-.53-1.54-1.91h-.06a3.47,3.47,0,0,1-3.08,1.91c-2.15,0-3.7-1.8-3.7-4.54,0-2.95,1.94-4.91,4-4.91A2.89,2.89,0,0,1,112.67,38h.07a12.86,12.86,0,0,1,.17-1.61ZM110,44.28a2.8,2.8,0,0,0,2.41-2.3,5.51,5.51,0,0,0,.11-1.27,4.39,4.39,0,0,0-.07-1,2.6,2.6,0,0,0-2.32-2.31c-1.53,0-2.58,1.51-2.58,3.56C107.51,42.71,108.39,44.28,110,44.28Z"/></g></g></svg>