<svg xmlns="http://www.w3.org/2000/svg" viewBox="0 0 160.92 160.93"><defs><style>.cls-1{fill:#dda63a;}.cls-2{fill:#fff;}</style></defs><g id="Layer_2" data-name="Layer 2"><g id="Layer_1-2" data-name="Layer 1"><rect class="cls-1" width="160.92" height="160.93"/><path class="cls-2" d="M30.1,41.48h-9V40c0-2.53.91-3.49,2.29-5l3.5-3.68c2.82-3,3.44-4.93,3.44-8.18V20c0-4.64-2.25-6.85-7.13-6.85S16,15.64,16,20.19v3.92h5V20c0-2,1-2.53,2.11-2.53s2,.43,2,2.44v2.68c0,2.68-.24,3.73-2,5.6L20,31.48c-3,3.16-4.07,5.27-4.07,8.47v6H30.1Z"/><path class="cls-2" d="M64.19,136.74V139s0,0,0,.06,0,0,0,.05a1.06,1.06,0,0,0,1,1H91.87a1.08,1.08,0,0,0,1-1.07h0v-2.56c14.94-4.9,26.13-17,28.6-31.77,0,0,0-.06,0-.09a.76.76,0,0,0,0-.15,1.06,1.06,0,0,0-1.07-1.07H35.87a1.07,1.07,0,0,0-1.08,1.07l.06.48c2.58,14.9,14.09,27.08,29.34,31.78"/><path class="cls-2" d="M92.89,67.3c-.35.5-8.52,12.26.18,21.78,4,4.37,3.65,8.22,2.51,10.82h5.58c1.13-3.84.67-8.66-3.87-13.61-6.41-7,.09-16.49.18-16.64a2.09,2.09,0,0,0-.9-3.12,3,3,0,0,0-3.68.77"/><path class="cls-2" d="M78.75,99.9h5.59c1.12-3.84.66-8.66-3.88-13.61-6.41-7,.08-16.49.18-16.64a2.09,2.09,0,0,0-.91-3.12,3,3,0,0,0-3.67.77c-.35.49-8.53,12.26.18,21.78,4,4.37,3.65,8.22,2.51,10.82"/><path class="cls-2" d="M59.23,67.3c-.36.5-8.53,12.26.18,21.78,4,4.37,3.64,8.22,2.51,10.82H67.5c1.13-3.84.66-8.66-3.87-13.61-6.42-7,.08-16.49.18-16.64a2.09,2.09,0,0,0-.91-3.12,3,3,0,0,0-3.67.77"/><path class="cls-2" d="M53.35,20.78H48.5v4.49h5.41v1.36h-7V14.15h6.74V15.5H48.5v3.94h4.85Z"/><path class="cls-2" d="M61.2,19.76h-.5c-2.57,0-3.78,1.26-3.78,2.79s1,2.34,2.85,2.82a20.07,20.07,0,0,0,2.46.46c.12,0,.17.09.17.2a6.65,6.65,0,0,1-1.09,3.24L60.24,29a6.88,6.88,0,0,0,.59-2c-2.46-.35-5.61-1.09-5.61-4.22a3.81,3.81,0,0,1,2.91-3.61V19a2.64,2.64,0,0,1-2.06-2.61c0-1.54,1.28-3.11,3.87-3.11a4.5,4.5,0,0,1,2.26.5l-.34,1.13A4.06,4.06,0,0,0,60,14.48a2.08,2.08,0,0,0-2.33,2c0,1.3,1.15,2,2.61,2.07h.89Z"/><path class="cls-2" d="M71.58,17.67c-.09.94-.24,4-.24,6.4,0,1.06.26,1.5.89,1.52l-.13,1.16a1.51,1.51,0,0,1-.56.08c-.79,0-1.44-.52-1.53-1.89H70a3.44,3.44,0,0,1-3,1.89c-2.13,0-3.67-1.78-3.67-4.5,0-2.92,1.93-4.87,4-4.87A2.86,2.86,0,0,1,70,19.26h.07a14.63,14.63,0,0,1,.17-1.59ZM67.3,25.53a2.77,2.77,0,0,0,2.39-2.27A5,5,0,0,0,69.8,22a4.26,4.26,0,0,0-.07-1,2.57,2.57,0,0,0-2.3-2.3c-1.51,0-2.55,1.5-2.55,3.54C64.88,24,65.75,25.53,67.3,25.53Zm2.15-11.6-1.53,2.65h-1.1l1-2.65Z"/><path class="cls-2" d="M77.8,21.5c-.21-.61-.41-1.22-.59-1.94h-.1c-.13.59-.37,1.27-.57,1.88l-1.83,5.19H73l3.24-8.3a1.22,1.22,0,0,0,.11-.42,1.25,1.25,0,0,0-.13-.5c-.57-1.58-1.24-2.82-2.33-2.82a1.72,1.72,0,0,0-.31,0l.15-1.26a2.21,2.21,0,0,1,.62-.07c1.76,0,2.6,1.68,3.56,4.24l3.42,9.11H79.61Z"/><path class="cls-2" d="M89.47,26a6.4,6.4,0,0,1-3.27.82c-1.8,0-3.78-.7-3.78-2.72a2.4,2.4,0,0,1,2.22-2.24v-.09a2,2,0,0,1-1.77-1.89c0-1.19,1.18-2.43,3.57-2.43a4.73,4.73,0,0,1,2.72.69l-.35,1.07a4.89,4.89,0,0,0-2.24-.55c-1.24,0-2.07.51-2.07,1.33s1.09,1.28,2.49,1.28h1.08v1.16H86.94c-1.61,0-2.81.45-2.81,1.52s1.11,1.63,2.42,1.63a5.88,5.88,0,0,0,2.63-.69Z"/><path class="cls-2" d="M92.77,24.46c0,.8.16,1.13.87,1.09l-.1,1.19a3,3,0,0,1-.74.09c-.94,0-1.66-.43-1.66-2.2v-7h1.63Z"/><path class="cls-2" d="M99.62,26.83c-2.28-.15-4.22-1.19-4.22-4.65V19.76a9.25,9.25,0,0,0-.15-2.09h1.5A3.78,3.78,0,0,1,97,19.35V22c0,2.63,1.26,3.52,2.66,3.61V15.32h1.48V25.64c1.61-.07,2.76-1.74,2.76-4.31a8.68,8.68,0,0,0-.66-3.66h1.5a7.31,7.31,0,0,1,.72,3.53c0,2.67-1.13,5.46-4.32,5.63v3.46H99.62Z"/><path class="cls-2" d="M107.63,26.63V20.09a8.53,8.53,0,0,0-.26-2.42h1.46a3.64,3.64,0,0,1,.26,1.48h0a3.29,3.29,0,0,1,3-1.69c1.24,0,3.16.74,3.16,3.82V27a18,18,0,0,0,.19,3.33H113.9a13,13,0,0,1-.28-3.28V21.46c0-1.44-.53-2.65-2.07-2.65a2.31,2.31,0,0,0-2.18,1.67,2.18,2.18,0,0,0-.11.76v5.39Z"/><path class="cls-2" d="M51.35,45.19a2.37,2.37,0,0,1-.89.14c-1.44,0-2.07-.88-2.07-2.77V37.45h-1a8.37,8.37,0,0,0-1.81.15l-.22-1a4.3,4.3,0,0,1,2.44-.48H53l-.2,1.28H50v5.07c0,1.22.48,1.52,1,1.52a2.3,2.3,0,0,0,.39,0Z"/><path class="cls-2" d="M54.48,45.13V38.6a8.61,8.61,0,0,0-.26-2.43h1.46a3.67,3.67,0,0,1,.26,1.48h0a3.29,3.29,0,0,1,3-1.68c1.24,0,3.17.74,3.17,3.81v5.68a19,19,0,0,0,.18,3.34H60.75a13.17,13.17,0,0,1-.27-3.28V40c0-1.45-.54-2.65-2.08-2.65A2.31,2.31,0,0,0,56.22,39a2.42,2.42,0,0,0-.11.75v5.39Z"/><path class="cls-2" d="M70.58,37.56a4.11,4.11,0,0,0-1.65-.33,3.24,3.24,0,0,0-3.18,3.42,3.09,3.09,0,0,0,2.54,3.19,19.3,19.3,0,0,0,2.38.48c.13,0,.19.09.19.27a6.62,6.62,0,0,1-1.07,3.21l-1.1-.34a6.55,6.55,0,0,0,.61-2c-.61-.12-1.27-.24-1.83-.39A4.23,4.23,0,0,1,64.1,40.8,4.71,4.71,0,0,1,68.93,36a4.41,4.41,0,0,1,2,.41Z"/><path class="cls-2" d="M83.42,37.45v5a9.76,9.76,0,0,0,.26,2.66H82.11a6.82,6.82,0,0,1-.28-2.5V37.45H78.89a28.68,28.68,0,0,1-1.26,7.68H76.08a29.72,29.72,0,0,0,1.25-7.68,7.29,7.29,0,0,0-1.83.17l-.22-1a4.78,4.78,0,0,1,2.57-.48h7l-.19,1.28Z"/><path class="cls-2" d="M93,44.52a6.57,6.57,0,0,1-3.28.81c-1.79,0-3.77-.7-3.77-2.72a2.4,2.4,0,0,1,2.22-2.24v-.09a2,2,0,0,1-1.78-1.89C86.42,37.21,87.6,36,90,36a4.77,4.77,0,0,1,2.72.68l-.35,1.08a4.84,4.84,0,0,0-2.24-.56c-1.24,0-2.07.52-2.07,1.34s1.09,1.27,2.5,1.27h1.07V41H90.49c-1.61,0-2.81.44-2.81,1.52s1.11,1.62,2.42,1.62a6,6,0,0,0,2.63-.68Z"/><path class="cls-2" d="M96.32,43c0,.79.17,1.12.87,1.09l-.09,1.18a2.63,2.63,0,0,1-.74.09c-.94,0-1.67-.42-1.67-2.2v-7h1.63Zm1.13-10.55-1.54,2.64H94.82l1-2.64Z"/><path class="cls-2" d="M99.5,36.17l1.73,5c.29.79.51,1.55.77,2.33h.06c.74-1.44,2.31-4.46,2.31-6.53,0-.3,0-.58,0-.84h1.54a6.17,6.17,0,0,1,.06.67c0,2.53-1.73,5.57-3.35,8.29h-1.54l-3.28-9Z"/><path class="cls-2" d="M115.44,36.17c-.09.95-.24,4-.24,6.41,0,1.05.26,1.5.89,1.51L116,45.26a1.53,1.53,0,0,1-.56.07c-.79,0-1.44-.51-1.53-1.88h-.06a3.43,3.43,0,0,1-3,1.88c-2.13,0-3.67-1.77-3.67-4.49,0-2.93,1.93-4.87,4-4.87a2.86,2.86,0,0,1,2.76,1.79h.07a12.69,12.69,0,0,1,.17-1.59ZM111.16,44a2.78,2.78,0,0,0,2.39-2.28,5.42,5.42,0,0,0,.11-1.26,4.3,4.3,0,0,0-.07-1,2.57,2.57,0,0,0-2.3-2.29c-1.51,0-2.55,1.5-2.55,3.53C108.74,42.48,109.61,44,111.16,44Z"/><path class="cls-2" d="M123.77,37.56a4.19,4.19,0,0,0-1.65-.33,3.23,3.23,0,0,0-3.18,3.42,3.08,3.08,0,0,0,2.53,3.19,19.83,19.83,0,0,0,2.39.48c.13,0,.18.09.18.27A6.62,6.62,0,0,1,123,47.8l-1.09-.34a6.84,6.84,0,0,0,.61-2c-.61-.12-1.28-.24-1.83-.39a4.23,4.23,0,0,1-3.37-4.26A4.71,4.71,0,0,1,122.12,36a4.44,4.44,0,0,1,2,.41Z"/></g></g></svg>