<svg xmlns="http://www.w3.org/2000/svg" viewBox="0 0 160.92 160.93"><defs><style>.cls-1{fill:#19486a;}.cls-2{fill:#fff;}</style></defs><g id="Layer_2" data-name="Layer 2"><g id="Layer_1-2" data-name="Layer 1"><rect class="cls-1" width="160.92" height="160.93"/><polygon class="cls-2" points="24.08 13.49 24.08 45.93 18.62 45.93 18.62 21.1 18.57 21.1 14.75 25.07 14.7 25.07 14.7 19.37 19.73 13.49 24.08 13.49"/><polygon class="cls-2" points="26.57 13.49 40.26 13.49 40.26 18.51 33.12 45.93 27.71 45.93 34.99 17.94 26.57 17.94 26.57 13.49"/><path class="cls-2" d="M121.36,97.6a21,21,0,0,0-20.19-20.94,21,21,0,0,0-39.52,0,20.94,20.94,0,0,0-12.1,37.46A20.94,20.94,0,0,0,69.68,140.9a20.85,20.85,0,0,0,11.83-3.67,21,21,0,0,0,31.8-23.13,21,21,0,0,0,8-16.5m-23.21-14a16.74,16.74,0,0,1-14.27,16.53A16.58,16.58,0,0,1,97.93,81.06a16.84,16.84,0,0,1,.22,2.58M81.49,131.79A16.69,16.69,0,0,1,81.33,108a16.69,16.69,0,0,1,.16,23.84M64.89,81.06a16.58,16.58,0,0,1,14,19.11,16.58,16.58,0,0,1-14-19.11m12.48,24a16.67,16.67,0,0,1-22.64,7.36,16.77,16.77,0,0,1,15-9.25,16.57,16.57,0,0,1,7.69,1.89m8-.12a16.69,16.69,0,0,1,22.75,7.46A16.69,16.69,0,0,1,85.4,105m-4-38.07A16.74,16.74,0,0,1,96.75,77,21,21,0,0,0,81.41,88.74,21,21,0,0,0,66.07,77,16.74,16.74,0,0,1,81.41,66.9M45.68,97.6A16.76,16.76,0,0,1,60.63,81a19.78,19.78,0,0,0-.18,2.68A20.9,20.9,0,0,0,67.3,99.12,21,21,0,0,0,51.23,110,16.67,16.67,0,0,1,45.68,97.6m7.26,22.34a16.54,16.54,0,0,1,.37-3.47A20.91,20.91,0,0,0,72.54,116a21.2,21.2,0,0,0-.36,3.85,20.9,20.9,0,0,0,5.92,14.58,16.7,16.7,0,0,1-25.16-14.44m56.94-.14a16.7,16.7,0,0,1-25,14.54,20.89,20.89,0,0,0,5.75-14.4,21.22,21.22,0,0,0-.39-4,20.92,20.92,0,0,0,19.29.53,16.74,16.74,0,0,1,.34,3.34M95.65,99a20.9,20.9,0,0,0,6.72-15.36,19.78,19.78,0,0,0-.18-2.68,16.71,16.71,0,0,1,9.45,29,21,21,0,0,0-16-11"/><path class="cls-2" d="M53,22.92h5.69V24H51.28v-.77L54.74,19,51.47,14.9V14h6.7v1.07h-5v.06l3,3.85L53,22.87Z"/><path class="cls-2" d="M65.46,16.84A7,7,0,0,1,66,19.63c0,2.1-.68,4.53-3.27,4.53a2.63,2.63,0,0,1-2.81-2.88v-2a9.78,9.78,0,0,0-.16-2.41H61a2.49,2.49,0,0,1,.21,1.34V21.1c0,1.43.84,2,1.62,2,1.25,0,1.9-1.27,1.9-3.33a8.53,8.53,0,0,0-.48-2.91Z"/><path class="cls-2" d="M68.11,16.84l1.38,4c.23.64.41,1.24.62,1.87h0C70.74,21.57,72,19.16,72,17.5c0-.24,0-.46,0-.66h1.23c0,.14,0,.34,0,.53,0,2-1.38,4.45-2.68,6.63H69.35l-2.62-7.16Z"/><path class="cls-2" d="M79.72,23.51a5.24,5.24,0,0,1-2.62.65c-1.44,0-3-.56-3-2.17a1.91,1.91,0,0,1,1.77-1.79v-.08a1.58,1.58,0,0,1-1.42-1.51c0-.95.95-1.94,2.86-1.94a3.82,3.82,0,0,1,2.17.55l-.28.86a3.87,3.87,0,0,0-1.79-.44c-1,0-1.66.41-1.66,1.06s.88,1,2,1h.86v.93h-.9c-1.29,0-2.25.36-2.25,1.22s.89,1.3,1.94,1.3a4.77,4.77,0,0,0,2.1-.55Z"/><path class="cls-2" d="M81.12,26.93a12.85,12.85,0,0,1-.16-2.6V21a4.26,4.26,0,0,1,1-3.27,3.27,3.27,0,0,1,2.45-1.07c2,0,3.28,1.5,3.28,3.64,0,2.54-1.59,3.85-3.28,3.85a2.48,2.48,0,0,1-2.16-1.05h0v1.16a19.6,19.6,0,0,0,.12,2.66Zm1.13-5.74a1.85,1.85,0,0,0,.06.52,2,2,0,0,0,1.94,1.43c1.37,0,2.17-1.18,2.17-2.8,0-1.4-.74-2.59-2.07-2.59-1,0-2.1.85-2.1,2.83Z"/><path class="cls-2" d="M90.88,26.93a15.8,15.8,0,0,0-.27-4.2,19.92,19.92,0,0,0-2.53-5.89h1.47a18.31,18.31,0,0,1,2.17,5.58h.06a12.16,12.16,0,0,0,1.69-5.08c0-.22,0-.37,0-.5h1.22a2.28,2.28,0,0,1,0,.48c0,1.84-1.16,4.21-2.53,6.29a.53.53,0,0,0-.09.36c0,.84,0,2,0,3Z"/><path class="cls-2" d="M102.28,16.84c-.07.75-.19,3.21-.19,5.12,0,.84.2,1.2.71,1.21l-.11.93a1.14,1.14,0,0,1-.44.06c-.64,0-1.16-.41-1.23-1.51h0a2.76,2.76,0,0,1-2.45,1.51c-1.7,0-2.93-1.42-2.93-3.59,0-2.34,1.54-3.9,3.2-3.9A2.3,2.3,0,0,1,101,18.11h.06a8.76,8.76,0,0,1,.13-1.27Zm-3.42,6.29a2.23,2.23,0,0,0,1.91-1.82,4.52,4.52,0,0,0,.09-1,3.21,3.21,0,0,0-.06-.77A2.07,2.07,0,0,0,99,17.69c-1.21,0-2,1.2-2,2.83C96.92,21.88,97.62,23.13,98.86,23.13Z"/><path class="cls-2" d="M111.18,17.66c-.36,0-.83,0-1.88-.05v.05a3.3,3.3,0,0,1,1.33,2.71,3.45,3.45,0,0,1-3.43,3.79,3.39,3.39,0,0,1-3.44-3.67,3.53,3.53,0,0,1,3.69-3.82h3.77Zm-1.84,2.71c0-1.21-.62-2.72-2.1-2.72s-2.16,1.42-2.16,2.78c0,1.57.9,2.76,2.15,2.76S109.34,22,109.34,20.37Z"/><path class="cls-2" d="M113.86,22.27c0,.63.13.9.69.87l-.07.95a2.45,2.45,0,0,1-.59.07c-.76,0-1.33-.34-1.33-1.76V16.84h1.3Zm.9-8.44L113.53,16h-.87l.78-2.12Z"/><path class="cls-2" d="M121.19,23.51a5.24,5.24,0,0,1-2.62.65c-1.44,0-3-.56-3-2.17a1.91,1.91,0,0,1,1.77-1.79v-.08a1.58,1.58,0,0,1-1.42-1.51c0-.95.95-1.94,2.86-1.94a3.82,3.82,0,0,1,2.17.55l-.28.86a3.87,3.87,0,0,0-1.79-.44c-1,0-1.65.41-1.65,1.06s.87,1,2,1h.86v.93h-.9c-1.29,0-2.25.36-2.25,1.22s.89,1.3,1.94,1.3a4.77,4.77,0,0,0,2.1-.55Z"/><path class="cls-2" d="M127.18,18a3.16,3.16,0,0,0-1.31-.27,2.59,2.59,0,0,0-2.55,2.74,2.45,2.45,0,0,0,2,2.54,15.42,15.42,0,0,0,1.91.39c.1,0,.15.07.15.22a5.33,5.33,0,0,1-.86,2.56l-.88-.27a5.34,5.34,0,0,0,.49-1.61c-.49-.09-1-.19-1.46-.31a3.38,3.38,0,0,1-2.7-3.4,3.77,3.77,0,0,1,3.87-3.87,3.51,3.51,0,0,1,1.61.33Z"/><path class="cls-2" d="M133.46,26.93a15.38,15.38,0,0,0-.26-4.2,20.17,20.17,0,0,0-2.54-5.89h1.47a18.54,18.54,0,0,1,2.18,5.58h.05a12,12,0,0,0,1.69-5.08c0-.22,0-.37,0-.5h1.23a3.32,3.32,0,0,1,0,.48c0,1.84-1.15,4.21-2.53,6.29a.53.53,0,0,0-.09.36c0,.84,0,2,0,3Z"/><path class="cls-2" d="M140,22.27c0,.63.14.9.7.87l-.07.95a2.47,2.47,0,0,1-.6.07c-.75,0-1.33-.34-1.33-1.76V16.84H140Z"/><path class="cls-2" d="M148.35,16.84c-.07.75-.19,3.21-.19,5.12,0,.84.21,1.2.71,1.21l-.1.93a1.2,1.2,0,0,1-.45.06c-.63,0-1.15-.41-1.22-1.51h0a2.73,2.73,0,0,1-2.44,1.51c-1.7,0-2.93-1.42-2.93-3.59,0-2.34,1.54-3.9,3.2-3.9a2.29,2.29,0,0,1,2.2,1.44h.06a10.46,10.46,0,0,1,.13-1.27Zm-3.42,6.29a2.22,2.22,0,0,0,1.91-1.82,4,4,0,0,0,.09-1,3.21,3.21,0,0,0-.06-.77A2.05,2.05,0,0,0,145,17.69c-1.21,0-2,1.2-2,2.83C143,21.88,143.69,23.13,144.93,23.13Z"/><path class="cls-2" d="M55.58,38.85a1.9,1.9,0,0,1-.71.12c-1.15,0-1.65-.71-1.65-2.22V32.66h-.79a7,7,0,0,0-1.45.12L50.8,32a3.42,3.42,0,0,1,2-.39h4.13l-.17,1H54.5v4.06c0,1,.39,1.21.83,1.21h.31Z"/><path class="cls-2" d="M64.39,35.16A3.5,3.5,0,0,1,60.82,39a3.41,3.41,0,0,1-3.43-3.69,3.49,3.49,0,0,1,3.55-3.8A3.39,3.39,0,0,1,64.39,35.16Zm-5.68.08c0,1.57.9,2.75,2.17,2.75s2.18-1.17,2.18-2.78c0-1.22-.61-2.75-2.15-2.75S58.71,33.88,58.71,35.24Z"/><path class="cls-2" d="M71.5,31.64a7,7,0,0,1,.53,2.8c0,2.1-.68,4.53-3.27,4.53A2.64,2.64,0,0,1,66,36.08v-2a9.83,9.83,0,0,0-.16-2.41H67A2.51,2.51,0,0,1,67.24,33V35.9c0,1.44.84,2,1.62,2,1.25,0,1.9-1.28,1.9-3.33a8.55,8.55,0,0,0-.48-2.92Z"/><path class="cls-2" d="M78.55,32.75a3.25,3.25,0,0,0-1.32-.26,2.59,2.59,0,0,0-2.55,2.73,2.46,2.46,0,0,0,2,2.55,15.35,15.35,0,0,0,1.91.38c.1,0,.15.08.15.23a5.33,5.33,0,0,1-.86,2.56L77,40.67a5.4,5.4,0,0,0,.48-1.61c-.48-.09-1-.2-1.46-.31a3.38,3.38,0,0,1-2.69-3.41,3.76,3.76,0,0,1,3.86-3.86,3.65,3.65,0,0,1,1.61.32Z"/><path class="cls-2" d="M90.09,32.47c-.35,0-.83,0-1.88-.06v.06a3.27,3.27,0,0,1,1.33,2.71A3.46,3.46,0,0,1,86.11,39a3.39,3.39,0,0,1-3.43-3.67,3.52,3.52,0,0,1,3.68-3.82h3.78Zm-1.83,2.71c0-1.21-.62-2.72-2.1-2.72S84,33.88,84,35.24c0,1.57.9,2.75,2.14,2.75S88.26,36.81,88.26,35.18Z"/><path class="cls-2" d="M95.35,38.85a1.93,1.93,0,0,1-.71.12C93.49,39,93,38.26,93,36.75V32.66H92.2a6.92,6.92,0,0,0-1.45.12L90.57,32a3.38,3.38,0,0,1,2-.39h4.13l-.16,1H94.27v4.06c0,1,.38,1.21.83,1.21h.31Z"/><path class="cls-2" d="M104.16,35.16A3.51,3.51,0,0,1,100.59,39a3.4,3.4,0,0,1-3.43-3.69,3.49,3.49,0,0,1,3.55-3.8A3.39,3.39,0,0,1,104.16,35.16Zm-5.69.08c0,1.57.91,2.75,2.18,2.75s2.18-1.17,2.18-2.78c0-1.22-.61-2.75-2.15-2.75S98.47,33.88,98.47,35.24Zm3.72-6.59L101,30.77h-.89l.8-2.12Z"/><path class="cls-2" d="M106,31.64l1.83,3.86h.05c.21-.45.45-1,.76-1.58l1.07-2.28H111l-2.53,4.84,2.6,5.15-1.21.33-2.13-4.38h-.06L107,39.1,105.64,42l-1.11-.34,2.56-5.12-2.46-4.86Z"/><path class="cls-2" d="M118.39,35.16A3.51,3.51,0,0,1,114.82,39a3.41,3.41,0,0,1-3.44-3.69,3.5,3.5,0,0,1,3.56-3.8A3.39,3.39,0,0,1,118.39,35.16Zm-5.69.08c0,1.57.9,2.75,2.18,2.75s2.17-1.17,2.17-2.78c0-1.22-.6-2.75-2.14-2.75S112.7,33.88,112.7,35.24Z"/><path class="cls-2" d="M125.49,31.64a7,7,0,0,1,.54,2.8c0,2.1-.69,4.53-3.28,4.53a2.64,2.64,0,0,1-2.81-2.89v-2a9.83,9.83,0,0,0-.16-2.41H121c.14.16.21.56.21,1.35V35.9c0,1.44.84,2,1.63,2,1.24,0,1.89-1.28,1.89-3.33a8.89,8.89,0,0,0-.47-2.92Z"/><path class="cls-2" d="M132.54,32.75a3.22,3.22,0,0,0-1.32-.26,2.58,2.58,0,0,0-2.54,2.73,2.46,2.46,0,0,0,2,2.55,15.72,15.72,0,0,0,1.91.38c.11,0,.15.08.15.23a5.23,5.23,0,0,1-.86,2.56l-.87-.27a5.42,5.42,0,0,0,.49-1.61c-.49-.09-1-.2-1.47-.31a3.39,3.39,0,0,1-2.69-3.41,3.77,3.77,0,0,1,3.86-3.86,3.67,3.67,0,0,1,1.62.32Z"/></g></g></svg>