<svg xmlns="http://www.w3.org/2000/svg" viewBox="0 0 160.92 160.93"><defs><style>.cls-1{fill:#e5243b;}.cls-2{fill:#fff;}.cls-3{fill:none;stroke:#fff;stroke-linecap:round;stroke-miterlimit:10;stroke-width:1.31px;}</style></defs><g id="Layer_2" data-name="Layer 2"><g id="Layer_1-2" data-name="Layer 1"><rect class="cls-1" width="160.92" height="160.93"/><polygon class="cls-2" points="22.47 21.16 22.52 21.16 22.52 46 27.97 46 27.97 13.55 23.61 13.55 18.59 19.44 18.59 25.14 18.64 25.14 22.47 21.16"/><path class="cls-2" d="M123.93,76.78a4.46,4.46,0,1,1,4.46,4.45,4.46,4.46,0,0,1-4.46-4.45"/><path class="cls-2" d="M133.59,83A5.94,5.94,0,0,1,139,88.87v12.35a1.73,1.73,0,0,1-3.45,0V90.61c0-.4-.12-.94-.85-.94-.5,0-.6.54-.62.88v31.79a2.49,2.49,0,0,1-5,0V104a.66.66,0,0,0-.7-.73h0a.68.68,0,0,0-.72.73v18.32a2.48,2.48,0,1,1-5,0V90.55c0-.34-.13-.88-.63-.88-.73,0-.84.54-.84.94v10.61a1.73,1.73,0,0,1-3.45,0V88.87a5.94,5.94,0,0,1,5.4-5.92,2.91,2.91,0,0,1,.32,0h9.74a3.31,3.31,0,0,1,.34,0"/><path class="cls-2" d="M97.44,79.12a4.22,4.22,0,1,0-4.22,4.22,4.23,4.23,0,0,0,4.22-4.22"/><path class="cls-2" d="M84.72,88.67l-3.5,11.42s-.63,2.09,1.15,2.61,2.3-1.52,2.3-1.52l2.83-9.52s.15-.74.7-.58.35.94.35.94l-4.93,17.86H88.2v12.79a2.2,2.2,0,0,0,4.4,0V109.88h1.24v12.79a2.2,2.2,0,0,0,4.4,0V109.88h4.58L97.9,92s-.21-.78.34-.94.71.58.71.58l2.82,9.52s.54,2,2.31,1.52,1.15-2.61,1.15-2.61l-3.51-11.42s-1.25-3.3-4-3.3H88.75c-2.77,0-4,3.3-4,3.3"/><path class="cls-2" d="M72.17,79.12A4.22,4.22,0,1,0,68,83.34a4.22,4.22,0,0,0,4.21-4.22"/><path class="cls-2" d="M59.45,88.67,56,100.09s-.63,2.09,1.15,2.61,2.3-1.52,2.3-1.52l2.83-9.52s.15-.74.7-.58.35.94.35.94l-4.92,17.86h4.57v12.79a2.2,2.2,0,0,0,4.4,0V109.88h1.25v12.79a2.2,2.2,0,0,0,4.39,0V109.88h4.58L72.63,92s-.21-.78.34-.94.71.58.71.58l2.82,9.52s.54,2,2.31,1.52S80,100.09,80,100.09L76.45,88.67s-1.25-3.3-4-3.3H63.49c-2.78,0-4,3.3-4,3.3"/><path class="cls-2" d="M111.61,102.73a3.52,3.52,0,1,0-3.52-3.52,3.51,3.51,0,0,0,3.52,3.52"/><path class="cls-2" d="M103.19,113.64a1.22,1.22,0,0,0,.51,1.66,1.17,1.17,0,0,0,1.5-.49l1.91-6.09s.33-.41.33,0v14.33h0a1.81,1.81,0,1,0,3.61,0v-5.65s-.11-.8.54-.8.54.8.54.8v5.65a1.81,1.81,0,1,0,3.61,0V108.73c0-.42.22-.12.22-.12l1.5,4.17a10.23,10.23,0,0,0,.85,2,1.34,1.34,0,0,0,1.74-.72,1.32,1.32,0,0,0-.14-1.28v0c0-.13-2.24-5.51-2.49-6.27-.8-2.31-2.24-2.29-3.63-2.33s-2.21,0-2.21,0-.89,0-2.72,0-2.41,1-4.43,6.19c-.29.75-1.26,3.17-1.28,3.31Z"/><path class="cls-2" d="M34.5,76.78A4.46,4.46,0,1,0,30,81.23a4.46,4.46,0,0,0,4.46-4.45"/><path class="cls-2" d="M24.84,83a5.94,5.94,0,0,0-5.4,5.92v12.35a1.73,1.73,0,0,0,3.46,0V90.61c0-.4.11-.94.84-.94.5,0,.61.54.63.88v31.79a2.48,2.48,0,1,0,5,0V104a.68.68,0,0,1,.71-.73h0a.67.67,0,0,1,.71.73v18.32a2.49,2.49,0,0,0,5,0V90.55c0-.34.12-.88.62-.88.73,0,.84.54.84.94v10.61a1.73,1.73,0,0,0,3.46,0V88.87A5.94,5.94,0,0,0,35.24,83a3.11,3.11,0,0,0-.33,0H25.18a3.07,3.07,0,0,0-.34,0"/><line class="cls-3" x1="20.95" y1="103.01" x2="17" y2="123.98"/><path class="cls-2" d="M42.75,100.89a1.28,1.28,0,0,0-2.36.67,2.44,2.44,0,0,0,.12.57l3.54,6.4a2.24,2.24,0,0,1,.22.85v13.75h0a1.73,1.73,0,1,0,3.45,0V117.7s-.09-.76.53-.76.52.76.52.76v5.43a1.73,1.73,0,0,0,3.46,0V109.38a2.24,2.24,0,0,1,.22-.85l3.27-5.91a5.69,5.69,0,0,0,.4-1.06,1.27,1.27,0,0,0-1.28-1.27,1.26,1.26,0,0,0-1.08.6h0c-.1.09-1.74,3-2.28,3.55a1.43,1.43,0,0,1-1.08.51H46.13a1.43,1.43,0,0,1-1.08-.51c-.55-.54-2.18-3.46-2.29-3.55Z"/><path class="cls-2" d="M48.26,102.73a3.52,3.52,0,1,0-3.51-3.52,3.51,3.51,0,0,0,3.51,3.52"/><polygon class="cls-2" points="48.26 107.66 52.23 110.55 54.12 117.5 48.26 117.5 42.4 117.5 44.29 110.55 48.26 107.66"/><path class="cls-2" d="M48,23.26h6V24.4H46.2v-.81l3.65-4.42L46.4,14.8v-.92h7.08V15H48.15v.06l3.22,4.06L48,23.22Z"/><path class="cls-2" d="M61.16,16.85a7.46,7.46,0,0,1,.56,2.95c0,2.21-.72,4.77-3.45,4.77a2.78,2.78,0,0,1-3-3V19.39a10.16,10.16,0,0,0-.17-2.54h1.31a2.62,2.62,0,0,1,.22,1.42v3.07c0,1.52.89,2.09,1.72,2.09,1.31,0,2-1.34,2-3.51a9.3,9.3,0,0,0-.5-3.07Z"/><path class="cls-2" d="M64,16.85l1.45,4.24c.25.67.44,1.31.66,2h0c.63-1.22,2-3.76,2-5.51,0-.25,0-.48,0-.7h1.29a4.31,4.31,0,0,1,0,.56c0,2.14-1.45,4.7-2.82,7h-1.3L62.5,16.85Z"/><path class="cls-2" d="M76.19,23.89a5.54,5.54,0,0,1-2.77.68c-1.51,0-3.18-.59-3.18-2.29a2,2,0,0,1,1.87-1.89v-.08a1.65,1.65,0,0,1-1.5-1.59c0-1,1-2,3-2a4.06,4.06,0,0,1,2.29.57l-.3.91a4.1,4.1,0,0,0-1.88-.47c-1,0-1.75.44-1.75,1.12s.92,1.08,2.1,1.08H75v1h-1c-1.36,0-2.38.38-2.38,1.28s.94,1.38,2,1.38A5,5,0,0,0,75.94,23Z"/><path class="cls-2" d="M77.67,27.49a13.21,13.21,0,0,1-.17-2.74v-3.5a4.5,4.5,0,0,1,1.09-3.45,3.49,3.49,0,0,1,2.59-1.12c2.11,0,3.45,1.57,3.45,3.84,0,2.66-1.67,4.05-3.45,4.05a2.63,2.63,0,0,1-2.28-1.1h0v1.21A21.72,21.72,0,0,0,79,27.49Zm1.19-6a2,2,0,0,0,.06.54,2.15,2.15,0,0,0,2,1.52c1.46,0,2.3-1.25,2.3-2.95,0-1.49-.78-2.73-2.19-2.73-1.07,0-2.21.88-2.21,3Z"/><path class="cls-2" d="M88,27.49a16.72,16.72,0,0,0-.29-4.43A21.29,21.29,0,0,0,85,16.85h1.54a19.47,19.47,0,0,1,2.3,5.88h.06a12.83,12.83,0,0,0,1.78-5.35c0-.24,0-.39,0-.53H92a2.64,2.64,0,0,1,0,.51C92,19.3,90.8,21.8,89.35,24a.5.5,0,0,0-.1.37c0,.89,0,2.06,0,3.12Z"/><path class="cls-2" d="M100,16.85c-.07.79-.2,3.38-.2,5.4,0,.89.22,1.26.75,1.28l-.11,1a1.28,1.28,0,0,1-.47.06c-.67,0-1.21-.43-1.29-1.59H98.6A2.88,2.88,0,0,1,96,24.57c-1.8,0-3.1-1.49-3.1-3.79,0-2.47,1.63-4.1,3.38-4.1a2.4,2.4,0,0,1,2.32,1.51h.07a9.53,9.53,0,0,1,.14-1.34Zm-3.6,6.63a2.34,2.34,0,0,0,2-1.92,4.34,4.34,0,0,0,.1-1.06,3,3,0,0,0-.07-.81,2.16,2.16,0,0,0-1.93-1.94c-1.28,0-2.16,1.27-2.16,3C94.32,22.17,95.06,23.48,96.37,23.48Z"/><path class="cls-2" d="M109.36,17.72c-.38,0-.88,0-2-.06v.06a3.47,3.47,0,0,1,1.41,2.86,3.64,3.64,0,0,1-3.62,4,3.57,3.57,0,0,1-3.62-3.87,3.7,3.7,0,0,1,3.88-4h4Zm-1.94,2.86c0-1.28-.66-2.87-2.22-2.87s-2.28,1.49-2.28,2.93c0,1.66,1,2.9,2.27,2.9S107.42,22.3,107.42,20.58Z"/><path class="cls-2" d="M112.18,22.58c0,.67.14,1,.74.92l-.08,1a2.74,2.74,0,0,1-.63.07c-.79,0-1.4-.35-1.4-1.85V16.85h1.37Zm.95-8.9-1.29,2.23h-.92l.82-2.23Z"/><path class="cls-2" d="M119.91,23.89a5.51,5.51,0,0,1-2.77.68c-1.51,0-3.18-.59-3.18-2.29a2,2,0,0,1,1.87-1.89v-.08a1.65,1.65,0,0,1-1.49-1.59c0-1,1-2,3-2a4,4,0,0,1,2.29.57l-.29.91a4.18,4.18,0,0,0-1.89-.47c-1,0-1.75.44-1.75,1.12s.92,1.08,2.11,1.08h.9v1h-1c-1.36,0-2.37.38-2.37,1.28s.93,1.38,2,1.38a4.93,4.93,0,0,0,2.22-.58Z"/><path class="cls-2" d="M126.23,18a3.39,3.39,0,0,0-1.39-.28,2.73,2.73,0,0,0-2.68,2.89,2.59,2.59,0,0,0,2.13,2.68,17.23,17.23,0,0,0,2,.41c.11,0,.15.07.15.23a5.58,5.58,0,0,1-.9,2.7l-.92-.28a5.71,5.71,0,0,0,.51-1.7c-.51-.1-1.07-.2-1.54-.33a3.56,3.56,0,0,1-2.84-3.59,4,4,0,0,1,4.07-4.07,3.72,3.72,0,0,1,1.7.34Z"/><path class="cls-2" d="M132.85,27.49a17.14,17.14,0,0,0-.28-4.43,21.55,21.55,0,0,0-2.67-6.21h1.54a19.47,19.47,0,0,1,2.3,5.88h.06a12.69,12.69,0,0,0,1.78-5.35c0-.24,0-.39,0-.53h1.3a2.59,2.59,0,0,1,0,.51c0,1.94-1.22,4.44-2.67,6.64a.5.5,0,0,0-.1.37c.05.89.05,2.06.05,3.12Z"/><path class="cls-2" d="M139.75,22.58c0,.67.14,1,.73.92l-.08,1a2.65,2.65,0,0,1-.62.07c-.8,0-1.41-.35-1.41-1.85V16.85h1.38Z"/><path class="cls-2" d="M148.55,16.85c-.08.79-.2,3.38-.2,5.4,0,.89.21,1.26.75,1.28l-.11,1a1.34,1.34,0,0,1-.47.06c-.67,0-1.22-.43-1.3-1.59h0a2.89,2.89,0,0,1-2.58,1.59c-1.8,0-3.09-1.49-3.09-3.79,0-2.47,1.62-4.1,3.37-4.1a2.42,2.42,0,0,1,2.33,1.51h.06a11.33,11.33,0,0,1,.14-1.34Zm-3.61,6.63a2.35,2.35,0,0,0,2-1.92,4.37,4.37,0,0,0,.09-1.06,3.51,3.51,0,0,0-.06-.81,2.18,2.18,0,0,0-1.94-1.94c-1.28,0-2.15,1.27-2.15,3C142.9,22.17,143.63,23.48,144.94,23.48Z"/><path class="cls-2" d="M50.74,40.06a1.87,1.87,0,0,1-.74.12c-1.22,0-1.75-.75-1.75-2.34V33.53h-.83a7.51,7.51,0,0,0-1.53.13l-.19-.8a3.73,3.73,0,0,1,2.06-.4h4.36L52,33.53H49.6v4.28c0,1,.41,1.28.88,1.28h.33Z"/><path class="cls-2" d="M60,36.17a3.68,3.68,0,0,1-3.76,4,3.58,3.58,0,0,1-3.62-3.88,3.69,3.69,0,0,1,3.74-4A3.58,3.58,0,0,1,60,36.17Zm-6,.08c0,1.65,1,2.9,2.29,2.9s2.3-1.23,2.3-2.93c0-1.28-.64-2.9-2.27-2.9S54,34.81,54,36.25Z"/><path class="cls-2" d="M67.52,32.46a7.25,7.25,0,0,1,.57,2.95c0,2.21-.72,4.77-3.45,4.77a2.78,2.78,0,0,1-3-3V35a10.16,10.16,0,0,0-.17-2.54h1.31A2.62,2.62,0,0,1,63,33.88V37c0,1.52.89,2.09,1.72,2.09,1.31,0,2-1.34,2-3.51a9,9,0,0,0-.5-3.07Z"/><path class="cls-2" d="M75,33.63a3.32,3.32,0,0,0-1.39-.28,2.73,2.73,0,0,0-2.68,2.88A2.59,2.59,0,0,0,73,38.92a17.08,17.08,0,0,0,2,.41c.11,0,.16.07.16.23a5.52,5.52,0,0,1-.91,2.7L73.36,42a6,6,0,0,0,.52-1.7c-.52-.1-1.08-.21-1.55-.33a3.56,3.56,0,0,1-2.84-3.59,4,4,0,0,1,4.07-4.08,3.72,3.72,0,0,1,1.71.35Z"/><path class="cls-2" d="M87.13,33.33c-.38,0-.88,0-2-.06v.06a3.47,3.47,0,0,1,1.4,2.86,3.64,3.64,0,0,1-3.62,4,3.57,3.57,0,0,1-3.62-3.87,3.72,3.72,0,0,1,3.88-4h4Zm-1.94,2.86c0-1.28-.65-2.87-2.21-2.87s-2.28,1.49-2.28,2.93c0,1.65,1,2.9,2.26,2.9S85.19,37.9,85.19,36.19Z"/><path class="cls-2" d="M92.67,40.06a2,2,0,0,1-.75.12c-1.22,0-1.75-.75-1.75-2.34V33.53h-.83a7.59,7.59,0,0,0-1.53.13l-.18-.8a3.68,3.68,0,0,1,2.06-.4H94l-.17,1.07H91.53v4.28c0,1,.41,1.28.87,1.28h.33Z"/><path class="cls-2" d="M102,36.17a3.69,3.69,0,0,1-3.77,4,3.59,3.59,0,0,1-3.62-3.88,3.7,3.7,0,0,1,3.75-4A3.58,3.58,0,0,1,102,36.17Zm-6,.08c0,1.65,1,2.9,2.3,2.9s2.29-1.23,2.29-2.93c0-1.28-.64-2.9-2.26-2.9S96,34.81,96,36.25Zm3.92-6.95-1.3,2.24h-.93l.84-2.24Z"/><path class="cls-2" d="M103.92,32.46l1.92,4.07h.07c.21-.48.46-1,.79-1.67l1.13-2.4h1.34l-2.67,5.1L109.25,43l-1.28.35-2.25-4.62h-.06c-.21.45-.44,1-.72,1.6l-1.42,3L102.35,43l2.7-5.4-2.59-5.12Z"/><path class="cls-2" d="M117,36.17a3.69,3.69,0,0,1-3.77,4,3.59,3.59,0,0,1-3.62-3.88,3.7,3.7,0,0,1,3.75-4A3.58,3.58,0,0,1,117,36.17Zm-6,.08c0,1.65,1,2.9,2.3,2.9s2.29-1.23,2.29-2.93c0-1.28-.64-2.9-2.26-2.9S111,34.81,111,36.25Z"/><path class="cls-2" d="M124.45,32.46a7.46,7.46,0,0,1,.56,2.95c0,2.21-.72,4.77-3.45,4.77a2.78,2.78,0,0,1-3-3V35a10.16,10.16,0,0,0-.17-2.54h1.31c.15.17.22.59.22,1.42V37c0,1.52.89,2.09,1.72,2.09,1.31,0,2-1.34,2-3.51a9.3,9.3,0,0,0-.5-3.07Z"/><path class="cls-2" d="M131.88,33.63a3.39,3.39,0,0,0-1.39-.28,2.74,2.74,0,0,0-2.69,2.88,2.59,2.59,0,0,0,2.14,2.69,17.23,17.23,0,0,0,2,.41c.11,0,.15.07.15.23a5.62,5.62,0,0,1-.9,2.7l-.92-.28a6,6,0,0,0,.51-1.7c-.51-.1-1.08-.21-1.54-.33a3.57,3.57,0,0,1-2.85-3.59,4,4,0,0,1,4.08-4.08,3.71,3.71,0,0,1,1.7.35Z"/></g></g></svg>