<svg xmlns="http://www.w3.org/2000/svg" viewBox="0 0 160.92 160.93"><defs><style>.cls-1{fill:#00689d;}.cls-2{fill:#fff;}</style></defs><g id="Layer_2" data-name="Layer 2"><g id="Layer_1-2" data-name="Layer 1"><rect class="cls-1" width="160.92" height="160.93"/><polygon class="cls-2" points="12.38 19.39 12.38 25.08 12.43 25.08 16.26 21.11 16.31 21.11 16.31 45.95 21.76 45.95 21.76 13.5 17.41 13.5 12.38 19.39"/><path class="cls-2" d="M40.86,38.15V33.36c0-5.31-2.11-8-6-8A4.66,4.66,0,0,0,30.33,28h0V21c0-2,.62-3.35,2.59-3.35s2.53,1.15,2.53,3.16V23h5V21.25c0-4.78-1.58-8.13-7.61-8.13-5.74,0-7.9,3.68-7.9,8.76V37.67c0,5,2.21,8.66,8,8.66s8-3.16,8-8.18m-5.41.47c0,2.06-.77,3.26-2.63,3.26s-2.54-1.25-2.54-3.26V32.69c.1-1.82.86-3,2.59-3s2.58,1.15,2.58,3.26Z"/><path class="cls-2" d="M43.71,106.53a11,11,0,0,0-1.16-.3s.43.13,1.16.3"/><path class="cls-2" d="M112.63,54.87s-1.85,2.46-1.32,4.86,3.28,3.83,3.28,3.83,1.86-2.46,1.32-4.86-3.28-3.83-3.28-3.83"/><path class="cls-2" d="M109.61,68.94s1.85-2.47,1.31-4.87-3.28-3.82-3.28-3.82-1.85,2.46-1.31,4.86,3.28,3.83,3.28,3.83"/><path class="cls-2" d="M117.23,66.3s2,2,4.19,1.78,3.88-2.5,3.88-2.5-2-2-4.18-1.77-3.89,2.49-3.89,2.49"/><path class="cls-2" d="M120.44,55.75c-1.81,1.84-1.56,5.1-1.56,5.1s3.2.28,5-1.56,1.56-5.1,1.56-5.1-3.2-.28-5,1.56"/><path class="cls-2" d="M116.44,73.62c2.22.27,4.31-1.64,4.31-1.64s-1.52-2.34-3.74-2.6S112.7,71,112.7,71s1.51,2.33,3.74,2.59"/><path class="cls-2" d="M118.42,112.24H101.81a2.35,2.35,0,1,0,0,4.7h16.61a2.35,2.35,0,1,0,0-4.7"/><path class="cls-2" d="M118.42,138.14H101.81a2.35,2.35,0,1,0,0,4.7h16.61a2.35,2.35,0,0,0,0-4.7"/><path class="cls-2" d="M117.81,118.58h-15.4a1.34,1.34,0,0,0-1.33,1.33v4.67l-10,1.1-14.69-.34v-9a39.92,39.92,0,0,0,5.85-1.19c14.13-4,17.21-15.67,16.9-23.75-.3-8.24,2.33-11.44,6.12-12.86a17.78,17.78,0,0,1,3.13-.83,25.76,25.76,0,0,0,1.36,7.18c.34,0,.67-.05,1-.09a23.84,23.84,0,0,1-1.38-7.23,17.67,17.67,0,0,1,3.35-.1,21.49,21.49,0,0,1-3.19-2.27c.64-3.9,3-6.3,5.35-8.74a28.54,28.54,0,0,0,3.75-4.4l-.84-.54a27.29,27.29,0,0,1-3.62,4.24c-2.33,2.39-4.69,4.83-5.49,8.7a29.46,29.46,0,0,1-2.42-2.44c-3.48-3.9-8-1-14.37,4.92S77.39,83.14,69.53,75.1c-10.37-10.62-19.41-10.56-25.62-10C48.16,67,49.64,70.92,51.79,81,54,91.57,59.72,96.36,67.48,97c-4.32,1.53-4.53,4-10.32,8-4.52,3.12-10.88,2.14-13.45,1.55C48.44,108,54,113,59.06,114.7a37.38,37.38,0,0,0,9.15,1.87v8.59l-26.3-.6v6L91,129.42l10,1.11v4.66a1.34,1.34,0,0,0,1.33,1.34h15.4a1.35,1.35,0,0,0,1.34-1.34V119.91A1.34,1.34,0,0,0,117.81,118.58ZM70.63,116.7c1.1,0,2.19,0,3.29-.09v8.68l-3.29-.08Z"/><path class="cls-2" d="M40.47,129.56a2.14,2.14,0,0,1-2,2.28H37.32a2.15,2.15,0,0,1-2-2.28v-4.14a2.15,2.15,0,0,1,2-2.29H38.5a2.14,2.14,0,0,1,2,2.29Z"/><path class="cls-2" d="M58.76,20.77H53.91v4.5h5.4v1.35h-7V14.14H59v1.35H53.91v4h4.85Z"/><path class="cls-2" d="M63,24.45c0,.8.16,1.13.87,1.09l-.1,1.19a3,3,0,0,1-.74.09c-.94,0-1.66-.42-1.66-2.2v-7H63Z"/><path class="cls-2" d="M65.7,30.28A15.33,15.33,0,0,1,65.49,27V22.88c0-2.31.6-3.35,1.3-4.09a4.11,4.11,0,0,1,3.07-1.33c2.5,0,4.09,1.87,4.09,4.55,0,3.16-2,4.81-4.09,4.81a3.11,3.11,0,0,1-2.7-1.31H67.1V27a25.75,25.75,0,0,0,.15,3.33Zm1.4-7.18a2.32,2.32,0,0,0,.08.65,2.53,2.53,0,0,0,2.42,1.79c1.72,0,2.72-1.48,2.72-3.49,0-1.76-.92-3.24-2.59-3.24-1.27,0-2.63,1.05-2.63,3.53Z"/><path class="cls-2" d="M76,26.62V20.08a8.58,8.58,0,0,0-.26-2.42h1.46a3.67,3.67,0,0,1,.26,1.48h0a3.32,3.32,0,0,1,3-1.68c1.24,0,3.16.74,3.16,3.81V27a17.9,17.9,0,0,0,.19,3.33H82.28A13,13,0,0,1,82,27V21.45c0-1.44-.53-2.64-2.07-2.64a2.31,2.31,0,0,0-2.18,1.66,2.2,2.2,0,0,0-.12.76v5.39Zm5.86-12.7-1.53,2.65H79.23l1-2.65Z"/><path class="cls-2" d="M86.42,17.66l1.73,5c.29.8.52,1.56.77,2.34H89c.74-1.45,2.31-4.46,2.31-6.54,0-.29,0-.57,0-.83h1.54a6,6,0,0,1,.06.67c0,2.53-1.73,5.57-3.35,8.29H88l-3.28-9Z"/><path class="cls-2" d="M94.66,26.62V20.08a8.23,8.23,0,0,0-.26-2.42h1.46a3.67,3.67,0,0,1,.26,1.48h0a3.29,3.29,0,0,1,3-1.68c1.24,0,3.17.74,3.17,3.81V27a18.88,18.88,0,0,0,.18,3.33h-1.53a12.5,12.5,0,0,1-.28-3.27V21.45c0-1.44-.54-2.64-2.08-2.64a2.32,2.32,0,0,0-2.18,1.66,2.49,2.49,0,0,0-.11.76v5.39Z"/><path class="cls-2" d="M108.86,26.62v-7a6.54,6.54,0,0,0-.21-1.94h1.57a3.17,3.17,0,0,1,.26,1.52v2.46h.08c1.61-1.52,2.87-2.91,3.92-4h1.91v.07c-1.26,1.17-2.69,2.56-4.26,4v.05c.89.21,1.85,1.36,2.76,2.56l1.63,2.24h-1.89l-1.41-1.91c-.9-1.18-1.74-2.05-2.59-2.07h-.15v4Z"/><path class="cls-2" d="M125.4,17.66c-.09.94-.24,4-.24,6.4,0,1.06.26,1.5.89,1.52l-.13,1.17a1.78,1.78,0,0,1-.56.07c-.79,0-1.44-.52-1.53-1.89h-.06a3.42,3.42,0,0,1-3,1.89c-2.13,0-3.67-1.78-3.67-4.5,0-2.92,1.93-4.86,4-4.86a2.85,2.85,0,0,1,2.76,1.79h.07a14.63,14.63,0,0,1,.17-1.59Zm-4.27,7.87a2.78,2.78,0,0,0,2.38-2.28,5,5,0,0,0,.11-1.26,4.26,4.26,0,0,0-.07-1,2.58,2.58,0,0,0-2.3-2.3c-1.51,0-2.55,1.5-2.55,3.54C118.7,24,119.57,25.53,121.13,25.53Z"/><path class="cls-2" d="M129.53,24.45c0,.8.16,1.13.87,1.09l-.1,1.19a3,3,0,0,1-.74.09c-.94,0-1.66-.42-1.66-2.2v-7h1.63Z"/><path class="cls-2" d="M51.35,44.22,55.7,32.65h1.84L61.83,44.2v.92H51.35ZM60,43.77,57.5,36.91c-.32-.87-.7-2-.93-2.78h0c-.19.63-.52,1.67-.83,2.54l-2.61,7.1Z"/><path class="cls-2" d="M65.35,43c0,.8.16,1.13.87,1.09l-.1,1.19a3,3,0,0,1-.74.09c-.94,0-1.66-.43-1.66-2.2v-7h1.63Z"/><path class="cls-2" d="M68.08,45.12v-7a6.6,6.6,0,0,0-.2-1.94h1.57a3.12,3.12,0,0,1,.26,1.51v2.47h.08c1.61-1.52,2.87-2.91,3.92-4h1.91v.07c-1.26,1.17-2.69,2.55-4.26,4v0c.89.2,1.85,1.35,2.76,2.56l1.63,2.23H73.86l-1.41-1.9c-.9-1.19-1.74-2.06-2.59-2.07h-.15v4Z"/><path class="cls-2" d="M84.63,36.17c-.09.94-.24,4-.24,6.4,0,1.06.26,1.5.89,1.52l-.13,1.16a1.51,1.51,0,0,1-.56.08c-.79,0-1.44-.52-1.53-1.89H83a3.44,3.44,0,0,1-3,1.89c-2.13,0-3.67-1.78-3.67-4.5,0-2.92,1.93-4.87,4-4.87A2.86,2.86,0,0,1,83,37.76h.07a14.63,14.63,0,0,1,.17-1.59ZM80.36,44a2.77,2.77,0,0,0,2.38-2.27,5,5,0,0,0,.11-1.26,4.26,4.26,0,0,0-.07-1,2.57,2.57,0,0,0-2.29-2.3c-1.52,0-2.56,1.5-2.56,3.54C77.93,42.48,78.8,44,80.36,44Z"/><path class="cls-2" d="M88.76,43c0,.8.16,1.13.87,1.09l-.1,1.19a3,3,0,0,1-.74.09c-.94,0-1.66-.43-1.66-2.2v-7h1.63Z"/><path class="cls-2" d="M99.6,40.57a4.38,4.38,0,0,1-4.46,4.76,4.26,4.26,0,0,1-4.29-4.61c0-3,2-4.76,4.44-4.76S99.6,37.83,99.6,40.57Zm-7.1.09c0,2,1.12,3.45,2.72,3.45s2.72-1.47,2.72-3.48c0-1.52-.76-3.45-2.69-3.45S92.5,39,92.5,40.66Z"/><path class="cls-2" d="M110.28,37.2c-.44,0-1,0-2.35-.07v.07a4.1,4.1,0,0,1,1.67,3.39c0,3.29-2.26,4.74-4.3,4.74A4.24,4.24,0,0,1,101,40.74,4.41,4.41,0,0,1,105.62,36h4.72ZM108,40.59c0-1.52-.78-3.41-2.63-3.41s-2.7,1.78-2.7,3.48c0,2,1.12,3.45,2.68,3.45S108,42.63,108,40.59Z"/><path class="cls-2" d="M118.74,36.17a8.74,8.74,0,0,1,.67,3.49c0,2.63-.86,5.67-4.1,5.67a3.3,3.3,0,0,1-3.51-3.61V39.18a11.73,11.73,0,0,0-.21-3h1.56a3.06,3.06,0,0,1,.26,1.68V41.5c0,1.79,1,2.48,2,2.48,1.56,0,2.37-1.59,2.37-4.17a11.08,11.08,0,0,0-.59-3.64Zm-1.5-3.76-1.54,2.65h-1.09l1-2.65Z"/><path class="cls-2" d="M122.05,36.17l1.72,5c.3.8.52,1.56.78,2.33h0c.74-1.44,2.32-4.46,2.32-6.53,0-.3,0-.57,0-.83h1.54c0,.18.05.42.05.66,0,2.54-1.72,5.57-3.35,8.29h-1.53l-3.28-8.95Z"/><path class="cls-2" d="M130.29,45.12V38.59a8.53,8.53,0,0,0-.26-2.42h1.46a3.64,3.64,0,0,1,.26,1.48h0a3.29,3.29,0,0,1,3-1.69c1.24,0,3.16.74,3.16,3.82v5.68a18,18,0,0,0,.19,3.33h-1.54a13,13,0,0,1-.28-3.28V40c0-1.44-.53-2.65-2.07-2.65A2.31,2.31,0,0,0,132,39a2.16,2.16,0,0,0-.12.76v5.38Z"/></g></g></svg>