<svg xmlns="http://www.w3.org/2000/svg" viewBox="0 0 129.84 90.16"><defs><style>.cls-1{fill:#d7d7d7;}.cls-2{fill:#e6e7e8;}</style></defs><g id="Layer_2" data-name="Layer 2"><g id="Layer_1-2" data-name="Layer 1"><path class="cls-1" d="M120.1,55.2c-6-10.74-5.71-23.05-13.52-31.71-8.38-9.29-22.43-9.92-39.43-6.81-6.14,1.12-9.2,1-16.76-1.45C37.38,11,16.33,13,10,25.55,6.83,31.7,6.75,42.35,8.81,51.4h0C10,59.11,3.39,63.3,4.47,67.24c.44,3.13,3.75,5.57,7.78,5.57a9.18,9.18,0,0,0,4.35-1.06c1.33-.53,3-3.41,4.13-3.25l.24.1s0,0,0,0c2,.67-.71,4.49,0,8.81s4.64,6.85,10.37,6.85c4.83,0,8.89-2.28,10-5.37.66-1.91,1-5.71,3.2-5.42,3.29.38,1,8,3,10.84A12.21,12.21,0,0,0,58,89.38c4.59,0,8.52-1.89,10.08-4.56,1.74-2.35,1.79-9.44,4.26-9.4,1.91,0,2.06,7.66,2,7.64.22,3.93,4.88,6.81,10.4,6.43s9.11-3.11,9.59-7.81A48.42,48.42,0,0,1,98.23,66.1h0c2.15-4.83,2-4.86,2.08-9.79-1.82,8.55.31,13,9.74,18.62,6.64,4,13.1,4.37,17.44,1.41C133.51,72.22,126.85,67.24,120.1,55.2Z"/><path class="cls-2" d="M17,60.13c-.55-3.74-4.79-6.78-9.47-6.78s-8,3-7.47,6.78a11.78,11.78,0,0,0,.76,2.15c1.23,2.81,1.51,4.28,3.44,6.78,2.07,2.66,6,5.43,10.56,3.93,5.37-1.76,1.6-7,2.2-11.44h0A5.64,5.64,0,0,0,17,60.13Z"/><path class="cls-2" d="M60,8,71.53,22.26,93.6,20.32c2.55-.06,4.58-1.37,5.17.36A8,8,0,0,1,97.59,28C96,30.45,82.26,42.23,82.26,42.23S86.16,54.12,86.74,56c.79,2.53.91,4,.64,5-.68,2.49-4.07,3.93-7,3.23L59,59.11,38,70.88c-2.29,1.28-5.74-.48-6.84-1.58s-1-3.81-.9-4.75l3.59-15L16.92,40.24C14,39,13.67,36,13.63,33.76c0-1.47,2.82-.35,4.89-.9L41.6,26.8,50.9,9.4c.83-1.57,2.51-3.83,4.34-3.78A6.31,6.31,0,0,1,60,8Z"/><path class="cls-2" d="M59.25,4.63,70.74,18.88l23.44-1c4.2-.18,6.14,3.42,3.26,6.09l-16,14.86,5.18,16.78c.94,3-3.31,6-7.1,5.15L58.18,55.72,37.94,67.09c-3.58,2-8.16.35-7.66-2.91l2.77-18L15.38,36.43c-3.18-1.75-1.78-5.86,2.36-6.95l23.08-6.07L50.11,6C51.8,2.87,57.2,2.09,59.25,4.63Z"/><path class="cls-1" d="M93.29,25c3.33-2.48,3.6-5.18-.24-5.11S70,21,70,21l-6.6-7.39c-2.5,0-1.15,11.45,5.18,12.33C73.31,26.64,93.8,19,93.29,25Z"/><path class="cls-2" d="M97.59,28a9.28,9.28,0,0,0,1.54-4.08,2.29,2.29,0,0,1-.83,1.32,3.28,3.28,0,0,1-1,.35,7.53,7.53,0,0,0-2.76,1.68c-3.4,2.84-5,5.9-8.78,8.42-1.83,1.23-3.27,1.72-3.76,3.41a4.4,4.4,0,0,0,.49,3C84.17,40.59,96.11,30.27,97.59,28Z"/><path class="cls-2" d="M83.22,62.84c-2.38-.41-8.46-2.81-14.14-4.34C61,56.32,57.81,52.6,57.81,52.6a76.52,76.52,0,0,1-9.25,7.14c-5.15,3.44-8,7.74-11.48,10.23-1.56,1.1-3.76.53-5,.06l.34.2c1.54.88,3.86,1.6,5.56.65L59,59.11l21.38,5.06c2.59.61,5.49-.41,6.65-2.32l.05-.1.08-.16A4,4,0,0,1,83.22,62.84Z"/><path class="cls-2" d="M16.92,40.24l15.71,8.67a9.87,9.87,0,0,1,.42-2.72s-.91.08-5.25-1.81-6.13-3-7.79-3.57c-2.74-1-4.76-1.4-6-3.91C14.41,38.11,14.66,39,16.92,40.24Z"/><path class="cls-1" d="M39.91,69.1c-.33-4.14-5.68-7-12-6.38a23.47,23.47,0,0,0-5.12,1.07c-3.92,1.32-1.06,17,2.13,18.56,3.56,1.7,10.79,1.56,14-1.68C42.56,77,40.05,74.86,39.91,69.1Z"/><path class="cls-1" d="M68.76,70.07c0-4.37-5.65-8.86-12.62-8.86S43.52,65.7,43.52,70.07A5.34,5.34,0,0,0,43.89,72c.92,4.54.52,12.13,6.25,14.79C55,89,64.87,89.36,69.11,83.4,71.59,79.91,69.05,73.17,68.76,70.07Z"/><path class="cls-1" d="M97.41,68.15c-2.2-2.52-6.76-3.83-11.78-3.08-6.19.94-10.9,4.7-11.13,8.66h0v.06a4.64,4.64,0,0,0,0,.91s0,0,0,.07c.22,3.26-1.09,8.71.83,10.72,3.51,3.67,14,2.89,17.87-1.64C96.13,80.49,95.77,72.7,97.41,68.15Z"/><path class="cls-2" d="M39.91,71c-.33-4.14-5.68-7-12-6.39s-12,3.54-11.61,7.68a6.91,6.91,0,0,0,1.73,3.5c2.42,3.17,3.7,6.93,6.89,8.46,3.56,1.69,10.79,1.55,14-1.68C42.56,78.87,40.05,76.76,39.91,71Z"/><path class="cls-2" d="M68.76,72c0-4.37-5.65-7.91-12.62-7.91S43.52,67.6,43.52,72a5.34,5.34,0,0,0,.37,1.89c.92,4.54.52,12.13,6.25,14.79,4.86,2.25,14.73,2.61,19-3.36C71.59,81.81,69.05,75.07,68.76,72Z"/><path class="cls-2" d="M99.75,72.94c-.55-4.31-6.43-7-13.12-6-6.19.93-10.9,4.69-11.13,8.66h0s0,1,0,1c.22,3.26-3,7.28-.17,10.72,3.25,3.91,14,2.9,17.87-1.63,2.89-3.36,5.25-7,6.21-10.27A5.4,5.4,0,0,0,99.75,72.94Z"/><path class="cls-2" d="M90,7.45,84.84,11a.58.58,0,0,1-.76-.87l4.25-4.54a1.25,1.25,0,1,1,1.83,1.71A1.12,1.12,0,0,1,90,7.45Z"/><path class="cls-2" d="M78.6,1.93,75.27,7.18a.59.59,0,0,1-1-.52L76.36.83a1.26,1.26,0,0,1,2.36.86A1.08,1.08,0,0,1,78.6,1.93Z"/></g></g></svg>