<svg xmlns="http://www.w3.org/2000/svg" xmlns:xlink="http://www.w3.org/1999/xlink" viewBox="0 0 121.18 79.24"><defs><style>.cls-1,.cls-4{fill:none;}.cls-2{fill:#d7d7d7;}.cls-3{fill:#e6e7e8;}.cls-4{stroke:#d7d7d7;stroke-linecap:round;stroke-miterlimit:10;stroke-width:1.18px;}.cls-5{clip-path:url(#clip-path);}</style><clipPath id="clip-path"><path class="cls-1" d="M61.87,62a18.55,18.55,0,0,0-19.52,0c5.58-3.7,7.86-9.24,5.33-12.93,2.53,3.69,6.33,3.69,8.87,0C54,52.78,56.29,58.32,61.87,62Z"/></clipPath></defs><g id="Layer_2" data-name="Layer 2"><g id="Layer_1-2" data-name="Layer 1"><path class="cls-2" d="M89.42,42.61c2.8,1.31,5.82,1.47,7.33-1.77,3-6.35,11.07-8.3,14.43-14,4.51-7.58.44-14.8-6.1-17.85h0c-6.54-3-14.78-1.19-17.59,6.8-2.31,6.54,1.35,14-1.45,20C84.5,39.16,86.61,41.3,89.42,42.61Z"/><path class="cls-3" d="M106.21,13.29c4.69,3.12,5.35,9.38.79,14.05a.53.53,0,0,1-.86-.59A12.45,12.45,0,0,0,105.47,14,.53.53,0,0,1,106.21,13.29Z"/><path class="cls-3" d="M96,45.09a1.77,1.77,0,0,0,.14-1,.56.56,0,0,1,.26-.55,1.74,1.74,0,0,0,.79-1.08,1.78,1.78,0,0,0-.4-1.61A22.92,22.92,0,0,1,91,39.15a23.07,23.07,0,0,1-5-3.29,1.75,1.75,0,0,0-1.46.72,1.81,1.81,0,0,0-.33,1.31.53.53,0,0,1-.25.55,1.68,1.68,0,0,0-.68.76,1.81,1.81,0,0,0-.15,1,.54.54,0,0,1-.26.54,1.79,1.79,0,0,0-.79,1.09,1.84,1.84,0,0,0,1,2.09l1.19.56A1.56,1.56,0,0,1,85.27,46a2.52,2.52,0,0,0,1.46,2.4h0A2.53,2.53,0,0,0,89.5,48a1.57,1.57,0,0,1,1.73-.26l1.19.56a1.84,1.84,0,0,0,2.28-.55,1.79,1.79,0,0,0,.32-1.3.55.55,0,0,1,.25-.55A1.85,1.85,0,0,0,96,45.09Z"/><path class="cls-3" d="M82.53,13.53a.34.34,0,0,1-.29.62L78.76,13a.76.76,0,0,1-.47-1,.74.74,0,0,1,.95-.46.59.59,0,0,1,.14.06Z"/><path class="cls-3" d="M119,31.72l-3.15-1.9a.35.35,0,0,1,.29-.63l3.49,1.19a.74.74,0,0,1-.48,1.41Z"/><path class="cls-3" d="M120.29,14.78l-3.57.88a.35.35,0,0,1-.24-.65l3.31-1.62a.74.74,0,1,1,.65,1.33Z"/><path class="cls-3" d="M109.23,1.87,107.33,5a.35.35,0,0,1-.63-.29l1.19-3.48a.74.74,0,1,1,1.41.48A.61.61,0,0,1,109.23,1.87Z"/><path class="cls-3" d="M92.29.57l.88,3.57a.35.35,0,0,1-.65.24L90.9,1.07A.74.74,0,0,1,92.23.42.39.39,0,0,1,92.29.57Z"/><path class="cls-3" d="M92.46,37.8a32.8,32.8,0,0,1,4.33-6.94,64.56,64.56,0,0,1,5.63-5.94,16.77,16.77,0,0,0,1.37-1.45,1.61,1.61,0,0,0,.24-1.65c-.52-1-2.26-1.49-3-.56-.4.42-.52,1.17-.12,1.42s1-.19,1.08-.78a1.68,1.68,0,0,0-.49-1.61,4,4,0,0,0-1.61-1A3.28,3.28,0,0,0,98,19.13a1.42,1.42,0,0,0-1.1,1.21.73.73,0,0,0,.88.9,1.46,1.46,0,0,0,.83-1.36A2.26,2.26,0,0,0,96,18a1.7,1.7,0,0,0-1.15,1.25,15.28,15.28,0,0,0-.32,2c-.51,5.37-1,11-3.36,15.94a.11.11,0,0,1-.15.05.11.11,0,0,1,0-.15c2.2-5,2.65-10.48,3.09-15.89a15.1,15.1,0,0,1,.31-2.06,2.17,2.17,0,0,1,1.5-1.6A2.77,2.77,0,0,1,98,18a2.48,2.48,0,0,1,1.15,1.88A2,2,0,0,1,98,21.74a1.2,1.2,0,0,1-1.2-.32,1.34,1.34,0,0,1-.34-1.15,2.23,2.23,0,0,1,.48-1.06,2.13,2.13,0,0,1,1-.58,3.77,3.77,0,0,1,2.16.16,4.64,4.64,0,0,1,1.82,1.14,2.23,2.23,0,0,1,.61,2.11,1.82,1.82,0,0,1-.61,1,1.08,1.08,0,0,1-1.26.09,1.2,1.2,0,0,1-.47-1.15,2,2,0,0,1,.48-1,2.12,2.12,0,0,1,2.11-.63,2.57,2.57,0,0,1,1.78,1.3,2.11,2.11,0,0,1-.29,2.19,15.9,15.9,0,0,1-1.45,1.5,62.39,62.39,0,0,0-5.67,5.83,35,35,0,0,0-4.42,6.79.12.12,0,0,1-.21-.1Z"/><path class="cls-4" d="M114.44,46c3.94,2.42,6.15,5.16,6.15,8.05,0,10.06-26.86,18.22-60,18.22S.59,64.08.59,54C.59,47.34,12.4,41.51,30,38.33"/><polygon class="cls-2" points="114.87 49.36 106.82 42.4 117.27 44.41 114.87 49.36"/><path class="cls-3" d="M61.87,62a18.55,18.55,0,0,0-19.52,0c5.58-3.7,7.86-9.24,5.33-12.93,2.53,3.69,6.33,3.69,8.87,0C54,52.78,56.29,58.32,61.87,62Z"/><g class="cls-5"><path class="cls-2" d="M53.62,56.84c3.45,0,12.15-6.64,12.15-13.62,0,0-.14-3.31,0-5.53.48-8.17-5.44-12.63-12.15-12.63h0c-6.7,0-12.42,4.77-12.14,12.63.1,2.86,0,5.53,0,5.53C41.48,50.2,50.18,56.84,53.62,56.84Z"/></g><path class="cls-2" d="M46.78,21.76c3.6-3.17,17.6-3,18.75,8.39.46,4.46-.2,8.39-1.72,10.78-1.83,2.88-7.63,4.45-11.55,4.78-7.2.61-10.51-3.82-12.31-7.78C37.07,31.61,40,21.49,46.78,21.76Z"/><path class="cls-3" d="M39,40.21a1.1,1.1,0,0,0,1.38.24l.17-4.6a1.41,1.41,0,0,0-2.23,0C37.56,36.78,38.38,39.39,39,40.21Z"/><path class="cls-3" d="M52.1,54.75c3.45,0,12.14-6.64,12.14-13.62,0,0-.13-3.32,0-5.54C64.73,27.43,58.81,23,52.1,23h0C45.4,23,39.68,27.74,40,35.59c.1,2.87,0,5.54,0,5.54C40,48.11,48.65,54.75,52.1,54.75Z"/><path class="cls-2" d="M64.22,36.18c-.5-5.64-3.46-10-12.8-9.79C41.8,26.59,40,36.18,40,36.18a12.42,12.42,0,0,1,1.2-7.32c1.68-3.57,5.68-5.59,9.42-5.95s10.11.8,12.35,5.22A13,13,0,0,1,64.22,36.18Z"/><path class="cls-2" d="M68.57,61.27,57.28,57.66a17.05,17.05,0,0,1-10.34,0L35.65,61.27a9.52,9.52,0,0,0-6.08,5.93L27.32,77.34a210.24,210.24,0,0,0,24.94,1.9,202.36,202.36,0,0,0,24.64-1.9L74.65,67.2A9.5,9.5,0,0,0,68.57,61.27Z"/><path class="cls-2" d="M34.52,17.76c0-5.31-6.71-9.61-15-9.61s-15,4.3-15,9.61,6.72,9.61,15,9.61a22.74,22.74,0,0,0,4.1-.37.77.77,0,0,1,.3,0l6,2.4a.56.56,0,0,0,.73-.74l-1.33-3.08a.57.57,0,0,1,.25-.71C32.61,23.14,34.52,20.59,34.52,17.76Z"/></g></g></svg>