<svg xmlns="http://www.w3.org/2000/svg" xmlns:xlink="http://www.w3.org/1999/xlink" viewBox="0 0 121.18 80"><defs><style>.cls-1,.cls-4{fill:none;}.cls-2{fill:#d7d7d7;}.cls-3{fill:#e6e7e8;}.cls-4{stroke:#d7d7d7;stroke-linecap:round;stroke-miterlimit:10;stroke-width:1.18px;}.cls-5{clip-path:url(#clip-path);}.cls-6{clip-path:url(#clip-path-2);}</style><clipPath id="clip-path"><path class="cls-1" d="M64.9,50.53a18.43,18.43,0,0,0-19.33,0c5.52-3.65,7.78-9.14,5.27-12.8,2.51,3.66,6.28,3.66,8.79,0C57.12,41.39,59.38,46.88,64.9,50.53Z"/></clipPath><clipPath id="clip-path-2"><path class="cls-1" d="M47.78,68.27a15.66,15.66,0,0,0-17.71,0c5.06-3.66,7.13-9.15,4.83-12.81,2.3,3.66,5.75,3.66,8.05,0C40.65,59.12,42.72,64.61,47.78,68.27Z"/></clipPath></defs><g id="Layer_2" data-name="Layer 2"><g id="Layer_1-2" data-name="Layer 1"><path class="cls-2" d="M89.42,42.61c2.8,1.31,5.82,1.47,7.33-1.77,3-6.35,11.07-8.3,14.43-14,4.51-7.58.44-14.8-6.1-17.85h0c-6.54-3-14.78-1.19-17.59,6.8-2.31,6.54,1.35,14-1.45,20C84.5,39.16,86.61,41.3,89.42,42.61Z"/><path class="cls-3" d="M106.21,13.29c4.69,3.12,5.35,9.38.79,14.05a.53.53,0,0,1-.86-.59A12.45,12.45,0,0,0,105.47,14,.53.53,0,0,1,106.21,13.29Z"/><path class="cls-3" d="M96,45.09a1.77,1.77,0,0,0,.14-1,.56.56,0,0,1,.26-.55,1.74,1.74,0,0,0,.79-1.08,1.78,1.78,0,0,0-.4-1.61A22.92,22.92,0,0,1,91,39.15a23.07,23.07,0,0,1-5-3.29,1.75,1.75,0,0,0-1.46.72,1.81,1.81,0,0,0-.33,1.31.53.53,0,0,1-.25.55,1.68,1.68,0,0,0-.68.76,1.81,1.81,0,0,0-.15,1,.54.54,0,0,1-.26.54,1.79,1.79,0,0,0-.79,1.09,1.84,1.84,0,0,0,1,2.09l1.19.56A1.56,1.56,0,0,1,85.27,46a2.52,2.52,0,0,0,1.46,2.4h0A2.53,2.53,0,0,0,89.5,48a1.57,1.57,0,0,1,1.73-.26l1.19.56a1.84,1.84,0,0,0,2.28-.55,1.79,1.79,0,0,0,.32-1.3.55.55,0,0,1,.25-.55A1.85,1.85,0,0,0,96,45.09Z"/><path class="cls-3" d="M82.53,13.53a.34.34,0,0,1-.29.62L78.76,13a.76.76,0,0,1-.47-1,.74.74,0,0,1,.95-.46.59.59,0,0,1,.14.06Z"/><path class="cls-3" d="M119,31.72l-3.15-1.9a.35.35,0,0,1,.29-.63l3.49,1.19a.74.74,0,0,1-.48,1.41Z"/><path class="cls-3" d="M120.29,14.78l-3.57.88a.35.35,0,0,1-.24-.65l3.31-1.62a.74.74,0,1,1,.65,1.33Z"/><path class="cls-3" d="M109.23,1.87,107.33,5a.35.35,0,0,1-.63-.29l1.19-3.48a.74.74,0,1,1,1.41.48A.61.61,0,0,1,109.23,1.87Z"/><path class="cls-3" d="M92.29.57l.88,3.57a.35.35,0,0,1-.65.24L90.9,1.07A.74.74,0,0,1,92.23.42.39.39,0,0,1,92.29.57Z"/><path class="cls-3" d="M92.46,37.8a32.8,32.8,0,0,1,4.33-6.94,64.56,64.56,0,0,1,5.63-5.94,16.77,16.77,0,0,0,1.37-1.45,1.61,1.61,0,0,0,.24-1.65c-.52-1-2.26-1.49-3-.56-.4.42-.52,1.17-.12,1.42s1-.19,1.08-.78a1.68,1.68,0,0,0-.49-1.61,4,4,0,0,0-1.61-1A3.28,3.28,0,0,0,98,19.13a1.42,1.42,0,0,0-1.1,1.21.73.73,0,0,0,.88.9,1.46,1.46,0,0,0,.83-1.36A2.26,2.26,0,0,0,96,18a1.7,1.7,0,0,0-1.15,1.25,15.28,15.28,0,0,0-.32,2c-.51,5.37-1,11-3.36,15.94a.11.11,0,0,1-.15.05.11.11,0,0,1,0-.15c2.2-5,2.65-10.48,3.09-15.89a15.1,15.1,0,0,1,.31-2.06,2.17,2.17,0,0,1,1.5-1.6A2.77,2.77,0,0,1,98,18a2.48,2.48,0,0,1,1.15,1.88A2,2,0,0,1,98,21.74a1.2,1.2,0,0,1-1.2-.32,1.34,1.34,0,0,1-.34-1.15,2.23,2.23,0,0,1,.48-1.06,2.13,2.13,0,0,1,1-.58,3.77,3.77,0,0,1,2.16.16,4.64,4.64,0,0,1,1.82,1.14,2.23,2.23,0,0,1,.61,2.11,1.82,1.82,0,0,1-.61,1,1.08,1.08,0,0,1-1.26.09,1.2,1.2,0,0,1-.47-1.15,2,2,0,0,1,.48-1,2.12,2.12,0,0,1,2.11-.63,2.57,2.57,0,0,1,1.78,1.3,2.11,2.11,0,0,1-.29,2.19,15.9,15.9,0,0,1-1.45,1.5,62.39,62.39,0,0,0-5.67,5.83,35,35,0,0,0-4.42,6.79.12.12,0,0,1-.21-.1Z"/><path class="cls-4" d="M114.44,46c3.94,2.42,6.15,5.16,6.15,8.05,0,10.06-26.86,18.22-60,18.22S.59,64.08.59,54c0-5.69,8.59-10.77,22-14.12"/><polygon class="cls-2" points="114.87 49.36 106.82 42.4 117.27 44.41 114.87 49.36"/><path class="cls-3" d="M64.9,50.53a18.43,18.43,0,0,0-19.33,0c5.52-3.65,7.78-9.14,5.27-12.8,2.51,3.66,6.28,3.66,8.79,0C57.12,41.39,59.38,46.88,64.9,50.53Z"/><g class="cls-5"><path class="cls-2" d="M56.73,45.4c3.42,0,12-6.58,12-13.48,0,0-.13-3.29,0-5.49.49-8.09-5.38-12.51-12-12.51h0c-6.64,0-12.3,4.73-12,12.51.1,2.84,0,5.49,0,5.49C44.71,38.82,53.32,45.4,56.73,45.4Z"/></g><path class="cls-2" d="M50,10.66c3.56-3.14,17.43-3,18.57,8.31.45,4.41-.2,8.3-1.71,10.67C65,32.5,59.27,34.05,55.38,34.38,48.26,35,45,30.6,43.19,26.68,40.34,20.41,43.19,10.39,50,10.66Z"/><path class="cls-3" d="M42.24,28.93a1.08,1.08,0,0,0,1.36.23l.17-4.55a1.4,1.4,0,0,0-2.21,0C40.83,25.53,41.64,28.12,42.24,28.93Z"/><path class="cls-3" d="M55.23,43.33c3.41,0,12-6.58,12-13.49,0,0-.13-3.28,0-5.48.48-8.09-5.39-12.51-12-12.51h0c-6.65,0-12.31,4.72-12,12.51.1,2.84,0,5.48,0,5.48C43.2,36.75,51.81,43.33,55.23,43.33Z"/><path class="cls-2" d="M67.23,24.94c-.5-5.58-3.43-9.89-12.68-9.7-9.53.2-11.33,9.7-11.33,9.7a12.33,12.33,0,0,1,1.19-7.25c1.66-3.54,5.63-5.53,9.33-5.9s10,.8,12.23,5.18A12.77,12.77,0,0,1,67.23,24.94Z"/><path class="cls-2" d="M71.54,49.79,60.36,46.22a16.92,16.92,0,0,1-10.25,0L38.93,49.79a9.4,9.4,0,0,0-6,5.88l-1.64,4.71a192.63,192.63,0,0,0,24.11,1.88A185.18,185.18,0,0,0,79.2,60.38l-1.63-4.71A9.44,9.44,0,0,0,71.54,49.79Z"/><path class="cls-3" d="M47.78,68.27a15.66,15.66,0,0,0-17.71,0c5.06-3.66,7.13-9.15,4.83-12.81,2.3,3.66,5.75,3.66,8.05,0C40.65,59.12,42.72,64.61,47.78,68.27Z"/><g class="cls-6"><path class="cls-2" d="M40.3,61.63c2.79,0,9.83-5.63,9.83-12.54,0,0-.1-3.29,0-5.49.4-8.09-4.4-12.5-9.83-12.5h0c-5.43,0-10.06,4.72-9.84,12.5.08,2.84,0,5.49,0,5.49C30.46,56,37.51,61.63,40.3,61.63Z"/></g><path class="cls-2" d="M52.91,57.47c-2.27,2.47-5.8-.77-14.63-.45s-10.51,2.55-13.11.84.18-6.58,1.37-16.89c.74-6.33,25.63-8.29,25-.55C50.58,50.67,55.7,54.45,52.91,57.47Z"/><path class="cls-2" d="M33.65,28.4c3.4-3.15,16.63-3,17.73,8.31.42,4.41-.19,8.3-1.64,10.67-1.73,2.85-7.2,4.41-10.92,4.74-6.8.6-9.93-3.78-11.64-7.71C24.46,38.15,27.18,28.12,33.65,28.4Z"/><path class="cls-3" d="M51.18,46.67a1,1,0,0,1-1.31.23l-.16-4.55a1.3,1.3,0,0,1,2.11,0C52.52,43.27,51.75,45.85,51.18,46.67Z"/><path class="cls-3" d="M26.27,46.67a1,1,0,0,0,1.31.23l.16-4.55a1.3,1.3,0,0,0-2.11,0C24.93,43.27,25.7,45.85,26.27,46.67Z"/><path class="cls-3" d="M38.68,59.15c4,0,11.48-7,11.48-12,0,0-.13-2.78,0-4.9.46-7.78-5.14-12-11.48-12h0c-6.35,0-11.75,4.55-11.49,12,.1,2.73,0,4.9,0,4.9C27.19,52.62,34.66,59.15,38.68,59.15Z"/><path class="cls-2" d="M50.11,43.76C48,38,38.14,39.81,34,34.77c-1.68,3.29-6.74,8.59-6.74,8.59a13.74,13.74,0,0,1,1.13-7.55c1.58-3.54,5.37-5.54,8.91-5.9s9.55.79,11.67,5.17A15.5,15.5,0,0,1,50.11,43.76Z"/><path class="cls-2" d="M54.35,67.7,43.52,63.92a13.92,13.92,0,0,1-9.19,0L23.5,67.7a7.69,7.69,0,0,0-4.79,4.92L17,78.12A162.19,162.19,0,0,0,39.06,80a156,156,0,0,0,21.83-1.88l-1.75-5.5A7.67,7.67,0,0,0,54.35,67.7Z"/></g></g></svg>