<svg xmlns="http://www.w3.org/2000/svg" viewBox="0 0 194.02 55.65"><defs><style>.cls-1,.cls-2{fill:#fff;}.cls-1{fill-rule:evenodd;}</style></defs><g id="Layer_2" data-name="Layer 2"><g id="Layer_1-2" data-name="Layer 1"><path class="cls-1" d="M56.15,28.38A14.36,14.36,0,0,0,56,26.76l-.1-.83-.24-1.35-.08-.71v-.32l-.16-.32v-.31l-.15-.63L55,20.87a34.79,34.79,0,0,0-1.17-3.32,27.07,27.07,0,0,0-1.43-2.77c-.68-1.16-4.53-6.26-5.14-7S45.5,6,45.5,6,44.36,4.92,44,4.62a19.28,19.28,0,0,0-2.45-1.78c-1-.54-2.14-1-2.14-1s-.69-.31-1.82-.71C36.79.83,34.81.39,34.81.39A17.44,17.44,0,0,0,32.51,0C31.27,0,30.06,0,30.06,0L29.19.1s-.84.09-1.91.28C26,.6,24.92.84,24.92.84a16.9,16.9,0,0,0-2.34.65c-1.45.51-4.06,1.74-4.06,1.74L14.33,5.37l-.87.47L11.56,7s-.8.48-2.29,1.54a25.45,25.45,0,0,0-2.93,2.42L5.4,12l-.68.88-.42.72-1.51,3a38.57,38.57,0,0,0-1.9,4.27l-.32.71-.08.4.08.23-.08.24.08.23-.23.24.15.32-.23.16.15.31-.15.24.15.32-.31.15v.16l.24.16-.08.08-.16.08L0,25.06l.32.15L0,25.37l.24.32L0,25.93l.32.31-.08.08c-.17.09-.26.15-.26.2H0a.05.05,0,0,0,0,0l.24.16L0,27,.1,27l.16.08v.24l-.08.08H0l.39.39-.15.08H.18l.16.48-.16.08.39.31v.08l-.31.24.08.08.15.24-.23.07L.73,30H.49A.19.19,0,0,0,.34,30a1.86,1.86,0,0,0,.31.23v.09l-.24.23v.08l.32.23-.39.16.47.4-.32.08v.16l.08.08c.21.1.26.18.16.23H.57l-.16.08.08.16.48.24c-.43,0-.56.08-.4.24l.4.15-.4.32.55.24-.39.24.08.15H.89l.16.24L1,34.15H.81l.08.24.23.15-.23.24L1.2,35l-.15.31.23.16-.08.32.16.24-.08.23.24.32v.32l.16.15-.08.32.24.24v.23l.23.24.08.32.16.32.32.94L4,42.37A6.23,6.23,0,0,0,5.4,44.59l.24.31.54.55.08.24.48.16v.4L7,46.4l.23.4.4.16.16.39.23.08.16.48.32.15.16.32.39.4.32.55L11,51l.87.79L13.38,53l.87.55,1.07.59,1,.46,1.11.45,1.19.35,1.08.2,1.13.08h1.35l1.1-.07,1.11-.16.72-.16L26.27,55a16.87,16.87,0,0,0,4.19-1.42l4.19-2,2.76-1.42,2.17-1.31,1.87-1.3,3.16-2,.71-.47,3.16-2.45,1.19-1.07.95-.91L52,39.21l.89-1.1a12.07,12.07,0,0,0,1-1.34,13.12,13.12,0,0,0,1.19-2.41c.33-.86.51-1.48.51-1.48l.25-1.1.19-1,.11-1S56.16,29.13,56.15,28.38Zm-1.1,1.26-.11,1-.18,1-.25,1.07s-.17.58-.48,1.41a12.82,12.82,0,0,1-1.14,2.32,11.93,11.93,0,0,1-1,1.29l-.86,1-1.29,1.45-.91.87-1.14,1-3,2.35-.68.46-3,1.9-1.8,1.25-2.08,1.26-2.66,1.36-4,1.9a16.42,16.42,0,0,1-4,1.37l-1.14.23-.68.15-1.07.16-1.06.07H21.1L20,54.48l-1-.18L17.83,54l-1.06-.43-1-.45-1-.56L14,52l-1.44-1.14-.84-.75-1.59-1.6L9.78,48l-.38-.38-.16-.31-.3-.15-.15-.45-.23-.08-.15-.38L8,46.06l-.23-.38-.23-.15v-.38L7.12,45,7,44.77l-.53-.53-.23-.31A6,6,0,0,1,4.91,41.8L3.62,39.22l-.3-.91L3.16,38l-.07-.31-.23-.23v-.22L2.63,37l.08-.31-.15-.15v-.3L2.33,36l.08-.23-.16-.22.08-.31L2.1,35l.15-.3L2,34.51l.23-.23L2,34.13l-.08-.23H2l.08-.07L2,33.6H1.87l-.07-.15.38-.23L1.64,33l.38-.3-.38-.16c-.15-.15,0-.22.38-.22l-.45-.23-.08-.15.15-.08H1.8c.1-.05,0-.12-.16-.23l-.07-.07v-.16l.3-.07-.45-.38.38-.16-.31-.22v-.08l.23-.22v-.08a2.15,2.15,0,0,1-.3-.23.21.21,0,0,1,.15-.07H1.8l-.46-.46.23-.07-.15-.24L1.34,29l.3-.23v-.08l-.37-.3.15-.07-.15-.46h.07l.15-.08-.38-.38h.16l.07-.07v-.23l-.15-.08L1.11,27l.23-.23-.23-.15s0,0,0,0h0c0-.05.08-.11.24-.19l.08-.08L1.11,26l.23-.23-.23-.3.31-.15-.31-.16.08-.22.15-.08.08-.08-.23-.15v-.15l.3-.15L1.34,24l.15-.23-.15-.31.23-.15L1.42,23l.22-.23-.07-.23.07-.23-.07-.22.07-.38L2,21.06A38.79,38.79,0,0,1,3.77,17l1.46-2.85.4-.68.66-.85.9-1A25.53,25.53,0,0,1,10,9.24c1.43-1,2.21-1.47,2.21-1.47L14,6.7l.84-.45,4-2.06S21.4,3,22.8,2.52A15.19,15.19,0,0,1,25,1.89s1-.23,2.27-.44c1-.18,1.84-.27,1.84-.27L30,1.1s1.16-.05,2.36,0a16.63,16.63,0,0,1,2.2.34s1.91.42,2.67.69c1.07.37,1.74.67,1.74.67a22.3,22.3,0,0,1,2,1,18.82,18.82,0,0,1,2.36,1.71c.36.29,1.47,1.35,1.47,1.35s.94.93,1.64,1.73,4.29,5.57,4.94,6.69A24.27,24.27,0,0,1,52.79,18c.25.58,1,2.66,1.13,3.19l.31,1.36.15.61v.3l.15.31V24l.07.68L54.83,26l.1.8s.12.89.13,1.56S55.05,29.64,55.05,29.64Z"/><path class="cls-1" d="M4.21,23.57v.07H2.08l.15.31.53.07v.08l-.53.07a.35.35,0,0,0-.08.24.07.07,0,0,0,.08.07h.3l-.45.23v.23l.3.15-.45.23.07.07.3.23-.37.15.07.15.3.15c-.2.06-.3.13-.3.24a.21.21,0,0,0,.08.14h.15v.16H2.08q-.15.08-.15.15a.21.21,0,0,0,.07.15l.15.08h.08v.07l-.3.23.3.31v.45L2,28.28v.08l.23.23a.45.45,0,0,0-.15.22c0,.06,0,.08.07.08l.08.08-.15.38.07.45.08.23-.08.23.08.3-.08.23.08.23.07.76.08.53.91.23-.68.15.61.31h.07l-.6.15c.05.15.22.25.53.3h.15l.15.08-.38.08H2.91l-.15.22,1.14.23H3.37l-.61.08.08.22.45.08.76.08v.07h-1l-.16.31h.38l.92.15L3,35.2c0,.15.28.23.68.23h.76l.16.53.07.08L4,36.12H3.52l-.15.22.84.08.68.15-1.14.08-.08.07a1.81,1.81,0,0,0,.46.23l1,.08-.38.07H4.21c-.26,0-.33.08-.23.23l.3.08.84.07v.08L5,37.64c-.1.1,0,.22.24.38l-.08.3.08.08.3.15v.23l.38.23-.23.22.38.31v.3l.08.23v.23l.23.3c-.15,0-.21.08-.15.23l.07.08h.38l.15-.46v-.23L6.71,40v-.22l-.15-.23.08-.31-.08-.15.08-.3-.15-.31.07-.15L6.49,38l.07-.16-.07-.38.15-.07L6.41,37l.08-.23-.08-.23.15-.3L6.41,36l.15-.15-.15-.38.15-.16-.07-.15-.15-.15.15-.23-.23-.23.23-.23-.08-.15-.22-.15.22-.3-.53-.31.31-.15L5.35,33v-.08l.15-.23-.91-.15v-.07l.23-.08a.23.23,0,0,0,0-.23H3.37l-.46-.07-.07-.46V30l.07-.23L2.84,29l.07-.53L2.84,28l.07-.69v-.68L3,26.23l.08-1.07a1.48,1.48,0,0,1,.53-1A.52.52,0,0,1,4,24a.25.25,0,0,1,.23.15H3.75l.08.31.45.15-.53.08c0,.15.23.28.53.38l-.76.15c0,.15.2.25.46.3h.23l.07.08-.76.08c0,.15.31.28.76.37l-.53.08-.23.08v.08l-.07.14.45.08.38.08-.53.07-.23.08-.07.08a.21.21,0,0,0,.07.15l.76.07a1.06,1.06,0,0,1-.68.23l.3.15.38.16a1.24,1.24,0,0,0-1,.3l1,.15v.08l-.83.15-.08.08.91.15-.38.15-.45.08v.15l.83.15v.08l-.76.07-.15.16.3.15.61.15c-.45,0-.74.08-.83.23l.83.15-.68.15-.15.23.53.08.3.07-.3.08c-.36,0-.56.08-.61.23l1,.15-.53.08-.31.07-.07.23.83.07h.61l.23-.22V31l.15-.38H5.12v-.15l.38-.08L5.12,30l.3-.23-.07-.07-.23-.16c.25-.1.35-.22.3-.38L5.2,29q.52,0,.3-.3l-.3-.15v-.08c.2,0,.33-.05.38-.15l-.16-.15-.22-.08v-.08L5.5,28l-.08-.23L5.2,27.6l.07-.31L5.2,27c.09,0,.15-.1.15-.15a.5.5,0,0,0-.15-.31l.15-.08.07-.14-.15-.24.15-.15-.15-.3v-.08l.15-.07c.11-.1,0-.2-.15-.31l.23-.3-.23-.3c.15,0,.23-.11.23-.15a.23.23,0,0,0-.08-.16l-.07-.08L5.58,24l-.08-.16-.3-.22.38-.16-.08-.22H2.91l-.61.08v.14l.16.08h.91Zm-2-.61L4.28,23,4.66,23l.61-.08v-.15l-.91-.07H2.91c-.4,0-.63.07-.68.22Zm.23-.54L4,22.5h.91l1.3.08H9.76l.53.08.46-.08h2a1,1,0,0,0-.83-.31H10.67l-7.53-.15A.83.83,0,0,0,2.46,22.42Zm.61-.68v.08l.68.15.84.07L5,22l.39.07L5.8,22c-.1-.2-.2-.31-.3-.31a.43.43,0,0,0-.3.16l-.08.07-.76-.23H4.13Zm5.09-8.67-.68.31v.07l.3.16v.07l-.3.23-.08.3-.53.08v.15l.08.08.15.07v.08l-.39.08c-.1.1-.07.2.08.3h.08c0,.15-.26.23-.61.23H5.88a1,1,0,0,0,.76.3l-.38.15-.3.08.45.3v.08l-.3.08v.3l-.53.15-.31.15.53.23-.45.15-.46.08.61.23-.76.23.3.3-.3.08-.46.15v.15l.46.15-.38.16V19h.15v.08l-.46.23.38.3-.68.15-.08.16.84.22H4.05l-.3.08-.08.23.92.15-1,.07-.38.16.61.15.76.08.07.07-.83.08-.61.07-.08.08,1.29.15L5,21.44l.46.07.38-.07-.15-.31L6,21l.23-.07V20.6l.22-.15.15-.38.69-.23.15-.38-.23-.38a.32.32,0,0,1-.07-.23.61.61,0,0,1,.22-.38l.08-.07v-.08l-.23-.23.08-.23-.08-.3H7.4l-.08-.31L7,17.18V17.1l1.06-.23-.3-.15.76-.22.07-.31L8.77,16l.08-.31.3-.22-.08-.23L9.15,15,9,14.67V14l-.15-.61-.08-.23-.16-.31H8.08V13ZM3.29,35.89l.76-.08c0-.15-.22-.23-.53-.23l-.23.08Zm.31-4,.61.07h.91L5,31.71l-.38-.08c-.61-.1-1-.05-1.06.15ZM5.5,22.8,7,23h.23l1.67.08h2.74l.53-.08a2.61,2.61,0,0,0-1.36-.23l-.62-.07h-3l-.91-.07Zm2.2,9.44L7,32.16H6l-.08.23.38.08H7.55Zm-1.59-.38.38.07L7.4,32l.38-.15-.38-.15Zm.15,9.27c-.1.16-.07.23.08.23l.15-.07-.15-.16Zm.08-9.88c0,.15.17.22.37.22h.77l.38-.07-.08-.15-.38-.08H7Zm.37,10.57-.07-.15-.23-.08-.07.23.07.08h.15Zm-.22.3-.08.23.46-.07Zm.15-18.33.53.31v.07c-.35,0-.58.08-.68.24l.3.15.46.15-.76.15v.08l.83.22H6.87l-.31.08.08.3.68.08L7,25.7l-.38.07L6.56,26l.84.07-.76.16v.15l.07.07.69.16v.07H6.87l-.31.16v.07l.92.23-.77.23v.07l.69.16-.69.07V28l.31.07.46.16c-.46,0-.71.07-.77.22v.08l.77.15-.69.15v.08L6.71,29l.77.15-.31.15v.08l.23.15-.08.3L7.4,30l-.15.23.15.3L7,30.72l-.08.15.3.07a1.13,1.13,0,0,0,.46.16.3.3,0,0,0,.3-.23L8,30.11l.07-.23v-.31L8,29.12l.07-.31v-.22l.08-.23-.08-.23V26.61l.08-.69-.08-.3.08-.3-.08-.23L8,24.63l-.08-.38L7.7,24.1l-.15-.23a1.1,1.1,0,0,0-.6-.3,1,1,0,0,0-.24.15Zm5.09-.22-.3-.3h-1L7,23.19l-.31.15a.22.22,0,0,0-.08.15.44.44,0,0,0,.31.08H8.46l.92.07.45-.07ZM6.79,32.69v.23l.69.08.6-.23-.38-.08Zm.08-3.27.23-.15H6.87Zm.38,3.88,1,.15v-.22A1.2,1.2,0,0,0,7.25,33.3Zm1.29.61a.68.68,0,0,0-.61-.23l-.3.08a.22.22,0,0,0-.08.15.62.62,0,0,0,.38.07h.23Zm-.76-12.4.76.08H9.91c.45,0,.71-.08.76-.23v-.08l-.84-.07-1,.07H8.46l-.68.16Zm0,.38V22l1.82.08h.61l.46-.08.53.08h1.6c.25,0,.41-.08.45-.23l-.91-.07h-.91l-2.58-.08Zm.15,2V24l.31.07h.83l1.6.08.61-.08.23-.07-.16-.16h-.68l-1.82-.07Zm.15-2.81,1.83.07a.62.62,0,0,0,.61-.3v-.08l-1.83.08C8.34,20.83,8.13,20.91,8.08,21.06Zm.08-3.5,1.67.07L11,17.56l.45.07h1.22l.23-.23-.31-.07h-.76l-2.74-.08C8.51,17.25,8.21,17.36,8.16,17.56Zm0,2.28V20l.76.08h.84L10.83,20l2.2.15h2v-.22l-.91-.08-4.95-.08Zm.08-.46v.16l1.36.07,1.23-.07,2.05.07h2.27c-.14-.2-.47-.3-1-.3h-.76L11,19.23l-2,.08Zm.15,1,.38.23H9.91l.69-.07,1.21.07,2.13.07h.91l.39-.14v-.16L14,20.3H12.27l-2.89-.08ZM8.46,41.9H9.91l1,.07H12l.38-.15-.07-.08L12,41.67H8.54Zm.23-.77c-.15.16-.15.23,0,.23l.46.08.45-.08.46.08h2.13l-.08-.23-.53-.08H10.45l-.77.08-.76-.08ZM8.61,18.85v.23h6.47a.68.68,0,0,0-.61-.23h-1l-2-.07H9.3Zm0,5.71h2.06l.68-.15v-.08l-2.43-.08-.23.08ZM8.69,18l1.76.07h2l.46.08.37-.15-.07-.16L13,17.79h-3l-.84.07-.38.08Zm0,.38v.15l1,.07h.84l.53-.07,1,.07h1.6q0-.3-.39-.3H12.5l-2.14-.08Zm2.44,6.46-.92-.15H9.15l-.38.07L8.69,25l.54.08h1.6ZM8.92,28.21c-.15.05-.23.1-.23.15l.16.15H10.6q.15-.15-.15-.3ZM8.69,29l1.37.07.61-.07c-.05-.16-.22-.23-.53-.23H8.85Zm.08,1.29a.22.22,0,0,0-.08.15c0,.05.05.1.16.15h1.29l.46-.07v-.15l-.15-.08-1.22-.08ZM8.69,40.68c.05.15.33.23.84.23L11.2,41l.91-.07c0-.16-.35-.23-.91-.23L9.38,40.6Zm0,1.52v.08h.23V42.2Zm0,.46v.15h.38v-.15Zm.08-17.42v.23l.08.07H9.6l.85.08.45-.15c.15-.15,0-.23-.38-.23Zm0,2.74,1.37.07c.31,0,.48-.1.53-.3H9.3C9,27.75,8.82,27.83,8.77,28Zm0,1.52.91.07.92-.07-.08-.23-.38-.08H9.3l-.45.08Zm2,.3L10,29.73H8.85L8.77,30,9.3,30h.91A.58.58,0,0,0,10.75,29.8Zm-.08,1.14c-.05-.15-.17-.22-.38-.22H8.77v.22l.38.08h.76Zm-1.9.23v.3h.3l1,.08.54-.08c.3-.1.2-.17-.31-.22l-1.06-.08Zm1.9.61-.76-.07h-1l-.15.07.08.15.38.08H10.6Zm-1.82-6,.07.3h1.37l.46-.07-.08-.23h-.61L9.6,25.7Zm.15.46-.15.22.38.08h1.52c.15-.15.15-.22,0-.22l-.3-.08ZM8.85,27l1.06.07.92-.07-.23-.23-.54-.08L9,26.76l-.15.08Zm0,.23v.3h1.36l.46-.08c0-.15-.15-.22-.46-.22Zm0,13.15.91.08h2l.08-.23-.68-.07H9.45A.67.67,0,0,0,8.85,40.37Zm.07,1.83v.15l1,.07h2.43l-.07-.22H12l-.53-.08H9.3Zm.15-2.82.92.08h1.36l.16-.15v-.08H10.9l-1.37-.07C9.28,39.16,9.13,39.23,9.07,39.38Zm0,.54h1l.69.07.38-.07h.45c.15,0,.15-.08,0-.23H11l-1.45-.08-.46.16Zm.08-1,.76.08,1.52-.08.08-.15-.68-.08-1-.08-.6.08Zm.53-1.29-.38.22.08.08h.45a2.35,2.35,0,0,0,.53.08,2.64,2.64,0,0,0,.62-.08h.3q.22-.07,0-.15l-.15-.08Zm-.38.53v.3l1.6.08.53-.15c0-.15-.15-.23-.45-.23Zm1.45-5.93h-.54l-.38-.08-.38.08-.07.15.38.15c.56,0,.86-.07.91-.23ZM9.38,42.81,11,43h1.44q0-.3-.69-.3H10.06l-.61.07Zm0,1.52,1.67.08h1l.61-.08c-.05-.15-.31-.23-.76-.23H10.06C9.65,44.1,9.43,44.18,9.38,44.33Zm.07-6.92,1.45.07.53-.15v-.07L10,37.18C9.68,37.18,9.5,37.26,9.45,37.41Zm1.83-.69-.68-.07h-.46l-.54.07L9.53,37h1.22A.61.61,0,0,0,11.28,36.72Zm-.08-.45-.6-.08-.46-.07-.46.07-.08.23.39.07h1.06Zm-1.52-3.5.23.15.61.08.23-.08.08-.15Zm0,3.19H11l.07-.23-.38-.07h-.61l-.3.07Zm0,7.23c.05.15.23.23.53.23l1.6.07.69-.07-.08-.23h-.53l-.38-.08h-.76Zm0,.68,1.07.08h1.59c.16,0,.23,0,.23-.08a.26.26,0,0,0-.07-.15l-.16-.08h-2l-.68.16ZM11,34.44c-.1-.15-.36-.23-.77-.23h-.3q-.15.09-.15.15c0,.06.05.11.15.16h.61Zm-1.22.46L10,35l.3.08c.41,0,.63-.08.69-.23v-.07l-.77-.08C10,34.67,9.81,34.75,9.76,34.9Zm0,.3.07.23.38.08h.84c0-.21-.13-.31-.38-.31Zm.07-22.66.77.08.6-.08c0-.15-.07-.23-.22-.23h-.92l-.23.15Zm.08,32.24.84.16H12l.69-.08c-.05-.15-.23-.23-.54-.23H10.52l-.53.08Zm.92-11.48-.31-.07-.23-.08-.3.23v.07h.22C10.57,33.56,10.77,33.51,10.83,33.3ZM10,34l.91-.07-.15-.15-.3-.08-.46.15Zm.15-20.91,1.44.08a1.09,1.09,0,0,0-.91-.31H10.6l-.46.16Zm0,4,1.75.07.53-.15V16.8l-1.75.07Zm.07,28.06v.23l.24.07h1.89l.54-.07.07-.08-1.06-.15Zm.08-33.23c.1.15.46.22,1.06.22h.08c-.15-.2-.51-.27-1.07-.22Zm.07,1.59v.16l1.37-.08-.53-.15h-.53ZM10.45,16q0,.15.45.15h1.37l.23-.22v-.08H11.13Zm0,.61,1.51.08a.6.6,0,0,0,.61-.31l-.46-.07L11,16.34l-.53.16Zm.07-2.66v.15h1.29l-.38-.23Zm.08.53.3.15h.61v-.15A2.78,2.78,0,0,0,10.6,14.44Zm0,31.18a.28.28,0,0,0,.23.3H12.5c.2-.1.22-.17.07-.22l-.3-.08Zm.07-30.57A1.94,1.94,0,0,0,12,14.9H11l-.31.07Zm.08-3.65v.15h.68q.23,0,.15-.15l-.15-.08Zm4.18,9.66-.3-.15L14,20.75H11l-.23.08.15.23h.76l1.14.07h1.07Zm-4-5.63.3.15c.36.1.56.05.61-.15l-.53-.08Zm0,5.93v.08l.83.15h1.83l.91-.15-1.29-.16H11.73Zm.38-10.95a.45.45,0,0,0,.38.23,1,1,0,0,0,.53-.23ZM29.46,9.19c0,.11.07.18.22.23l-1,.15c-.25.1-.33.23-.22.39l-.38.07h-.46c-.15.05-.2.13-.15.23l.15.15-.68.23v.3l-.92.23.16.3-.46.08-.15.15v.23l-.38.15v.16l.07.15-.3.15.15.3-.38.31.08.15.15.15h-.15l-.16.08a.21.21,0,0,0-.07.15c0,.05.07.13.23.23l.07.08-.38.15.46.3v.08l-.46.15.84.15v.08l-.46.3,1.14.23v.08h-.45l.15.3.53.15h-.07a.24.24,0,0,0-.16.23s0,.13.16.23l-.08.08c-.1.05-.08.17.08.37l.07.08H26c-.15.1-.22.18-.22.23s.05.1.15.15h.6l.16-.15V17.1L26.64,17l.31-.23.15-.22.53-.31.08.46v.22l-.46.23.08.3-.54.16-.45-.16-.38.08a.35.35,0,0,0-.38.23l.68.15h.84l-1.29.08-.54.3.69.08.53-.08.38.08.38-.08.53-.15-.07-.15.45-.31V17.4l.23-.37-.08-.31v-.07l-.07-.23.07-.23q-.07-.15-.45-.15h-.31V16l.31-.07.45-.08q.32-.08,0-.3h-.15c.15-.16.58-.18,1.3-.08v.08h-.38l-.08.3h.08l1.29.15L29,16v.15l.38.15-.46.23.08.23.46.15-.54.15v.15l.08.08.15.07-.53.16.3.38-.3.08-.23.07-.08.15.16.08h1l.22-.23V18l-.07-.08.53-.23-.3-.23c.3-.2.38-.35.22-.45L30,17c.2-.05.3-.13.3-.23a.23.23,0,0,0-.15-.22c.31-.16.51-.21.61-.16v.31c-.05.1,0,.2.23.3l-.31.15.16.3-.46.16c-.05.1-.05.18,0,.23l.38.07-.69.23.61.31v.07h-.38l-.76.31.69.07-.69.15h-.07l-.31.15-.23-.07h-.3c.05.15.2.23.46.23h.53v.07l-.53.08H27.71l-.61.08c-.51,0-.79.07-.84.22l2.21.16H27.25l-.61.07L26,19.92l-.69.07v.23l.38.08.69.07,1.82-.07,1.75.07L29,20.6l.3.31-.83.07h-.61l-1.37.08L26.11,21l-.61.08-.61-.23.08-.3-.69-.08c-.2,0-.25.08-.15.22l.15.08v.08l-.07.3v.08l.3.15-.53.15,1.22.31-.46.3v.15h.91v.08l-1.29.07L24,22.27l.07-.15-.6-.23.45-.3v-.08l-.3-.07-.61.07h-.38l.15.38-.15.08c-.15.1,0,.23.38.38v.07l-.08.31h.16l1.21.15h-.83l-.76.08-.23-.38-.31-.31L22,22l-.3-.22.07-.23-.07-.23.45-.15.54-.08v-.3l.22-.08.61-.15-.15-.23.68-.15.31-.08h.46l-.61-.22h-.08v-.08l.53-.08.16-.15v-.23l1.06-.15-.46-.3.61-.15.23-.08-.15-.23a.83.83,0,0,0-.69,0H25l-.3.08-.23.38-.76.15-.08.15.31.15-.91.16-.31.07-.22.15-.39.08H17.44l-.84-.08,1.14-.07h2l1-.15v-.08l-.53-.08h-.53l-1.3-.07,1.07-.08.53-.08v-.22l-1.45-.08.69-.15.76-.08v-.07l-.38-.15-.69-.08v-.08l.46-.07h.15l.08-.31-.76-.07.53-.08.31-.23-.77-.23.69-.15-.23-.23-.46-.07.39-.38-1.76-.08-1.21-.07v-.08l.76-.08-.61-.3-.07-.08.3-.07v-.23l-.38-.15.38-.15V14.9l-.38-.08v-.07l.38-.16-.53-.3.6-.08c0-.2-.25-.3-.6-.3l-.61-.08h-.39l-.22-.3-.3-.23.07-.15c.05-.2,0-.31-.23-.31h-.15l-.15.16v.15l.08.07.22.08-.45.08.23.3.38.15-.46.08-.07.23.37.15-.53.23.53.23v.07H14.1l-.31.15v.08l.76.3c-.41,0-.64.08-.68.23l.68.15.23.08H14.4l.07.3.38.23h-.22l.15.31v.07L14.4,17v.15h.07l.08.08v.07l-.45.15h-.31l-.08.31v.38l.46.08h.76c.2-.11.28-.18.22-.23l-.07-.23,1-.15L16,17.33l.3-.15h1.14v.07L17,17.4l-.15.08.08.23-.91.23.38.23-.54.15-.3.23.3.15-.15.3.08.23v.23l.07.23V20l.16.23v.38l.22.07h1.37l1.6.08-.46.08H16.38l-.23.08c-.11,0,0,.12.15.22l.76.08-.68.07-1.07.08a.7.7,0,0,0-.61.23l.76.07v.08L14,21.89l.15.31v.07h-.46l-.23.15.08.24-.53.22L13,23l.15.08-.6.3.45.31-.38.07a.25.25,0,0,0-.07.16.21.21,0,0,0,.15.22l-.46.24v.07l.38.23-.46.23.08.15.08.07-.54.31.38.23-.38.07.16.46c-.31,0-.41.08-.31.22l.15.23-.3.16c0,.1.15.2.46.3l-.31.15a.25.25,0,0,0-.07.15.29.29,0,0,0,.3.16v.07h-.15l-.08.08a.21.21,0,0,0-.07.15.19.19,0,0,0,.07.15l.15.08.08.08c-.25,0-.33.12-.23.38l-.15.07a.25.25,0,0,0-.08.15.23.23,0,0,0,.08.16l.15.15-.07.23c0,.15.1.22.3.22v.08l-.38.23.08.08.3.15-.15.07-.08.08c-.1.1,0,.23.31.38l-.31.3.23.08-.08.38.23.15c-.3.11-.4.23-.3.38l.07.08.16.08-.31.15a.21.21,0,0,0-.07.15c0,.1.17.15.53.15l-.15.31.3.15.76.07.38.08-.61.15c0,.26.31.38.76.38h.16l.38-.07h.3l.38-.16,1,.23.61-.15.08-.23-.31-.07-.76-.16h1.6q.53,0,.6-.3H14.63l-1-.15-.08-.08h1.59l2,.15.68-.15q.3,0,.15-.15l-.38-.23h.46l.23-.07v-.31h-.69l-.68-.15h1.21l.46-.16V31.4l-.76-.15H17l-.3.07v.15l.07.08v.08h-.53l-.68.15-.46-.07.23-.24.08-.3.45-.23-.07-.15v-.15h1l.92.08h.76l1.29-.23-.38-.31,1.06-.07.16-.23-.76-.08-.08-.07.84-.08h.38l.38-.15v-.15l-.69-.08.69-.08h.45l.46-.07L22.15,29l-.3-.08-.53-.15h1.06l.84-.15-.38-.23h-.76l1.67-.23.61-.15H23.9l-.53-.23h1.45l.6-.15v-.16h-.6l-1.3-.07-.61-.15h3l.91-.16V27l-6.08-.15a.36.36,0,0,0-.38.3l.68.08-.45.15H19.42l-.61-.15.53-.08.38-.15-.53-.23-.61-.08h1.07c.3-.1.43-.23.38-.37l.3-.16.38-.15v-.3h.53l.38-.08.08-.3.23-.08h.76l.6-.08-.22-.22-.38-.08.38-.23v-.22L23,24.25h1.29l.54-.08h.45l.08-.22-.46.07-.53-.15-.69-.08-.53.16-.84-.08h-.53l-.15-.3-.38-.3L21,23l-.22-.23-.08-.31-.46-.15.46-.07h.46l.38.15-.08.07c0,.16.08.28.38.38h.08l.07.08-.38.15v.16H22l.61.08.46.14,1.21-.07-.91.07H22.23c0,.21.33.31,1,.31a3.07,3.07,0,0,0,1.52-.08l.68-.37H26l.38-.16-.3-.23V22.8H27l.45-.07v-.38l.53-.08.46-.07.23-.23.23-.15.83-.08.16-.15v-.15l.45-.38-.15-.15.46-.24-.08-.22-.07-.08.6-.07-.38-.46h1.44c.51,0,.82-.08.92-.23l-.92-.07-.45.07-.53-.15v-.08l.53-.15.38.08.92.07.45-.3H32.27l-.84-.15,1.37-.08h1.67l.77.08-.61.15h-.08l-.3.23.76.15-1.45.3.38.16h.46V20h-.76l-.46.15L32.11,20c-.5,0-.78.08-.83.23l-.07.08.75.07,1.15.08v.08l-.92.14v.08l.16.08.07.15.15.23.39.23.22.38.61.15.53-.08h1.45l.07-.23-.15-.07h-.38l-1.14-.08-.68-.15.07-.23L33.11,21v-.07h2.81l.91-.16v-.08l-.38-.07h-.53l-.23-.15h.84l.45-.08.08-.23L35.92,20l.76-.07.53-.08.08-.23-1-.15h.53l.46-.08c.15,0,.23,0,.23-.07a.24.24,0,0,0-.08-.16L36.68,19l.84-.15.15-.23L37,18.47l.84-.07c0-.16-.23-.28-.68-.38h-.08l1-.16-.76-.3v-.08c.46-.1.71-.23.76-.38L37.36,17V17h.54l.07-.3h-.22l-.39-.15.69-.23v-.08L37.44,16a.64.64,0,0,0,.53-.3l-.68-.15.53-.08V15.2l-.23-.07-.45-.08V15h.53l.08-.3h-.31l-.61-.08v-.07l.84-.15v-.08l-.31-.15-.68-.08V14l.84-.16-.38-.22-.54-.08.46-.08c-.05-.15-.23-.28-.53-.38V13c.15-.05.23-.11.23-.16a.22.22,0,0,0-.08-.15l-.46-.15.23-.3L35.92,12l.23-.15-.84-.31.53-.3L35.16,11l.15-.23v-.15l-.76-.15.3-.08-.07-.31L33.94,10V9.8l-.45-.15h-.38l-.23-.15-.61-.08V9.19L30.14,9ZM11.35,10.87V11l.54-.15Zm.31-.77.68-.14A.66.66,0,0,0,12,9.8c-.1,0-.2.08-.3.23Zm.07,36.13.46.31.31-.08.38-.23.07-.08-.84-.08Zm0,.53a.7.7,0,0,0,.77.16l.22-.16-.22-.07A.82.82,0,0,0,11.73,46.76Zm.08-12.47.38.38-.38.08a.49.49,0,0,0,.38.38h.15v.07l-.45.15.61.31-.39.07V36l.39.16-.23.07c-.26.1-.18.25.23.46l-.31.07.31.38-.31.08.08.3.23.16-.23.15v.15l.23.15v.08c-.21.1-.25.2-.16.3l.31.15c-.26.16-.33.28-.23.39l.23.07v.08l-.23.22.08.08.3.08-.3.23c-.11.15,0,.25.38.3H13l-.23.3.38.16v.38l.15.15-.3.23.15.15.61.15v.08l-.38.07-.15.16a1,1,0,0,0,.3.15h.16v.07l-.39.08c-.15,0-.17.13-.07.22l.15.08h.15v.08l-.07.08a.22.22,0,0,0-.08.15.32.32,0,0,0,.08.23l.07.07-.07.08v.23l.23.15.07.07-.15.08c-.1.1,0,.23.31.38l-.23.23.23.15.3.08.15.3.46.16.53-.08.15-.16-.07-.3.15-.07.08-.16L15.54,44v-.3l-.08-.15.08-.3L15.31,43c.15-.1.17-.2.08-.31L15,42.58l.3-.16c0-.14-.05-.25-.3-.3h-.08l.46-.22-.46-.39.46-.15v-.07L15,41.13l.76-.3L15,40.6l.61-.3.07-.08-.54-.07.39-.16-.3-.22-.09-.08v-.08l.39-.15-.46-.38.76-.23-.76-.23.23-.15-.16-.3v-.08l.31-.23-.31-.3.31-.15v-.08l-.31-.3.16-.08c.1-.05.08-.15-.07-.3v-.08l.22-.3-.22-.15.45-.16-.07-.15-.38-.15.76-.31-.61-.15-.61-.07-.38.15c-.05,0-.05.12,0,.23l.23.07-.38.31V36l.22.16-.45.07-.31-.07.46-.16-.61-.3.31-.15c.15-.16.15-.23,0-.23l-.46-.15.38-.08-.15-.3-.31-.08-.23-.08h.15l.08-.07c.1-.16,0-.23-.3-.23Zm.3-.84h.31q-.08-.15-.15-.15S12.17,33.35,12.11,33.45Zm0,13.77c.06.15.34.22.84.22h.38l.15-.22-.38-.08h-.68Zm.23,1.22.38-.08.38.08.31-.08a.7.7,0,0,0-.61-.23l-.38.23Zm.16-.69a1.74,1.74,0,0,0,.53.15c.2,0,.3-.07.3-.23ZM13.71,14.9l-.61-.23.38-.15-.3-.23v-.08l.3-.22v-.08l-.23-.23.31-.23v-.07l-.23-.08.31-.3-.16-.16-.15-.07.38-.08-.23-.45.77-.08.3-.08.08-.3.3-.15-.3-.38-.16-.31-.22-.07h-.54l-.53.07-.08.31-.07.22v.31l-.15.23v.23l-.08.22v.23l-.08.31v.22l-.07.23v.3l-.08.77.08.23v.38a.81.81,0,0,0,.45.15.76.76,0,0,0,.54-.23Zm3.8-6.62v.07h-3l-1-.22-.46.38v.23L13,9l.08.22L13,9.65l.08.07h.07V9.8A.23.23,0,0,0,13,10a.19.19,0,0,0,.07.14l.15.08,1,.08.53.07H13.64c-.26,0-.33.11-.23.31l.46.07.83-.07.45.15-.22.23.31.23.38.15h-.47c-.14,0-.22.1-.22.15l.15.15h.46l.76.08-.15.23c0,.15.07.23.38.23l-.69.22v.23h.31l.23.15-.46.16-.08.15.69.15.3.45h.31l.53.08-.31.08.15.3.16.08v.23c-.05.1,0,.2.23.3l-.39.08-.15.15a1.86,1.86,0,0,0,.31.23h.07v.07l-.53.16.3.15.84-.08-.15-.23.15-.07.38-.15v-.31l.15-.23v-.22l-.07-.31-.46-.23v-.08l.3-.22-.22-.15V13.3l.76-.3-.61-.23.46-.15v-.08l-.61-.15.38-.08.3-.07h.61l.31-.08V12L20,11.78l.15-.08.08-.15L20,11.32l.07-.3L20,10.79l.15-.08.15-.22-.23-.08,1.14-.31L20.71,10V9.88l.15-.08c.31-.15.33-.27.08-.38a.71.71,0,0,0-.46,0L20,9.57l-.38.39H19l-.69-.08V9.8l.84-.15V9.57l-.46-.22.84-.23L19,8.89l-.39-.15.77-.15V8.51l-.69-.16.15-.07c.21,0,.26-.1.16-.3l-.46-.16-.76.23-.38-.15h-.69l-.3-.38H16.3l-.68.3-.84-.07c-.31.15-.43.25-.38.3l.45.16h.92l.45.07ZM13,50.41h.3v-.23l-.3.16Zm.15-18.32h.54l.53-.08.53.08,1.45.07a1.26,1.26,0,0,1-1,.08H13.79l-.69-.08Zm.31-15.37-.08.38a.45.45,0,0,0,.31.15A.61.61,0,0,0,14,17V16.8l-.23-.15a.36.36,0,0,0,.38-.23l-.69-.15c-.2.05-.3.12-.3.23a.26.26,0,0,0,.07.15Zm-.16,17c.06.15.13.2.23.15l.16-.15ZM14,15.81l-.31-.08-.38.08v.3l.31.08A.36.36,0,0,0,14,16Zm-.54,14.3.23.07v.08Zm0,1.06.39-.15.83.08-.38.15Zm0,19.7.39-.08v-.07l-.39.07Zm.84-20.23-.53.15-.23-.07.08-.16H14Zm-.68,3.27.68.3-.07.15.6.23h.3l.31-.15v-.08l-.68-.22.15-.16a.87.87,0,0,0-.83-.22H14Zm.07-4.72a.68.68,0,0,1,.69-.07l.3.07-.07.31.38.07.53.16,1.21-.23h.31l.61.07.38.16L16.91,30l.76.22-.69.16-1.67-.08h-.76l-.15-.38L14,29.8l-.23-.07.08-.31-.16-.15Zm.61-.45-.38.07-.15-.07a.13.13,0,0,1,.15-.15Zm-.45,8c.1-.25.27-.3.53-.15l.15.08Zm1.9,8.52c0,.15.09.26.3.31l-.23.15c-.15.2-.05.3.31.3v.07l-.31.16v.15l.16.23-.08.23.15.3-.23.15-.07.31-.23.07L15,47.52l.38-.08-.08-.22-.46-.08.16-.3-.23-.3.46-.31-.61-.16-.76.08a.29.29,0,0,0,.23.31l.15.08-.23.22.3.31v.07h-.07c-.15.11-.18.21-.08.3l.15.08h.15l-.3.23c-.05,0,0,.13.23.23l.07.08v.07h-.15c0,.21.13.36.38.46l-.15.08.15.45-.68.15c.05.11.27.2.68.31l-.23.22V50l.68.15v.3l.24.08.68-.08a.41.41,0,0,0-.45-.3V50l.38-.15-.08-.3.08-.31V49l.15-.23-.08-.3.08-.23v-.22l.15-.23V47.6l.08-.23v-.23l.07-.3v-.3l.08-.23-.15-.24.15-.22-.08-.3v-.31c0-.1-.07-.15-.23-.15A1.15,1.15,0,0,0,15.77,45.24Zm-1.83-17c0-.1.05-.15.16-.15A.14.14,0,0,1,13.94,28.28Zm1.3,17.57a1.36,1.36,0,0,0-.92-.23l-.22.08c-.06.1-.06.18,0,.22l.37.08h.31Zm-1.07-.68v.22l.23-.15ZM15.62,8.74l-.54.15h-.45l-.38-.15.15-.08h.68ZM14.47,35l1.07.08.3-.15-.38-.15-.61.07ZM16.3,51.86V51.7l-.61-.07-.3.07-.46-.07-.46.15a1,1,0,0,0,.38.15ZM14.63,9.35l.76-.16.3.16-.54.07Zm0,18.78h.45l.38.08v.07h-.83Zm.07-.46.38-.07.16.15-.23.08Zm.23-.38-.15-.15h.15Zm-.08-15.36.16.15.14.08c.26,0,.33-.08.24-.23l-.31-.07Zm0,38.94.54.15L16,51l-.31-.23a2.24,2.24,0,0,0-.45-.08A.36.36,0,0,0,14.85,50.87Zm.23-22.21a1.28,1.28,0,0,1,.38-.07c.16,0,.23.05.23.15h-.61Zm.07-15h1.07a.22.22,0,0,0,.08-.15s-.05-.1-.15-.15l-.38.07-.53.16ZM16.6,52.24l-1.06-.08h-.3v.15l.3.16a1,1,0,0,0,1-.16ZM15.54,16.72l.38-.07.38.07-.46.15-.3-.07Zm.15,10,.61-.07,1,.07-.38.16h-.84Zm.08-.45,1-.08c0,.16-.17.23-.37.23l-.54-.07Zm1.29,2.58c.05-.15.25-.22.61-.22h.61l.83.07.46.08-1.07.07-.83.16.68.15.15.07.08.08-1.6.08-.45-.08h-.69l-.07-.08v-.07h.53l.53-.08h.23l.3-.07v-.08Zm-1,13.09v-.08h-.23l.08.15H16Zm-.15-14.61.46-.15,1.36.08-.45.15Zm.3,14.91H16l-.08.22.3-.07ZM16,43l.3-.08v-.07a.19.19,0,0,0-.3,0Zm.15.31c-.11,0-.15.1-.15.15s0,.07.15.07h.15l.08-.07c.1-.05.07-.11-.08-.15Zm.3-17.42H16.3l-.23-.15a.22.22,0,0,1,.15-.08.25.25,0,0,1,.23.15Zm2.43,4.94H16.15l-.08.23h.23l.45.08h1.53l.6-.16ZM16.07,44.94l.15.08h.16l.15-.16-.23-.23-.15.15ZM16.15,9.8l1.14-.08.68.16-.61.08-1.21-.08Zm0,34.15h.15l.15-.08-.07-.07h-.23Zm.07.46h.08l-.08-.08Zm.16-16.66.15-.15h2.2l2.13.07-.53.16L19,28l-.08.07.53.08v.08l-1.37.15h-.45l-.23-.08-.76-.07-.08-.08,1.22-.08h.61l-.38-.22-1,.07Zm5.47-7.53a4.1,4.1,0,0,1-2,.15h-3l-.3-.15.3-.08h3.65l1,.08Zm-4-3.5c-.1.15-.41.23-.91.23l-.31-.08c-.1-.1-.07-.17.08-.22h.68Zm-1.22-8,.31-.08h.15c.2,0,.28.08.23.23h-.61Zm0,1.52h2.21l.46-.16.22.16-.15.15h-.53l-1.52-.08Zm1.37.53-.76.15-.3-.15.07-.08h.61ZM17,9.42V9.35l.23-.08-.07.15Zm.08,15.9.61-.16.3.16Zm.08-.54.37-.07.08.15Zm0,1,.76-.15.3.08.08.15Zm.07-13.53h.61c-.1.2-.2.3-.31.3a.83.83,0,0,1-.22-.15Zm0,7h.38l.08.08-.08.07-.38-.07Zm.08-5.85c.05-.16.12-.23.22-.23a.43.43,0,0,1,.31.15c-.05.15-.18.2-.38.15Zm.45-.46h-.23l-.07-.15.07-.08.23.08Zm1,40.38c-.05-.1-.35-.15-.91-.15h-.31l-.07.15.07.08.39.08h.38ZM17.51,11.7h.08l.08.16h-.16Zm.16-.45h.07v.15h-.07Zm.07,15a4.19,4.19,0,0,1,1.6,0c-.1.2-.28.25-.53.15H18.2Zm0,20.23,1.22.08H20c.45,0,.73-.11.83-.31H18.58C18.07,46.23,17.79,46.31,17.74,46.46Zm.16-22.74,1.06.07-.38.08L18,23.79Zm0,.61.38-.16.91.08-.38.16ZM18,46.76l.53.31h.61l.54-.08,1.06-.07v-.16l-2.13-.07ZM18.12,49h2.82v.08l-.69.23c0,.15.13.23.38.23l-.38.3.23.15v.08L19,50.18l-.39.08-.6.15v.08H19l.69-.08.68.15v.08l-.53.08c.1.2.23.3.38.3L19,51.17c-.31,0-.48.08-.53.23l-.08.08,1.52.07-.83.08-.92.15-.15.08v.07l.23.08h.53l3.12.08c.15-.05.23-.11.23-.16s0-.1-.15-.15l-.38-.15.91-.23v-.08l-.61-.15V51.1l.76-.15-.46-.31v-.08l.84-.22v-.08l-.45-.08v-.07l1,.07v.08l-.15.08v.07l.46.15-.16.39.84.07.91-.07-.83-.31-.15-.08.07-.07-.38-.31.84-.3-1.3-.23.77-.15-1.22-.31-.76-.07V49c.4,0,.63-.07.68-.23v-.07l-1-.07H19.34l-.84.07A.36.36,0,0,0,18.12,49ZM18,52.47h.31l.22-.08.31.08.53-.16v-.07l-.46-.08-.38.08h-.22Zm2.13-7.69-.76-.07h-.53l-.61.07c-.2,0-.25.06-.15.16l.45.08h1.22l.38-.08Zm-2.05.69.76.08h1.06c.41,0,.59-.08.53-.23l-.6-.15H18.58Zm0,.45,1.52.15h.76l.46-.22L20,45.7A4.41,4.41,0,0,0,18.05,45.92Zm0,1.52a2.56,2.56,0,0,0,1.44-.07l-1-.15Zm.07-31.25.31-.15A.22.22,0,0,0,18.12,16.19Zm0,28.14v.15l1.6.08a1.1,1.1,0,0,0,.38-.23l-.45-.15Zm0,5.09.46.08a1.86,1.86,0,0,0,1.22-.08,1,1,0,0,0-.69-.23Zm0,.54,1,.07L20,50c-.2-.31-.61-.38-1.22-.23h-.3Zm.08-25.33,1.52.15v.08l-1.52-.08Zm0,17.87,1.37.08a.62.62,0,0,0,.61-.3l-.61-.08h-.76l-.53.22Zm1.75.31-.61-.08h-.76l-.3.08.07.15.3.08h.92l.38-.16Zm1.29,5.25-.84.15-2,.07v.23h3.73c.25,0,.35-.07.3-.23l-.45-.07h-.46Zm-2.74-6h1.3l.68-.15L20,41.74H19c-.31,0-.49.08-.54.23Zm.08-25.94v.08H20.1l-.53-.38.91-.15c0-.15-.13-.23-.38-.23h-.68l-.23.08-.08.38-.3.07Zm0,9.05h1.14l1.07.16-.46.07L19,25.32Zm0,16.2v.15H20.4l.08-.07h.08l.15-.08-.53-.07A3.28,3.28,0,0,0,18.58,41.36Zm0,2.59,1.07.07a.67.67,0,0,0,.6-.22L19,43.72l-.46.15Zm1-33.16-.53.15h-.23c-.1-.1-.08-.17.07-.23h.39ZM24.21,29l.07.3-1.14.23.23.23-1.07.15c-.25,0-.35.08-.3.23l.15.07v.08l-.68.08-.08.22.16.23a1.48,1.48,0,0,0-1,.23l.23.15-.54.15-.38.08.61.31-.53.07-.3.08-.16.23.69.07-.69.15a.36.36,0,0,0-.38.23l.38.08h.61v.07l-.83.08-.39.08c-.1.15,0,.22.23.22l1,.08v.08L19,33.3c-.21,0-.28.08-.23.23l.38.08,1.06.07-.53.08H19l-.16.22.39.16,1.06.07-.46.23v.08l1.45.15v.08l-.46.07V35l.38.16,1,.07h4.26l.3-.15-.23-.15-.91-.08v-.07H27l.38-.31-.69-.08h-.53v-.07l.53-.08a1.23,1.23,0,0,0,.91-.3l-.6-.08-.84-.07.91-.08.61-.15-1.22-.23,1-.07.15-.08.08-.08-.3-.15-1-.15,1.52-.08c-.05-.15-.21-.22-.46-.22l-.76-.08-.38-.08.38-.07h.61l.3-.15V32l-1.36-.23.6-.07.46-.16L26,31.25h.38c.36,0,.56-.08.61-.23v-.08l-1-.07v-.08c.46,0,.71-.1.76-.3l-.53-.15v-.08H27l1.45-.08q-.07-.3-.54-.3H27L26,29.8l1.3-.07.45-.16-1.37-.15-.76-.15.69-.08.3-.07L26.56,29l-.45-.08A4.65,4.65,0,0,0,24.21,29Zm-5.4-17.11.46-.16.3.16a1.23,1.23,0,0,1-.38.07A.86.86,0,0,1,18.81,11.86Zm0,29.2h1.75l.45-.23.08-.08h-1.6A.69.69,0,0,0,18.81,41.06Zm0,2.43H20L20,43.27h-.84Zm0,7.3V51c.46,0,.68-.05.68-.16Zm.07-12.39v.07l.92.15H21c.36,0,.56-.07.61-.22l-.53-.08-1.22-.07Zm0,1.67,1.07.08h1.14l.38-.08.91.08.69-.16-.31-.15-.61-.07H19.72C19.27,39.77,19,39.87,18.88,40.07Zm0,7.83.69.08c0-.2-.08-.31-.23-.31A1,1,0,0,0,18.88,47.9Zm.54-36.65v.22L19,11.4l.08-.23h.15ZM19,25.62l1.14.08c-.05.15-.18.22-.38.22a1.37,1.37,0,0,1-.45-.07L19,25.77ZM19,38.93l.45.15.91.08h3.88l.69-.08-.38-.23-1-.07-.61.07H22l-2.51-.07-.07.07h-.08Zm.07-16c.05-.15.13-.22.23-.22a.82.82,0,0,1,.46.14l.15.08Zm0,.46.38-.15h.61l.3.08-.37.14Zm.08,16,.3.16h.08l.91.07h3.27l1.07-.07.07-.16-.76-.07-3-.08h-1.3Zm2.66,1-1-.15H20.1l-.38.08-.45.07-.08.16h.15l.46.07h1.52ZM20.56,12.31l-.31.23v.3L20.1,13c-.1.2,0,.3.23.3v.08l-.53.23-.15.22-.23.16.07.38v.22l.08.23-.08.38a1.4,1.4,0,0,0,1-.07h.08l-.46-.31.46-.15.07-.15-.38-.23h.31l.3-.08.15-.15-.45-.15v-.08l.45-.15-.3-.3V13.3c.3,0,.46-.05.46-.15a.22.22,0,0,0-.08-.15L21,12.92l-.15-.08.46-.15-.31-.3.23-.38-.07-.08h-.08l.3-.46h-.53l-.23.08-.07.23L20.4,12C20.3,12.11,20.35,12.21,20.56,12.31Zm-1,11.41.53-.08.3.08h.31l.15.07-.38.16-.76-.08Zm3.12.53-.54.16h-2L20,24.25l.07-.08h1.6ZM20.1,53.76l.38.08h.08ZM20.33,48l1.06.08.46-.08a1.48,1.48,0,0,0-1-.23C20.56,47.75,20.38,47.83,20.33,48Zm.15-37.34h.38l-.15-.15A.91.91,0,0,0,20.48,10.64Zm0,14.07h1.45l-.46.15a1.09,1.09,0,0,1-.91-.08Zm.15-13.46c.46,0,.71-.08.76-.23-.45-.1-.71,0-.76.15Zm0,41a.41.41,0,0,0,.46.3l.68-.15-.3-.23Zm.08-30.35.08-.07.22-.08q.31.15,0,.15Zm8.44,11.64v.08l.53.22-.76.15.38.38-.61.16v.07l.46.23-.91.15-.31.23.76.08v.07c-.5,0-.81.08-.91.23l.53.15.46.16L27.55,36l-.38.23h.69l.53.15-1.29.08c0,.15.1.23.3.23l.91.07v.08L27.25,37l-.08.07.54.08.6.15c-.6,0-.93.08-1,.23l.68.15.46.08-.61.23v.07l1,.23-.76.15.76.38-.54.08c0,.1.21.23.61.38v.07c-.35,0-.45.08-.3.23l.3.16-.45.3v.08l.38.15-1,.23c.1.15.35.22.76.22l-.76.16a.72.72,0,0,0,.61.3v.08l-1.3.22a2.44,2.44,0,0,0,1.14.16v.07l-2,.16-1.68-.23c.36,0,.59-.08.69-.23l-.91-.23H22.61l-.91.23-.08.07.76.16-.53.07-.68.23,1.13.23-.83.08-.38.07v.23l.76.08-.3.07q-.61,0-.69.15V43l.84.15-1,.23c.05.15.25.23.61.23v.07l-.38.08c-.15.1-.18.2-.08.3l.23.16-.23.07c.05.16.2.28.46.38l-.31.31.61.23-.15.07a1.11,1.11,0,0,0,.76.46q-.15.07-.15.15a.21.21,0,0,0,.07.15l.15.15.08.23.61.23v.23a3.59,3.59,0,0,0,.46.3l-.23.15.61.31.07.07-.23.31.84.15v.08l-.07.07.3.31h.91l.23-.08v-.07l-.38-.23L26,48l-1-.31.61-.3-.31-.08-.68-.15.61-.07v-.15l-1.3-.23.31-.23v-.15l-.69-.16v-.08l.38-.22L23,45.62l.08-.3-.69-.23.31-.23-.61-.15v-.08c.35,0,.51-.07.46-.22l-.08-.16.61-.15.83.08h.84v.07l-.84.08-.07.08.45.15.76.15c-.15,0-.22.13-.22.23a.21.21,0,0,0,.07.15l.69.15a.35.35,0,0,0-.38.23l.91.3v.08l-.3.15.53.15H27v.08c-.4,0-.66.1-.76.31l.69.15h4.48l1.22-.08v-.15l-.54-.08-.9-.07H29.3l-1.75-.08L27,46.15h4.49l.6-.08-.37-.15-.53-.07H29.46l-1.3-.08.46-.07h2.59l.83-.08.53-.15v-.08l-.83-.07H29.15l-.61-.08.84-.07h3.5l.3-.08L33,44.94h-.76l-1.44-.08h-1l-.76-.08v-.07H32l.31.07.38-.15.76-.07v-.15l-1.75-.08v-.08L33,44.18c.26,0,.4,0,.46-.16l-1.14-.15H30.9l-.76-.07v-.08h1l.38-.08,1,.08.91-.15v-.15H31.28l-.53-.08v-.07h.6l1.45-.08c.35,0,.56-.08.61-.23l-.68-.08-1.45-.07,1.14-.08.61-.07a.35.35,0,0,0-.38-.24l-.84-.07,1.6-.23V42l-1.67-.15v-.08h.76l.76-.07-.08-.16L32,41.29l1.3-.08.38-.15-.3-.15-1.07-.08v-.08l1-.07.3-.08v-.15l-.91-.08,1.22-.22V40l-1.14-.07v-.08l.91-.07.38-.16v-.07l-1.52-.16.61-.07h.6l.31-.15L33.64,39l-1.14-.16,1-.07.3-.16-.3-.15-.84-.07.91-.31-1.06-.23v-.07c.35,0,.55-.08.61-.23v-.08l-1-.15A1.93,1.93,0,0,0,33,37.1L32.35,37,32,36.87V36.8l.77-.23-1-.15.68-.3L32.5,36l-1-.23a2.08,2.08,0,0,0,.91-.23l-1-.23.46-.15.15-.07L31.89,35l-.68-.07v-.08l.9-.23-.9-.15v-.08l.53-.22-1.07-.31q.76,0,.84-.3l-.76-.15H30Zm-8.44,2.81.38.23h.68l2.51.15h.54c-.05-.15-.34-.28-.84-.38H23.9l-1.67-.07H21.09Zm.08-9.81v.08l.53.07.76-.15-.84-.15h-.07Zm.07-18v.15h.46ZM21.47,26l-.3-.08c-.21,0-.31,0-.31.08s.1.25.31.31A1,1,0,0,0,21.47,26Zm-.38,27.3c.15.16.41.18.76.08-.1-.15-.2-.23-.3-.23A.81.81,0,0,0,21.09,53.3Zm.68-17.95v.08a2.51,2.51,0,0,0,1.22.23l.61-.31-.69-.07Zm.08-25.17h.38l.07-.08a.84.84,0,0,0-.22-.14Zm0,.53.3-.07v-.08l-.3.08Zm.08,1.83c0,.2.12.28.37.23l.08-.08c.1-.15,0-.23-.3-.23Zm.3-.53v.23a.36.36,0,0,0,.38-.23Zm2.21,12.77v.08l-.54.3,1,.16-.23.15c-.1.05-.07.13.08.23l.68.22-1.52-.15q.08-.22-.3-.3l-.15-.08L23,25.32l-.23.07-.53.31.68.15-.07.15a.72.72,0,0,0-.46,0,1.81,1.81,0,0,0,.46.23h.23l.3.08-.3.07h-.38l-.08.23.23.07.76.08.91.08.91-.08L27,26.68c0-.15-.16-.23-.46-.23L25,26.31v-.08l.61.08,1,.07.46-.23c0-.15-.1-.27-.31-.38L27,25.7c-.1-.21-.41-.31-.92-.31l.16-.3L25.88,25l-.76-.15v-.08c.25,0,.41-.07.46-.22l-1.3-.15-.38.07-.07.08a.21.21,0,0,0,.07.15l.23.07ZM22.61,38.4c0,.15.15.22.46.22H24l.53-.07L24,38.4Zm.3-20.84.84.15c-.1-.2-.23-.31-.38-.31A.88.88,0,0,0,22.91,17.56ZM23,54v.23h.15v-.16Zm.08-14.07a1.44,1.44,0,0,0,1.06.23h.15l.46-.16-.38-.15ZM23.22,17a.5.5,0,0,0,.45.22,1.18,1.18,0,0,0,.38-.07Zm.07,23.88V41c.16.15.28.23.38.23s.28-.13.38-.38A.77.77,0,0,0,23.29,40.91Zm.08-3.81,1,.08L26,37l-.61-.23H24C23.62,36.8,23.42,36.9,23.37,37.1Zm1.14,3.35v-.08l-.68-.07-.31.15.23.15A1.05,1.05,0,0,0,24.51,40.45ZM24.05,9.5v.22a9.17,9.17,0,0,0,1.6.16A5.21,5.21,0,0,0,27,9.72c-.05-.15-.3-.22-.76-.22Zm.08,42v.07h.38c.66,0,1-.07,1.14-.23h-1Zm.08-41.3,1.67.15.53-.15V10H24.74l-.53.07Zm0,6.85v.15c.1.1.17.15.23.15a.85.85,0,0,0,.3-.3Zm0,25.17.76-.15,1.14.07h1l.61.08.22.08-1.14.07H25.65Zm.07-31.49.92.08.38-.15-.92-.15Zm0,.46.38.08H25V11ZM24.44,9v.15l1.44.16h.91c.46,0,.71-.11.76-.31Zm.15,28.37c.05.15.23.23.53.23h.38l.46-.08c-.05-.15-.31-.23-.76-.23h-.38Zm.15-29.36v.16l.68.14.77-.07.45.07.84-.14-.31-.08-.76-.08-.22.08-.31-.08Zm5.71-4.49-2.29.08-1,.08.23.15L27,4H24.82v.15l3.42.23.38.08h.6l1.91.08,1.14.07H30.06l-.76.08.08.15.3.07h.77l.68.08,3,.08v.07H30v.23l5.62.23-.6.07H32.35L32,5.62l-1.06.07.31.23h1.06l.38.08h3.57l.31.15H33.71l-.91.08v.15l.76.07h1.52l1.75.16-1.22.07H33.34c0,.16.09.23.3.23l.91.08h2.28l.76.15.84-.08.15.08H35.31l-1.14.08v.15l1.37.07,2.05.08h1l.46.15H34.47v.15L35.69,8h2l1.9.15L39,8.21l-1.21-.08-.31.08L36.3,8.13l-1.22.08.31.22h.83l2.51.08L40,8.59l-1.52.07H35.69v.15L36.76,9h3l.92.15v.07H37.06v.16l1.44.15h1.68l1.14.15H38.43l-.61.07-.23.08,1.75.16,1.22.07h.61l.68.15H37.67v.15l1.06.16h1.15l1.21.07h1.07v.08H39.72l-.83.07v.16l1.82.15h1.52l.38.15H39.19l-.23.08v.07l2,.23,1.83.08-1.22.07-1.14-.07-1,.07v.16l1,.15h1.37l1.6.15H39.72v.15l.76.15,1.37.08h1.07l.83.08v.07H40.1v.15l1.3.16,2.13.07.6.08H40.56l-.31.07v.16l1.07.15h2l1.07.08v.07H41.32l-.38.07v.16l1.82.15h1.68v.08l-1.29.07H41.4v.16l2.05.22,1.67.08H42.84l-1,.08c0,.1.1.15.31.15l.53.07,2.66.16-2.59.07a2.47,2.47,0,0,0-.91.23l1.22.08,1.75.07h.83v.08H42.92l-1,.15.83.15,1.75.08,1.22.07v.08H43.3l-1.14.15.45.08.92.08.52.07h2v.08H43.3c-.51,0-.79.07-.84.22V17L43.6,17h1.06L46,17.1l-1.37.08H43.07v.22l.84.16h1.14l1.14.07-1.53.08h-.91l-.08.15.84.16,1.37.07h.84v.08l-2.51.07v.16l2.59.22-1.45.08h-.84a.36.36,0,0,0,.39.3l1,.08.76.07h-2c-.35,0-.56.08-.61.23l.85.16,2.2.07v.08H45.05l-.76.15.45.08,2.06.15v.07l-1.07.08H44.36v.15L47,20.6l-1.9.15.45.16.84.07.38.15-2,.08v.23l1.29.07h.61l.31.08v.07h-1.6c-.3,0-.48.08-.53.23H46L47,22v.08l-.45.08-1.07.07.46.15h.68l.61.16-1.6.15h-.53v.15L46.8,23h.37v.08l-.37.08h-1c-.31,0-.48.08-.53.22l1.13.08,1.68.15L47,23.72H45.5V24L47,24l1.53.15L46,24.25v.16l1.29.07,1.06.15v.08H47l-1.07.15v.08l3,.22-1.9.08h-.54l-.07.23,1.06.07,1.75.08v.08l-1.9.07-.08.08-.22.07V26l1.29.07h.68l.46.08v.08H47.7q-.53,0-.45.15l.45.15,1.83.08v.07H47.78c-.3,0-.48.08-.53.23V27l1.52.07.76.08-.53.08h-.91c-.31,0-.49.07-.54.22l.54.16h1.44v.07l-1.29.08c-.31,0-.43.08-.38.23l.45.07,1.38.08-.31.08h-1l-.38.07v.08c0,.15.1.23.3.23h1.07l.38.07H48.47c-.26,0-.36.11-.31.31l.39.07,1.36.08-1.36.07-.46.16c-.05.15.07.22.38.22H50v.08l-.38.08H48.55c-.26,0-.41.07-.46.23l.83.15h1l-1.21.07-.39.08v.08c0,.15.06.22.31.22h1.29v.08H48.62l-.38.08v.07c-.05.15.07.23.38.23l1.22.08-1.53.22-.07.08,1.75.15-.38.08-.61.08-.45.07.91.31h.3l-1.06.07-.46.15,1.29.31-1.37.15.46.23.91.07-.53.08h-.53l-.23.23v.07l1.45.08-.92.15h-.15l-.38.15v.08l.61.07.53.08v.08h-.83a.6.6,0,0,0-.54.22l1.29.23v.08H48c-.25,0-.35.08-.31.23l.31.15,1,.08-1.07.07-.3.08.23.23h.53l.46.07-.69.08-.83.07-.08.08.3.15.92.08v.08l-1.3.07.08.23.45.07.54.08v.08h-.91c-.2,0-.28.07-.23.22l.23.08.53.15h-.61l-.23.08-.07.23.6.15-.38.08h-.3l-.15.22.61.23-.61.08a.13.13,0,0,0-.15.15s0,.1.15.15h.08l.22.08-.61.15-.07.23.38.15-.53.08c-.16.05-.23.1-.23.15l.15.15.38.08v.07c-.3,0-.48.08-.53.23l.07.23-.3.3.15.16-.38.22v.08l.15.23-.45.15v.23l-.46.46.84-.08.15-.31.23-.22.07-.23.38-.31.08-.15.23-.3.15-.23.23-.23.07-.23.38-.45-.15-.08.53-.23-.23-.3.39-.23v-.07l-.16-.16.38-.3v-.23l.24-.23.07-.23.23-.23v-.3l.38-.23-.08-.22.61-.16-.07-.3.22-.46.31-.23v-.3l.15-.23v-.3l.15-.16v-.37c.25,0,.36-.18.3-.38l-.07-.16.07-.07.08-.31v-.07l.23-.15-.08-.38c.16-.05.23-.21.23-.46v-.08c.15-.05.23-.1.23-.15s-.08-.2-.23-.3l.15-.38-.22-.16.22-.07v-.23l-.07-.08.38-.22-.38-.39h-.08c.31-.15.39-.27.23-.38l-.23-.07c.31,0,.43-.08.39-.23l-.08-.15L51,28.66v-.07c.4,0,.66-.08.76-.23l-.69-.15v-.08l.76-.15c-.1-.2-.4-.31-.91-.31V27.6l.91-.16-1.06-.3.53-.15.15-.08q.15-.15-.15-.15l-.76-.08,1.15-.23-.62-.14-.53-.08v-.08l1.07-.08.08-.15-.92-.15-.38-.07.68-.08.46-.15-.38-.15-.76-.08v-.08l1-.15c-.11-.2-.43-.3-1-.3l1-.23a.71.71,0,0,0-.61-.23h-.53v-.08h.3l.69-.3v-.08l-1.37-.15.53-.07.38-.16-1-.22.54-.08.45-.08-.38-.23H50.3l-.69-.07.61-.15.45-.16v-.07L50,22.27l-.69-.15.46-.15v-.08l-.61-.23.46-.3L49,21.13l.91-.22.08-.08-1-.23.76-.15-.46-.23-.75-.08.6-.07L49.3,20l-.15-.15-.84-.15v-.08l1.15-.15-.39-.15-1-.08v-.08l.68-.07.53-.23-1.06-.23.46-.3-.61-.15a.9.9,0,0,0,.76-.31l-1.07-.15v-.08l.53-.23-.68-.22.46-.23.07-.08-.76-.22.38-.31-.61-.15.76-.3-1-.23.22-.15-.45-.38L47.1,15l-.76-.38q.15-.08.15-.15t-.15-.15l-.46-.15.31-.23v-.16l-.54-.07.23-.38-.46-.15,1.3-.15a7.65,7.65,0,0,1-1.52-.46l.61-.15v-.08l-1-.3.38-.15v-.08l-.91-.15.61-.23v-.15L44,11.17v-.08L44.9,11l.3-.15-.38-.08-1.15-.15v-.08l.54-.15-.84-.31.68-.07.31-.15V9.8l-1.52-.15L44,9.42l-.45-.15-1.3-.08V9.12L42.92,9l.15-.08-.31-.15-1-.15.38-.24.07-.07-.61-.15.61-.31-1.59-.15V7.59l.6-.22-.91-.23.61-.23-.84-.23h-.53l.84-.15.23-.15-.23-.08-.69-.15A.28.28,0,0,0,40,5.77l.38-.23H40l-.61-.07c0,.15-.2.22-.61.22l-.38.08.38.38c-.3.1-.45.18-.45.23v.15l.07.15-.3-.07c.05-.16,0-.28-.23-.38l-.07-.08V6.07l.15-.38V4.93l-.54-.07-1.29-.23.23-.23-.84-.15-1.67-.08L34.25,4V3.87L33,3.64l-1.68-.08,2.21-.07V3.34L33,3.26h-.68l-2-.07H28.09l-.38.07.15.16.45.07h.91Zm-5.56,5v.15l.76.07L27,8.89l.61-.23.08-.07-1.52-.08ZM25,49l.68.07.23.08.23.3.76.23.91.08c.15,0,.23-.13.23-.23l-.23-.08-.61-.07-.38-.16L26.41,49l-.3-.16a4.48,4.48,0,0,0-.69-.07q-.37,0-.45.15Zm.15-13.62.3.23.61.15.46-.15c-.1-.2-.46-.3-1.07-.3Zm.3-14.68.23.08.38-.08.08-.07-.23-.07a.32.32,0,0,0-.46.07Zm0,17.12a.27.27,0,0,0,.31.3l.83.16.39-.16V38l-.54-.16L26,37.79ZM25.5,7.06v.16a1.23,1.23,0,0,0,.53.15.35.35,0,0,0,.38-.31Zm5.1,14c0,.25.25.38.61.38l-.61.07-.23.08c-.05.15,0,.23.15.23h.53l.46.07-.3.08H30.6l-.46.15L29.46,22,29,22.2l.22.22-.6.08-.31.3.69.08h.53l-.61.08-1.14-.08c-.35,0-.56.1-.61.31v.08l.61.14-.38.23.84.23-.38.15.07.23.38.08.77.08-.84.07-.53.08-.54-.23.08-.23-.69-.31.23-.07c-.1-.2-.35-.31-.76-.31l-.3.23.08.08.3.15V24L26,24c-.1.15,0,.26.38.31h.08l-.61.3.68.08.39.23V25c-.05.2.1.31.45.31l.46.07v.08l-.46.07c-.2,0-.25.06-.15.16l.23.07h1.9c.35,0,.56-.07.61-.23l-.77-.07h-.91l.46-.15h1.07L31,25.16,30.22,25l-1.37-.07-.61-.08v-.08l2.81.08c.61,0,1-.1,1.06-.3h-.6l-1.06-.08.45-.15,1.06.08.31-.08c.46,0,.73-.08.84-.23l-1-.08h-.76l-.9-.15h2.2l1.06-.08.08-.07-.53-.15-1.6-.16h2.13l.53-.07.08-.23L34.17,23h-.68L31.81,23H30.9v-.08h3.27c.61,0,.94-.08,1-.22l-2-.24.61-.07h.92v.15l.3-.15.38-.23L33.26,22l-.61-.15v-.23L32,21.44v-.38Zm-4.72.22.68-.07,1.68.07h.61l.15.08-.23.08-.46.07H26.49C26.13,21.51,25.93,21.44,25.88,21.28Zm1.67,18.79c-.15-.3-.53-.38-1.14-.23h-.07l-.38.08V40c-.05.1.07.16.38.16h.76ZM26,12.84l.45-.07a1,1,0,0,1,.76.23l-.61.07-.6-.15Zm0,.54.83-.23.38.07.31.23-.31.3.31.31H27.4l.15.46-.07.23.23.22-.92.08-.38-.15v-.08l.54-.15-.54-.23.15-.15.23-.08-.15-.15-.45-.23.53-.08-.23-.14ZM26,7.59l.08.16.15-.08-.07-.08ZM26,38.4c.16.35.46.45.92.3l.3-.3Zm0,13.08.38.15,1.14-.15-.6-.31A.78.78,0,0,0,26,51.48Zm.08-10.88.68.08c-.3,0-.48.18-.53.38H27v-.23l-.16-.08v-.07l.61-.23v-.08a1.87,1.87,0,0,0-.68-.15A.69.69,0,0,0,26.11,40.6Zm.08-21.52.37.15c.26.1.41,0,.46-.23Zm0,31.79.45.23h1.07L28.92,51c-.1-.16-.35-.23-.76-.23h-.68Zm.07-38.41a.21.21,0,0,1,.15-.07.25.25,0,0,1,.23.15Zm.15,6.32h1.3l.53-.08a1.29,1.29,0,0,0,.38.08.3.3,0,0,0,.3-.23H28l-.46-.08-.38.08C26.72,18.44,26.46,18.52,26.41,18.78Zm0,20.23a1.24,1.24,0,0,0,.46.15.52.52,0,0,0,.38-.15l.08-.08A1.06,1.06,0,0,0,26.41,39Zm.08-31.49c.05.2.13.3.23.3a.21.21,0,0,0,.15-.07L27,7.67Zm0,31.86a.48.48,0,0,0,.46.31,1.36,1.36,0,0,0,.38-.08l.22-.23L27,39.31Zm.15,12.93v.16h.08v-.16ZM26.79,47l.76.15h1.83l1.37.08.46-.08h.3L32,47l-.61-.07-.75-.08-2.67-.08-.45.08-.69.08ZM27,21.82l.76-.08c0,.1-.11.15-.31.15A2,2,0,0,1,27,21.82ZM27,53.07l.38-.15-.3.08Zm.38-27c.1.21.2.31.31.31l.3-.15.15-.16A1.09,1.09,0,0,0,27.4,26.07Zm0,24,.84.15v.08c-.51,0-.79.08-.84.23v.07h1.29a.57.57,0,0,0,.53-.22l-.91-.16.77-.22-.84-.16h-.46Zm.23-2.66v.15l.91.15h3.12l.23-.15.07-.15H30.75l-1.83-.08ZM27.71,12l.3-.15a1.15,1.15,0,0,1,1.07.15l-.77.07Zm.15.38a1.42,1.42,0,0,1,.45-.08,2.11,2.11,0,0,1,.77.15l-.39.16C28.19,12.62,27.91,12.54,27.86,12.39Zm.45.76c-.3,0-.43-.08-.38-.23l.08-.15h.38a1.81,1.81,0,0,1,1.07.23l-.69.15.69.38-.54.15.38.38-.53.15.53.31-1-.08-.07-.23-.08-.3v-.23l-.07-.23Zm-.38-1.6a.48.48,0,0,1,.61-.15l.31.15-.46.08Zm0,9.2c.41.11.69,0,.84-.22-.51-.11-.79-.05-.84.14ZM28.16,2.8l.46.16L29.68,3h4.64V2.88l-1.14-.15H28.92Zm3.5,45.1L31,47.83l-.61.07-.91-.07H28.39l-.23.07.08.16.68.07H30.6l.61.08C31.46,48.11,31.61,48,31.66,47.9ZM28.31,30.64h.84v-.15h-.76l-.08.07Zm.23.38v.15l.54.08.76-.08a.7.7,0,0,0-.46-.23Zm.08,17.34v.15l.84.16.6-.08c0-.15-.12-.23-.38-.23Zm.15-16.73a2.49,2.49,0,0,0,.61.08,2.82,2.82,0,0,0,.68-.08l-.22-.16a.57.57,0,0,0-.62-.07h-.07l-.23.07ZM29,10.49a.62.62,0,0,1,.46-.23.81.81,0,0,1,.45.15H30l.3.15h-.68Zm0,12.85.53-.07.53.07v.07a1.44,1.44,0,0,1-.53.08,1.84,1.84,0,0,1-.53-.08ZM29.08,32c.14.25.42.33.83.23h.31l.15-.23a1.37,1.37,0,0,0-.61-.15,1.34,1.34,0,0,0-.61.15Zm.07-21,.31-.15h.07l1,.15a1.34,1.34,0,0,1-.53.07A6.11,6.11,0,0,1,29.15,11Zm.07-5.17.69-.16-.69.08Zm0,9,.39.08a.87.87,0,0,1,.84.07.48.48,0,0,1-.31.08,3.4,3.4,0,0,1-.61-.08Zm0,18.41,1.15.07.68-.23a1.75,1.75,0,0,0-1.29-.15h-.08A.42.42,0,0,0,29.22,33.23Zm.16-.54.76.08.46-.15-.23-.08a2.6,2.6,0,0,0-.61-.15.35.35,0,0,0-.38.23Zm.08-21.37,1.29.15v.08l-.53.23c.35,0,.58.08.68.23l-.61.23.61.3v.08l-.45.07v.08L31,13l-.31.22v.08l.08.08v.07l-.69.16-.3-.08.15-.31-.15-.3.08-.08h.07l.08-.07-.23-.23.08-.3-.23-.38.07-.08h.16l-.38-.38Zm1.37,2.74h-1l-.08-.15.3-.08C30.52,13.83,30.77,13.91,30.83,14.06Zm-1.07.38a.81.81,0,0,1,.46-.15.43.43,0,0,1,.3.15l.08.08h-.84Zm2.66,8.06-2,.08L30,22.5l-.15-.08.15-.15h.91ZM29.91,44.25v.08l.92-.08h.6l-.53-.07h-.45Zm.84-33.76a.8.8,0,0,1,.76.07Zm0,18.25,1.06.07h1.83l1.37.08h2.58L41.7,29l1.14-.08v-.15l-10.73-.23A2.61,2.61,0,0,0,30.75,28.74Zm.3-17.87.76.15v.23l.3.22-.15.31.39.23-.16.15-.15.08.46.38h-.15l-.24.07v.15l.39.16.07.07L32,13.3l.61.15-.53.38.31.08-.39.38.15.08.08.15-.38.15-.07.08.3.3-.38.08-.07.15.3.07h.76l.31.16-1.37.07-.76-.07.3-.76.08-.31.14-.23L31.28,14l.15-.24-.08-.3.16-.23L31.35,13l.16-.23-.08-.31.16-.3h-.08l-.16-.3.16-.16-.23-.23V11.4l.07-.23-.14-.08Zm.08,10h.22l.31-.16V20.6a.91.91,0,0,0-.23-.15.69.69,0,0,0-.22.15Zm0,8.21c0,.15.2.23.61.23l2.13.08h2.05l.38.07h6.46c0-.2-.28-.3-.68-.3H40L33.64,29,33.26,29Zm.08.69,1.29.07h1l1.44.08H38.2l.91.08h1.45l2.28-.08c0-.15-.15-.23-.46-.23l-1.67-.08-8.9-.07C31.46,29.5,31.25,29.57,31.21,29.73Zm0,21.22q.15.3.3.3l.3-.15.08-.15Zm3.87-36.66.61.23-.61.15v.15l.46.23-.69.08-.3.22.69.08-.61.15h-.08l-.38.31.61.15h-.61l-.3.07-.38.23.76.16v.07h-.69l-.3.15.45.23V17l-.91.07h-.61l.61.3h1.07l.53-.07.23-.38.38-.08.3-.15v-.07q-.15-.15.15-.15a.66.66,0,0,1,.69.07c-.41,0-.54.08-.38.23l.45.23-.91.07-.23.08L35,17.4l.76.08v.08h-.53c-.51,0-.82.07-.92.23l.84.15V18l-.61.07-.3.23.15.15-.53.08H32.5l-.39.15-.22-.08-.38-.15.53-.15a.71.71,0,0,0-.45-.38v-.08c.15-.05.22-.1.22-.15a.21.21,0,0,0-.07-.15l-.15-.08.22-.3-.3-.23.91-.08.38-.15-.15-.15c-.1-.1-.33-.07-.69.08h-.07l-.54-.15.08-.23L31.28,16l1.22-.07-.61.22c0,.21.15.31.46.31l.68-.08.46-.07L33.26,16l.53-.23v-.07l-.08-.15.61-.16L34.25,15l.46-.15v-.15l-.16-.15ZM31.35,50.41l.39.23c.55,0,.88-.08,1-.23l-1-.07ZM31.59,30c0,.1.1.18.3.23h1.22l4.94.15-.46.08H32.27l-.38.15,1.22.15,2.43.08h1.14l.46.07L35.77,31H32.65a.21.21,0,0,0,.23.23l.76.07h1.67l1.29.08-.53.07H32.19l.08.24h.23l.68.07H34l1.29.08h.61l.38.07V32H33.11l-.23.08.15.15.61.07h1.52l.91.08v.08H33.94c-.51,0-.81.1-.91.3l1.06.08h1.22l.69.07-.61.08-1.22-.08c-.36,0-.58.1-.68.31l1.75.15.6.07-.76.08-.76-.08-.45.16v.07l.53.15h.53l1,.08-.61.07h-1l-.45.08v.08l.53.15.53.07,1.07.08H34.78l-.61.31,1.14.07L36,35l-1.6.08.38.3h1.29v.08l-1.52.08.38.3h.38l.91.08-.45.07-.92.08v.15l1.15.15h.38c0,.1,0,.15-.23.15h-.76l-.31.08c0,.15.05.23.31.23l1.21.07V37h-.76c-.3,0-.48.1-.53.31l.91.07.38-.07.16.15-.23.07-1.07.08-.07.15,1.52.23h-.53l-.54.08a.21.21,0,0,0-.15.07,1.86,1.86,0,0,0,.31.23h.83l.23.15H36.3l-.3.08-.08.15.84.15.45-.07.15.38.16.3.07.23.16.23.07.3.15.31.46,1.14.07.23-.22.22.3.23v.31l.08.22-.46.23v.08l.15.08h.23l-.15.22-.08.08-.07.15.3.15-.53.23.45.15-.3.38.08.08v.07L37.9,45l-.15.22-.31.23-.23.38L36.6,46l-.38-.08c-.35,0-.5.08-.45.23l.23.16h.68l-.61.15h-.53v.23l.53.07-.91.23.38.3-.91.23.38.23-.69.23-.07.15.15.08-.53.23q-.3.15,0,.3l-.69.23-.07.15.15.07v.08l-.84.23v.08l.54.15.75-.15.31-.31.53-.15c.1,0,.16-.1.16-.15a1.27,1.27,0,0,0-.16-.23c.35,0,.51-.1.46-.3v-.16a.8.8,0,0,0,.68-.3l-.15-.15.68-.08c.16,0,.23-.12.23-.23s-.07-.1-.23-.15l.69-.3-.15-.23.3-.08.38-.07.15-.38h.23c.31-.1.43-.25.38-.46l.53-.08.16-.07a.91.91,0,0,0-.16-.23l-.07-.08v-.07c.45,0,.63-.08.53-.23l-.08-.15L39,44.86l.61-.3-.31-.23.39-.23.07-.08-.38-.15c.25-.15.36-.28.31-.38l-.15-.07.22-.08.23-.23L39.88,43l-.46-.23c.25,0,.4-.08.46-.23l-.54-.23c.21,0,.25-.1.16-.3l-.24-.15.08-.08c.1-.15,0-.28-.3-.38H39l.08-.15.07-.08c0-.05-.07-.15-.22-.3l-.08-.08-.15-.38-.08-.38-.15-.15-.08-.31-.15-.15-.07-.38L38,38.62l-.15-.15.08-.3-.31-.31h.08v-.3l-.15-.15v-.23l-.23-.31.07-.15-.22-.38q.3,0,.15-.15L37.21,36,37,35.81l.16-.08a.83.83,0,0,0-.16-.22l-.07-.08.07-.15-.22-.38.15-.15-.23-.31.08-.23-.08-.3.23-.15-.15-.31v-.07a.83.83,0,0,0,.22-.15,1,1,0,0,0-.22-.31l.07-.07c.1-.06.15-.11.15-.16l-.15-.3.31-.15V32l-.08-.08.46-.22v-.08l-.08-.16.46-.22.23-.23.76-.15h1l.53.07.15.31v.07l.45.15-.07.24.38.3v.08q-.23.22,0,.3l.3.08-.3.22.61.38-.15.31.07.07v.38l.23.23-.08.23.61.23h.08c.15-.05.23-.13.23-.23a.22.22,0,0,0-.08-.15l-.15-.08.3-.23v-.15l-.07-.15.53-.15c.2-.05.18-.15-.08-.31L43.15,33l.3-.08c.1,0,.15,0,.15-.07a.47.47,0,0,0-.23-.23l-.83-.08-.23-.3v-.08L41.85,32l.15-.15c0-.2-.07-.31-.38-.31V31.4c.05,0,.13-.08.23-.23l-.53-.23-.23-.3-.45-.23.37-.23L40,30Zm.15-20,.45-.15a.88.88,0,0,1,.46-.16.67.67,0,0,1,.53.31l.31.46v.3l.3.23v.07l-.08.08v.15l.08.08.15.07.08.16h-.08l-.15.15a.81.81,0,0,0,.3.15l.16.08v.07l-.31.16.08.15.38.23h-.23l-.08.07c-.09,0-.05.1.16.31v.15l-.38.07.45.31-.53.22.46.31-.46.15-.08.08.31.23-.53.23.07.22-.83.23-.31-.15.23-.3v-.31l.38-.23-.23-.15.23-.31v-.3l.08-.23L33,13l.08-.23L33,12.54a.81.81,0,0,1,.31-.3c-.21-.1-.31-.2-.31-.31l.08-.07.15-.08-.38-.31.15-.15-.38-.23v-.3l-.38-.23.3-.3Zm10.8,18.33L42,28.13H40.41L32.57,28l-.53.15.07.15h.46l1.9.08h5.25l2.13.07ZM32.19,17.63c.06.16.36.23.92.23h.45v-.23l-.45-.07h-.38Zm.31.39-.23.07v.23h.3l.84.08c.2,0,.26-.16.15-.31h-.15ZM33,50l-.23-.16-.53.16V50a.45.45,0,0,0,.38.23.62.62,0,0,0,.23-.08l.08-.07ZM32.57,27.6c.11.15.36.23.77.23l1.82.07L41.4,28l1.36-.15v-.16L42,27.6H37.82l-2.43-.08H33.56Zm.46-.92.38.16h2.13l2.43.07H39.8l.45.08H42l.38-.08.08-.07-.08-.16h-.45l-1.6-.07H38.89l-5.18-.08Zm0,.46.53.15,1.68.08,6.31.07.53-.07v-.15l-.46-.08-3.12-.08H36.3L35.54,27h-1.6Zm3.5-6h-.61l-1.37-.07H34l-.08.22.61.08H36C36.3,21.36,36.48,21.28,36.53,21.13Zm-2.36,5.1.68.15h1.3l1.44.07h3.5l1.22-.07-.15-.31-.38.08H40.64L39,26.07H34.63Zm.08,23.88v.15h.15v-.15ZM34.93,14l.68.07H35Zm.08-.46a.24.24,0,0,1,.23-.15c.1,0,.22.07.37.23Zm0,5.09c0-.15.1-.22.3-.22l.61.07-.38.15Zm.3,7.08.53.15,1.22.07h5.32V25.7L41,25.62H40.1l-2.51-.08Zm.15-.54c0,.16.23.23.54.23h1.14l1.67.08h2.28l1-.08v-.23l-1.75-.07h-3.5Zm.31-9a.3.3,0,0,1,.3-.15.75.75,0,0,1,.31.08h.07ZM36,24.78l1.06.16h1.22l1.06.07.54-.07,1.21.07,1.14-.15-.38-.23h-1l-3.57-.07-.91.07Zm0,14.3c.1.25.35.33.76.23H37c0-.3-.33-.38-.83-.23Zm.07-21.14.23.15L36.15,18Zm.46,27.53h-.31q-.15.08-.15.15a.07.07,0,0,0,.08.08h.23l.07-.08Zm-.23-5.25a2.55,2.55,0,0,0,.61.08,1.69,1.69,0,0,0,.53-.08.49.49,0,0,0-.53-.23h-.15C36.5,40,36.35,40.07,36.3,40.22Zm1-.53a.5.5,0,0,0-.61-.15H36.6l-.22.07c-.05,0,0,.13.22.23Zm.07,1.06v-.22l-.68-.08-.23.15.23.23ZM36.53,45v.15h.15V45Zm.53-.54h-.23c-.2,0-.28.05-.23.15h.31ZM36.68,5.09l.53-.16.23.16v.07l-.23.15-.53-.15Zm.91,36.2c-.1-.21-.33-.31-.68-.31l-.23.08v.23Zm-.91.3a.45.45,0,0,0,.38.23,1.23,1.23,0,0,0,.53-.15h.08l-.53-.16Zm0,2.59.23.07.15-.07.08-.16h-.38Zm.91-2.06L37.06,42l-.23.15.23.16Zm-.76,1.37v.15l.23.08.08-.15-.08-.08Zm.08-1c-.1.11-.08.18.07.23h.16c.15,0,.17-.12.07-.23Zm.45.61V43c-.3,0-.45,0-.45.07Zm4.49-18.78-.45-.16h-.54l-.45-.07H37.59l-.23.15.23.16.84.07h2.13Zm-.3-.61L41,23.64H38.13l-.16.08-.07.07.23.16H41ZM38.2,33.61c0,.15.26.22.61.22l1.52.08.53-.08v-.22l-1.21-.08Zm.08.45.07.23.84.15,2.05-.08-.07-.15L41,34.14l-.45-.08Zm.07-.83.69.15h.68c.41,0,.66-.08.76-.23L39,33.07a.53.53,0,0,0-.61.08Zm.08-.92.53.08.92-.15-.16-.15L39.26,32l-.68.08Zm3.19-8.9c0-.2-.25-.3-.61-.3H39.19l-.69.08v.15l.08.07H39l.53.08h.84ZM38.5,32.77l1.22.08.53-.23-.37-.08h-1l-.39.15Zm.08,2,.61.08H41.4c.2,0,.25-.08.15-.23l-.23-.08h-.46l-1.75-.07C38.81,34.52,38.63,34.62,38.58,34.82Zm0,.46,1.45.15h2.43c-.05-.25-.3-.38-.76-.38H39.42C38.91,35.05,38.63,35.13,38.58,35.28Zm.08-12.62c.1.2.33.3.68.3l.76.07.84-.07c.35,0,.58-.08.68-.23l-.83-.07Zm0,12.85.07.22.31.08.84.08L42,36h1.3l.68-.15-.38-.15-.91-.08H40.41Zm.23-28.29V7.06l.22.16Zm0,24.64h.68v-.15l-.15-.08-.46.08ZM39,36.27l1.6.15h1.75l1.6-.15-.54-.15h-.53L39.57,36A.68.68,0,0,0,39,36.27Zm.08-14,1.82.15h.46l.46-.07-.61-.23H39.72L39,22.2Zm.07,14.3v.15l.39.08.68.07,1.6.08,2.13-.15v-.15L42,36.57Zm.15-14.75a4,4,0,0,0,1.07.15,3.21,3.21,0,0,0,1-.15l-.46-.16-.76-.07A1.17,1.17,0,0,0,39.26,21.82Zm.31-.46,1.29.08c.31,0,.48-.08.54-.23l-.61-.08H40.1C39.8,21.13,39.62,21.21,39.57,21.36Zm0,15.74.08.16h.23l.6.07.92.08h.91l1.14-.08-.3-.23H41.78L40.1,37Zm.46.46v.15l1.67.15h1.06l-.07-.22-.61-.08Zm0,.53c0,.16.2.23.61.23a5,5,0,0,0,1.9-.07l-.61-.16Zm.07-17.34v.16h1.14v-.16Zm0,18,1.07.15h1.14c.4,0,.65-.08.76-.23l-2.21-.15C40.41,38.5,40.15,38.58,40.1,38.78Zm.23-18.56v.15l1.22.08V20.3L41,20.14Zm.31,19,.76.15h1.14l.15-.15v-.07l-.53-.08H41.09Zm0,.38a.49.49,0,0,0,.45.23l1.14-.07-.38-.16Zm.15.69,1.37.07.45-.22-1.29-.08C41,40.07,40.84,40.15,40.79,40.3Zm0,.38a1.14,1.14,0,0,0,.69.3.84.84,0,0,0,.37-.07l.23-.16.08-.07a1.57,1.57,0,0,0-.68-.15A1.87,1.87,0,0,0,40.79,40.68Zm.07-20.92c0,.16,0,.23.15.23s.13,0,.23-.15l.08-.08Zm0,21.37.46.23h.53a.57.57,0,0,0,.53-.23l-.68-.07Zm.31-10.79.61.15h.38l.3-.08q.38,0,.3-.15l-.38-.08-.83-.07-.38.15Zm.07,11.48.54-.08c-.16-.2-.3-.25-.46-.15Zm0,.46h.31c-.1-.26-.18-.31-.23-.16Zm.69-11.64c0,.2.12.3.38.3l1-.15-.61-.15Zm.53.61.23.07h.61l.07-.07a.77.77,0,0,0-.91,0Zm.61.91c-.11.05-.15.1-.15.15s0,.11.15.16l.15-.08h.08l.07-.15-.15-.08Zm.15-.45v.15h.15v-.15Zm.38,3.64h.53c0-.15-.05-.22-.15-.22a.56.56,0,0,0-.23.07Zm.84-24.94c0,.05,0,.08.15.08a.75.75,0,0,0,.31-.08Zm.15,31.94.31-.15-.31.08ZM46,26.45c.45.11.73.06.84-.14a1.28,1.28,0,0,0-.46-.08A.35.35,0,0,0,46,26.45Zm0,.31c.2.26.4.33.61.23l.07-.08v-.07l.08-.08Zm.07.46c0,.25.08.38.23.38a.69.69,0,0,0,.38-.16l.16-.15Zm.08.53v.15h.15v-.15Zm.08,1.14H47a.48.48,0,0,0-.61-.15Zm0,.84q.08.3.3.3A.73.73,0,0,0,46.8,30l.07-.08.08-.15Zm.61,2.2c-.06-.2-.13-.3-.23-.3a.3.3,0,0,0-.23.08c-.15.15-.13.22.07.22Zm-.54-2.66a.13.13,0,0,0,.15.15.56.56,0,0,0,.23-.07l.08-.08Zm.54-16v.08l.37.23a.49.49,0,0,0,.61-.16v-.07Zm.45.45c-.1.06-.15.11-.15.16s0,.1.15.15h.45l.08-.15-.08-.08Zm.3,8.37.38.08h-.38Zm.15.38.54.23-.54-.15Zm0,.61.77.08v.08Zm.16-8.29c0,.2.13.31.23.31a.28.28,0,0,0,.22-.08l.16-.23Zm0,.76h.3l.39-.07-.08-.16a.39.39,0,0,0-.61,0Zm.23.46h.15l.15-.08a.19.19,0,0,0-.08-.15h-.15v.08Z"/><path class="cls-2" d="M75.63,19,75,20.38a3.44,3.44,0,0,0-.38,1.13c0,.2.33.3,1,.3h.13v.45h-3v-.45h.16a1.58,1.58,0,0,0,.8-.15,7.52,7.52,0,0,0,.66-1.27l4.07-9H79L83,20.43a5,5,0,0,0,.67,1.16,1.25,1.25,0,0,0,.76.21h.18v.45H80.33v-.45h.14c.73,0,1.1-.1,1.1-.29a3,3,0,0,0-.33-1.14L80.59,19Zm.25-.59h4.43l-2.2-4.9Z"/><path class="cls-2" d="M95,22.41l-7-9v7a2.27,2.27,0,0,0,.17,1.17,2.05,2.05,0,0,0,1.13.25h.14v.45H85.86v-.45H86c.64,0,1-.12,1.13-.25s.17-.51.17-1.17v-7c0-.66,0-1.05-.17-1.17S86.64,12,86,12h-.15v-.45h2.61l6.42,8.35V13.39a2.17,2.17,0,0,0-.18-1.17A2.12,2.12,0,0,0,93.58,12h-.14v-.45H97V12H96.9a2.15,2.15,0,0,0-1.13.25,2.33,2.33,0,0,0-.17,1.17v9Z"/><path class="cls-2" d="M107,22.26H98.67v-.45h.15a2,2,0,0,0,1.12-.25,2.15,2.15,0,0,0,.18-1.17v-7a2.17,2.17,0,0,0-.18-1.17A2.13,2.13,0,0,0,98.82,12h-.15v-.45h7.91v1.88h-.87v-.14a3.27,3.27,0,0,0-.16-1.08,4.7,4.7,0,0,0-1.26-.08h-2.52v4.3h2.12a3.52,3.52,0,0,0,.86-.06c.1-.05.17-.28.19-.69V15.5h.62v2.36h-.62v-.13c0-.37-.09-.58-.19-.65a2,2,0,0,0-.86-.11h-2.12v3.41a1.66,1.66,0,0,0,.21,1.05,1.86,1.86,0,0,0,1.12.21h1.23a4.64,4.64,0,0,0,1.57-.13c.12-.08.21-.45.24-1.09v-.13H107Z"/><path class="cls-2" d="M126.71,21.81v.45h-4.53v-.45h.14a2,2,0,0,0,1.13-.25,2.3,2.3,0,0,0,.17-1.17v-7a2.33,2.33,0,0,0-.17-1.17,2.15,2.15,0,0,0-1.13-.25h-.14v-.45h4.53V12h-.15a2.15,2.15,0,0,0-1.13.25,2.33,2.33,0,0,0-.17,1.17v7a2.3,2.3,0,0,0,.17,1.17,2,2,0,0,0,1.13.25Z"/><path class="cls-2" d="M142.72,12.09h-1.84a7.56,7.56,0,0,0-1.14.07c-.21,0-.32.2-.32.53s0,.46,0,.64v.15h-.82v-2h9.92v2h-.82v-.15c0-.18,0-.39,0-.64s-.11-.5-.31-.53a7.69,7.69,0,0,0-1.13-.07h-1.85v8.29a2.07,2.07,0,0,0,.19,1.17c.12.14.49.22,1.11.25H146v.45h-4.91v-.45h.33a1.92,1.92,0,0,0,1.12-.25,2.2,2.2,0,0,0,.18-1.17Z"/><path class="cls-2" d="M152.87,17v3.39a2.19,2.19,0,0,0,.17,1.17c.11.13.49.22,1.12.25h.15v.45h-4.53v-.45h.15a2,2,0,0,0,1.12-.25,2.15,2.15,0,0,0,.18-1.17v-7a2.17,2.17,0,0,0-.18-1.17,2.13,2.13,0,0,0-1.12-.25h-.15v-.45h4.53V12h-.15a2.1,2.1,0,0,0-1.12.25,2.21,2.21,0,0,0-.17,1.17v3h5.5v-3a2.17,2.17,0,0,0-.18-1.17,2.15,2.15,0,0,0-1.13-.25h-.14v-.45h4.53V12h-.15a2.1,2.1,0,0,0-1.12.25,2.21,2.21,0,0,0-.17,1.17v7a2.19,2.19,0,0,0,.17,1.17c.11.13.49.22,1.12.25h.15v.45h-4.53v-.45h.14a2.13,2.13,0,0,0,1.14-.24,2.35,2.35,0,0,0,.17-1.18V17Z"/><path class="cls-2" d="M162.92,12v-.45h3.32l3.46,7.83,3.37-7.83H176V12h-.15a2.13,2.13,0,0,0-1.12.25,2.21,2.21,0,0,0-.17,1.17v7a2.19,2.19,0,0,0,.17,1.17,2,2,0,0,0,1.12.25H176v.45h-4.41v-.45h.14c.64,0,1-.12,1.12-.25a2.19,2.19,0,0,0,.17-1.17V13l-3.62,8.41h-.57l-3.58-8.53v7.51a2.3,2.3,0,0,0,.17,1.17,2,2,0,0,0,1.13.25h.15v.45h-3.76v-.45h.15c.63,0,1-.12,1.12-.25a2.15,2.15,0,0,0,.18-1.17v-7a2.33,2.33,0,0,0-.17-1.17,2.15,2.15,0,0,0-1.13-.25Z"/><path class="cls-2" d="M182,21.81v.45h-4.53v-.45h.15a2,2,0,0,0,1.12-.25,2.15,2.15,0,0,0,.18-1.17v-7a2.17,2.17,0,0,0-.18-1.17,2.13,2.13,0,0,0-1.12-.25h-.15v-.45H182V12h-.14a2.15,2.15,0,0,0-1.13.25,2.33,2.33,0,0,0-.17,1.17v7a2.3,2.3,0,0,0,.17,1.17,2,2,0,0,0,1.13.25Z"/><path class="cls-2" d="M188.59,22.53a5.24,5.24,0,0,1-4-1.51,5.76,5.76,0,0,1-1.45-4.13,5.77,5.77,0,0,1,1.45-4.14,6,6,0,0,1,7.94,0A5.73,5.73,0,0,1,194,16.89,5.72,5.72,0,0,1,192.56,21,5.24,5.24,0,0,1,188.59,22.53Zm0-.49a3.16,3.16,0,0,0,2.71-1.36,6.44,6.44,0,0,0,1-3.79,6.42,6.42,0,0,0-1-3.79,3.37,3.37,0,0,0-5.42,0,6.42,6.42,0,0,0-1,3.79,6.44,6.44,0,0,0,1,3.79A3.16,3.16,0,0,0,188.59,22Z"/><path class="cls-2" d="M68.18,12.07H62.82v8.09a2,2,0,0,0,.29,1.35,2.39,2.39,0,0,0,1.38.3v.45h-5v-.45a2.35,2.35,0,0,0,1.37-.3,2,2,0,0,0,.3-1.35V13.65a2.41,2.41,0,0,0-.3-1.47c-.2-.2-.65-.17-1.37-.19v-.48h12V12c-.71,0-1.17,0-1.37.19a2.41,2.41,0,0,0-.3,1.47v6.51a2,2,0,0,0,.3,1.35,2.37,2.37,0,0,0,1.37.3v.45h-5v-.45a2.26,2.26,0,0,0,1.36-.3,2,2,0,0,0,.3-1.35Z"/><path class="cls-2" d="M117.21,12.07h-5.36v8.09a2.1,2.1,0,0,0,.29,1.35,2.39,2.39,0,0,0,1.38.3v.45h-5v-.45a2.39,2.39,0,0,0,1.38-.3,2,2,0,0,0,.29-1.35V13.65a2.42,2.42,0,0,0-.29-1.47c-.2-.2-.66-.17-1.38-.19v-.48h12V12c-.72,0-1.17,0-1.37.19a2.41,2.41,0,0,0-.3,1.47v6.51a2,2,0,0,0,.3,1.35,2.35,2.35,0,0,0,1.37.3v.45h-5v-.45a2.26,2.26,0,0,0,1.36-.3,2,2,0,0,0,.3-1.35Z"/><path class="cls-2" d="M128.39,11.52h8.77v2.7h-.46a3.16,3.16,0,0,0-.29-1.22,1.5,1.5,0,0,0-.63-.62,3.28,3.28,0,0,0-1.27-.19h-3.69l3.52,4.2-4,4.4h4.38a4,4,0,0,0,1.83-.23c.42-.24.38-.74.56-1.58h.46v3.28h-9.18v-.45l4.44-4.71L128.39,12Z"/><path class="cls-2" d="M65.71,40.9l-1.42,2.75a6.39,6.39,0,0,0-.82,2.16c0,.39.71.59,2.14.59h.27v.86H59.5V46.4l.35,0a3.35,3.35,0,0,0,1.7-.3,14.1,14.1,0,0,0,1.39-2.43l8.67-17.29h1.15l8.62,17.39A10.07,10.07,0,0,0,82.81,46a2.78,2.78,0,0,0,1.63.41l.38,0v.86H75.7V46.4H76c1.55,0,2.33-.19,2.33-.56a5.29,5.29,0,0,0-.7-2.19L76.25,40.9Zm.53-1.13h9.41L71,30.37Z"/><path class="cls-2" d="M95.76,46.4v.86H86.13V46.4l.31,0a4.59,4.59,0,0,0,2.38-.48c.25-.24.38-1,.38-2.25V30.24c0-1.26-.13-2-.38-2.25a4.74,4.74,0,0,0-2.38-.47l-.31,0v-.87h9.63v.87l-.32,0a4.73,4.73,0,0,0-2.39.47,4,4,0,0,0-.37,2.25V43.65a4,4,0,0,0,.37,2.25,4.58,4.58,0,0,0,2.39.48Z"/><path class="cls-2" d="M118.38,40.9,117,43.65a6.63,6.63,0,0,0-.82,2.16c0,.39.72.59,2.15.59h.26v.86h-6.37V46.4l.35,0a3.38,3.38,0,0,0,1.7-.3,14.44,14.44,0,0,0,1.38-2.43l8.67-17.29h1.16l8.62,17.39A9.7,9.7,0,0,0,135.49,46a2.71,2.71,0,0,0,1.62.41l.38,0v.86h-9.11V46.4h.3c1.55,0,2.32-.19,2.32-.56a5.15,5.15,0,0,0-.7-2.19l-1.37-2.75Zm.54-1.13h9.41l-4.67-9.4Z"/><path class="cls-2" d="M148.35,46.4v.86h-9.63V46.4l.32,0a4.59,4.59,0,0,0,2.38-.48c.25-.24.37-1,.37-2.25V30.24c0-1.26-.12-2-.37-2.25a4.74,4.74,0,0,0-2.38-.47l-.32,0v-.87h9.63v.87l-.31,0a4.73,4.73,0,0,0-2.39.47c-.25.24-.37,1-.37,2.25V43.65c0,1.26.12,2,.37,2.25a4.58,4.58,0,0,0,2.39.48Z"/><path class="cls-2" d="M161.44,47.78q-5.35,0-8.44-2.9a10.4,10.4,0,0,1-3.08-7.94A10.38,10.38,0,0,1,153,29c2.06-1.94,4.87-2.9,8.44-2.9s6.37,1,8.43,2.9A10.38,10.38,0,0,1,173,36.94a10.4,10.4,0,0,1-3.08,7.94Q166.78,47.78,161.44,47.78Zm0-.94a6.94,6.94,0,0,0,5.75-2.62A11.45,11.45,0,0,0,169.26,37a11.5,11.5,0,0,0-2.07-7.28,7.61,7.61,0,0,0-11.51,0A11.5,11.5,0,0,0,153.61,37a11.45,11.45,0,0,0,2.07,7.27A7,7,0,0,0,161.44,46.84Z"/><path class="cls-2" d="M180.61,38.11,175,30.32a32.42,32.42,0,0,0-2-2.6,5,5,0,0,0-1.71-.2l-.33,0v-.87h9.53v.87h-.33c-1.58,0-2.37.15-2.39.45a6.94,6.94,0,0,0,1.36,2.38l4.6,6.5,4.8-6.48A7.21,7.21,0,0,0,190,28c0-.31-.77-.47-2.3-.47h-.3v-.87H194v.87l-.31,0a5.39,5.39,0,0,0-1.87.26,26.16,26.16,0,0,0-2,2.54l-5.72,7.79v5.54c0,1.27.11,2,.35,2.25a4.82,4.82,0,0,0,2.4.48l.32,0v.86h-9.63V46.4l.3,0a4.84,4.84,0,0,0,2.41-.48q.36-.34.36-2.25Z"/><path class="cls-2" d="M117,26.63v4.82h-.66a4.2,4.2,0,0,0-.74-2.34A2.92,2.92,0,0,0,114,28a12.36,12.36,0,0,0-2.79-.23h-6.89V43.2c0,1.36,0,2.35.4,2.72s1.61.44,3.12.48v.86H97.26v-.87c1.53,0,2.72-.11,3.15-.47s.4-1.36.4-2.72V30.69c0-1.36-.09-2.4-.52-2.76s-1.5-.39-3-.43v-.87Z"/></g></g></svg>