<svg xmlns="http://www.w3.org/2000/svg" xmlns:xlink="http://www.w3.org/1999/xlink" viewBox="0 0 110 130"><defs><style>.cls-1{fill:none;}.cls-2{fill:#f3b693;}.cls-3{clip-path:url(#clip-path);}.cls-4{fill:#db9775;}.cls-5{fill:#004587;}.cls-6{fill:#3397ff;}</style><clipPath id="clip-path"><path class="cls-1" d="M69.34,105.82c-11.39-7.54-28.47-7.54-39.86,0C40.87,98.28,45.53,87,40.36,79.41c5.17,7.55,12.93,7.55,18.11,0C53.29,87,58,98.28,69.34,105.82Z"/></clipPath></defs><g id="Layer_2" data-name="Layer 2"><g id="Layer_1-2" data-name="Layer 1"><path class="cls-2" d="M69.34,105.82c-11.39-7.54-28.47-7.54-39.86,0C40.87,98.28,45.53,87,40.36,79.41c5.17,7.55,12.93,7.55,18.11,0C53.29,87,58,98.28,69.34,105.82Z"/><g class="cls-3"><path class="cls-4" d="M52.5,95.24c7,0,24.8-13.56,24.8-27.81,0,0-.27-6.77,0-11.3,1-16.69-11.1-25.79-24.8-25.79h0c-13.7,0-25.37,9.74-24.8,25.79.21,5.84,0,11.3,0,11.3C27.7,81.68,45.46,95.24,52.5,95.24Z"/></g><path class="cls-5" d="M26.13,27.45c5.78-7.9,33.79-13.68,41.08,8.53,2.84,8.7,3.25,16.82,1.26,22.26-2.39,6.54-13.26,12.21-20.95,14.59-14.09,4.36-22.63-3-28-10.14C11.05,51.33,12.38,29.88,26.13,27.45Z"/><path class="cls-2" d="M71.18,56.14a2.25,2.25,0,0,1-2.65,1.07l-2.35-9.1s1.77-3.1,4.46-1C72.52,48.67,72,54.24,71.18,56.14Z"/><path class="cls-2" d="M18.64,67.65a2.25,2.25,0,0,0,2.86-.13l-1.67-9.25s-2.91-2.08-4.45,1C14.3,61.43,17.07,66.28,18.64,67.65Z"/><path class="cls-2" d="M51.16,90.92C58,89.42,72.48,72.36,69.43,58.45c0,0-1.71-6.56-2.42-11C64.41,30.9,50.64,24.59,37.27,27.52h0C23.89,30.45,14.57,42.46,18.56,58c1.46,5.67,2.42,11,2.42,11C24,83,44.28,92.43,51.16,90.92Z"/><path class="cls-5" d="M67.21,48.59C63.75,37.56,56,30.19,37.4,34.65c-19.11,4.6-18.55,24.53-18.55,24.53S16,53,18.05,44.06c1.79-7.86,8.89-13.64,16.2-16s20.51-2.82,26.92,5A26.45,26.45,0,0,1,67.21,48.59Z"/><path class="cls-6" d="M83,104.29,60,96.92a34.77,34.77,0,0,1-21.12,0l-23,7.37A19.39,19.39,0,0,0,3.38,116.41L0,126.12S26.19,130,49.71,130s49.11-3.88,49.11-3.88l-3.37-9.71A19.43,19.43,0,0,0,83,104.29Z"/><path class="cls-5" d="M88.49,33.93a4.32,4.32,0,1,1,8.39,2,4.32,4.32,0,1,1-8.39-2Zm14.78-22.84a4.36,4.36,0,0,0-3.51-5.61A8.13,8.13,0,0,0,93.26,7l-2.82-4.2A13.93,13.93,0,0,1,101.84.37c5.89,1.44,9.3,5.68,7.81,11.8-1.75,7.17-11.14,7.58-12.12,15l-5.7-1.39C92.66,17.3,102,16.19,103.27,11.09Z"/></g></g></svg>